<svg xmlns="http://www.w3.org/2000/svg" width="51" height="51">
    <defs>
        <clipPath id="clip-path">
            <path id="Rectangle_2672" data-name="Rectangle 2672" transform="translate(360 2656)" style="fill:#fff;stroke:#707070" d="M0 0h51v51H0z"/>
        </clipPath>
        <style>
            .cls-3{fill:#f23d46}.cls-4{fill:#21212d}
        </style>
    </defs>
    <g id="Mask_Group_39" data-name="Mask Group 39" transform="translate(-360 -2656)" style="clip-path:url(#clip-path)">
        <g id="msegslogo_2" data-name="msegslogo 2" transform="translate(359.331 2657.034)">
            <g id="Group_379" data-name="Group 379">
                <path id="Path_701" data-name="Path 701" class="cls-3" d="M40.486 9.589h-4.868a13.72 13.72 0 0 0-19.8-1.548c-.023.023-.054.047-.078.07a1.292 1.292 0 0 0-.109.1 13.608 13.608 0 0 0-4.184 7.543 13 13 0 0 0-.226 2.473.685.685 0 0 1 .016.132l.016.529A12.4 12.4 0 0 0 11.5 21h.008l.023.008a13.62 13.62 0 0 0 1.011 3.064l-.031-.008a13.7 13.7 0 0 0 6.416 6.548 13.468 13.468 0 0 0 5.14 1.361l1.493 4.091-.537.016a18.5 18.5 0 0 1-1.641-.07A17.8 17.8 0 0 1 7.2 19.216a.677.677 0 0 1-.039-.148l-.023-.715a17.784 17.784 0 0 1 3.344-10.46c.179-.226.358-.467.537-.7A17.834 17.834 0 0 1 24.1.513c.023-.008.054-.008.078-.016.109.003.222-.007.322-.015h.4a17.728 17.728 0 0 1 15.586 9.107z"/>
                <path id="Path_702" data-name="Path 702" class="cls-3" d="M27.965 33.969v-3.142a.513.513 0 0 1 .513-.513h9.729a.513.513 0 0 1 .513.513v3.142a.513.513 0 0 1-.513.513h-9.721a.51.51 0 0 1-.521-.513z"/>
                <path id="Path_703" data-name="Path 703" class="cls-3" d="M43.324 12.124H23.47a1.953 1.953 0 0 0-1.952 1.952V27.32a.68.68 0 0 0 .682.68h22.49a.5.5 0 0 0 .51-.5V14a1.88 1.88 0 0 0-1.876-1.876zm-2.3 11.214a.5.5 0 0 1-.505.5H26.184a.491.491 0 0 1-.5-.5v-6.525a.5.5 0 0 1 .5-.505h14.325a.5.5 0 0 1 .505.505v6.525z"/>
            </g>
            <g id="Group_380" data-name="Group 380">
                <path id="Path_704" data-name="Path 704" class="cls-4" d="M.669 37.865h3.01l2.94 7.248 2.909-7.248h2.994v10.468H9.97v-6.276l-2.341 6.276H5.568l-2.356-6.292v6.291H.669z"/>
                <path id="Path_705" data-name="Path 705" class="cls-4" d="M18.135 48.434c-2.247 0-4.013-1.12-4.083-3.235h2.714a1.2 1.2 0 0 0 1.3 1.19c.747 0 1.221-.373 1.221-.988 0-1.936-5.234-.894-5.2-4.6 0-1.983 1.625-3.087 3.818-3.087 2.279 0 3.818 1.135 3.919 3.134h-2.763a1.135 1.135 0 0 0-1.205-1.089.925.925 0 0 0-1.073.957c0 1.82 5.172 1 5.172 4.5-.001 1.756-1.37 3.218-3.82 3.218z"/>
                <path id="Path_706" data-name="Path 706" class="cls-4" d="M27.219 48.449a4.015 4.015 0 0 1-4.207-4.277 4 4 0 0 1 4.207-4.277 3.918 3.918 0 0 1 4.145 4.145 6.205 6.205 0 0 1-.047.747h-5.77a1.54 1.54 0 0 0 1.579 1.594 1.358 1.358 0 0 0 1.33-.809h2.714a3.892 3.892 0 0 1-3.951 2.877zm-1.656-5.086h3.188a1.437 1.437 0 0 0-1.563-1.431 1.577 1.577 0 0 0-1.626 1.431z"/>
                <path id="Path_707" data-name="Path 707" class="cls-4" d="M42.469 41.17h-2.815a2.2 2.2 0 0 0-2.061-1.07 2.689 2.689 0 0 0-2.73 2.979 2.76 2.76 0 0 0 2.94 3.072 2.506 2.506 0 0 0 2.535-1.851H37.1v-1.886h5.545v2.38a5.123 5.123 0 0 1-5.037 3.606 5.106 5.106 0 0 1-5.335-5.327 5.106 5.106 0 0 1 5.327-5.332 4.645 4.645 0 0 1 4.869 3.429z"/>
                <path id="Path_708" data-name="Path 708" class="cls-4" d="M47.85 48.434c-2.247 0-4.013-1.12-4.083-3.235h2.714a1.2 1.2 0 0 0 1.3 1.19c.747 0 1.221-.373 1.221-.988 0-1.936-5.234-.894-5.2-4.6 0-1.983 1.625-3.087 3.818-3.087 2.279 0 3.818 1.135 3.919 3.134h-2.763a1.135 1.135 0 0 0-1.205-1.089.925.925 0 0 0-1.073.957c0 1.82 5.172 1 5.172 4.5-.001 1.756-1.378 3.218-3.82 3.218z"/>
            </g>
        </g>
    </g>
</svg>
