<svg xmlns="http://www.w3.org/2000/svg" width="50" height="50">
    <defs>
        <clipPath id="a">
            <path data-name="Rectangle 10031" transform="translate(637 486)" style="fill:#fff;stroke:#707070" d="M0 0h50v50H0z"/>
        </clipPath>
    </defs>
    <g data-name="Mask Group 67" transform="translate(-637 -486)" style="clip-path:url(#a)">
        <path data-name="Path 1353" d="M678.627 486h-33.261a8.257 8.257 0 0 0-8.261 8.261v33.478a8.257 8.257 0 0 0 8.261 8.261h33.478a8 8 0 0 0 8.043-8.478v-33.261a8.257 8.257 0 0 0-8.26-8.261zm6.091 41.522a6.076 6.076 0 0 1-6.091 6.091h-33.261a6.076 6.076 0 0 1-6.087-6.087v-33.265a6.076 6.076 0 0 1 6.087-6.087h33.261a6.076 6.076 0 0 1 6.091 6.087z"/>
        <path data-name="Path 1354" d="M652.105 517.522h2.391l-4.565 8.261-.217.217-.435.435c-.217 0-.652.217-.87 0a1.247 1.247 0 0 1-.434-1.522z"/>
        <path data-name="Path 1355" d="M666.235 496.652c0 .217 0 .217-.217.435l-3.261 5.652-1.304 2.174-1.3 2.174-3.043 6.087-1.092 2.174h-2.609l1.087-2.174 4.565-8.261 1.3-2.174 1.3-2.174L664.27 496a1.247 1.247 0 0 1 1.522-.435 1.661 1.661 0 0 1 .443 1.087z"/>
        <path data-name="Path 1356" d="m662.975 502.739-1.305 2.174-1.087-2.174-3.478-5.652a1.344 1.344 0 0 1 .435-1.522 1.146 1.146 0 0 1 1.522.435l2.609 4.565 1.3 2.174z"/>
        <path data-name="Path 1357" d="M674.931 526.435c-.217.217-.652 0-.87 0a.98.98 0 0 1-.652-.652l-6.091-10.435-1.3-2.174-3.478-6.087 1.304-2.174 4.783 8.261 1.3 2.174 5.439 9.565a1.247 1.247 0 0 1-.435 1.522z"/>
        <path data-name="Path 1358" d="m663.627 513.174 1.3 2.174h-20.209a1.027 1.027 0 0 1-1.087-1.087c0-.217.217-.652.435-.652a1.661 1.661 0 0 1 1.087-.435h18.474z"/>
        <path data-name="Path 1359" d="M679.061 514.261a1.027 1.027 0 0 1-1.087 1.087h-10.656l-1.087-2.174h11.744a1.027 1.027 0 0 1 1.086 1.087z"/>
    </g>
</svg>
