<svg xmlns="http://www.w3.org/2000/svg" width="50" height="50" viewBox="0 0 50 50">
    <defs>
        <clipPath id="0zxugbhcba">
            <path data-name="Rectangle 10031" transform="translate(637 486)" style="fill:#fff;stroke:#707070" d="M0 0h50v50H0z"/>
        </clipPath>
    </defs>
    <g data-name="Group 1050">
        <g data-name="Mask Group 67" transform="translate(-637 -486)" style="clip-path:url(#0zxugbhcba)">
            <path data-name="Path 1353" d="M678.627 486h-33.261a8.257 8.257 0 0 0-8.261 8.261v33.478a8.257 8.257 0 0 0 8.261 8.261h33.478a8 8 0 0 0 8.043-8.478v-33.261a8.257 8.257 0 0 0-8.26-8.261zm6.091 41.522a6.076 6.076 0 0 1-6.091 6.091h-33.261a6.076 6.076 0 0 1-6.087-6.087v-33.265a6.076 6.076 0 0 1 6.087-6.087h33.261a6.076 6.076 0 0 1 6.091 6.087z"/>
        </g>
        <path data-name="Icon feather-phone-call" d="M19.631 6.59a6.362 6.362 0 0 1 5.026 5.026M19.631 1.5a11.452 11.452 0 0 1 10.116 10.1m-1.273 10.157v3.817A2.545 2.545 0 0 1 25.7 28.12a25.182 25.182 0 0 1-10.981-3.906 24.813 24.813 0 0 1-7.635-7.635A25.182 25.182 0 0 1 3.178 5.546 2.545 2.545 0 0 1 5.71 2.772h3.818a2.545 2.545 0 0 1 2.545 2.189 16.338 16.338 0 0 0 .891 3.576 2.545 2.545 0 0 1-.573 2.685l-1.616 1.616a20.359 20.359 0 0 0 7.635 7.635l1.616-1.616a2.545 2.545 0 0 1 2.685-.573 16.338 16.338 0 0 0 3.576.891 2.545 2.545 0 0 1 2.187 2.582z" transform="translate(8.332 10)" style="fill:none;stroke:#000;stroke-linecap:round;stroke-linejoin:round;stroke-width:2.4px"/>
    </g>
</svg>
