<svg xmlns="http://www.w3.org/2000/svg" width="48" height="48" viewBox="0 0 48 48">
    <g data-name="Group 1033">
        <path data-name="Ellipse 137" d="M24 3.692A20.308 20.308 0 0 0 9.64 38.36 20.308 20.308 0 1 0 38.36 9.64 20.175 20.175 0 0 0 24 3.692M24 0A24 24 0 1 1 0 24 24 24 0 0 1 24 0z" style="fill:#f8f8f8"/>
        <path data-name="Path 1348" d="M1.476-9.624A3.15 3.15 0 0 1-.8-10.492a2.871 2.871 0 0 1-.9-2.16 2.871 2.871 0 0 1 .9-2.16 3.15 3.15 0 0 1 2.271-.868 3.15 3.15 0 0 1 2.271.868 2.871 2.871 0 0 1 .9 2.16 2.871 2.871 0 0 1-.9 2.16 3.15 3.15 0 0 1-2.266.868zm2.548 2.437v20.459h-5.17V-7.187z" transform="translate(22.561 23.654)" style="fill:#f8f8f8"/>
    </g>
</svg>
