<svg xmlns="http://www.w3.org/2000/svg" width="272.2" height="52">
    <defs>
        <style>
            .cls-4{fill:#2d9735}
        </style>
    </defs>
    <g id="Group_480" data-name="Group 480" transform="translate(-362 -7)">
        <path id="Path_835" data-name="Path 835" d="M5.592-13.56v3.408h5.5v3.168h-5.5v3.7h6.216V0H1.488v-16.848h10.32v3.288zm27.12.024a5.3 5.3 0 0 1 3.972 1.512 5.757 5.757 0 0 1 1.476 4.2V0h-4.08v-7.272a2.767 2.767 0 0 0-.684-2 2.5 2.5 0 0 0-1.884-.708 2.5 2.5 0 0 0-1.884.708 2.767 2.767 0 0 0-.684 2V0h-4.08v-7.272a2.767 2.767 0 0 0-.684-2 2.5 2.5 0 0 0-1.88-.712 2.5 2.5 0 0 0-1.884.708 2.767 2.767 0 0 0-.684 2V0h-4.1v-13.392h4.1v1.68a4.393 4.393 0 0 1 1.632-1.332 5.131 5.131 0 0 1 2.28-.492 5.546 5.546 0 0 1 2.7.648A4.645 4.645 0 0 1 28.2-11.04a5.4 5.4 0 0 1 1.9-1.8 5.123 5.123 0 0 1 2.612-.696zM46.3-11.5a4.455 4.455 0 0 1 1.656-1.512 5.084 5.084 0 0 1 2.472-.576 5.545 5.545 0 0 1 3 .84 5.818 5.818 0 0 1 2.124 2.4 8 8 0 0 1 .78 3.624 8.08 8.08 0 0 1-.78 3.636A5.887 5.887 0 0 1 53.424-.66a5.487 5.487 0 0 1-3 .852 5.1 5.1 0 0 1-2.46-.576A4.51 4.51 0 0 1 46.3-1.872v8.256h-4.1v-19.776h4.1zm5.852 4.78a3.313 3.313 0 0 0-.852-2.412 2.814 2.814 0 0 0-2.1-.876 2.768 2.768 0 0 0-2.076.888 3.355 3.355 0 0 0-.852 2.42 3.355 3.355 0 0 0 .852 2.424 2.768 2.768 0 0 0 2.076.888 2.789 2.789 0 0 0 2.088-.9 3.37 3.37 0 0 0 .864-2.432zm11.592-6.84v3.408h5.5v3.168h-5.5v3.7h6.216V0H59.64v-16.848h10.32v3.288zM81.7 0l-2.572-3.72L76.968 0h-4.44l4.416-6.84-4.536-6.552h4.608l2.568 3.7 2.16-3.7h4.44L81.7-6.648 86.3 0z" transform="translate(426 33)" style="fill:#212120"/>
        <path id="Path_836" data-name="Path 836" d="M2.268-7.236v2.448h2.88v1.116h-2.88v2.556h3.24V0H.9v-8.352h4.608v1.116zm13.5.516a2.965 2.965 0 0 1 1.4.324 2.341 2.341 0 0 1 .972.96 3.114 3.114 0 0 1 .352 1.536V0h-1.356v-3.7a1.919 1.919 0 0 0-.444-1.362 1.58 1.58 0 0 0-1.212-.474 1.6 1.6 0 0 0-1.218.474 1.9 1.9 0 0 0-.45 1.362V0h-1.356v-3.7a1.919 1.919 0 0 0-.444-1.362 1.58 1.58 0 0 0-1.212-.47 1.6 1.6 0 0 0-1.218.474 1.9 1.9 0 0 0-.45 1.358V0H7.764v-6.612h1.368v.756a2.274 2.274 0 0 1 .852-.636 2.7 2.7 0 0 1 1.1-.228 2.939 2.939 0 0 1 1.416.336 2.3 2.3 0 0 1 .96.972 2.218 2.218 0 0 1 .936-.954 2.768 2.768 0 0 1 1.372-.354zm6.408 1.08a2.78 2.78 0 0 1 .948-.768 2.9 2.9 0 0 1 1.356-.312 3.022 3.022 0 0 1 1.578.426A2.993 2.993 0 0 1 27.18-5.1a3.7 3.7 0 0 1 .408 1.764 3.811 3.811 0 0 1-.408 1.782A3.049 3.049 0 0 1 26.058-.33a2.959 2.959 0 0 1-1.578.438A2.869 2.869 0 0 1 23.136-.2a3.012 3.012 0 0 1-.96-.762v4.1h-1.368v-9.75h1.368zm4.02 2.3a2.36 2.36 0 0 0-.282-1.182 1.933 1.933 0 0 0-.744-.756 2 2 0 0 0-.99-.258 1.941 1.941 0 0 0-.978.264 1.966 1.966 0 0 0-.744.768 2.394 2.394 0 0 0-.282 1.188 2.428 2.428 0 0 0 .282 1.194 1.956 1.956 0 0 0 .744.774 1.941 1.941 0 0 0 .978.264 1.93 1.93 0 0 0 .99-.27 1.99 1.99 0 0 0 .744-.786 2.463 2.463 0 0 0 .286-1.196zm4.692-5.54V0H29.52v-8.88zM36.132.108a3.386 3.386 0 0 1-1.692-.426 3.06 3.06 0 0 1-1.188-1.2 3.62 3.62 0 0 1-.432-1.794 3.55 3.55 0 0 1 .444-1.788 3.067 3.067 0 0 1 1.212-1.2 3.517 3.517 0 0 1 1.716-.42 3.517 3.517 0 0 1 1.716.42 3.067 3.067 0 0 1 1.212 1.2 3.55 3.55 0 0 1 .444 1.788 3.477 3.477 0 0 1-.456 1.788 3.157 3.157 0 0 1-1.242 1.206 3.58 3.58 0 0 1-1.734.426zm0-1.188a2.036 2.036 0 0 0 .99-.252 1.92 1.92 0 0 0 .75-.756 2.431 2.431 0 0 0 .288-1.224 2.481 2.481 0 0 0-.276-1.218 1.863 1.863 0 0 0-.732-.75 2 2 0 0 0-.984-.252 1.968 1.968 0 0 0-.978.252 1.8 1.8 0 0 0-.714.75 2.574 2.574 0 0 0-.264 1.218 2.32 2.32 0 0 0 .546 1.65 1.8 1.8 0 0 0 1.374.582zm11.316-5.532-4.056 9.72h-1.416L43.32-.108l-2.6-6.5h1.52l1.86 5.04 1.932-5.04zm9.612-.108a2.965 2.965 0 0 1 1.4.324 2.341 2.341 0 0 1 .972.96 3.114 3.114 0 0 1 .352 1.536V0h-1.356v-3.7a1.919 1.919 0 0 0-.444-1.362 1.58 1.58 0 0 0-1.212-.474 1.6 1.6 0 0 0-1.218.474A1.9 1.9 0 0 0 55.1-3.7V0h-1.352v-3.7a1.919 1.919 0 0 0-.448-1.358 1.58 1.58 0 0 0-1.212-.474 1.6 1.6 0 0 0-1.218.474 1.9 1.9 0 0 0-.45 1.362V0h-1.364v-6.612h1.368v.756a2.274 2.274 0 0 1 .852-.636 2.7 2.7 0 0 1 1.1-.228 2.939 2.939 0 0 1 1.416.336 2.3 2.3 0 0 1 .96.972 2.218 2.218 0 0 1 .936-.954 2.768 2.768 0 0 1 1.372-.354zm11.1 3.252a4.276 4.276 0 0 1-.048.672H63.06a1.835 1.835 0 0 0 .588 1.272 1.856 1.856 0 0 0 1.3.48 1.6 1.6 0 0 0 1.56-.924h1.472a2.978 2.978 0 0 1-1.086 1.494 3.186 3.186 0 0 1-1.95.582 3.377 3.377 0 0 1-1.7-.426 3.031 3.031 0 0 1-1.176-1.2 3.661 3.661 0 0 1-.426-1.794 3.747 3.747 0 0 1 .414-1.794A2.911 2.911 0 0 1 63.222-6.3a3.464 3.464 0 0 1 1.722-.42 3.368 3.368 0 0 1 1.668.408 2.883 2.883 0 0 1 1.14 1.146 3.451 3.451 0 0 1 .408 1.698zM66.732-3.9a1.557 1.557 0 0 0-.54-1.212 1.931 1.931 0 0 0-1.308-.456 1.757 1.757 0 0 0-1.212.45 1.881 1.881 0 0 0-.6 1.218zm6.684-2.82a2.965 2.965 0 0 1 1.4.324 2.3 2.3 0 0 1 .966.96 3.158 3.158 0 0 1 .346 1.536V0h-1.356v-3.7a1.919 1.919 0 0 0-.444-1.362 1.58 1.58 0 0 0-1.212-.474 1.6 1.6 0 0 0-1.218.474 1.9 1.9 0 0 0-.45 1.362V0H70.08v-6.612h1.368v.756a2.264 2.264 0 0 1 .858-.636 2.743 2.743 0 0 1 1.11-.228zM80.04-5.5v3.66a.7.7 0 0 0 .174.534.865.865 0 0 0 .594.162h.84V0h-1.08a2.082 2.082 0 0 1-1.416-.432 1.78 1.78 0 0 1-.492-1.4V-5.5h-.78v-1.112h.78v-1.644h1.38v1.644h1.608V-5.5zm8.508-1.74v2.448h2.88v1.116h-2.88v2.556h3.24V0H87.18v-8.352h4.608v1.116zm8.328 3.888L99.012 0h-1.548l-1.428-2.244L94.692 0h-1.428L95.4-3.252l-2.136-3.36h1.548l1.428 2.244 1.344-2.244h1.428zm3.276.036a3.747 3.747 0 0 1 .414-1.794 2.945 2.945 0 0 1 1.146-1.19 3.315 3.315 0 0 1 1.68-.42 3.3 3.3 0 0 1 1.986.57 2.806 2.806 0 0 1 1.062 1.626h-1.476a1.561 1.561 0 0 0-.576-.768 1.7 1.7 0 0 0-1-.276 1.656 1.656 0 0 0-1.338.594 2.513 2.513 0 0 0-.5 1.662 2.538 2.538 0 0 0 .5 1.668 1.649 1.649 0 0 0 1.338.6 1.518 1.518 0 0 0 1.572-1.044h1.476a2.955 2.955 0 0 1-1.08 1.6 3.187 3.187 0 0 1-1.968.594 3.278 3.278 0 0 1-1.68-.426 2.986 2.986 0 0 1-1.146-1.2 3.747 3.747 0 0 1-.41-1.792zM111.8-6.72a2.773 2.773 0 0 1 1.35.324 2.306 2.306 0 0 1 .936.96 3.2 3.2 0 0 1 .342 1.536V0h-1.356v-3.7a1.919 1.919 0 0 0-.444-1.362 1.58 1.58 0 0 0-1.212-.474 1.6 1.6 0 0 0-1.218.474 1.9 1.9 0 0 0-.45 1.362V0h-1.368v-8.88h1.368v3.036a2.294 2.294 0 0 1 .882-.648 2.949 2.949 0 0 1 1.17-.228zm4.488 3.384a3.659 3.659 0 0 1 .414-1.764 3.035 3.035 0 0 1 1.128-1.194 3.022 3.022 0 0 1 1.578-.426 2.886 2.886 0 0 1 1.362.306 2.764 2.764 0 0 1 .93.762v-.96h1.38V0h-1.38v-.984a2.717 2.717 0 0 1-.948.78 2.922 2.922 0 0 1-1.368.312 2.907 2.907 0 0 1-1.56-.438 3.106 3.106 0 0 1-1.122-1.224 3.765 3.765 0 0 1-.41-1.782zm5.412.024a2.394 2.394 0 0 0-.282-1.188 1.98 1.98 0 0 0-.738-.768 1.931 1.931 0 0 0-.984-.264 1.965 1.965 0 0 0-.984.258 1.946 1.946 0 0 0-.738.756 2.36 2.36 0 0 0-.282 1.182 2.463 2.463 0 0 0 .282 1.2 1.99 1.99 0 0 0 .744.786 1.908 1.908 0 0 0 .978.27 1.931 1.931 0 0 0 .984-.264 1.97 1.97 0 0 0 .738-.774 2.428 2.428 0 0 0 .282-1.194zm7.1-3.408a2.965 2.965 0 0 1 1.4.324 2.3 2.3 0 0 1 .966.96 3.158 3.158 0 0 1 .348 1.536V0h-1.356v-3.7a1.919 1.919 0 0 0-.444-1.362 1.58 1.58 0 0 0-1.212-.474 1.6 1.6 0 0 0-1.218.474 1.9 1.9 0 0 0-.45 1.362V0h-1.374v-6.612h1.368v.756a2.264 2.264 0 0 1 .858-.636 2.743 2.743 0 0 1 1.114-.228zm7.692 0a2.932 2.932 0 0 1 1.362.306 2.616 2.616 0 0 1 .93.762v-.96h1.38v6.72a3.378 3.378 0 0 1-.384 1.626 2.775 2.775 0 0 1-1.11 1.122 3.485 3.485 0 0 1-1.734.408 3.763 3.763 0 0 1-2.232-.63 2.325 2.325 0 0 1-1.008-1.71h1.356a1.472 1.472 0 0 0 .666.834 2.256 2.256 0 0 0 1.218.318 1.821 1.821 0 0 0 1.338-.5 1.969 1.969 0 0 0 .51-1.464V-1a2.789 2.789 0 0 1-.942.786 2.815 2.815 0 0 1-1.35.318 2.959 2.959 0 0 1-1.582-.434 3.091 3.091 0 0 1-1.128-1.224 3.765 3.765 0 0 1-.414-1.782 3.659 3.659 0 0 1 .414-1.764 3.035 3.035 0 0 1 1.128-1.194 3.022 3.022 0 0 1 1.578-.426zm2.292 3.408A2.394 2.394 0 0 0 138.5-4.5a1.98 1.98 0 0 0-.738-.768 1.931 1.931 0 0 0-.984-.264 1.965 1.965 0 0 0-.984.258 1.946 1.946 0 0 0-.738.756 2.36 2.36 0 0 0-.282 1.182 2.463 2.463 0 0 0 .282 1.2 1.99 1.99 0 0 0 .744.786 1.908 1.908 0 0 0 .978.27 1.931 1.931 0 0 0 .984-.264 1.97 1.97 0 0 0 .738-.774 2.428 2.428 0 0 0 .28-1.194zm9.816-.156a4.277 4.277 0 0 1-.048.672H143.5a1.835 1.835 0 0 0 .588 1.272 1.856 1.856 0 0 0 1.3.48 1.6 1.6 0 0 0 1.56-.924h1.476a2.978 2.978 0 0 1-1.094 1.494 3.186 3.186 0 0 1-1.95.582 3.377 3.377 0 0 1-1.7-.426 3.031 3.031 0 0 1-1.176-1.2 3.661 3.661 0 0 1-.426-1.794 3.747 3.747 0 0 1 .414-1.794 2.912 2.912 0 0 1 1.166-1.194 3.464 3.464 0 0 1 1.722-.42 3.368 3.368 0 0 1 1.668.408 2.883 2.883 0 0 1 1.14 1.146 3.451 3.451 0 0 1 .412 1.698zm-1.432-.432a1.557 1.557 0 0 0-.54-1.212 1.931 1.931 0 0 0-1.308-.456 1.757 1.757 0 0 0-1.212.45 1.881 1.881 0 0 0-.6 1.218zM163-8.34V0h-1.368v-5.712L159.084 0h-.948l-2.556-5.712V0h-1.368v-8.34h1.476l2.928 6.54 2.916-6.54zm3.072.852a.847.847 0 0 1-.624-.252.847.847 0 0 1-.252-.624.847.847 0 0 1 .252-.624.847.847 0 0 1 .624-.252.833.833 0 0 1 .612.252.847.847 0 0 1 .252.624.847.847 0 0 1-.252.624.833.833 0 0 1-.616.252zm.672.876V0h-1.368v-6.612zm3.588 5.5h3V0h-4.584v-1.116l3.012-4.38h-3.012v-1.116h4.584V-5.5zm7.88 1.22a3.386 3.386 0 0 1-1.692-.426 3.06 3.06 0 0 1-1.188-1.2 3.62 3.62 0 0 1-.432-1.794 3.55 3.55 0 0 1 .444-1.788 3.067 3.067 0 0 1 1.212-1.2 3.517 3.517 0 0 1 1.716-.42 3.517 3.517 0 0 1 1.716.42 3.067 3.067 0 0 1 1.212 1.2 3.55 3.55 0 0 1 .444 1.788 3.477 3.477 0 0 1-.456 1.788 3.157 3.157 0 0 1-1.242 1.206 3.58 3.58 0 0 1-1.734.426zm0-1.188a2.036 2.036 0 0 0 .99-.252 1.92 1.92 0 0 0 .75-.756 2.431 2.431 0 0 0 .288-1.224 2.481 2.481 0 0 0-.276-1.218 1.863 1.863 0 0 0-.732-.75 2 2 0 0 0-.984-.252 1.968 1.968 0 0 0-.978.252 1.8 1.8 0 0 0-.714.75 2.574 2.574 0 0 0-.264 1.218 2.32 2.32 0 0 0 .546 1.65 1.8 1.8 0 0 0 1.374.582zm6.732-4.572a2.148 2.148 0 0 1 .8-.786 2.36 2.36 0 0 1 1.182-.282v1.42h-.348a1.666 1.666 0 0 0-1.218.408 1.951 1.951 0 0 0-.414 1.416V0h-1.368v-6.612h1.368zm3.36 2.316a3.659 3.659 0 0 1 .414-1.764 3.035 3.035 0 0 1 1.128-1.194 3.022 3.022 0 0 1 1.578-.426 2.886 2.886 0 0 1 1.362.306 2.764 2.764 0 0 1 .93.762v-.96h1.38V0h-1.38v-.984a2.717 2.717 0 0 1-.948.78 2.922 2.922 0 0 1-1.368.312 2.907 2.907 0 0 1-1.56-.438 3.106 3.106 0 0 1-1.122-1.224 3.765 3.765 0 0 1-.418-1.782zm5.412.024a2.394 2.394 0 0 0-.282-1.188 1.98 1.98 0 0 0-.738-.768 1.931 1.931 0 0 0-.984-.264 1.965 1.965 0 0 0-.984.258 1.946 1.946 0 0 0-.738.756 2.36 2.36 0 0 0-.282 1.182 2.463 2.463 0 0 0 .282 1.2 1.99 1.99 0 0 0 .744.786 1.908 1.908 0 0 0 .978.27 1.931 1.931 0 0 0 .984-.264 1.97 1.97 0 0 0 .738-.774 2.428 2.428 0 0 0 .282-1.194zm11.76-3.408a2.965 2.965 0 0 1 1.4.324 2.341 2.341 0 0 1 .972.96A3.114 3.114 0 0 1 208.2-3.9V0h-1.356v-3.7a1.919 1.919 0 0 0-.444-1.362 1.58 1.58 0 0 0-1.212-.474 1.6 1.6 0 0 0-1.218.474 1.9 1.9 0 0 0-.45 1.362V0h-1.356v-3.7a1.919 1.919 0 0 0-.444-1.362 1.58 1.58 0 0 0-1.212-.474 1.6 1.6 0 0 0-1.218.474 1.9 1.9 0 0 0-.45 1.362V0h-1.368v-6.612h1.368v.756a2.274 2.274 0 0 1 .852-.636 2.7 2.7 0 0 1 1.1-.228 2.939 2.939 0 0 1 1.416.336 2.3 2.3 0 0 1 .96.972 2.218 2.218 0 0 1 .936-.954 2.768 2.768 0 0 1 1.372-.354z" transform="translate(426 54)" style="fill:#676767"/>
        <g id="Group_97" data-name="Group 97" transform="translate(11912 -3264)">
            <path id="Rectangle_142" data-name="Rectangle 142" transform="translate(-11550 3271)" style="fill:none" d="M0 0h52v52H0z"/>
            <g id="empex" transform="translate(-11547.325 3273.606)">
                <g id="Group_90" data-name="Group 90" transform="translate(17.054 19.133)">
                    <path id="Path_63" data-name="Path 63" class="cls-4" d="M206.1 232.791zm0 0zm0 0zm0 0zm0 0zm0 0zm0 0zm18.418 16.6a.205.205 0 0 1-.059.047.256.256 0 0 1 .059-.047l.293-.257a3.071 3.071 0 0 0-.293.266zm3.639 4.575c.164-.14.328-.281.491-.433zm-.222-8.437v.023c.012-.012.012-.012 0-.023zM206.1 232.791zm0 0zm0 0zm0 0zm0 0zm0 0zm0 0z" transform="translate(-206.1 -232.3)"/>
                    <path id="Path_64" data-name="Path 64" class="cls-4" d="M366.7 381.033c.164-.14.328-.281.491-.433zm-3.639-4.575a.2.2 0 0 1-.059.047.256.256 0 0 1 .059-.047l.293-.257a3.076 3.076 0 0 0-.295.256z" transform="translate(-344.641 -359.362)"/>
                </g>
                <g id="Group_91" data-name="Group 91" transform="translate(25.551 27.501)">
                    <path id="Path_65" data-name="Path 65" class="cls-4" d="M273.2 292.864c.105-.047.211-.105.316-.164-.094.059-.199.105-.316.164z" transform="translate(-273.2 -292.173)"/>
                    <path id="Path_66" data-name="Path 66" class="cls-4" d="M280.1 288.422c.105-.07.2-.14.3-.222a2.9 2.9 0 0 1-.3.222z" transform="translate(-279.293 -288.2)"/>
                </g>
                <g id="Group_92" data-name="Group 92" transform="translate(17.719 17.773)">
                    <path id="Path_67" data-name="Path 67" class="cls-4" d="M215.385 207.1v.211a.667.667 0 0 1-.012.152v.035a.228.228 0 0 1-.012.094.324.324 0 0 1-.012.105c-.012.07-.012.14-.023.2l-.07.41c-.012.059-.023.117-.035.164a.166.166 0 0 1-.023.07c-.012.059-.035.105-.047.164a5.539 5.539 0 0 1-.293.772c-.023.059-.059.117-.082.164a3.155 3.155 0 0 1-.187.339c-.035.059-.07.105-.105.164a.653.653 0 0 0-.059.094l-.012.012-.07.105c0 .012-.012.012-.012.023l-.105.14-.023.023c-.035.047-.07.082-.105.129a7.372 7.372 0 0 1-.293.339 1.1 1.1 0 0 1-.117.117 1.94 1.94 0 0 1-.164.152.041.041 0 0 1-.023.012 2.028 2.028 0 0 1-.176.152l-.14.105a2.893 2.893 0 0 1-.3.222 1.159 1.159 0 0 1-.2.129l-.105.07c-.059.035-.129.07-.187.105-.105.059-.211.105-.316.164h-.012c-.059.023-.117.047-.164.07s-.094.035-.14.059c-.07.023-.14.059-.211.082-.035.012-.082.023-.117.035s-.07.023-.117.035-.082.023-.117.035l-.152.035a.342.342 0 0 1-.105.023c-.023.012-.059.012-.094.023l-.164.035a3.473 3.473 0 0 1-.5.07 5.672 5.672 0 0 1-6.155-5.16 5.494 5.494 0 0 1-.023-.62v-.059a1.273 1.273 0 0 1 .012-.211.479.479 0 0 1 .012-.129c0-.047.012-.082.012-.129a.791.791 0 0 1 .023-.164.105.105 0 0 1 .012-.059c0-.035.012-.07.012-.094.012-.047.012-.082.023-.129.035-.176.07-.351.117-.515s.105-.328.164-.491c.023-.047.035-.094.059-.14s.023-.059.035-.094a.547.547 0 0 1 .059-.117c.012-.023.023-.035.023-.059a1.083 1.083 0 0 1 .059-.117 1.083 1.083 0 0 0 .059-.117 1.168 1.168 0 0 1 .094-.164c.023-.035.047-.082.07-.117l.14-.211.07-.105a.643.643 0 0 1 .082-.105 1.242 1.242 0 0 1 .105-.129c.035-.035.059-.082.094-.117s.082-.094.129-.14a1.4 1.4 0 0 0 .129-.14.706.706 0 0 1 .094-.094c.047-.035.082-.082.129-.117s.082-.082.129-.117a3.884 3.884 0 0 1 .491-.374c.059-.047.129-.082.187-.129a.061.061 0 0 1 .047-.023c.035-.023.082-.047.117-.07s.082-.047.117-.07.105-.059.152-.082.105-.059.152-.082a.041.041 0 0 0 .023-.012 1.177 1.177 0 0 0 .176-.082 1.376 1.376 0 0 0 .129-.059c.047-.023.105-.035.152-.059.047-.023.105-.035.152-.059a1.8 1.8 0 0 1 .2-.059l.129-.035c.023 0 .035-.012.059-.012a.341.341 0 0 1 .105-.023.5.5 0 0 1 .129-.023c.023 0 .035-.012.047-.012a.684.684 0 0 1 .152-.023c.035-.012.07-.012.117-.023s.07-.012.094-.012c.094-.012.187-.023.269-.035a.324.324 0 0 0 .105-.012c.059 0 .105-.012.152-.012h.69a1.025 1.025 0 0 1 .187.023h.012c.047.012.094.012.14.023s.094.012.14.023c.035 0 .07.012.094.012a.043.043 0 0 1 .035.012c.023 0 .059.012.082.012h.012c.035.012.07.012.105.023l.14.035.14.035a.276.276 0 0 0 .094.023c.023.012.047.012.07.023.082.023.164.059.246.082.152.059.293.117.433.187.035.012.07.035.105.047a.967.967 0 0 1 .152.082.747.747 0 0 1 .164.094 4.681 4.681 0 0 1 .562.374l.129.094c.047.035.082.07.117.094a.613.613 0 0 1 .129.117 4.882 4.882 0 0 1 .433.421c.059.059.117.129.176.2l.117.152.117.152c.047.07.105.14.152.211l.07.105.105.176c.035.059.07.117.105.187l.07.14c.023.047.047.105.07.152s.059.129.082.187.059.14.082.211.035.105.059.164a.987.987 0 0 1 .059.2.757.757 0 0 0 .047.152.105.105 0 0 1 .012.059c.012.023.012.059.023.082s.012.059.023.082.012.07.023.094c.035.2.07.41.094.608a1.428 1.428 0 0 1 .083.553z" transform="translate(-204 -201.4)"/>
                </g>
                <g id="Group_93" data-name="Group 93" transform="translate(25.59 28.009)">
                    <path id="Path_68" data-name="Path 68" class="cls-4" d="M273.2 292.864c.105-.047.211-.105.316-.164-.094.059-.199.105-.316.164z" transform="translate(-273.2 -292.7)"/>
                </g>
                <g id="Group_94" data-name="Group 94" transform="translate(26.326 27.526)">
                    <path id="Path_69" data-name="Path 69" class="cls-4" d="M280.1 288.422c.105-.07.2-.14.3-.222a2.9 2.9 0 0 1-.3.222z" transform="translate(-280.1 -288.2)"/>
                </g>
                <g id="Group_95" data-name="Group 95">
                    <path id="Path_70" data-name="Path 70" class="cls-4" d="M75.545 67.683a.187.187 0 0 1-.043.053 25.228 25.228 0 0 1-1.27 1.558c-.139.149-.267.3-.406.448-.011.021-.032.032-.043.053-.459.48-.939.95-1.441 1.4l-.448.395-.053.043a23.421 23.421 0 0 1-30.732-.491c-.213-.192-.416-.384-.619-.576a23.458 23.458 0 0 1-3.928-28.747c.181-.31.374-.619.576-.918a2.718 2.718 0 0 1 4.7 1.868 2.607 2.607 0 0 1-.181.961c-.192.288-.384.587-.555.886a18.131 18.131 0 0 0 .683 19.257 18.547 18.547 0 0 0 1.975 2.412 10.6 10.6 0 0 1 3.16-2.252 9.952 9.952 0 0 1-.566-.576 14.279 14.279 0 0 1-.982-18.4 13.676 13.676 0 0 1 1.8-1.964 14.247 14.247 0 0 1 8.3-3.619 14.265 14.265 0 0 1 15.472 12.945 14.588 14.588 0 0 1-.2 3.992c-.053.288-.128.576-.192.865a2.723 2.723 0 0 1-5.241-1.035v-.064a8.877 8.877 0 0 0 .331-3.3 8.932 8.932 0 0 0-12.332-7.45 8.634 8.634 0 0 0-2.338 1.441 8.9 8.9 0 0 0-3.117 7.59 8.949 8.949 0 0 0 8.283 8.123 10.216 10.216 0 0 0 1.4-.011 8.435 8.435 0 0 0 1.377-.235 6.748 6.748 0 0 0 .662-.192 7.665 7.665 0 0 0 .865-.342 3.036 3.036 0 0 1 .544-.053 2.7 2.7 0 0 1 1.847.726l.16.16.011.011 2.359 2.391 2.7 2.743a1.561 1.561 0 0 0 .2-.171l.192-.16a.148.148 0 0 1 .043-.032c.011-.011.032-.021.043-.043l.011-.011c.085-.075.171-.149.256-.235s.171-.16.256-.235a1.277 1.277 0 0 1 .128-.117c.064-.064.128-.117.192-.181l.053-.053c.085-.085.16-.16.235-.246l.053-.053c.1-.1.181-.192.267-.288a.233.233 0 0 0 .043-.053l.256-.288c.1-.107.192-.224.288-.342.384-.459.737-.929 1.078-1.42a.01.01 0 0 1 .011-.011c0-.011.011-.011.011-.021a18.091 18.091 0 0 0-22.831-26.451c-.288.139-.566.278-.843.438a2.847 2.847 0 0 1-.8.117 2.72 2.72 0 0 1-1.751-4.8c.352-.192.715-.384 1.089-.555a23.452 23.452 0 0 1 29 35.119z" transform="translate(-33.33 -30.23)"/>
                </g>
                <g id="Group_96" data-name="Group 96" transform="translate(34.99 33.38)">
                    <path id="Path_71" data-name="Path 71" class="cls-4" d="m363.412 378.3-.012.012.012-.012z" transform="translate(-363.4 -374.45)"/>
                    <path id="Path_72" data-name="Path 72" class="cls-4" d="M392.712 345.4a.011.011 0 0 1-.012.012l.012-.012z" transform="translate(-389.271 -345.4)"/>
                </g>
                <path id="Path_73" data-name="Path 73" class="cls-4" d="M106.708 156.7a3.1 3.1 0 0 1-.608.971c.2-.327.4-.655.608-.971z" transform="translate(-97.585 -143.225)"/>
                <path id="Path_74" data-name="Path 74" class="cls-4" d="M148.194 52.4c-.4.2-.8.4-1.194.608a3.209 3.209 0 0 1 1.194-.608z" transform="translate(-134.894 -49.806)"/>
                <path id="Path_75" data-name="Path 75" class="cls-4" d="M171.924 97.4a2.9 2.9 0 0 1-.924.48c.3-.164.62-.328.924-.48z" transform="translate(-156.33 -89.54)"/>
                <path id="Path_76" data-name="Path 76" class="cls-4" d="M333.269 263.6a8.065 8.065 0 0 1-.269 1.17 3.008 3.008 0 0 1 .269-1.17z" transform="translate(-301.028 -238.745)"/>
                <path id="Path_77" data-name="Path 77" class="cls-4" d="M382.311 275.7a3.112 3.112 0 0 1-.211.948q.123-.474.211-.948z" transform="translate(-344.885 -249.544)"/>
                <path id="Path_78" data-name="Path 78" class="cls-4" d="M280.248 326.2a8.4 8.4 0 0 1-.948.374 2.919 2.919 0 0 1 .948-.374z" transform="translate(-253.091 -294.629)"/>
            </g>
        </g>
    </g>
</svg>
