<svg xmlns="http://www.w3.org/2000/svg" width="45" height="45" viewBox="0 0 45 45">
    <defs>
        <clipPath id="pk7g58x0ma">
            <path data-name="Rectangle 11231" transform="translate(389 951)" style="stroke:#707070;fill:#0a0a0a" d="M0 0h45v45H0z"/>
        </clipPath>
    </defs>
    <g data-name="Mask Group 91" transform="translate(-389 -951)" style="clip-path:url(#pk7g58x0ma)">
        <path data-name="Path 1645" d="M46 28.341a3.761 3.761 0 1 0 3.765 3.759A3.766 3.766 0 0 0 46 28.341zm0 6.478a2.745 2.745 0 1 1 2.745-2.745A2.753 2.753 0 0 1 46 34.82z" transform="translate(365.87 933.666)" style="fill:#0a0a0a"/>
        <path data-name="Path 1646" d="M45.237 26.537a4.749 4.749 0 1 0 4.749 4.749 4.716 4.716 0 0 0-4.749-4.749zm0 7.494a2.745 2.745 0 1 1 2.745-2.745 2.753 2.753 0 0 1-2.745 2.744z" transform="translate(366.638 934.455)" style="fill:#0a0a0a"/>
        <path data-name="Path 1647" d="M50.762 51.954H48.7a6.162 6.162 0 0 0-11.913 0h-2.055a8.191 8.191 0 0 1 15.756-1.125 2.057 2.057 0 0 1 .137.439 6.068 6.068 0 0 0 .137.686z" transform="translate(369.155 926.221)" style="fill:#0a0a0a"/>
        <path data-name="Path 1648" d="M49.288 22.822A14.755 14.755 0 0 0 38.363 17c-.3-.027-.576-.027-.878-.027a14.873 14.873 0 0 0-14.85 14.85v.357c.3 6.094 7.741 15.482 12.352 20.752.055.055.11.137.165.192a3.068 3.068 0 0 0 2.278 1.046h.165a3.084 3.084 0 0 0 1.125-.27 2.928 2.928 0 0 0 .988-.741c1.674-1.921 3.788-4.419 5.764-7.109 0-.027.027-.027.027-.055 3.541-4.8 6.725-10.239 6.725-14.164a14.242 14.242 0 0 0-2.936-9.009zM38.747 51.37a5.591 5.591 0 0 0-.412.467 1.126 1.126 0 0 1-.851.384 1.249 1.249 0 0 1-.549-.137.779.779 0 0 1-.274-.247c-.274-.3-.576-.686-.961-1.1 0-.027-.027-.027-.055-.055-3.545-4.143-11.062-13.613-11.062-18.911a12.9 12.9 0 0 1 3.157-8.455 13.1 13.1 0 0 1 3.733-2.965 12.658 12.658 0 0 1 6.011-1.482c.3 0 .6 0 .906.027a12.945 12.945 0 0 1 12 12.9v.329c-.334 5.685-8.49 15.622-11.643 19.245z" transform="translate(374.445 938.636)" style="fill:#0a0a0a"/>
        <path data-name="Line 145" transform="translate(389.009 954.706)" style="fill:none" d="M0 32.995V0"/>
        <path data-name="Path 1649" d="M46.192 53.8H16.024a7.427 7.427 0 0 1-7.439-7.439V16.219a7.427 7.427 0 0 1 7.439-7.439h29.948a7.427 7.427 0 0 1 7.439 7.439v29.948a7.179 7.179 0 0 1-7.219 7.633zM16.024 10.729a5.488 5.488 0 0 0-5.49 5.49v29.948a5.488 5.488 0 0 0 5.49 5.49h29.948a5.488 5.488 0 0 0 5.49-5.49V16.219a5.488 5.488 0 0 0-5.49-5.49z" transform="translate(380.588 942.22)" style="fill:#0a0a0a"/>
    </g>
</svg>
