<svg xmlns="http://www.w3.org/2000/svg" width="50" height="50">
    <defs>
        <clipPath id="a">
            <path data-name="Rectangle 10030" transform="translate(360 486)" style="fill:#fff;stroke:#707070" d="M0 0h50v50H0z"/>
        </clipPath>
    </defs>
    <g data-name="Mask Group 66" transform="translate(-360 -486)" style="clip-path:url(#a)">
        <path data-name="Path 1349" d="M401.843 536.005h-33.478a8.257 8.257 0 0 1-8.257-8.265v-33.478a8.257 8.257 0 0 1 8.257-8.257h33.26a8.257 8.257 0 0 1 8.261 8.261v33.256a8 8 0 0 1-8.043 8.483zm-33.478-47.83a6.076 6.076 0 0 0-6.087 6.087v33.26a6.076 6.076 0 0 0 6.087 6.083h33.26a6.076 6.076 0 0 0 6.083-6.083v-33.26a6.076 6.076 0 0 0-6.083-6.087h-33.26z"/>
        <path data-name="Path 1350" d="M374.017 529.694a5.434 5.434 0 0 1-3.043-.87 6.255 6.255 0 0 1-3.043-5v-25.65a5.3 5.3 0 0 1 3.043-5 5.69 5.69 0 0 1 5.87 0l22.391 12.827a6.255 6.255 0 0 1 3.043 5 5.3 5.3 0 0 1-3.043 5l-22.392 13.043a6.694 6.694 0 0 1-2.826.652zm0-35.217a3.231 3.231 0 0 0-1.957.435 3.833 3.833 0 0 0-1.734 3.262v25.653a3.587 3.587 0 0 0 1.957 3.261 3.735 3.735 0 0 0 3.7 0l22.165-12.827a4.04 4.04 0 0 0 1.957-3.261 3.587 3.587 0 0 0-1.957-3.261l-22.392-12.825a2.342 2.342 0 0 0-1.739-.435z"/>
        <path data-name="Path 1351" d="M394.887 518.392a1.307 1.307 0 0 1-.87-.217l-23.043-23.261a1.076 1.076 0 0 1 1.521-1.522l23.044 23.044a1.051 1.051 0 0 1 0 1.522c-.218.217-.435.434-.652.434z"/>
        <path data-name="Path 1352" d="M371.626 529.262a1.307 1.307 0 0 1-.87-.217 1.051 1.051 0 0 1 0-1.522l23.479-23.478a1.076 1.076 0 0 1 1.522 1.522l-23.261 23.26a1.648 1.648 0 0 1-.87.435z"/>
    </g>
</svg>
