<svg xmlns="http://www.w3.org/2000/svg" width="16" height="16" viewBox="0 0 16 16">
    <defs>
        <clipPath id="clip-path">
            <path id="Rectangle_10085" data-name="Rectangle 10085" class="cls-1" transform="translate(370 704)" d="M0 0h16v16H0z"/>
        </clipPath>
        <style>
            .cls-1{fill:#fff}
        </style>
    </defs>
    <g id="Mask_Group_69" data-name="Mask Group 69" transform="translate(-370 -704)" style="clip-path:url(#clip-path)">
        <g id="register" transform="translate(369.837 703.654)">
            <path id="Path_1375" data-name="Path 1375" class="cls-1" d="M14.671 1.777H9.822V3h4.85a.271.271 0 0 1 .269.269v11.443a.271.271 0 0 1-.269.269H1.655a.271.271 0 0 1-.269-.269V3.268A.271.271 0 0 1 1.655 3H6.5V1.777H1.655A1.492 1.492 0 0 0 .163 3.268v11.444A1.492 1.492 0 0 0 1.655 16.2h13.016a1.492 1.492 0 0 0 1.492-1.492V3.268a1.492 1.492 0 0 0-1.492-1.491z"/>
            <path id="Path_1376" data-name="Path 1376" class="cls-1" d="M5.282.489v4.035h5.763V.489zM9.822 3.3H6.5V1.712h3.322z"/>
            <path id="Path_1377" data-name="Path 1377" class="cls-1" d="M8.159 5.6a2.29 2.29 0 1 0 2.307 2.29A2.292 2.292 0 0 0 8.159 5.6zm0 3.358A1.068 1.068 0 1 1 9.235 7.89a1.078 1.078 0 0 1-1.076 1.068z"/>
            <path id="Path_1378" data-name="Path 1378" class="cls-1" d="M7.882 11.868h.554a3.059 3.059 0 0 1 2.788 1.809h1.3a4.272 4.272 0 0 0-4.084-3.032h-.55a4.272 4.272 0 0 0-4.084 3.032h1.3a3.018 3.018 0 0 1 2.776-1.809z"/>
        </g>
    </g>
</svg>
