<svg xmlns="http://www.w3.org/2000/svg" width="16" height="16" viewBox="0 0 16 16">
    <defs>
        <clipPath id="clip-path">
            <path id="Rectangle_10088" data-name="Rectangle 10088" transform="translate(785 660)" style="stroke:#707070;fill:#fff" d="M0 0h16v16H0z"/>
        </clipPath>
        <style>
            .cls-3{fill:#fff}
        </style>
    </defs>
    <g id="Mask_Group_72" data-name="Mask Group 72" transform="translate(-785 -660)" style="clip-path:url(#clip-path)">
        <g id="renew" transform="translate(784.423 659.303)">
            <path id="Path_1387" data-name="Path 1387" class="cls-3" d="m16.577 8.59-1.068 1.069-.569.56-.74-.586-1.068-.844.8-1.017.3.241a5.729 5.729 0 0 0-11.166-1l-.982-.569-.163-.094a7.023 7.023 0 0 1 13.588 1.465l.146-.146z"/>
            <path id="Path_1388" data-name="Path 1388" class="cls-3" d="M14.484 12.459a7.015 7.015 0 0 1-12.64-1.706l-.233.3-1.034-.783L1.542 9l.431-.569.853.508 1.129.663-.655 1.116-.138-.086a5.728 5.728 0 0 0 10.338.948z"/>
        </g>
    </g>
</svg>
