<?xml version="1.0" encoding="utf-8"?>
<!-- Generator: Adobe Illustrator 25.4.1, SVG Export Plug-In . SVG Version: 6.00 Build 0)  -->
<svg version="1.1" id="Layer_1" xmlns="http://www.w3.org/2000/svg" xmlns:xlink="http://www.w3.org/1999/xlink" x="0px" y="0px"
	 viewBox="0 0 500 500" style="enable-background:new 0 0 500 500;" xml:space="preserve">
<style type="text/css">
	.st0{fill:#E7E7E7;}
	.st1{fill:#30334D;}
	.st2{fill:#1A2E35;}
	.st3{fill:#F7C1CE;}
	.st4{enable-background:new    ;}
	.st5{fill:#19272B;}
	.st6{fill:#009726;}
	.st7{opacity:0.2;enable-background:new    ;}
	.st8{fill:#FFFFFF;}
	.st9{fill:#F0F0F0;}
	.st10{fill:#F5F5F5;}
	.st11{fill:#FFCB4D;}
	.st12{fill:#D8A641;}
	.st13{fill:#F2BD46;}
	.st14{fill:#FFB86B;}
</style>
<g>
	<g>
		<path class="st0" d="M242.9,399.5C242.8,399.5,242.8,399.4,242.9,399.5c-0.1,0-1-0.2-2.6-0.6c-0.2,0-0.3-0.2-0.2-0.4
			c0-0.2,0.2-0.3,0.4-0.2c1.6,0.4,2.5,0.6,2.5,0.6c0.2,0,0.3,0.2,0.2,0.4C243.1,399.3,243,399.5,242.9,399.5z"/>
	</g>
	<g>
		<path class="st0" d="M235.4,397.6C235.4,397.6,235.3,397.6,235.4,397.6c-1.7-0.4-3.4-0.9-5.1-1.4c-0.2,0-0.3-0.2-0.2-0.4
			c0-0.2,0.2-0.3,0.4-0.2c1.7,0.5,3.4,0.9,5,1.4c0.2,0,0.3,0.2,0.2,0.4C235.7,397.5,235.5,397.6,235.4,397.6z M225.5,394.8
			C225.4,394.8,225.4,394.8,225.5,394.8c-1.7-0.5-3.3-1-5-1.5c-0.2-0.1-0.3-0.2-0.2-0.4c0.1-0.2,0.2-0.3,0.4-0.2
			c1.7,0.5,3.3,1.1,4.9,1.5c0.2,0.1,0.3,0.2,0.2,0.4C225.7,394.7,225.6,394.8,225.5,394.8z M215.7,391.6c0,0-0.1,0-0.1,0
			c-1.6-0.6-3.3-1.1-4.9-1.7c-0.2-0.1-0.3-0.2-0.2-0.4c0.1-0.2,0.2-0.3,0.4-0.2c1.6,0.6,3.2,1.1,4.9,1.7c0.2,0.1,0.3,0.2,0.2,0.4
			C215.9,391.5,215.8,391.6,215.7,391.6z M206,388.1c0,0-0.1,0-0.1,0c-1.6-0.6-3.2-1.3-4.8-1.9c-0.2-0.1-0.2-0.3-0.2-0.4
			c0.1-0.2,0.3-0.2,0.4-0.2c1.6,0.6,3.2,1.3,4.8,1.9c0.2,0.1,0.2,0.2,0.2,0.4C206.2,388.1,206.1,388.1,206,388.1z M196.4,384.3
			c0,0-0.1,0-0.1,0c-1.6-0.7-3.2-1.4-4.7-2.1c-0.2-0.1-0.2-0.3-0.2-0.4c0.1-0.2,0.3-0.2,0.4-0.2c1.5,0.7,3.1,1.4,4.7,2.1
			c0.2,0.1,0.2,0.3,0.2,0.4C196.7,384.2,196.6,384.3,196.4,384.3z M187.1,379.9c0,0-0.1,0-0.1,0c-1.6-0.8-3.1-1.6-4.6-2.4
			c-0.2-0.1-0.2-0.3-0.1-0.4c0.1-0.2,0.3-0.2,0.4-0.1c1.5,0.8,3,1.6,4.6,2.4c0.2,0.1,0.2,0.3,0.1,0.4
			C187.3,379.9,187.2,379.9,187.1,379.9z M178,375.1c-0.1,0-0.1,0-0.2,0c-1.5-0.9-3-1.8-4.4-2.7c-0.2-0.1-0.2-0.3-0.1-0.4
			c0.1-0.2,0.3-0.2,0.4-0.1c1.4,0.9,2.9,1.8,4.4,2.7c0.2,0.1,0.2,0.3,0.1,0.4C178.2,375,178.1,375.1,178,375.1z M169.3,369.6
			c-0.1,0-0.1,0-0.2-0.1c-1.4-1-2.8-2-4.1-3.1c-0.1-0.1-0.2-0.3-0.1-0.5c0.1-0.1,0.3-0.2,0.5-0.1c1.3,1,2.7,2,4.1,3.1
			c0.1,0.1,0.2,0.3,0.1,0.4C169.5,369.5,169.4,369.6,169.3,369.6z M161.2,363.2c-0.1,0-0.2,0-0.2-0.1c-1.3-1.2-2.6-2.4-3.7-3.6
			c-0.1-0.1-0.1-0.3,0-0.5c0.1-0.1,0.3-0.1,0.5,0c1.1,1.2,2.4,2.4,3.7,3.6c0.1,0.1,0.1,0.3,0,0.5
			C161.4,363.2,161.3,363.2,161.2,363.2z M154.2,355.7c-0.1,0-0.2,0-0.3-0.1c-1.1-1.4-2.1-2.8-2.9-4.2c-0.1-0.2,0-0.3,0.1-0.4
			c0.2-0.1,0.3,0,0.4,0.1c0.8,1.4,1.8,2.8,2.9,4.2c0.1,0.1,0.1,0.3-0.1,0.5C154.3,355.7,154.3,355.7,154.2,355.7z M148.9,347
			c-0.1,0-0.2-0.1-0.3-0.2c-0.7-1.6-1.2-3.3-1.6-4.9c0-0.2,0.1-0.3,0.2-0.4c0.2,0,0.3,0.1,0.4,0.2c0.4,1.6,0.9,3.2,1.6,4.8
			c0.1,0.2,0,0.4-0.2,0.4C149,347,149,347,148.9,347z M146.5,337.1c-0.2,0-0.3-0.1-0.3-0.3c0-0.6-0.1-1.2-0.1-1.7
			c0-1.1,0.1-2.3,0.2-3.5c0-0.2,0.2-0.3,0.4-0.3c0.2,0,0.3,0.2,0.3,0.4c-0.1,1.1-0.2,2.3-0.2,3.4c0,0.6,0,1.1,0.1,1.7
			C146.9,336.9,146.7,337,146.5,337.1C146.5,337.1,146.5,337.1,146.5,337.1z M147.7,326.9C147.7,326.9,147.6,326.9,147.7,326.9
			c-0.3-0.1-0.4-0.2-0.3-0.4c0.5-1.6,1.1-3.2,1.8-4.9c0.1-0.2,0.3-0.2,0.4-0.2c0.2,0.1,0.2,0.3,0.2,0.4c-0.7,1.6-1.3,3.2-1.7,4.8
			C148,326.8,147.8,326.9,147.7,326.9z M151.8,317.5c-0.1,0-0.1,0-0.2-0.1c-0.1-0.1-0.2-0.3-0.1-0.4c0.9-1.4,1.9-2.8,3.1-4.1
			c0.1-0.1,0.3-0.1,0.5,0c0.1,0.1,0.1,0.3,0,0.5c-1.2,1.3-2.2,2.6-3.1,4C152.1,317.5,152,317.5,151.8,317.5z M158.6,309.9
			c-0.1,0-0.2,0-0.2-0.1c-0.1-0.1-0.1-0.3,0-0.5c1.2-1.1,2.6-2.1,4.1-3.2c0.1-0.1,0.3-0.1,0.4,0.1c0.1,0.1,0.1,0.3-0.1,0.4
			c-1.4,1-2.8,2.1-4,3.1C158.7,309.9,158.7,309.9,158.6,309.9z M167,304c-0.1,0-0.2-0.1-0.3-0.2c-0.1-0.2,0-0.3,0.1-0.4
			c1.4-0.8,2.9-1.7,4.5-2.5c0.2-0.1,0.4,0,0.4,0.1c0.1,0.2,0,0.4-0.1,0.4c-1.6,0.8-3.1,1.6-4.5,2.5C167.1,304,167,304,167,304z
			 M176.1,299.3c-0.1,0-0.2-0.1-0.3-0.2c-0.1-0.2,0-0.4,0.2-0.4c1.5-0.7,3.1-1.4,4.8-2c0.2-0.1,0.4,0,0.4,0.2c0.1,0.2,0,0.4-0.2,0.4
			c-1.6,0.7-3.2,1.3-4.7,2C176.2,299.3,176.1,299.3,176.1,299.3z M185.7,295.5c-0.1,0-0.3-0.1-0.3-0.2c-0.1-0.2,0-0.4,0.2-0.4
			c1.6-0.6,3.2-1.1,4.9-1.7c0.2-0.1,0.4,0,0.4,0.2c0.1,0.2,0,0.4-0.2,0.4c-1.7,0.5-3.3,1.1-4.9,1.7
			C185.7,295.5,185.7,295.5,185.7,295.5z M195.4,292.3c-0.1,0-0.3-0.1-0.3-0.2c-0.1-0.2,0-0.3,0.2-0.4c1.6-0.5,3.3-1,5-1.4
			c0.2,0,0.3,0.1,0.4,0.2c0,0.2-0.1,0.3-0.2,0.4C198.8,291.3,197.1,291.8,195.4,292.3C195.5,292.3,195.5,292.3,195.4,292.3z
			 M205.4,289.5c-0.1,0-0.3-0.1-0.3-0.2c0-0.2,0.1-0.3,0.2-0.4c1.6-0.4,3.3-0.8,5-1.2c0.2,0,0.3,0.1,0.4,0.2c0,0.2-0.1,0.3-0.2,0.4
			C208.7,288.7,207.1,289.1,205.4,289.5C205.4,289.5,205.4,289.5,205.4,289.5z M215.4,287.1c-0.1,0-0.3-0.1-0.3-0.3
			c0-0.2,0.1-0.3,0.2-0.4c1.7-0.4,3.3-0.7,5-1.1c0.2,0,0.3,0.1,0.4,0.2c0,0.2-0.1,0.3-0.2,0.4C218.8,286.4,217.1,286.7,215.4,287.1
			C215.4,287.1,215.4,287.1,215.4,287.1z M225.4,284.9c-0.1,0-0.3-0.1-0.3-0.3c0-0.2,0.1-0.3,0.3-0.4c1.7-0.3,3.4-0.7,5.1-1
			c0.2,0,0.3,0.1,0.4,0.3c0,0.2-0.1,0.3-0.3,0.4C228.9,284.3,227.2,284.6,225.4,284.9C225.5,284.9,225.5,284.9,225.4,284.9z
			 M235.5,283c-0.2,0-0.3-0.1-0.3-0.3c0-0.2,0.1-0.3,0.3-0.4c1.7-0.3,3.4-0.6,5.1-0.9c0.2,0,0.3,0.1,0.4,0.3c0,0.2-0.1,0.3-0.3,0.4
			C239,282.3,237.3,282.6,235.5,283C235.6,283,235.6,283,235.5,283z M245.7,281.1c-0.2,0-0.3-0.1-0.3-0.3c0-0.2,0.1-0.3,0.3-0.4
			c1.7-0.3,3.4-0.6,5.1-0.9c0.2,0,0.3,0.1,0.4,0.3c0,0.2-0.1,0.3-0.3,0.4C249.1,280.5,247.4,280.8,245.7,281.1
			C245.7,281.1,245.7,281.1,245.7,281.1z M255.8,279.4c-0.2,0-0.3-0.1-0.3-0.3c0-0.2,0.1-0.3,0.3-0.4c1.7-0.3,3.4-0.6,5.1-0.9
			c0.2,0,0.3,0.1,0.4,0.3c0,0.2-0.1,0.3-0.3,0.4C259.2,278.8,257.5,279.1,255.8,279.4C255.8,279.4,255.8,279.4,255.8,279.4z
			 M265.9,277.7c-0.2,0-0.3-0.1-0.3-0.3c0-0.2,0.1-0.3,0.3-0.4l5.1-0.8c0.2,0,0.3,0.1,0.4,0.3c0,0.2-0.1,0.3-0.3,0.4L265.9,277.7
			C266,277.7,266,277.7,265.9,277.7z M276.1,276c-0.2,0-0.3-0.1-0.3-0.3c0-0.2,0.1-0.3,0.3-0.4c1.7-0.3,3.4-0.6,5.1-0.9
			c0.2,0,0.3,0.1,0.4,0.3c0,0.2-0.1,0.3-0.3,0.4C279.5,275.4,277.9,275.7,276.1,276C276.1,276,276.1,276,276.1,276z M286.3,274.3
			c-0.2,0-0.3-0.1-0.3-0.3c0-0.2,0.1-0.3,0.3-0.4c1.7-0.3,3.4-0.6,5.1-0.9c0.2,0,0.3,0.1,0.4,0.3c0,0.2-0.1,0.3-0.3,0.4
			C289.7,273.7,288,274,286.3,274.3C286.3,274.3,286.3,274.3,286.3,274.3z M296.4,272.5c-0.2,0-0.3-0.1-0.3-0.3
			c0-0.2,0.1-0.3,0.3-0.4c1.7-0.3,3.4-0.6,5.1-0.9c0.2,0,0.3,0.1,0.4,0.3c0,0.2-0.1,0.3-0.3,0.4
			C299.8,271.9,298.2,272.2,296.4,272.5C296.4,272.5,296.4,272.5,296.4,272.5z M306.5,270.6c-0.2,0-0.3-0.1-0.3-0.3
			c0-0.2,0.1-0.3,0.3-0.4c1.7-0.3,3.4-0.7,5-1c0.2,0,0.3,0.1,0.4,0.3c0,0.2-0.1,0.3-0.3,0.4C310,269.9,308.3,270.3,306.5,270.6
			C306.6,270.6,306.5,270.6,306.5,270.6z M316.6,268.6c-0.1,0-0.3-0.1-0.3-0.3c0-0.2,0.1-0.3,0.2-0.4c1.7-0.4,3.4-0.7,5-1.1
			c0.2,0,0.3,0.1,0.4,0.2c0,0.2-0.1,0.3-0.2,0.4C320.1,267.8,318.4,268.2,316.6,268.6C316.7,268.6,316.6,268.6,316.6,268.6z
			 M326.7,266.3c-0.1,0-0.3-0.1-0.3-0.2c0-0.2,0.1-0.3,0.2-0.4c1.7-0.4,3.4-0.8,5-1.2c0.2,0,0.3,0.1,0.4,0.2c0,0.2-0.1,0.3-0.2,0.4
			C330.1,265.5,328.4,265.9,326.7,266.3C326.7,266.3,326.7,266.3,326.7,266.3z M336.6,263.7c-0.1,0-0.3-0.1-0.3-0.2
			c0-0.2,0.1-0.3,0.2-0.4c1.7-0.5,3.4-1,4.9-1.5c0.2-0.1,0.3,0,0.4,0.2c0.1,0.2,0,0.4-0.2,0.4C340.1,262.7,338.4,263.2,336.6,263.7
			C336.7,263.7,336.6,263.7,336.6,263.7z M346.5,260.7c-0.1,0-0.3-0.1-0.3-0.2c-0.1-0.2,0-0.4,0.2-0.4c1.7-0.6,3.3-1.2,4.8-1.8
			c0.2-0.1,0.4,0,0.4,0.2c0.1,0.2,0,0.4-0.2,0.4c-1.5,0.6-3.2,1.2-4.8,1.8C346.5,260.7,346.5,260.7,346.5,260.7z M356,257
			c-0.1,0-0.2-0.1-0.3-0.2c-0.1-0.2,0-0.4,0.2-0.4c1.6-0.7,3.2-1.5,4.6-2.2c0.2-0.1,0.4,0,0.4,0.1c0.1,0.2,0,0.4-0.1,0.4
			c-1.5,0.8-3,1.5-4.7,2.2C356.1,257,356.1,257,356,257z M365.1,252.2c-0.1,0-0.2-0.1-0.3-0.2c-0.1-0.2,0-0.3,0.1-0.4
			c1.5-0.9,2.9-1.9,4.2-2.9c0.1-0.1,0.3-0.1,0.5,0.1c0.1,0.1,0.1,0.3-0.1,0.5c-1.3,1-2.7,2-4.2,2.9
			C365.3,252.2,365.2,252.2,365.1,252.2z M373.1,245.9c-0.1,0-0.2,0-0.2-0.1c-0.1-0.1-0.1-0.3,0-0.5c1.2-1.3,2.2-2.6,3.1-3.9
			c0.1-0.2,0.3-0.2,0.4-0.1c0.2,0.1,0.2,0.3,0.1,0.4c-0.9,1.4-1.9,2.7-3.1,4C373.3,245.8,373.2,245.9,373.1,245.9z M378.4,237.3
			C378.3,237.3,378.3,237.3,378.4,237.3c-0.3-0.1-0.4-0.3-0.3-0.4c0.5-1.6,0.8-3.2,0.9-4.9c0-0.2,0.2-0.3,0.3-0.3
			c0.2,0,0.3,0.2,0.3,0.3c-0.1,1.7-0.4,3.4-0.9,5.1C378.6,237.3,378.5,237.3,378.4,237.3z M378.9,227.2c-0.2,0-0.3-0.1-0.3-0.3
			c-0.3-1.6-0.8-3.2-1.5-4.7c-0.1-0.2,0-0.4,0.2-0.4c0.2-0.1,0.4,0,0.4,0.2c0.7,1.6,1.2,3.2,1.5,4.9
			C379.3,227,379.2,227.2,378.9,227.2C379,227.2,378.9,227.2,378.9,227.2z M374.9,218c-0.1,0-0.2,0-0.3-0.1c-1-1.3-2.1-2.5-3.4-3.7
			c-0.1-0.1-0.1-0.3,0-0.5c0.1-0.1,0.3-0.1,0.5,0c1.3,1.2,2.5,2.5,3.5,3.8c0.1,0.1,0.1,0.3-0.1,0.4C375,218,375,218,374.9,218z
			 M367.4,211.1c-0.1,0-0.1,0-0.2-0.1c-1.3-0.9-2.8-1.8-4.4-2.6c-0.2-0.1-0.2-0.3-0.1-0.4c0.1-0.2,0.3-0.2,0.4-0.1
			c1.6,0.8,3.1,1.7,4.4,2.7c0.1,0.1,0.2,0.3,0.1,0.4C367.6,211.1,367.5,211.1,367.4,211.1z M358.4,206.3c0,0-0.1,0-0.1,0
			c-1.5-0.6-3.1-1.3-4.8-1.9c-0.2-0.1-0.3-0.2-0.2-0.4c0.1-0.2,0.2-0.3,0.4-0.2c1.7,0.6,3.3,1.2,4.8,1.9c0.2,0.1,0.2,0.3,0.2,0.4
			C358.7,206.2,358.5,206.3,358.4,206.3z M348.7,202.8C348.7,202.8,348.7,202.8,348.7,202.8c-1.7-0.5-3.3-1-5-1.4
			c-0.2,0-0.3-0.2-0.2-0.4c0-0.2,0.2-0.3,0.4-0.2c1.7,0.4,3.4,0.9,5,1.4c0.2,0.1,0.3,0.2,0.2,0.4C349,202.7,348.9,202.8,348.7,202.8
			z M338.8,200.2C338.8,200.2,338.7,200.2,338.8,200.2c-1.7-0.4-3.4-0.7-5.1-1.1c-0.2,0-0.3-0.2-0.3-0.4c0-0.2,0.2-0.3,0.4-0.3
			c1.7,0.3,3.4,0.7,5,1.1c0.2,0,0.3,0.2,0.2,0.4C339.1,200.1,338.9,200.2,338.8,200.2z M328.7,198.1
			C328.7,198.1,328.7,198.1,328.7,198.1c-1.7-0.3-3.4-0.6-5.1-0.9c-0.2,0-0.3-0.2-0.3-0.4c0-0.2,0.2-0.3,0.4-0.3
			c1.8,0.3,3.5,0.6,5.1,0.9c0.2,0,0.3,0.2,0.3,0.4C329,198,328.8,198.1,328.7,198.1z M318.5,196.5
			C318.5,196.5,318.5,196.5,318.5,196.5c-1.7-0.2-3.4-0.5-5.1-0.7c-0.2,0-0.3-0.2-0.3-0.4c0-0.2,0.2-0.3,0.4-0.3
			c1.7,0.2,3.4,0.5,5.1,0.7c0.2,0,0.3,0.2,0.3,0.4C318.8,196.4,318.7,196.5,318.5,196.5z M308.3,195.2
			C308.3,195.2,308.3,195.2,308.3,195.2c-1.7-0.2-3.4-0.4-5.2-0.6c-0.2,0-0.3-0.2-0.3-0.4c0-0.2,0.2-0.3,0.4-0.3
			c1.7,0.2,3.4,0.4,5.1,0.6c0.2,0,0.3,0.2,0.3,0.4C308.6,195.1,308.5,195.2,308.3,195.2z M298.1,194C298.1,194,298.1,194,298.1,194
			c-1.7-0.2-3.4-0.3-5.2-0.5c-0.2,0-0.3-0.2-0.3-0.4c0-0.2,0.2-0.3,0.4-0.3c1.7,0.2,3.4,0.3,5.1,0.5c0.2,0,0.3,0.2,0.3,0.4
			C298.4,193.9,298.2,194,298.1,194z M287.8,193C287.8,193,287.8,193,287.8,193c-1.7-0.2-3.4-0.3-5.2-0.5c-0.2,0-0.3-0.2-0.3-0.3
			c0-0.2,0.2-0.3,0.3-0.3c1.7,0.2,3.4,0.3,5.1,0.5c0.2,0,0.3,0.2,0.3,0.3C288.1,192.9,288,193,287.8,193z M277.6,192.1
			C277.6,192.1,277.6,192.1,277.6,192.1c-1.7-0.1-3.4-0.3-5.1-0.4c-0.2,0-0.3-0.2-0.3-0.3c0-0.2,0.2-0.3,0.3-0.3
			c1.7,0.1,3.4,0.3,5.1,0.4c0.2,0,0.3,0.2,0.3,0.3C277.9,192,277.7,192.1,277.6,192.1z M267.3,191.3
			C267.3,191.3,267.3,191.3,267.3,191.3l-5.2-0.4c-0.2,0-0.3-0.2-0.3-0.3c0-0.2,0.2-0.3,0.3-0.3l5.1,0.4c0.2,0,0.3,0.2,0.3,0.3
			C267.6,191.1,267.5,191.3,267.3,191.3z M257.1,190.4C257,190.4,257,190.4,257.1,190.4c-1.7-0.1-3.5-0.3-5.2-0.4
			c-0.2,0-0.3-0.2-0.3-0.3c0-0.2,0.2-0.3,0.3-0.3c1.7,0.2,3.4,0.3,5.1,0.4c0.2,0,0.3,0.2,0.3,0.3
			C257.4,190.3,257.2,190.4,257.1,190.4z M246.8,189.5C246.8,189.5,246.8,189.5,246.8,189.5c-1.7-0.2-3.5-0.3-5.2-0.5
			c-0.2,0-0.3-0.2-0.3-0.4c0-0.2,0.2-0.3,0.4-0.3c1.7,0.2,3.4,0.3,5.1,0.5c0.2,0,0.3,0.2,0.3,0.3C247.1,189.4,247,189.5,246.8,189.5
			z M236.5,188.5C236.5,188.5,236.5,188.5,236.5,188.5c-1.7-0.2-3.5-0.4-5.2-0.5c-0.2,0-0.3-0.2-0.3-0.4c0-0.2,0.2-0.3,0.4-0.3
			c1.7,0.2,3.4,0.4,5.1,0.5c0.2,0,0.3,0.2,0.3,0.4C236.9,188.4,236.7,188.5,236.5,188.5z M226.3,187.4
			C226.3,187.4,226.3,187.4,226.3,187.4c-1.8-0.2-3.5-0.4-5.1-0.6c-0.2,0-0.3-0.2-0.3-0.4c0-0.2,0.2-0.3,0.4-0.3
			c1.7,0.2,3.4,0.4,5.1,0.6c0.2,0,0.3,0.2,0.3,0.4C226.6,187.2,226.5,187.4,226.3,187.4z M216.1,186C216.1,186,216.1,186,216.1,186
			c-1.8-0.2-3.5-0.5-5.1-0.8c-0.2,0-0.3-0.2-0.3-0.4c0-0.2,0.2-0.3,0.4-0.3c1.7,0.3,3.4,0.5,5.1,0.8c0.2,0,0.3,0.2,0.3,0.4
			C216.4,185.9,216.3,186,216.1,186z M205.9,184.4C205.9,184.4,205.9,184.4,205.9,184.4c-1.8-0.3-3.5-0.6-5.1-0.9
			c-0.2,0-0.3-0.2-0.3-0.4c0-0.2,0.2-0.3,0.4-0.3c1.6,0.3,3.3,0.6,5.1,0.9c0.2,0,0.3,0.2,0.3,0.4
			C206.2,184.3,206.1,184.4,205.9,184.4z M195.8,182.4C195.8,182.4,195.8,182.4,195.8,182.4c-1.8-0.4-3.5-0.8-5.1-1.2
			c-0.2,0-0.3-0.2-0.2-0.4c0-0.2,0.2-0.3,0.4-0.2c1.6,0.4,3.3,0.8,5,1.2c0.2,0,0.3,0.2,0.2,0.4C196.1,182.3,196,182.4,195.8,182.4z
			 M185.9,179.9C185.8,179.9,185.8,179.9,185.9,179.9c-1.8-0.5-3.5-1-5-1.5c-0.2-0.1-0.3-0.2-0.2-0.4c0.1-0.2,0.2-0.3,0.4-0.2
			c1.6,0.5,3.2,1,4.9,1.5c0.2,0,0.3,0.2,0.2,0.4C186.1,179.8,186,179.9,185.9,179.9z M176.1,176.7c0,0-0.1,0-0.1,0
			c-1.6-0.6-3.2-1.3-4.8-2c-0.2-0.1-0.2-0.3-0.2-0.4c0.1-0.2,0.3-0.2,0.4-0.2c1.5,0.7,3.1,1.4,4.7,2c0.2,0.1,0.2,0.3,0.2,0.4
			C176.4,176.6,176.2,176.7,176.1,176.7z M166.8,172.4c-0.1,0-0.1,0-0.2,0c-1.6-0.9-3-1.8-4.4-2.7c-0.1-0.1-0.2-0.3-0.1-0.4
			c0.1-0.1,0.3-0.2,0.4-0.1c1.3,0.9,2.8,1.8,4.3,2.7c0.2,0.1,0.2,0.3,0.1,0.4C167,172.3,166.9,172.4,166.8,172.4z M158.5,166.5
			c-0.1,0-0.2,0-0.2-0.1c-1.3-1.2-2.5-2.5-3.5-3.7c-0.1-0.1-0.1-0.3,0.1-0.5c0.1-0.1,0.3-0.1,0.5,0.1c1,1.3,2.2,2.5,3.4,3.7
			c0.1,0.1,0.1,0.3,0,0.5C158.6,166.5,158.5,166.5,158.5,166.5z M152.2,158.5c-0.1,0-0.2-0.1-0.3-0.2c-0.1-0.1-0.1-0.3-0.2-0.4
			c-0.7-1.5-1.3-3-1.7-4.5c0-0.2,0.1-0.3,0.2-0.4c0.2,0,0.3,0.1,0.4,0.2c0.4,1.4,0.9,2.9,1.6,4.3c0.1,0.1,0.1,0.3,0.2,0.4
			c0.1,0.2,0,0.4-0.1,0.4C152.3,158.5,152.2,158.5,152.2,158.5z M149.8,148.6C149.8,148.6,149.8,148.6,149.8,148.6
			c-0.2,0-0.3-0.2-0.3-0.3c0-1.7,0.3-3.4,0.8-5.1c0.1-0.2,0.2-0.3,0.4-0.2c0.2,0.1,0.3,0.2,0.2,0.4c-0.5,1.6-0.8,3.3-0.8,4.9
			C150.1,148.5,150,148.6,149.8,148.6z M152.6,138.9c-0.1,0-0.1,0-0.2,0c-0.2-0.1-0.2-0.3-0.1-0.4c0.8-1.4,1.8-2.9,2.9-4.3
			c0.1-0.1,0.3-0.2,0.5-0.1c0.1,0.1,0.2,0.3,0.1,0.5c-1.1,1.4-2.1,2.8-2.8,4.2C152.8,138.8,152.7,138.9,152.6,138.9z M158.9,130.8
			c-0.1,0-0.2,0-0.2-0.1c-0.1-0.1-0.1-0.3,0-0.5c1.2-1.2,2.5-2.3,3.9-3.4c0.1-0.1,0.3-0.1,0.5,0c0.1,0.1,0.1,0.3,0,0.5
			c-1.4,1.1-2.7,2.3-3.8,3.4C159.1,130.8,159,130.8,158.9,130.8z M166.8,124.3c-0.1,0-0.2,0-0.3-0.1c-0.1-0.1-0.1-0.3,0.1-0.4
			c1.4-1,2.8-1.9,4.3-2.8c0.2-0.1,0.3,0,0.4,0.1c0.1,0.2,0,0.3-0.1,0.4c-1.5,0.9-2.9,1.9-4.3,2.8C167,124.3,166.9,124.3,166.8,124.3
			z M175.6,118.9c-0.1,0-0.2-0.1-0.3-0.2c-0.1-0.2,0-0.4,0.1-0.4c1.5-0.8,3-1.6,4.6-2.4c0.2-0.1,0.4,0,0.4,0.1
			c0.1,0.2,0,0.4-0.1,0.4c-1.6,0.8-3.1,1.6-4.5,2.4C175.7,118.9,175.6,118.9,175.6,118.9z M184.8,114.2c-0.1,0-0.2-0.1-0.3-0.2
			c-0.1-0.2,0-0.4,0.2-0.4c1.5-0.7,3.1-1.4,4.7-2.1c0.2-0.1,0.4,0,0.4,0.2c0.1,0.2,0,0.4-0.2,0.4c-1.6,0.7-3.2,1.4-4.7,2.1
			C184.8,114.2,184.8,114.2,184.8,114.2z M194.2,110.2c-0.1,0-0.3-0.1-0.3-0.2c-0.1-0.2,0-0.4,0.2-0.4c1.6-0.6,3.2-1.2,4.8-1.8
			c0.2-0.1,0.4,0,0.4,0.2c0.1,0.2,0,0.4-0.2,0.4c-1.6,0.6-3.2,1.2-4.8,1.8C194.3,110.2,194.3,110.2,194.2,110.2z M203.9,106.7
			c-0.1,0-0.3-0.1-0.3-0.2c-0.1-0.2,0-0.4,0.2-0.4c1.6-0.5,3.3-1.1,4.9-1.6c0.2-0.1,0.3,0,0.4,0.2c0.1,0.2,0,0.3-0.2,0.4
			c-1.6,0.5-3.3,1-4.9,1.6C204,106.7,203.9,106.7,203.9,106.7z M213.7,103.7c-0.1,0-0.3-0.1-0.3-0.2c0-0.2,0-0.3,0.2-0.4
			c1.6-0.5,3.3-0.9,5-1.4c0.2,0,0.3,0.1,0.4,0.2s-0.1,0.3-0.2,0.4C217.1,102.7,215.4,103.2,213.7,103.7
			C213.8,103.7,213.8,103.7,213.7,103.7z M223.7,101c-0.1,0-0.3-0.1-0.3-0.2c0-0.2,0.1-0.3,0.2-0.4c1.7-0.4,3.3-0.8,5-1.2
			c0.2,0,0.3,0.1,0.4,0.2c0,0.2-0.1,0.3-0.2,0.4C227.1,100.2,225.4,100.6,223.7,101C223.7,101,223.7,101,223.7,101z M233.7,98.7
			c-0.1,0-0.3-0.1-0.3-0.3c0-0.2,0.1-0.3,0.2-0.4c1.7-0.4,3.4-0.7,5-1c0.2,0,0.3,0.1,0.4,0.3c0,0.2-0.1,0.3-0.3,0.4
			C237.1,98,235.4,98.3,233.7,98.7C233.7,98.7,233.7,98.7,233.7,98.7z M243.8,96.7c-0.2,0-0.3-0.1-0.3-0.3c0-0.2,0.1-0.3,0.3-0.4
			c1.7-0.3,3.4-0.6,5.1-0.9c0.2,0,0.3,0.1,0.4,0.3c0,0.2-0.1,0.3-0.3,0.4C247.2,96.1,245.5,96.4,243.8,96.7
			C243.8,96.7,243.8,96.7,243.8,96.7z M253.9,95c-0.2,0-0.3-0.1-0.3-0.3c0-0.2,0.1-0.3,0.3-0.4c1.7-0.3,3.4-0.5,5.1-0.7
			c0.2,0,0.3,0.1,0.4,0.3c0,0.2-0.1,0.3-0.3,0.4C257.3,94.5,255.6,94.7,253.9,95C253.9,95,253.9,95,253.9,95z M264.1,93.6
			c-0.2,0-0.3-0.1-0.3-0.3c0-0.2,0.1-0.3,0.3-0.4c1.7-0.2,3.4-0.4,5.1-0.6c0.2,0,0.3,0.1,0.4,0.3c0,0.2-0.1,0.3-0.3,0.4
			C267.5,93.2,265.8,93.4,264.1,93.6C264.1,93.6,264.1,93.6,264.1,93.6z M274.3,92.5c-0.2,0-0.3-0.1-0.3-0.3c0-0.2,0.1-0.3,0.3-0.3
			c1.7-0.2,3.4-0.3,5.1-0.4c0.2,0,0.3,0.1,0.3,0.3c0,0.2-0.1,0.3-0.3,0.3C277.8,92.3,276.1,92.4,274.3,92.5
			C274.4,92.5,274.3,92.5,274.3,92.5z M284.6,91.8c-0.2,0-0.3-0.1-0.3-0.3c0-0.2,0.1-0.3,0.3-0.3c1.7-0.1,3.4-0.2,5.1-0.2
			c0.2,0,0.3,0.1,0.3,0.3c0,0.2-0.1,0.3-0.3,0.3C288,91.6,286.3,91.7,284.6,91.8C284.6,91.8,284.6,91.8,284.6,91.8z M310.3,91.5
			C310.3,91.5,310.3,91.5,310.3,91.5c-1.7-0.1-3.4-0.1-5.1-0.1c-0.2,0-0.3-0.1-0.3-0.3c0-0.2,0.1-0.3,0.3-0.3c1.7,0,3.5,0.1,5.1,0.1
			c0.2,0,0.3,0.2,0.3,0.3C310.6,91.4,310.5,91.5,310.3,91.5z M294.9,91.4c-0.2,0-0.3-0.1-0.3-0.3c0-0.2,0.1-0.3,0.3-0.3
			c1.7,0,3.5-0.1,5.2-0.1c0,0,0,0,0,0c0.2,0,0.3,0.1,0.3,0.3c0,0.2-0.1,0.3-0.3,0.3C298.3,91.3,296.6,91.4,294.9,91.4
			C294.9,91.4,294.9,91.4,294.9,91.4z"/>
	</g>
	<g>
		<path class="st0" d="M318.3,91.9C318.3,91.9,318.3,91.9,318.3,91.9c-0.9-0.1-1.7-0.1-2.6-0.2c-0.2,0-0.3-0.2-0.3-0.3
			c0-0.2,0.2-0.3,0.3-0.3c0.9,0,1.7,0.1,2.6,0.2c0.2,0,0.3,0.2,0.3,0.3C318.6,91.8,318.5,91.9,318.3,91.9z"/>
	</g>
</g>
<g>
	<path class="st1" d="M237.6,122.8c-0.9-3.3-3.4-5.9-6.6-7.2c-1.8-0.7-3.7-1.1-5.7-1c-0.1,0-0.1,0.2,0,0.2c3.3-0.1,6.6,1.1,8.9,3.4
		c2.3,2.3,3.4,5.6,3,8.8c-0.2,2-1.2,3.7-2.4,5.2c-0.1,0.1,0,0.2,0.1,0.1C237.7,130.1,238.6,126.1,237.6,122.8z"/>
	<path class="st1" d="M255.4,158c-0.4-1.3-1.1-2.4-2.1-3.3c-0.5-0.4-1.1-0.8-1.6-1.2c-0.6-0.5-1.1-1-1.3-1.8
		c-0.4-1.6,0.2-3.2,0.2-4.8c0.1-1.3-0.2-2.7-0.8-3.9c-1.1-2.2-3.4-3.1-5.6-3.6c-2.5-0.6-5.3-1-7.3-2.8c-0.1-0.1-0.2,0-0.1,0.1
		c1.5,1.7,3.7,2.2,5.7,2.7c2.1,0.5,4.5,1,6,2.7c0.9,1,1.4,2.4,1.5,3.8c0.1,1.5-0.3,3-0.3,4.5c0,1.3,0.4,2.6,1.5,3.4
		c0.5,0.4,1.2,0.7,1.7,1.1c0.5,0.4,0.9,0.9,1.3,1.4c0.8,1.3,1.2,2.9,0.9,4.4c-0.3,1.6-1.2,2.8-2.3,3.9c-0.1,0.1,0,0.3,0.1,0.2
		C255.2,163.6,256.1,160.5,255.4,158z"/>
	<g>
		<path class="st2" d="M183.5,222.5c-9.8-8.5-9.5-21.8,4.7-33.3c17.9-15.5-3.7-30.2,16.2-49c2.7-6.1-1.7-15,4.1-19.9
			c2.9-2.3,7.3-1.8,10.5-3.6c3.9-3.2,9.6-3.1,14,1.2c3.9,3.8,3.9,11.5,2.8,14.3c-1.9,4.6,8.9,5.6,11.1,10.1
			c2.7,5.7-1.7,9.3,3.6,12.8c11.3,7.8,1.7,8.5-4.4,21.4c5.4,20.5-5.2,10.2-8.4,25.9c4.1,11.9,11.6,21.6,0.2,31.1
			c-9.8,11-14.5-9.5-27.2-8.1C194.8,227.3,187.8,226.2,183.5,222.5z"/>
	</g>
	<g>
		<path class="st3" d="M223.3,357.3c3-1-7.1-19.4-3.5-19.5c1.3-0.1,2.7-0.2,4.2-0.3c34.4-3.1,109.9-26,100.3-68.4
			c-6.8-30.1-55-40.9-66.6-43.1l-0.6-0.1l-0.9-0.2l-0.6-0.1l-0.4-0.1l-32.5,8c0.6,13.6,5.4,22.8,12,29.1
			c16.3,15.6,43.6,13.8,44,19.9c1.2,16.1-39.5,34.6-59.2,40.5c0,0-0.1,0-0.4,0.1c-1.7,0.3-8.3,1.6-11.4,5.8
			C204.2,333.8,220.3,358.3,223.3,357.3z"/>
	</g>
	<g class="st4">
		<path class="st2" d="M219.1,323.2l5,14.3c34.4-3.1,109.9-26,100.3-68.4c-6.8-30.1-55-40.9-66.6-43.1l-0.6-0.1l-0.9-0.2l-0.6-0.1
			l-0.4-0.1l-20.6,37.1c1.4,1.3,2.8,2.5,4.3,3.6c16.4,11.8,39.4,10.8,39.8,16.4c1.2,16.1-39.5,34.6-59.2,40.5
			C219.5,323.1,219.3,323.1,219.1,323.2z"/>
	</g>
	<g>
		<path class="st5" d="M219.1,323.2l1.6,4.7c5.7-1.6,12.5-3.3,20.5-5.4c45.5-11.6,56.3-38.6,50.4-49.6
			c-7.8-14.7-31.5-10.6-41.7-25.9c0,0-3.8,14-11,19.2c16.4,11.8,39.4,10.8,39.8,16.4c1.2,16.1-39.5,34.6-59.2,40.5
			C219.5,323.1,219.3,323.1,219.1,323.2z"/>
	</g>
	<g>
		<path class="st3" d="M212.8,430.1c1.3,4.2,15.8,28.2,20.1,25.4c4.3-2.8-7.4-23.6-6.9-27.6c0.3-2.2,1-4.1,1.6-5.4
			c0.5-1,0.8-1.6,0.8-1.6s15.5-17.6,28.7-38.7c7.7-12.2,14.6-25.5,17.2-37.2c7.3-32.6-19.2-119.6-19.2-119.6l-27,6.7l-5.1,1.3
			l-0.4,0.1c-4.6,7.6-7.4,14.9-8.8,22c-0.1,0.3-0.1,0.6-0.2,1c-6,33.8,19.6,61.9,22.3,87.3c2.2,21.3-17.9,74-17.9,74
			s-0.1,0.1-0.3,0.4c-0.1,0.2-0.3,0.4-0.6,0.8c-0.9,1.2-2.3,3.3-3.4,5.5C212.9,426.4,212.3,428.5,212.8,430.1z"/>
	</g>
	<g class="st4">
		<path class="st2" d="M216.5,418.6l0.7,0.3l2.8,1.2l7.7,3.7c1.2-2.6,14.5-18.5,29.4-41.5c8-12.3,15.1-25.7,17.9-37.5
			c7.8-32.8-18.6-119.8-18.6-119.8l-28.4,7.1l-5,1.2c0,0,0,0,0,0c-4.8,7.7-7.7,15-9.2,22.1c-0.1,0.3-0.1,0.6-0.2,1
			c-6.4,34,19.6,61.9,22.1,87.4c2.1,21.3-19,74.4-19,74.4S216.7,418.4,216.5,418.6z"/>
	</g>
	<g>
		<path class="st5" d="M220,420.1c6.9-15.6,28.5-57.5,27.9-71.4c-0.9-21.7-21.1-54.7-24.6-77.7c-2.3-14.9,7.6-38.6,7.6-38.6
			l-2.7-0.3l-0.2,0l-5,1.2c0,0,0,0,0,0l-0.4,0.1c-4.6,7.6-7.4,14.9-8.8,22c-0.1,0.3-0.1,0.6-0.2,1c-6.4,34,19.6,61.9,22.1,87.4
			c2.1,21.3-19,74.4-19,74.4s-0.1,0.1-0.3,0.4L220,420.1z"/>
	</g>
	<g>
		<path class="st1" d="M212.1,325.4c-6.4,0.6-6.6,7.1-8.7,10.1c-0.3,0.5-0.4,1.1-0.2,1.7l1.4,3.1c0.3,0.6,0.8,1,1.5,1l0.1,0
			c0.8,0,1.4,0.5,1.6,1.3c2.2,7.7,9.4,20.3,13.7,19.9c3.8-0.3,1.3-11.8,1.3-11.8C216.3,351.2,214.4,341.4,212.1,325.4z"/>
	</g>
	<g>
		<path class="st3" d="M223.7,147.6l2.3,12.5l-5.2,3.3c-22-16.1-38.3-25.7-49.5-47.1c-1.2-2.2-2.3-4.6-3.3-7.1
			c-2.5-7.7-7.3-15.6-9.3-14.1c-2.6,1.9,1.6,8.3-0.3,7.5c-4.8-1.9-10.1-12.6-12.7-9c-4.1,5.5-0.4,17.1,12.2,20.1
			c1.8,0.4,3.3,4.2,3.7,6c6.7,29.3,25,52.1,49.7,70.4l-0.1,0.3c0,0,7.8,9.9,10.5,22.6c1.4,6.3,0.8,20.7,0.8,20.7l32.5-8
			c0,0,7.7-27.1,5.4-36.7c0.1,0,24.2,0.7,40.4-8.5c10.5-6,14.3-36.9,14.3-36.9c8.4-7-0.9-13,2.5-14.7c3.9-1.9,6.2-3.3,6.2-4.2
			c0-1.6-4.8-0.8-11.8,2.7c-3.7,1.9-5.5,14.9-5.5,14.9s-5.6,14.5-13.8,18.5c-8.9,4.3-26.5,1.8-48.8,1l-5.7-2l-3.6-11.2L223.7,147.6z
			"/>
	</g>
	<g>
		<path class="st6" d="M191.1,172.2c0.5,0.5,1,1,1.5,1.5c5.7,5.8,12.1,11.2,18.9,16.2l-0.1,0.3c0,0,7.8,9.9,10.5,22.6
			c0.9,4,0.1,12.5-0.5,18c-0.2,2,1.7,3.7,3.7,3c1.9-0.7,3.9-1.1,5.8-1.4c9.4-1.1,19.2,1.7,31-5.5c0.9-0.5,1.4-1.5,1.4-2.5
			c-0.1-6-0.7-27.5-2.8-35.7c0,0,0,0,0.1,0c1.4,0,24.6,0.4,40.3-8.5c0.2-0.1,0.4-0.3,0.7-0.4c10-6.4,13.8-25.1,14.5-32.9l-11.1-3.8
			c-1.2,3.7-4,13.5-12.2,17.5c-8.9,4.3-26.5,1.8-48.8,1l-5.7-2l-12.4,0.3l-5.2,3.3c-22-16.1-38.3-25.7-49.5-47.1l-9.6,3.3
			C166.5,140.1,176.8,157.4,191.1,172.2z"/>
	</g>
	<g class="st7">
		<path d="M260.6,188.8C260.6,188.8,260.6,188.8,260.6,188.8c1.5,0,25.4,0.4,41.1-8.9c-17.9,3.6-20.7,3.8-22.3,3.8
			c-7,0-14.7-1.5-21.4-5.3l-6.4-3.6C259.3,183.2,260.6,188.8,260.6,188.8z"/>
	</g>
	<g class="st7">
		<path d="M221.4,230.9c-0.2,2,1.7,3.7,3.7,3c1.9-0.7,3.9-1.1,5.8-1.4c0.6-5.3,1.1-13.9-0.8-22.2c-3.2-13.3-12-25.3-12-25.3
			l-25.5-11.3c5.7,5.8,12.1,11.2,18.9,16.2l-0.1,0.3c0,0,7.8,9.9,10.5,22.6C222.8,216.9,222.1,225.3,221.4,230.9z"/>
	</g>
	<g>
		<path class="st1" d="M214.7,422.8c-5.1,3.5-3.2,7.3-4.7,10.6c-0.2,0.5-0.2,1.2,0.1,1.7l1.9,2.8c0.4,0.5,1,0.8,1.6,0.7l0.1,0
			c0.8-0.1,1.5,0.3,1.8,1c3.5,7.2,12.9,18.3,17.1,17.2c3.7-1-0.8-11.9-0.8-11.9C225.6,446.5,219.9,438.1,214.7,422.8z"/>
	</g>
	<g>
		<path class="st3" d="M226.8,121.9c0,0-0.3,14.3-7.3,17.3c0,0-3.9-3.6-5.8-1c-1.9,2.6,2.8,7.1,2.8,7.1c5.8,6.1,24.3,9.6,23.5-2.3
			C239,129.8,226.8,121.9,226.8,121.9z"/>
	</g>
	<path class="st1" d="M211,120.9C211,120.9,211,120.9,211,120.9C211,120.9,211,120.9,211,120.9z"/>
	<path class="st1" d="M211.8,225.5c-1.5-0.1-3.1,0-4.6,0.1c-1.5,0.1-3,0.3-4.5,0.5c-2.9,0.4-5.8,0.8-8.8,0.8c-2.8,0-5.6-0.3-8.2-1.5
		c-2.5-1.1-4.6-2.8-6.4-4.8c-3.5-3.8-6.2-9.2-5.1-14.5c1-5,4.9-8.8,8.8-11.7c4-3.1,8.4-5.7,11.4-9.8c0.4-0.5,0.7-1,1-1.6
		c0.1-0.1-0.1-0.2-0.2-0.1c-1.5,2.2-3.3,4.1-5.4,5.8c-2.1,1.7-4.3,3.2-6.4,4.7c-4,2.9-8,6.4-9.6,11.3c-1.6,5.2,0.4,10.7,3.7,14.9
		c1.7,2.1,3.6,4.1,6,5.5c2.4,1.4,5.1,2.2,7.9,2.4c2.9,0.3,5.8,0,8.7-0.4c1.5-0.2,3.1-0.5,4.6-0.7c1.6-0.2,3.2-0.5,4.8-0.6
		c0.8,0,1.6-0.1,2.3-0.1C211.9,225.6,211.9,225.5,211.8,225.5z"/>
	<path class="st1" d="M218.5,117.1c-4.8-0.1-10.5,0.4-13.7,4.4c-1.6,1.9-2,4.4-1.7,6.8c0.3,2.8,1.3,5.4,1.4,8.2
		c0.1,1.5-0.2,3-0.8,4.3c-0.3,0.6-0.6,1.3-1,1.8c-0.4,0.6-0.8,1.2-1.3,1.8c-0.1,0.2,0.1,0.4,0.2,0.2c0.4-0.4,0.9-0.8,1.2-1.3
		c0.4-0.5,0.7-1,1-1.5c0.6-1,1-2.1,1.2-3.3c0.4-2.7-0.4-5.4-1-8c-0.5-2.5-0.9-5.3,0.3-7.7c1-2,3-3.4,5-4.2c2.9-1.2,6-1.2,9.1-1.4
		C218.6,117.3,218.6,117.1,218.5,117.1z"/>
</g>
<g>
	<path class="st0" d="M402.3,283.4h-68.2c-3.1,0-5.7-2.5-5.7-5.7V247c0-3.1,2.5-5.7,5.7-5.7h68.2c3.1,0,5.7,2.5,5.7,5.7v30.7
		C408,280.8,405.4,283.4,402.3,283.4z"/>
</g>
<path class="st8" d="M335.9,262.4c0-1.7,1.4-3.1,3.1-3.1c1.7,0,3.1,1.4,3.1,3.1c0,1.7-1.4,3.1-3.1,3.1
	C337.2,265.4,335.9,264,335.9,262.4z"/>
<path class="st8" d="M348.1,262.4c0-1.7,1.4-3.1,3.1-3.1c1.7,0,3.1,1.4,3.1,3.1c0,1.7-1.4,3.1-3.1,3.1
	C349.5,265.4,348.1,264,348.1,262.4z"/>
<path class="st8" d="M360.3,262.4c0-1.7,1.4-3.1,3.1-3.1c1.7,0,3.1,1.4,3.1,3.1c0,1.7-1.4,3.1-3.1,3.1
	C361.7,265.4,360.3,264,360.3,262.4z"/>
<path class="st8" d="M372.6,262.4c0-1.7,1.4-3.1,3.1-3.1c1.7,0,3.1,1.4,3.1,3.1c0,1.7-1.4,3.1-3.1,3.1
	C373.9,265.4,372.6,264,372.6,262.4z"/>
<path class="st8" d="M384.8,262.4c0-1.7,1.4-3.1,3.1-3.1c1.7,0,3.1,1.4,3.1,3.1c0,1.7-1.4,3.1-3.1,3.1
	C386.2,265.4,384.8,264,384.8,262.4z"/>
<path class="st8" d="M397,262.4c0-1.7,1.4-3.1,3.1-3.1c1.7,0,3.1,1.4,3.1,3.1c0,1.7-1.4,3.1-3.1,3.1C398.4,265.4,397,264,397,262.4z
	"/>
<path class="st6" d="M390.2,155.5h-59.8c-5.5,0-9.9-4.4-9.9-9.9v-22.3c0-5.4,4.4-9.9,9.9-9.9h59.8c5.5,0,9.9,4.4,9.9,9.9v22.3
	C400.1,151.1,395.7,155.5,390.2,155.5z"/>
<g>
	<path class="st9" d="M192.4,121h-59.8c-5.5,0-9.9-4.4-9.9-9.9V88.9c0-5.5,4.4-9.9,9.9-9.9h59.8c5.4,0,9.9,4.4,9.9,9.9v22.3
		C202.3,116.6,197.8,121,192.4,121z"/>
	<g>
		<path class="st8" d="M172.1,89.3h-10.3c-0.2,0-0.4-0.3-0.4-0.8l0,0c0-0.4,0.2-0.8,0.4-0.8h10.3c0.2,0,0.4,0.3,0.4,0.8l0,0
			C172.5,88.9,172.3,89.3,172.1,89.3z"/>
		<path class="st8" d="M190.3,89.3h-16c-0.2,0-0.4-0.3-0.4-0.8l0,0c0-0.4,0.2-0.8,0.4-0.8h16c0.2,0,0.4,0.3,0.4,0.8l0,0
			C190.8,88.9,190.6,89.3,190.3,89.3z"/>
		<path class="st8" d="M196.3,89.3H193c-0.2,0-0.4-0.3-0.4-0.7l0,0c0-0.4,0.2-0.7,0.4-0.7h3.4c0.2,0,0.4,0.3,0.4,0.7l0,0
			C196.7,89,196.5,89.3,196.3,89.3z"/>
		<path class="st8" d="M196.3,97.2h-34.5c-0.2,0-0.4-0.3-0.4-0.8l0,0c0-0.4,0.2-0.8,0.4-0.8h34.5c0.2,0,0.4,0.3,0.4,0.8l0,0
			C196.7,96.9,196.5,97.2,196.3,97.2z"/>
		<path class="st8" d="M172.1,112.2h-10.3c-0.2,0-0.4-0.3-0.4-0.8v0c0-0.4,0.2-0.8,0.4-0.8h10.3c0.2,0,0.4,0.3,0.4,0.8l0,0
			C172.5,111.9,172.3,112.2,172.1,112.2z"/>
		<path class="st8" d="M190.3,112.2h-16c-0.2,0-0.4-0.3-0.4-0.8l0,0c0-0.4,0.2-0.8,0.4-0.8h16c0.2,0,0.4,0.3,0.4,0.8l0,0
			C190.8,111.9,190.6,112.2,190.3,112.2z"/>
		<path class="st8" d="M179,104.3h-17.2c-0.2,0-0.4-0.3-0.4-0.8l0,0c0-0.4,0.2-0.8,0.4-0.8H179c0.2,0,0.4,0.3,0.4,0.8l0,0
			C179.4,104,179.2,104.3,179,104.3z"/>
		<path class="st8" d="M196.3,104.3h-13.2c-0.2,0-0.4-0.3-0.4-0.8l0,0c0-0.4,0.2-0.8,0.4-0.8h13.2c0.2,0,0.4,0.3,0.4,0.8l0,0
			C196.7,104,196.5,104.3,196.3,104.3z"/>
		<path class="st8" d="M196.3,112.2H193c-0.2,0-0.4-0.3-0.4-0.7l0,0c0-0.4,0.2-0.7,0.4-0.7h3.4c0.2,0,0.4,0.3,0.4,0.7l0,0
			C196.7,111.9,196.5,112.2,196.3,112.2z"/>
	</g>
	<ellipse transform="matrix(0.1631 -0.9866 0.9866 0.1631 21.1873 223.725)" class="st8" cx="142.5" cy="99.4" rx="15" ry="15"/>
	<g>
		
			<ellipse transform="matrix(0.3827 -0.9239 0.9239 0.3827 -7.277954e-02 190.14)" class="st10" cx="142.2" cy="95.1" rx="5.8" ry="5.8"/>
		<path class="st10" d="M147.6,101c-0.5-0.4-1.1-0.4-1.6,0c-1,0.8-2.3,1.3-3.7,1.3c-1.4,0-2.6-0.5-3.6-1.2c-0.5-0.4-1.1-0.4-1.6,0
			c-1.2,1-1.9,2.5-1.9,4.4v0.2c0,1,0.8,1.8,1.8,1.8h10.9c1,0,1.8-0.8,1.8-1.8v-0.2C149.7,103.5,148.9,102,147.6,101z"/>
	</g>
</g>
<g>
	<path class="st0" d="M158.9,321.6H93.2c-6.3,0-11.4-5.1-11.4-11.4v-20.7c0-6.3,5.1-11.4,11.4-11.4h65.7c6.3,0,11.4,5.1,11.4,11.4
		v20.7C170.2,316.5,165.2,321.6,158.9,321.6z"/>
	<path class="st8" d="M147.3,297H93c-1.6,0-2.9-1.3-2.9-2.9v-0.4c0-1.6,1.3-2.9,2.9-2.9h54.3c1.6,0,2.9,1.3,2.9,2.9v0.4
		C150.2,295.7,148.9,297,147.3,297z"/>
	<path class="st8" d="M147.3,311.5H93.1c-1.6,0-2.9-1.3-2.9-2.9v-0.4c0-1.6,1.3-2.9,2.9-2.9h54.2c1.6,0,2.9,1.3,2.9,2.9v0.4
		C150.2,310.2,148.9,311.5,147.3,311.5z"/>
	<path class="st8" d="M162.2,297h-5.9c-1.6,0-2.9-1.3-2.9-2.9v-0.4c0-1.6,1.3-2.9,2.9-2.9h5.9c1.6,0,2.9,1.3,2.9,2.9v0.4
		C165.2,295.7,163.9,297,162.2,297z"/>
	<path class="st8" d="M162.2,311.5h-5.9c-1.6,0-2.9-1.3-2.9-2.9v-0.4c0-1.6,1.3-2.9,2.9-2.9h5.9c1.6,0,2.9,1.3,2.9,2.9v0.4
		C165.2,310.2,163.9,311.5,162.2,311.5z"/>
	<g>
		<path class="st0" d="M95.8,306.4l0.2,1.3c0,0.1,0.1,0.1,0.1,0.1l1.2-0.4c0.1,0,0.2,0.1,0.1,0.2l-1,0.8c-0.1,0-0.1,0.1,0,0.2l1,0.8
			c0.1,0.1,0,0.2-0.1,0.2l-1.2-0.5c-0.1,0-0.1,0-0.1,0.1l-0.2,1.3c0,0.1-0.2,0.1-0.2,0l-0.2-1.3c0-0.1-0.1-0.1-0.1-0.1l-1.2,0.4
			c-0.1,0-0.2-0.1-0.1-0.2l1-0.8c0.1,0,0.1-0.1,0-0.2l-1-0.8c-0.1-0.1,0-0.2,0.1-0.2l1.2,0.5c0.1,0,0.1,0,0.1-0.1l0.2-1.3
			C95.6,306.2,95.8,306.2,95.8,306.4z"/>
		<path class="st0" d="M101.6,306.4l0.2,1.3c0,0.1,0.1,0.1,0.1,0.1l1.2-0.4c0.1,0,0.2,0.1,0.1,0.2l-1,0.8c-0.1,0-0.1,0.1,0,0.2
			l1,0.8c0.1,0.1,0,0.2-0.1,0.2l-1.2-0.5c-0.1,0-0.1,0-0.1,0.1l-0.2,1.3c0,0.1-0.2,0.1-0.2,0l-0.2-1.3c0-0.1-0.1-0.1-0.1-0.1
			l-1.2,0.4c-0.1,0-0.2-0.1-0.1-0.2l1-0.8c0.1,0,0.1-0.1,0-0.2l-1-0.8c-0.1-0.1,0-0.2,0.1-0.2l1.2,0.5c0.1,0,0.1,0,0.1-0.1l0.2-1.3
			C101.4,306.2,101.5,306.2,101.6,306.4z"/>
		<path class="st0" d="M107.3,306.4l0.2,1.3c0,0.1,0.1,0.1,0.1,0.1l1.2-0.4c0.1,0,0.2,0.1,0.1,0.2l-1,0.8c-0.1,0-0.1,0.1,0,0.2
			l1,0.8c0.1,0.1,0,0.2-0.1,0.2l-1.2-0.5c-0.1,0-0.1,0-0.1,0.1l-0.2,1.3c0,0.1-0.2,0.1-0.2,0l-0.2-1.3c0-0.1-0.1-0.1-0.1-0.1
			l-1.2,0.4c-0.1,0-0.2-0.1-0.1-0.2l1-0.8c0.1,0,0.1-0.1,0-0.2l-1-0.8c-0.1-0.1,0-0.2,0.1-0.2l1.2,0.5c0.1,0,0.1,0,0.1-0.1l0.2-1.3
			C107.1,306.2,107.3,306.2,107.3,306.4z"/>
		<path class="st0" d="M113,306.4l0.2,1.3c0,0.1,0.1,0.1,0.1,0.1l1.2-0.4c0.1,0,0.2,0.1,0.1,0.2l-1,0.8c-0.1,0-0.1,0.1,0,0.2l1,0.8
			c0.1,0.1,0,0.2-0.1,0.2l-1.2-0.5c-0.1,0-0.1,0-0.1,0.1l-0.2,1.3c0,0.1-0.2,0.1-0.2,0l-0.2-1.3c0-0.1-0.1-0.1-0.1-0.1l-1.2,0.4
			c-0.1,0-0.2-0.1-0.1-0.2l1-0.8c0.1,0,0.1-0.1,0-0.2l-1-0.8c-0.1-0.1,0-0.2,0.1-0.2l1.2,0.5c0.1,0,0.1,0,0.1-0.1l0.2-1.3
			C112.9,306.2,113,306.2,113,306.4z"/>
		<path class="st0" d="M118.8,306.4l0.2,1.3c0,0.1,0.1,0.1,0.1,0.1l1.2-0.4c0.1,0,0.2,0.1,0.1,0.2l-1,0.8c-0.1,0-0.1,0.1,0,0.2
			l1,0.8c0.1,0.1,0,0.2-0.1,0.2l-1.2-0.5c-0.1,0-0.1,0-0.1,0.1l-0.2,1.3c0,0.1-0.2,0.1-0.2,0l-0.2-1.3c0-0.1-0.1-0.1-0.1-0.1
			l-1.2,0.4c-0.1,0-0.2-0.1-0.1-0.2l1-0.8c0.1,0,0.1-0.1,0-0.2l-1-0.8c-0.1-0.1,0-0.2,0.1-0.2l1.2,0.5c0.1,0,0.1,0,0.1-0.1l0.2-1.3
			C118.6,306.2,118.8,306.2,118.8,306.4z"/>
	</g>
	<path class="st0" d="M94.5,293.9c0-0.4,0.3-0.7,0.7-0.7c0.4,0,0.7,0.3,0.7,0.7c0,0.4-0.3,0.7-0.7,0.7
		C94.8,294.6,94.5,294.3,94.5,293.9z"/>
	<path class="st0" d="M96.9,293.9c0-0.4,0.3-0.7,0.7-0.7c0.4,0,0.7,0.3,0.7,0.7c0,0.4-0.3,0.7-0.7,0.7
		C97.2,294.6,96.9,294.3,96.9,293.9z"/>
	<path class="st0" d="M99.3,293.9c0-0.4,0.3-0.7,0.7-0.7c0.4,0,0.7,0.3,0.7,0.7c0,0.4-0.3,0.7-0.7,0.7
		C99.6,294.6,99.3,294.3,99.3,293.9z"/>
	<path class="st0" d="M101.6,293.9c0-0.4,0.3-0.7,0.7-0.7c0.4,0,0.7,0.3,0.7,0.7c0,0.4-0.3,0.7-0.7,0.7
		C102,294.6,101.6,294.3,101.6,293.9z"/>
	<path class="st0" d="M104,293.9c0-0.4,0.3-0.7,0.7-0.7c0.4,0,0.7,0.3,0.7,0.7c0,0.4-0.3,0.7-0.7,0.7
		C104.3,294.6,104,294.3,104,293.9z"/>
	<path class="st0" d="M106.4,293.9c0-0.4,0.3-0.7,0.7-0.7c0.4,0,0.7,0.3,0.7,0.7c0,0.4-0.3,0.7-0.7,0.7
		C106.7,294.6,106.4,294.3,106.4,293.9z"/>
	<path class="st0" d="M108.8,293.9c0-0.4,0.3-0.7,0.7-0.7s0.7,0.3,0.7,0.7c0,0.4-0.3,0.7-0.7,0.7S108.8,294.3,108.8,293.9z"/>
	<path class="st0" d="M111.2,293.9c0-0.4,0.3-0.7,0.7-0.7c0.4,0,0.7,0.3,0.7,0.7c0,0.4-0.3,0.7-0.7,0.7
		C111.5,294.6,111.2,294.3,111.2,293.9z"/>
</g>
<g>
	<path class="st11" d="M326.9,72h-68.2c-3.1,0-5.7-2.5-5.7-5.7V35.7c0-3.1,2.5-5.7,5.7-5.7h68.2c3.1,0,5.7,2.5,5.7,5.7v30.7
		C332.6,69.5,330,72,326.9,72z"/>
</g>
<polygon class="st12" points="326.1,93.1 342.7,95 338.1,86.3 "/>
<polygon class="st11" points="341.2,97.6 363.2,92.3 336.4,89.7 "/>
<polygon class="st11" points="363.3,92.3 330.7,75.1 335,83 "/>
<polygon class="st13" points="363.2,92.3 336.4,89.8 326.1,93.1 335,82.9 "/>
<g>
	<g>
		<g>
			<g>
				<g>
					<g>
						<path class="st9" d="M138.4,372.3c0.2,0.3,0.2,0.6,0.2,1c-0.1,0.5-0.4,0.8-0.9,0.9l-4.3,1.3c-0.4,0.1-0.9,0-1.3-0.3
							c-0.3-0.3-0.5-0.8-0.4-1.2l1.1-4.4c0.1-0.5,0.4-0.8,0.9-0.9c0.4-0.1,0.9,0,1.3,0.3l3.3,3.1
							C138.3,372.1,138.4,372.2,138.4,372.3z M132.8,374.4C132.8,374.4,132.8,374.4,132.8,374.4c0.1,0.1,0.2,0.2,0.3,0.1l4.3-1.3
							c0.1,0,0.2-0.2,0.2-0.2c0,0,0-0.2-0.1-0.3l-3.3-3.1c-0.1-0.1-0.2-0.1-0.3-0.1c0,0-0.2,0.1-0.2,0.2l-1.1,4.4
							C132.7,374.3,132.8,374.3,132.8,374.4z"/>
					</g>
				</g>
			</g>
		</g>
	</g>
</g>
<g>
	<g>
		<g>
			<g>
				<g>
					<g>
						<path class="st0" d="M406.8,208.3c0.2,0.3,0.2,0.6,0.2,1c-0.1,0.5-0.4,0.8-0.9,0.9l-4.3,1.3c-0.4,0.1-0.9,0-1.3-0.3
							c-0.3-0.3-0.5-0.8-0.4-1.2l1.1-4.4c0.1-0.5,0.4-0.8,0.9-0.9c0.4-0.1,0.9,0,1.3,0.3l3.3,3.1
							C406.7,208.1,406.7,208.2,406.8,208.3z M401.2,210.4C401.2,210.4,401.2,210.4,401.2,210.4c0.1,0.1,0.2,0.2,0.3,0.1l4.3-1.3
							c0.1,0,0.2-0.2,0.2-0.2c0,0,0-0.2-0.1-0.3l-3.3-3.1c-0.1-0.1-0.2-0.1-0.3-0.1c0,0-0.2,0.1-0.2,0.2l-1.1,4.4
							C401.1,210.3,401.1,210.3,401.2,210.4z"/>
					</g>
				</g>
			</g>
		</g>
	</g>
</g>
<g>
	<path class="st9" d="M194.4,333.7l1.6-1.6c0.4-0.4,0.4-0.9,0-1.3c-0.4-0.4-0.9-0.4-1.3,0l-1.6,1.6l-1.6-1.6c-0.4-0.4-0.9-0.4-1.3,0
		c-0.4,0.4-0.4,0.9,0,1.3l1.6,1.6l-1.6,1.6c-0.4,0.4-0.4,0.9,0,1.3c0.2,0.2,0.4,0.3,0.7,0.3s0.5-0.1,0.7-0.3l1.6-1.6l1.6,1.6
		c0.2,0.2,0.4,0.3,0.7,0.3c0.2,0,0.5-0.1,0.7-0.3c0.4-0.4,0.4-0.9,0-1.3L194.4,333.7z"/>
</g>
<g>
	<path class="st14" d="M230.7,63.3l1.6-1.6c0.4-0.4,0.4-0.9,0-1.3c-0.4-0.4-0.9-0.4-1.3,0l-1.6,1.6l-1.6-1.6c-0.4-0.4-0.9-0.4-1.3,0
		c-0.4,0.4-0.4,0.9,0,1.3l1.6,1.6l-1.6,1.6c-0.4,0.4-0.4,0.9,0,1.3c0.2,0.2,0.4,0.3,0.7,0.3s0.5-0.1,0.7-0.3l1.6-1.6l1.6,1.6
		c0.2,0.2,0.4,0.3,0.7,0.3s0.5-0.1,0.7-0.3c0.4-0.4,0.4-0.9,0-1.3L230.7,63.3z"/>
</g>
<g>
	<g>
		<path class="st9" d="M129.7,211.7c-2,0-3.6-1.6-3.6-3.6c0-2,1.6-3.6,3.6-3.6c2,0,3.6,1.6,3.6,3.6
			C133.3,210.1,131.7,211.7,129.7,211.7z M129.7,205.6c-1.4,0-2.5,1.1-2.5,2.5c0,1.4,1.1,2.5,2.5,2.5c1.4,0,2.5-1.1,2.5-2.5
			C132.2,206.7,131.1,205.6,129.7,205.6z"/>
	</g>
</g>
<g>
	<g>
		<path class="st0" d="M390.8,337.3c-2,0-3.6-1.6-3.6-3.6c0-2,1.6-3.6,3.6-3.6c2,0,3.6,1.6,3.6,3.6
			C394.4,335.7,392.8,337.3,390.8,337.3z M390.8,331.2c-1.4,0-2.5,1.1-2.5,2.5c0,1.4,1.1,2.5,2.5,2.5s2.5-1.1,2.5-2.5
			C393.3,332.3,392.2,331.2,390.8,331.2z"/>
	</g>
</g>
<path class="st0" d="M143.5,271c-1.4-0.5-3.1-0.3-4.5-0.2c-1.5,0-3,0-4.5,0c-3,0-6.1,0-9.1,0c-6.1,0-12.3,0-18.4,0.1
	c-1.7,0-3.4,0.1-5.1,0.1c-0.8,0-1.6,0.1-2.5,0.1c-0.8,0.1-1.8,0.1-2.6,0.3c-0.4,0.1-0.4,0.6,0,0.7c1.4,0.5,3,0.3,4.4,0.4
	c1.5,0.1,3,0.1,4.5,0.1c3,0.1,6.1,0,9.1,0.1c6.1,0,12.3,0,18.4,0.1c1.7,0,3.4,0,5.1,0c1.6,0,3.6,0.3,5.2-0.2
	C144.2,272.3,144.2,271.3,143.5,271z"/>
<path class="st0" d="M158.7,271.4c-1.6-0.1-3.2-0.2-4.8-0.2c-0.8,0-1.6,0-2.3,0.1c-0.4,0-0.8,0.1-1.3,0.2c-0.3,0.1-0.7,0.1-1,0.4
	c-0.1,0.2-0.1,0.4,0,0.5c0.2,0.3,0.6,0.3,1,0.4c0.4,0.1,0.8,0.1,1.3,0.1c0.8,0.1,1.5,0.1,2.3,0.1c1.6,0.1,3.2,0.2,4.8,0.3
	c0.5,0.1,1-0.5,1-1C159.7,271.8,159.2,271.4,158.7,271.4z"/>
<path class="st0" d="M394.9,287.8c-0.7-0.3-1.3-0.4-2-0.4c-0.7,0-1.4,0-2.2,0.1c-1.4,0-2.9,0-4.3,0c-2.8,0-5.6,0-8.5,0
	c-2.8,0-5.6,0-8.5,0.1c-2.8,0-5.7-0.1-8.4,0.4c-0.5,0.1-0.5,0.9,0,1c2.7,0.6,5.7,0.4,8.4,0.4c2.8,0,5.6,0,8.5,0.1c2.8,0,5.6,0,8.5,0
	c1.4,0,2.9,0,4.3,0c0.7,0,1.4,0.1,2.2,0.1c0.8,0,1.3-0.1,2-0.4C395.6,288.9,395.6,288.1,394.9,287.8z"/>
<path class="st0" d="M406.8,287.5c-0.4-0.1-0.7,0-1,0c-0.3,0-0.5,0-0.8,0.1l-1.8,0.1c-1.2,0.1-2.3,0.3-3.4,0.5
	c-0.3,0.1-0.3,0.6,0,0.7c1.1,0.2,2.3,0.3,3.4,0.4c0.6,0,1.1,0,1.7,0c0.3,0,0.6,0,0.8,0c0.4,0,0.7,0.1,1,0c0.4-0.1,0.7-0.5,0.7-0.9
	C407.5,288,407.2,287.6,406.8,287.5z"/>
<path class="st6" d="M407.4,135c0-2.3,0-4.6,0-7c0-2.3,0-4.5-0.1-6.8c0-1.1,0-2.3-0.1-3.4c0-0.5-0.1-2-1-1.9
	c-0.8,0.2-0.8,1.5-0.8,2.2c-0.1,1.1-0.1,2.3-0.1,3.4c0,2.3-0.1,4.5-0.1,6.8c0,2.3,0,4.5,0,6.8c0,1.1,0,2.2,0,3.2
	c0.1,1.1,0,2.3,0.5,3.3c0.2,0.5,1,0.5,1.2,0c0.5-1,0.4-2.2,0.5-3.3C407.4,137.2,407.4,136.1,407.4,135z"/>
<path class="st6" d="M407.6,149.5c0-0.6-0.1-1.2-0.1-1.9c-0.1-0.6-0.1-1.5-0.6-1.9c-0.3-0.2-0.7-0.3-0.9,0c-0.4,0.5-0.4,1.3-0.4,1.9
	c0,0.6,0,1.2,0,1.9c0,1.2-0.1,2.5-0.1,3.7c0,0.6,0.5,1.1,1.1,1.1c0.6,0,1-0.5,1.1-1.1C407.7,152,407.6,150.7,407.6,149.5z"/>
<path class="st0" d="M185.9,75.2c-2.7-0.4-5.4-0.4-8.1-0.4l-8.4,0.1c-5.5,0-10.9,0.1-16.4,0.2c-3.1,0.1-6.2,0-9.3,0.4
	c-0.4,0.1-0.4,0.8,0,0.8c2.6,0.4,5.4,0.3,8,0.4c2.8,0,5.6,0.1,8.4,0.1c5.5,0,10.9,0.1,16.4,0.1c3.1,0,6.2,0.1,9.3-0.4
	C186.5,76.4,186.5,75.3,185.9,75.2z"/>
<path class="st0" d="M201,75.4c-0.9-0.2-1.8-0.1-2.7-0.1c-0.9,0-1.7,0-2.6,0c-0.9,0-1.7-0.1-2.6,0c-0.4,0-0.9,0.1-1.3,0.1
	c-0.4,0-0.7,0.1-0.9,0.4c-0.1,0.1-0.1,0.3,0,0.4c0.2,0.3,0.5,0.4,0.9,0.5c0.4,0.1,0.9,0.2,1.3,0.2c0.8,0.1,1.7,0.1,2.5,0.2
	c0.8,0.1,1.7,0.1,2.5,0.2c0.8,0.1,1.8,0.2,2.6,0.1c0.5-0.1,0.9-0.3,0.9-0.8C201.7,76.1,201.5,75.5,201,75.4z"/>
<path class="st11" d="M246.5,51.4c0-1.9,0-3.9,0-5.8c0-3.7,0.2-7.6-0.5-11.3c-0.1-0.3-0.6-0.3-0.7,0c-0.7,3.7-0.5,7.5-0.5,11.3
	c0,1.9,0,3.8,0,5.7c0,1.9-0.1,3.8,0.4,5.6c0.1,0.5,0.9,0.5,1,0C246.6,55.1,246.5,53.3,246.5,51.4z"/>
<path class="st11" d="M246.5,65.2c0-0.6-0.1-1.2-0.1-1.8c0-0.4-0.1-1.5-0.8-1.3c-0.6,0.1-0.6,1-0.6,1.5c-0.1,0.6-0.1,1.2-0.1,1.8
	c-0.1,1.2-0.1,2.4-0.1,3.6c0,1.3,2,1.3,2,0C246.6,67.7,246.6,66.4,246.5,65.2z"/>
<circle class="st9" cx="180.3" cy="262.4" r="5.5"/>
<path class="st9" d="M169.1,242.9c0-1.4,1.2-2.6,2.6-2.6s2.6,1.2,2.6,2.6c0,1.4-1.2,2.6-2.6,2.6S169.1,244.3,169.1,242.9z"/>
<path class="st9" d="M96.5,337.3c0-1.4,1.2-2.6,2.6-2.6c1.4,0,2.6,1.2,2.6,2.6c0,1.4-1.2,2.6-2.6,2.6
	C97.6,339.9,96.5,338.7,96.5,337.3z"/>
<path class="st9" d="M218.3,318.8c0-1.4,1.2-2.6,2.6-2.6c1.4,0,2.6,1.2,2.6,2.6c0,1.4-1.2,2.6-2.6,2.6
	C219.5,321.4,218.3,320.3,218.3,318.8z"/>
<g>
	<circle class="st0" cx="350.7" cy="229.2" r="4.9"/>
</g>
<g>
	<circle class="st11" cx="286.1" cy="107" r="4.9"/>
</g>
<g>
	<circle class="st0" cx="335.9" cy="219.7" r="2.5"/>
</g>
<g>
	<path class="st11" d="M263.9,84.8c0-1.4,1.1-2.5,2.5-2.5c1.4,0,2.5,1.1,2.5,2.5c0,1.4-1.1,2.5-2.5,2.5
		C265,87.3,263.9,86.2,263.9,84.8z"/>
</g>
<g>
	<circle class="st11" cx="342.4" cy="27.5" r="2.5"/>
</g>
<g>
	<path class="st0" d="M364,305.1c0-1.4,1.1-2.5,2.5-2.5c1.4,0,2.5,1.1,2.5,2.5c0,1.4-1.1,2.5-2.5,2.5
		C365.1,307.5,364,306.4,364,305.1z"/>
</g>
<ellipse transform="matrix(0.2298 -0.9732 0.9732 0.2298 -16.1904 279.592)" class="st0" cx="168.5" cy="150" rx="5.7" ry="5.7"/>
<path class="st6" d="M367.7,173.2c0-2.2,1.8-3.9,3.9-3.9c2.2,0,3.9,1.8,3.9,3.9c0,2.2-1.8,3.9-3.9,3.9
	C369.4,177.1,367.7,175.3,367.7,173.2z"/>
<circle class="st0" cx="133.3" cy="136.8" r="3.2"/>
<path class="st6" d="M386.1,167.7c0-1.2,1-2.2,2.2-2.2c1.2,0,2.2,1,2.2,2.2c0,1.2-1,2.2-2.2,2.2
	C387.1,169.9,386.1,168.9,386.1,167.7z"/>
<circle class="st0" cx="215.1" cy="88" r="3.2"/>
<g>
	<path class="st8" d="M268.8,42.9v11.3h4.4v2.6h-7.8V42.9H268.8z"/>
	<path class="st8" d="M279.9,57c-3.3,0-5.7-2.2-5.7-5.7c0-3.5,2.5-5.7,5.8-5.7c3.3,0,5.8,2.2,5.8,5.7C285.7,54.8,283.2,57,279.9,57z
		 M279.9,54c1.2,0,2.3-0.9,2.3-2.8c0-1.9-1.1-2.8-2.3-2.8c-1.2,0-2.3,0.9-2.3,2.8C277.7,53.1,278.7,54,279.9,54z"/>
	<path class="st8" d="M291.7,45.6c1.6,0,2.8,0.7,3.4,1.7v-1.6h3.4v11.1c0,3-1.7,5.5-5.5,5.5c-3.3,0-5.4-1.7-5.7-4.3h3.4
		c0.2,0.8,1.1,1.4,2.2,1.4c1.3,0,2.3-0.7,2.3-2.5v-1.6c-0.6,1-1.8,1.7-3.4,1.7c-2.7,0-4.9-2.2-4.9-5.7
		C286.9,47.8,289,45.6,291.7,45.6z M292.7,48.5c-1.3,0-2.4,1-2.4,2.7c0,1.8,1.2,2.8,2.4,2.8c1.3,0,2.4-1,2.4-2.7
		S294,48.5,292.7,48.5z"/>
	<path class="st8" d="M305.2,42.9h3.4v13.9h-3.4V42.9z"/>
	<path class="st8" d="M318.7,50.8c0-1.5-0.8-2.3-2.1-2.3s-2.1,0.8-2.1,2.3v6h-3.4V45.7h3.4v1.5c0.7-0.9,1.9-1.6,3.4-1.6
		c2.6,0,4.3,1.7,4.3,4.7v6.5h-3.4V50.8z"/>
</g>
<g>
	<path class="st8" d="M327.2,135.7l3.4-0.2c0.1,0.5,0.2,1,0.4,1.2c0.4,0.5,0.9,0.7,1.6,0.7c0.5,0,0.9-0.1,1.2-0.4
		c0.3-0.2,0.4-0.5,0.4-0.8c0-0.3-0.1-0.6-0.4-0.8c-0.3-0.2-0.9-0.5-1.8-0.7c-1.5-0.3-2.7-0.8-3.3-1.4c-0.7-0.6-1-1.3-1-2.2
		c0-0.6,0.2-1.1,0.5-1.7c0.3-0.5,0.9-0.9,1.5-1.2c0.7-0.3,1.6-0.4,2.8-0.4c1.5,0,2.6,0.3,3.3,0.8c0.8,0.5,1.2,1.4,1.4,2.6l-3.3,0.2
		c-0.1-0.5-0.3-0.9-0.6-1.1c-0.3-0.2-0.7-0.4-1.2-0.4c-0.4,0-0.7,0.1-0.9,0.3c-0.2,0.2-0.3,0.4-0.3,0.6c0,0.2,0.1,0.3,0.3,0.5
		c0.2,0.2,0.6,0.3,1.2,0.4c1.5,0.3,2.7,0.7,3.3,1c0.7,0.3,1.2,0.8,1.5,1.3c0.3,0.5,0.5,1.1,0.5,1.7c0,0.7-0.2,1.4-0.6,2
		c-0.4,0.6-1,1.1-1.7,1.4c-0.7,0.3-1.6,0.5-2.8,0.5c-1.9,0-3.3-0.4-4-1.1C327.7,137.8,327.3,136.9,327.2,135.7z"/>
	<path class="st8" d="M339.2,128.1h3.2v2.2h-3.2V128.1z M339.2,131.2h3.2v8.3h-3.2V131.2z"/>
	<path class="st8" d="M350.2,131.2h3v7.8l0,0.4c0,0.5-0.1,1-0.3,1.5c-0.2,0.5-0.5,0.9-0.9,1.1c-0.4,0.3-0.8,0.5-1.4,0.6
		c-0.6,0.1-1.2,0.2-1.9,0.2c-1.7,0-2.8-0.2-3.4-0.7c-0.6-0.5-0.9-1.2-0.9-2c0-0.1,0-0.2,0-0.4l3.1,0.4c0.1,0.3,0.2,0.5,0.4,0.6
		c0.2,0.2,0.5,0.2,0.9,0.2c0.5,0,0.8-0.1,1-0.4c0.2-0.2,0.3-0.7,0.3-1.3V138c-0.3,0.4-0.6,0.6-0.9,0.8c-0.5,0.3-1,0.4-1.6,0.4
		c-1.1,0-2-0.5-2.7-1.5c-0.5-0.7-0.7-1.6-0.7-2.7c0-1.3,0.3-2.3,0.9-2.9c0.6-0.7,1.4-1,2.4-1c0.6,0,1.2,0.1,1.6,0.3
		c0.4,0.2,0.8,0.6,1.2,1.1V131.2z M347.2,135.2c0,0.6,0.1,1,0.4,1.3c0.3,0.3,0.6,0.4,1,0.4c0.4,0,0.7-0.1,1-0.4
		c0.3-0.3,0.4-0.8,0.4-1.4c0-0.6-0.1-1.1-0.4-1.4c-0.3-0.3-0.6-0.5-1-0.5s-0.7,0.1-1,0.4C347.3,134.1,347.2,134.6,347.2,135.2z"/>
	<path class="st8" d="M355.1,131.2h3v1.3c0.4-0.6,0.9-0.9,1.3-1.2c0.5-0.2,1-0.4,1.7-0.4c0.9,0,1.6,0.3,2.1,0.8
		c0.5,0.5,0.7,1.3,0.7,2.4v5.3h-3.2V135c0-0.5-0.1-0.9-0.3-1.1c-0.2-0.2-0.5-0.3-0.8-0.3c-0.4,0-0.7,0.1-0.9,0.4
		c-0.2,0.3-0.4,0.8-0.4,1.6v4h-3.2V131.2z"/>
	<path class="st8" d="M378.7,128.1h3.5v6.8c0,0.7-0.1,1.3-0.3,1.9c-0.2,0.6-0.5,1.1-1,1.6c-0.4,0.4-0.9,0.8-1.4,0.9
		c-0.7,0.3-1.5,0.4-2.5,0.4c-0.6,0-1.2,0-1.8-0.1c-0.7-0.1-1.2-0.2-1.6-0.5c-0.4-0.2-0.8-0.6-1.2-1c-0.4-0.4-0.6-0.9-0.8-1.3
		c-0.2-0.7-0.3-1.4-0.3-1.9v-6.8h3.5v7c0,0.6,0.2,1.1,0.5,1.5c0.3,0.4,0.8,0.5,1.4,0.5c0.6,0,1.1-0.2,1.4-0.5
		c0.3-0.3,0.5-0.8,0.5-1.5V128.1z"/>
	<path class="st8" d="M384.4,142.7v-11.4h3v1.2c0.4-0.5,0.8-0.9,1.1-1c0.5-0.2,1-0.4,1.5-0.4c1.1,0,2,0.4,2.6,1.3
		c0.6,0.8,0.9,1.9,0.9,3.1c0,1.4-0.3,2.4-1,3.2c-0.7,0.7-1.5,1.1-2.5,1.1c-0.5,0-0.9-0.1-1.3-0.2c-0.4-0.2-0.8-0.4-1.1-0.7v4H384.4z
		 M387.6,135.4c0,0.7,0.1,1.1,0.4,1.5c0.3,0.3,0.6,0.5,1,0.5c0.4,0,0.7-0.2,0.9-0.5c0.2-0.3,0.4-0.8,0.4-1.5c0-0.7-0.1-1.2-0.4-1.5
		c-0.3-0.3-0.6-0.5-1-0.5c-0.4,0-0.7,0.2-1,0.5C387.7,134.2,387.6,134.7,387.6,135.4z"/>
</g>
</svg>
