<svg xmlns="http://www.w3.org/2000/svg" width="46.524" height="44" viewBox="0 0 46.524 44">
    <g data-name="visitor total">
        <path data-name="Path 1670" d="M15.967 12.795a4.67 4.67 0 1 0 4.67 4.67 4.637 4.637 0 0 0-4.67-4.67zm0 7.369a2.7 2.7 0 1 1 2.7-2.7 2.707 2.707 0 0 1-2.7 2.7z"/>
        <path data-name="Path 1671" d="M23.876 29.694h-2.024a6.06 6.06 0 0 0-11.715 0H8.112a8.055 8.055 0 0 1 15.494-1.107 2.023 2.023 0 0 1 .135.432 5.97 5.97 0 0 0 .135.675z"/>
        <path data-name="Path 1672" d="m44.58 21.865-.054.27h1.836v-.27z"/>
        <path data-name="Path 1673" d="M46.362 7.315A7.3 7.3 0 0 0 39.05 0H9.623a7.3 7.3 0 0 0-7.315 7.315l.081 14.82-2.294 14.55A6.075 6.075 0 0 0 6.25 44h29.638a8.593 8.593 0 0 0 8.314-7.5l2.321-14.631zm-4.1 29.18a6.549 6.549 0 0 1-6.236 5.4H6.573a4.486 4.486 0 0 1-4.535-5.4l2.322-14.63-.135-14.55a5.4 5.4 0 0 1 5.4-5.4h29.45a5.4 5.4 0 0 1 5.4 5.4v14.82z"/>
        <path data-name="Rectangle 11236" d="M32.352 15.117h2.16v14.469h-2.16z"/>
        <path data-name="Rectangle 11237" d="M40.664 21.269v2.16H26.195v-2.16z"/>
    </g>
</svg>
