<svg xmlns="http://www.w3.org/2000/svg" width="358" height="780" viewBox="0 0 358 780">
    <defs>
        <clipPath id="clip-path">
            <path id="Rectangle_10123" data-name="Rectangle 10123" transform="translate(16 2323)" style="stroke:#707070;fill:#fff" d="M0 0h358v780H0z"/>
        </clipPath>
        <clipPath id="clip-path-2">
            <path id="Rectangle_10127" data-name="Rectangle 10127" transform="translate(112.061 28.827)" d="M0 0h172.07v124.809H0z"/>
        </clipPath>
        <style>
            .cls-12{fill:#fff}.cls-3,.cls-5{fill:#2d9735}.cls-3,.cls-6{font-size:11px;font-family:IBMPlexSans-Bold,IBM Plex Sans;font-weight:700}.cls-6{fill:#f5cb58;font-size:20px}.cls-8{fill:#233862}.cls-9{fill:#ffb27d}.cls-10{fill:#2b478b}.cls-14{fill:#f4f4f4}.cls-16{fill:none;stroke:#2d9735;stroke-linecap:round;stroke-linejoin:round;stroke-miterlimit:10;stroke-width:1.624px}
        </style>
    </defs>
    <g id="Mask_Group_81" data-name="Mask Group 81" transform="translate(-16 -2323)" style="clip-path:url(#clip-path)">
        <g id="mobile_user_flow" data-name="mobile user flow" transform="translate(-8.669 2294.203)">
            <text id="ACCEPTED" class="cls-3" transform="translate(323.46 394.079)"><tspan x="0" y="0">ACCEPTED</tspan></text>
            <text id="REJECTED" class="cls-3" transform="translate(264.547 456.135)"><tspan x="0" y="0">REJECTED</tspan></text>
            <text id="REQUEST_FOR_CHANGE_RENEW_TRANSFER" data-name="REQUEST FOR CHANGE / RENEW / TRANSFER" class="cls-3" transform="translate(75.185 567.256)"><tspan x="0" y="0">REQUEST FOR </tspan><tspan x="0" y="14">CHANGE / </tspan><tspan x="0" y="28">RENEW / </tspan><tspan x="0" y="42">TRANSFER</tspan></text>
            <text id="Share_Download" data-name="Share/Download" transform="translate(148.095 804.767)" style="font-size:13px;font-family:IBMPlexSans-Bold,IBM Plex Sans;font-weight:700;fill:#2d9735"><tspan x="0" y="0">Share/Download</tspan></text>
            <text id="RE-APPLY" class="cls-3" transform="translate(133.412 458.851)"><tspan x="0" y="0">RE-APPLY</tspan></text>
            <path id="Path_1494" data-name="Path 1494" class="cls-5" d="M184.331 182.058a.877.877 0 0 1 .244-.568.692.692 0 0 1 1.056 0l3 3 2.842-3a.746.746 0 0 1 1.056 1.056l-3.411 3.573a.785.785 0 0 1-1.137 0l-3.573-3.573a2.869 2.869 0 0 1-.077-.488z"/>
            <path id="Rectangle_10124" data-name="Rectangle 10124" class="cls-5" transform="translate(187.742 75.844)" d="M0 0h1.624v104.915H0z"/>
            <path id="Path_1495" data-name="Path 1495" class="cls-5" d="M197.324 272.6a.877.877 0 0 1 .244-.568.692.692 0 0 1 1.056 0l3 3 2.842-3a.746.746 0 1 1 1.056 1.056l-3.411 3.573a.785.785 0 0 1-1.137 0l-3.573-3.573a2.868 2.868 0 0 1-.077-.488z"/>
            <path id="Rectangle_10125" data-name="Rectangle 10125" class="cls-5" transform="translate(200.735 222.01)" d="M0 0h1.624v49.209H0z"/>
            <path id="Path_1496" data-name="Path 1496" class="cls-5" d="M197.324 361.355a.877.877 0 0 1 .244-.568.692.692 0 0 1 1.056 0l3 3 2.842-3a.746.746 0 0 1 1.056 1.056l-3.411 3.573a.785.785 0 0 1-1.137 0l-3.573-3.573a2.868 2.868 0 0 1-.077-.488z"/>
            <path id="Path_1497" data-name="Path 1497" class="cls-5" d="M287.216 671.064a.877.877 0 0 1 .568.244.692.692 0 0 1 0 1.056l-3 3 3 2.842a.746.746 0 1 1-1.056 1.056l-3.573-3.411a.785.785 0 0 1 0-1.137l3.573-3.573a2.872 2.872 0 0 1 .488-.077z"/>
            <path id="Path_1498" data-name="Path 1498" class="cls-5" d="M76.006 406.5a.877.877 0 0 1-.568-.244.692.692 0 0 1 0-1.056l3-3-3-2.842a.746.746 0 1 1 1.056-1.056l3.573 3.411a.785.785 0 0 1 0 1.137l-3.573 3.573a2.88 2.88 0 0 1-.488.077z"/>
            <path id="Path_1499" data-name="Path 1499" class="cls-5" d="M80.96 766.884a.877.877 0 0 1-.568-.244.692.692 0 0 1 0-1.056l3-3-3-2.842a.746.746 0 0 1 1.056-1.056l3.573 3.411a.785.785 0 0 1 0 1.137l-3.574 3.566a2.887 2.887 0 0 1-.487.084z"/>
            <path id="Path_1500" data-name="Path 1500" class="cls-5" d="M132.28 440.2a.877.877 0 0 1-.244.568.692.692 0 0 1-1.056 0l-3-3-2.842 3a.746.746 0 0 1-1.056-1.056l3.411-3.573a.785.785 0 0 1 1.137 0l3.573 3.573a2.868 2.868 0 0 1 .077.488z"/>
            <path id="Rectangle_10126" data-name="Rectangle 10126" class="cls-5" transform="translate(200.735 310.846)" d="M0 0h1.624v49.209H0z"/>
            <path id="Path_1501" data-name="Path 1501" class="cls-5" d="M294.362 247.832H82.665A3.91 3.91 0 0 1 78.6 244.1v-37.275c0-6.415 5.6-11.612 12.505-11.612h157.54c28.259 0 51.158 21.275 51.158 47.5a5.275 5.275 0 0 1-5.441 5.119z"/>
            <text id="Browse_Jobs_News" data-name="Browse Jobs/News" class="cls-6" transform="translate(93.831 226.287)"><tspan x="0" y="0">Browse Jobs/News</tspan></text>
            <path id="Path_1502" data-name="Path 1502" class="cls-5" d="M262.287 337.4H147.709a3.725 3.725 0 0 1-3.735-3.735v-37.273a11.61 11.61 0 0 1 11.612-11.612h64.475a47.513 47.513 0 0 1 47.5 47.5 5.235 5.235 0 0 1-5.274 5.12z"/>
            <text id="Login" class="cls-6" transform="translate(176.366 319.185)"><tspan x="0" y="0">Login</tspan></text>
            <path id="Path_1503" data-name="Path 1503" class="cls-5" d="M274.873 693.314H124.241c-2.761 0-4.872-1.705-4.872-3.735v-37.273c0-6.415 6.821-11.612 15.266-11.612h84.7c34.43 0 62.445 21.275 62.445 47.5-.086 2.846-3.09 5.12-6.907 5.12z"/>
            <text id="View_Card" data-name="View Card" class="cls-6" transform="translate(140.31 675.036)"><tspan x="0" y="0">View Card</tspan></text>
            <path id="Path_1504" data-name="Path 1504" class="cls-5" d="M332.527 782.069h-238.9c-4.385 0-7.8-1.705-7.8-3.735v-37.273c0-6.415 2.68-11.612 16.078-11.612H283.4c54.65 0 60.09 21.275 60.09 47.5-.162 2.851-4.872 5.12-10.963 5.12z"/>
            <text id="View_Details_Job_News" data-name="View Details (Job/News" class="cls-6" transform="translate(95.394 762.679)"><tspan x="0" y="0">View Details (Job/News</tspan></text>
            <path id="Path_1505" data-name="Path 1505" class="cls-5" d="M317.342 433.382H84.7A4.366 4.366 0 0 1 80.31 429v-44.178A13.706 13.706 0 0 1 94.033 371.1h173.126a56.246 56.246 0 0 1 56.274 56.274 6.118 6.118 0 0 1-6.091 6.008z"/>
            <text id="Apply_Employment" data-name="Apply Employment" class="cls-6" transform="translate(105.226 397.636)"><tspan x="0" y="0">Apply Employment</tspan></text>
            <text id="card" class="cls-6" transform="translate(176.857 418.412)"><tspan x="0" y="0">card</tspan></text>
            <g id="Group_965" data-name="Group 965">
                <g id="Group_964" data-name="Group 964">
                    <g id="Group_963" data-name="Group 963" style="clip-path:url(#clip-path-2)">
                        <path id="Path_1506" data-name="Path 1506" class="cls-8" d="M225.583 172.313c-5.359 9.257-12.018 12.83-12.018 12.83h-27.853c-.081.082 43.931-19.894 39.871-12.83z"/>
                        <g id="Group_960" data-name="Group 960">
                            <path id="Path_1507" data-name="Path 1507" class="cls-9" d="M204.145 244.1a2.654 2.654 0 0 0-.487 2.761c.65 1.868 2.842 3.9 5.441 5.928a8.635 8.635 0 0 1 .893.731c.081.081.162.081.162.162l.162.162c2.355 2.192 1.462 2.68 5.765 7.146 4.872 5.035 8.2 5.2 9.176 4.71.812-.406-.812-3.086-2.68-6.09a1.775 1.775 0 0 0-.244-.406l-.731-1.218c-2.111-3.654-1.624-5.359-1.056-10.8.406-4.385 6.821-24.6 6.821-24.6l-9.338-1.624s-2.842 16.078-5.928 18.6c-1.624 1.3-3.492 1.3-5.116 2.355-.081.081-.244.162-.325.244a11.067 11.067 0 0 0-2.515 1.939z"/>
                            <path id="Path_1508" data-name="Path 1508" class="cls-8" d="M204.145 244.1a2.654 2.654 0 0 0-.487 2.761c.812 1.868 2.923 3.9 5.441 5.928.325.244.568.487.893.731.081.081.162.081.162.162l.162.162c2.355 2.192 1.462 2.68 5.765 7.146 4.872 5.035 8.2 5.2 9.176 4.71.812-.406-.812-3.086-2.68-6.09a20.089 20.089 0 0 1-8.689-6.415c-2.923-3.735-4.872-8.526-6.9-11.368-.081.081-.244.162-.325.244a14.528 14.528 0 0 0-2.518 2.029z"/>
                            <path id="Path_1509" data-name="Path 1509" class="cls-9" d="M279.5 238.25c.568 2.923 4.71 2.436 9.257 1.3 4.629-1.137 3.492.244 10.069-.487s8.526-3.167 8.689-4.141c.162-.893-3.086-1.137-6.5-1.543-.406-.081-.893-.081-1.3-.162-3.9-.487-6.74-3-10.313-5.116-3.329-1.949-8.364-9.988-8.364-9.988l-8.932.731s4.71 7.146 6.5 10.232c1.056 1.868.974 4.223.893 6.09a13.068 13.068 0 0 0 .001 3.084z"/>
                            <path id="Path_1510" data-name="Path 1510" class="cls-8" d="M288.84 239.55c4.629-1.137 3.492.244 10.069-.487s8.526-3.167 8.689-4.141c.162-.893-3.086-1.137-6.5-1.543v.081a18.584 18.584 0 0 1-9.338 2.923c-4.466.081-9.095-1.137-12.181-1.137a9.9 9.9 0 0 0 .081 3.086c.41 2.842 4.552 2.355 9.18 1.218z"/>
                            <path id="Path_1511" data-name="Path 1511" class="cls-8" d="m245.153 180.921-8.364 22.579-10.962 29.477a16.289 16.289 0 0 1-5.847-.568 23.814 23.814 0 0 1-5.6-2.761s3-31.588 8.689-49.778c1.462-4.629 3.086-8.445 4.872-10.556 8.848-10.314 17.212 11.607 17.212 11.607z"/>
                            <path id="Path_1512" data-name="Path 1512" class="cls-10" d="M236.626 145.11c-5.522-1.786-21.194.487-36.866 3.573l-3.329-5.441-34.024-2.68s-11.206 24.848-5.035 40.683a5.758 5.758 0 0 0 5.765 3.9h27.284c16.89 0 35.729-11.612 38.247-12.1 3.979-.812 5.6 7.227 9.582 15.591s37.516 37.191 37.516 37.191 5.2.081 7.308-.731a8.311 8.311 0 0 0 3.167-1.949s-37.19-74.058-49.615-78.037z"/>
                            <path id="Path_1513" data-name="Path 1513" class="cls-8" d="M195.132 44.337c-4.385-2.274-10.962-2.6-12.018-2.761C170.2 39.871 162.488 58.548 162 64.232c-.812 10.475-6.334 12.018-14.129 18.6-15.591 13.155-11.044 28.34-2.517 34.024 5.116 3.411 14.129 0 14.129 0 .162.081 24.686-13.723 36.785-20.382 18.109-2.603 9.988-46.374-1.136-52.137z"/>
                            <path id="Path_1514" data-name="Path 1514" class="cls-9" d="M186.118 90.785c.081 0-5.928 2.111-9.988.325-3.817-1.705-6.659-7.877-6.577-7.877 1.705-.081 3.573-1.543 5.035-11.45l.731.244 12.343 4.466s-.893 3.979-1.462 7.714c-.488 3.087-.732 6.172-.082 6.578z"/>
                            <path id="Path_1515" data-name="Path 1515" d="M187.661 76.493s-.893 3.979-1.462 7.714c-7.065-1.3-9.826-8.283-10.8-12.1z" style="fill:#ed975d"/>
                            <path id="Path_1516" data-name="Path 1516" class="cls-9" d="M189.528 80.391s-16.809-2.274-15.266-12.749.487-17.784 11.287-16.809 12.343 5.278 12.668 8.932c.244 3.655-4.304 20.951-8.689 20.626z"/>
                            <path id="Path_1517" data-name="Path 1517" class="cls-8" d="M197.486 54s-10.8 9.257-18.108 10.069c-7.308.731-10.069-1.624-10.069-1.624a28.393 28.393 0 0 0 6.9-9.42 5.031 5.031 0 0 1 4.223-3c5.28-.41 15.187-.653 17.054 3.975z"/>
                            <path id="Path_1518" data-name="Path 1518" class="cls-8" d="M190.747 53.188s3.573 3.492 4.71 6.09c1.056 2.517 1.462 8.445.568 10.8 0 0 5.6-10.962 2.436-16.241-3.329-5.602-7.714-.649-7.714-.649z"/>
                            <path id="Path_1519" data-name="Path 1519" class="cls-12" d="M200.329 115.633c-.487 34.105-.162 26.959-3.9 30.208-.893.812-3.411 1.218-6.74 1.462-10.475.731-28.827-1.056-29.558-2.923-2.436-6.659-.731-8.77-2.761-19-.244-1.056-.487-2.274-.812-3.573-1.705-7.065-3.329-9.42 2.68-20.707 5.359-10.232 10.962-18.514 11.531-18.19 14.211 8.445 15.347 1.38 15.347 1.38s14.456 14.697 14.213 31.343z"/>
                            <path id="Path_1520" data-name="Path 1520" class="cls-10" d="m236.789 203.5-10.962 29.477a16.289 16.289 0 0 1-5.847-.568 23.814 23.814 0 0 1-5.6-2.761s3-31.588 8.689-49.778z"/>
                            <path id="Path_1521" data-name="Path 1521" class="cls-12" d="M186.2 84.127s14.617 2.517 16.4 8.77c1.705 6.334 11.856 43.363 11.856 43.363s-7.471 1.3-10.881-2.111-11.937-31.913-11.937-31.913z"/>
                            <path id="Path_1522" data-name="Path 1522" d="M189.691 147.222c-10.475.731-28.827-1.056-29.558-2.923-2.436-6.659-.731-8.77-2.761-19l5.035-14.211s-.812 15.835 3.817 19.976 19.083 8.039 21.356 11.531a12.734 12.734 0 0 1 2.111 4.627z" style="fill:#ebf3ff"/>
                            <path id="Path_1523" data-name="Path 1523" class="cls-9" d="M177.673 140.644s10.313-2.274 11.937-1.38 5.765 4.223 6.253 5.441c.487 1.137-3.735-.893-5.035-1.218-.893-.244-3.248.568-4.385.974-4.872 1.624-7.877.812-7.877.812z"/>
                            <path id="Path_1524" data-name="Path 1524" class="cls-12" d="M170.771 82.827s-13.886.893-18.677 7.552c-6.74 9.42-20.138 49.534-12.424 54.893 8.608 6.009 39.3 1.543 39.3 1.543s1.056-4.791-.406-7.065c-1.38-2.274-24.523-6.009-25.579-7.065S166.3 111.9 166.3 108.731c.086-3.248 4.471-25.904 4.471-25.904z"/>
                            <path id="Path_1525" data-name="Path 1525" class="cls-9" d="M190.178 142.106a22.473 22.473 0 0 0 2.842 3.086 2.093 2.093 0 0 0 1.137.244l-1.462-2.6z"/>
                            <path id="Path_1526" data-name="Path 1526" class="cls-9" d="m189.691 139.264 6.253 3.086s-.244.406-1.056.406a12.571 12.571 0 0 1-2.761-.731z"/>
                        </g>
                        <g id="Group_962" data-name="Group 962">
                            <g id="Group_961" data-name="Group 961">
                                <path id="Path_1527" data-name="Path 1527" class="cls-14" d="M193.02 149.5h49.7l14.938-37.2h-49.615z"/>
                                <path id="Path_1528" data-name="Path 1528" class="cls-14" d="M243.285 148.034h-65.612v1.466h65.044z"/>
                            </g>
                            <path id="Path_1529" data-name="Path 1529" d="M230.211 130.9a1.716 1.716 0 0 0-1.705-2.355 3.3 3.3 0 0 0-3 2.355 1.717 1.717 0 0 0 1.705 2.355 3.471 3.471 0 0 0 3-2.355z" style="fill:#2d2d2d"/>
                        </g>
                    </g>
                </g>
            </g>
            <path id="Path_1530" data-name="Path 1530" class="cls-16" d="M297.123 405.854h48.56v269.433H287.46"/>
            <path id="Path_1531" data-name="Path 1531" class="cls-16" d="M128.058 675.043h-66.1V402.281h28.178"/>
            <path id="Path_1532" data-name="Path 1532" class="cls-16" d="M256.846 427.373v111.248H128.058v-97.606"/>
            <path id="Path_1533" data-name="Path 1533" class="cls-16" d="M143.973 311.09H27.69v451.571h67.318"/>
        </g>
    </g>
</svg>
