<svg xmlns="http://www.w3.org/2000/svg" width="1200" height="412">
    <defs>
        <clipPath id="clip-path">
            <path id="Rectangle_2659" data-name="Rectangle 2659" transform="translate(360 1961)" style="stroke:#707070;fill:#fff" d="M0 0h1200v412H0z"/>
        </clipPath>
        <clipPath id="clip-path-2">
            <path id="Rectangle_2667" data-name="Rectangle 2667" transform="translate(55.051 179.401)" d="M0 0h228.731v165.908H0z"/>
        </clipPath>
        <style>
            .cls-4{fill:#fff}.cls-3{fill:#2d9735}.cls-5{fill:#f5cb58}.cls-7{fill:#233862}.cls-8{fill:#ffb27d}.cls-9{fill:#2b478b}.cls-12{fill:#f4f4f4}.cls-14{fill:none;stroke:#2d9735;stroke-miterlimit:10;stroke-width:2.159px}
        </style>
    </defs>
    <g id="Mask_Group_38" data-name="Mask Group 38" transform="translate(-360 -1961)" style="clip-path:url(#clip-path)">
        <g id="userflow" transform="translate(304.949 1945.304)">
            <path id="Path_847" data-name="Path 847" class="cls-3" d="m7.605 0-.75-2.49H3.36L2.61 0H.3l3.45-10.47h2.82L9.975 0zM5.13-8.4h-.075L3.9-4.425h2.4zM15.21.18a5.192 5.192 0 0 1-1.92-.338 3.806 3.806 0 0 1-1.455-1.005 4.627 4.627 0 0 1-.93-1.665 7.438 7.438 0 0 1-.33-2.333 7.672 7.672 0 0 1 .33-2.347 4.912 4.912 0 0 1 .93-1.725 3.878 3.878 0 0 1 1.455-1.057 4.9 4.9 0 0 1 1.92-.36 4.447 4.447 0 0 1 2.4.592 4.085 4.085 0 0 1 1.515 1.868L17.16-7.17a2.338 2.338 0 0 0-.653-1.058 1.883 1.883 0 0 0-1.3-.4 2.1 2.1 0 0 0-1.612.653 2.687 2.687 0 0 0-.608 1.9v1.68A2.687 2.687 0 0 0 13.6-2.5a2.1 2.1 0 0 0 1.612.652 1.917 1.917 0 0 0 1.34-.452 2.78 2.78 0 0 0 .748-1.1l1.86 1.08a4.654 4.654 0 0 1-1.542 1.848A4.166 4.166 0 0 1 15.21.18zm9.57 0a5.192 5.192 0 0 1-1.92-.338 3.806 3.806 0 0 1-1.455-1.005 4.627 4.627 0 0 1-.93-1.665 7.438 7.438 0 0 1-.33-2.333 7.672 7.672 0 0 1 .33-2.347 4.912 4.912 0 0 1 .93-1.725 3.878 3.878 0 0 1 1.455-1.057 4.9 4.9 0 0 1 1.92-.36 4.447 4.447 0 0 1 2.4.592 4.085 4.085 0 0 1 1.515 1.868L26.73-7.17a2.338 2.338 0 0 0-.653-1.058 1.883 1.883 0 0 0-1.3-.4 2.1 2.1 0 0 0-1.613.653 2.687 2.687 0 0 0-.607 1.9v1.68a2.687 2.687 0 0 0 .607 1.9 2.1 2.1 0 0 0 1.613.652 1.917 1.917 0 0 0 1.346-.457 2.78 2.78 0 0 0 .742-1.1l1.86 1.08a4.654 4.654 0 0 1-1.537 1.848A4.166 4.166 0 0 1 24.78.18zM30.315 0v-10.47h7.125v2.025H32.6V-6.3h4.15v2.01H32.6v2.265h4.84V0zm9.1 0v-10.47h4.95a3.358 3.358 0 0 1 1.32.248 2.928 2.928 0 0 1 1 .682 2.992 2.992 0 0 1 .637 1.057 3.966 3.966 0 0 1 .225 1.358 3.948 3.948 0 0 1-.225 1.365 3 3 0 0 1-.637 1.05 2.928 2.928 0 0 1-1 .682 3.358 3.358 0 0 1-1.32.248H41.7V0zM41.7-5.76h2.4a1.158 1.158 0 0 0 .8-.262.985.985 0 0 0 .292-.773v-.66a.985.985 0 0 0-.292-.773 1.158 1.158 0 0 0-.8-.262h-2.4zm11.925-2.685V0h-2.28v-8.445H48.51v-2.025h7.95v2.025zM58.02 0v-10.47h7.125v2.025H60.3V-6.3h4.155v2.01H60.3v2.265h4.845V0zm9.1-10.47h3.95a5.209 5.209 0 0 1 1.89.33 3.81 3.81 0 0 1 1.455.983 4.489 4.489 0 0 1 .93 1.635 7.189 7.189 0 0 1 .33 2.287 7.189 7.189 0 0 1-.33 2.288 4.489 4.489 0 0 1-.93 1.635 3.81 3.81 0 0 1-1.455.982 5.209 5.209 0 0 1-1.89.33h-3.945zm3.95 8.445a2.2 2.2 0 0 0 1.605-.57 2.467 2.467 0 0 0 .585-1.83v-1.62a2.467 2.467 0 0 0-.585-1.83 2.2 2.2 0 0 0-1.605-.57H69.4v6.42z" transform="translate(1018.521 65.114)"/>
            <path id="Path_844" data-name="Path 844" class="cls-3" d="M3.435 0h-2.28v-10.47H6.12a3.409 3.409 0 0 1 1.305.24 2.794 2.794 0 0 1 1 .682A3.084 3.084 0 0 1 9.06-8.49a3.948 3.948 0 0 1 .225 1.365 3.572 3.572 0 0 1-.472 1.86A2.7 2.7 0 0 1 7.38-4.11L9.435 0H6.9L5.07-3.84H3.435zm2.4-5.76a1.158 1.158 0 0 0 .8-.262.985.985 0 0 0 .295-.778v-.66a.985.985 0 0 0-.293-.773 1.158 1.158 0 0 0-.8-.262h-2.4v2.73zM11.265 0v-10.47h7.125v2.025h-4.845V-6.3H17.7v2.01h-4.155v2.265h4.845V0zm16.08 2.76h-1.41a2.382 2.382 0 0 1-1.77-.57A2.271 2.271 0 0 1 23.61.54V.105a4.06 4.06 0 0 1-2.663-1.643 6.15 6.15 0 0 1-.983-3.7 7.581 7.581 0 0 1 .33-2.348 4.768 4.768 0 0 1 .93-1.695A3.805 3.805 0 0 1 22.68-10.3a5.007 5.007 0 0 1 1.89-.345 5.007 5.007 0 0 1 1.89.345 3.805 3.805 0 0 1 1.455 1.027 4.768 4.768 0 0 1 .93 1.695 7.581 7.581 0 0 1 .33 2.348 6.263 6.263 0 0 1-.922 3.615A3.975 3.975 0 0 1 25.74.06V.9h1.605zM24.57-1.845a2.008 2.008 0 0 0 1.613-.675 2.894 2.894 0 0 0 .577-1.935v-1.56a2.894 2.894 0 0 0-.577-1.935 2.008 2.008 0 0 0-1.613-.675 2.008 2.008 0 0 0-1.612.675 2.894 2.894 0 0 0-.577 1.935v1.56a2.894 2.894 0 0 0 .577 1.935 2.008 2.008 0 0 0 1.612.675zm8.67-8.625v6.42a2.636 2.636 0 0 0 .435 1.658 1.752 1.752 0 0 0 1.455.547 1.752 1.752 0 0 0 1.455-.547 2.636 2.636 0 0 0 .435-1.658v-6.42h2.22v6.18a8.125 8.125 0 0 1-.217 2 3.24 3.24 0 0 1-.713 1.4 2.947 2.947 0 0 1-1.275.81 6.021 6.021 0 0 1-1.905.26 6.021 6.021 0 0 1-1.9-.263 2.947 2.947 0 0 1-1.275-.81 3.24 3.24 0 0 1-.712-1.4 8.125 8.125 0 0 1-.218-2v-6.18zM41.49 0v-10.47h7.125v2.025H43.77V-6.3h4.155v2.01H43.77v2.265h4.845V0zm12.5.18a5.262 5.262 0 0 1-2.34-.473 5.352 5.352 0 0 1-1.64-1.222l1.5-1.515a3.373 3.373 0 0 0 2.625 1.2 1.888 1.888 0 0 0 1.245-.345 1.142 1.142 0 0 0 .405-.915 1.109 1.109 0 0 0-.24-.728 1.534 1.534 0 0 0-.975-.4l-1.035-.132A4.007 4.007 0 0 1 51.1-5.355a2.905 2.905 0 0 1-.773-2.115 3.041 3.041 0 0 1 .27-1.29 2.856 2.856 0 0 1 .773-1.005 3.6 3.6 0 0 1 1.23-.653 5.44 5.44 0 0 1 1.657-.232 5.388 5.388 0 0 1 2.085.375 4.234 4.234 0 0 1 1.543 1.095L56.37-7.65a3.037 3.037 0 0 0-.908-.713 2.889 2.889 0 0 0-1.342-.277 1.956 1.956 0 0 0-1.14.27.872.872 0 0 0-.375.75.953.953 0 0 0 .292.78 2.024 2.024 0 0 0 .952.345l1.035.165a4.415 4.415 0 0 1 2.4 1 2.771 2.771 0 0 1 .78 2.107 3.467 3.467 0 0 1-.27 1.38 2.957 2.957 0 0 1-.787 1.08 3.629 3.629 0 0 1-1.283.7 5.645 5.645 0 0 1-1.739.243zm9.99-8.625V0H61.7v-8.445h-2.84v-2.025h7.95v2.025zM71.91 0v-10.47h6.945v2.025H74.19V-6.3h3.975v2.01H74.19V0zm12.525.18a5.007 5.007 0 0 1-1.89-.345 3.805 3.805 0 0 1-1.455-1.027 4.768 4.768 0 0 1-.93-1.695 7.581 7.581 0 0 1-.33-2.348 7.581 7.581 0 0 1 .33-2.348 4.768 4.768 0 0 1 .93-1.695 3.805 3.805 0 0 1 1.455-1.022 5.007 5.007 0 0 1 1.89-.345 5.007 5.007 0 0 1 1.89.345 3.805 3.805 0 0 1 1.455 1.022 4.768 4.768 0 0 1 .93 1.695 7.581 7.581 0 0 1 .33 2.348 7.581 7.581 0 0 1-.33 2.348 4.768 4.768 0 0 1-.93 1.695 3.805 3.805 0 0 1-1.455 1.027 5.007 5.007 0 0 1-1.89.345zm0-2.025a2.008 2.008 0 0 0 1.612-.675 2.894 2.894 0 0 0 .577-1.935v-1.56a2.894 2.894 0 0 0-.577-1.935 2.008 2.008 0 0 0-1.612-.675 2.008 2.008 0 0 0-1.613.675 2.894 2.894 0 0 0-.577 1.935v1.56a2.894 2.894 0 0 0 .577 1.935 2.008 2.008 0 0 0 1.613.675zM93.225 0h-2.28v-10.47h4.965a3.409 3.409 0 0 1 1.305.24 2.794 2.794 0 0 1 1 .682 3.084 3.084 0 0 1 .635 1.058 3.948 3.948 0 0 1 .225 1.365 3.572 3.572 0 0 1-.472 1.86A2.7 2.7 0 0 1 97.17-4.11L99.225 0H96.69l-1.83-3.84h-1.635zm2.4-5.76a1.158 1.158 0 0 0 .8-.262.985.985 0 0 0 .295-.778v-.66a.985.985 0 0 0-.293-.773 1.158 1.158 0 0 0-.8-.262h-2.4v2.73zm13.2 5.94a5.192 5.192 0 0 1-1.92-.338 3.806 3.806 0 0 1-1.455-1.005 4.627 4.627 0 0 1-.93-1.665 7.438 7.438 0 0 1-.33-2.333 7.672 7.672 0 0 1 .33-2.347 4.912 4.912 0 0 1 .93-1.725 3.878 3.878 0 0 1 1.45-1.057 4.9 4.9 0 0 1 1.92-.36 4.447 4.447 0 0 1 2.4.592 4.085 4.085 0 0 1 1.52 1.868l-1.965 1.02a2.338 2.338 0 0 0-.652-1.058 1.883 1.883 0 0 0-1.3-.4 2.1 2.1 0 0 0-1.613.653 2.687 2.687 0 0 0-.607 1.9v1.68a2.687 2.687 0 0 0 .607 1.9 2.1 2.1 0 0 0 1.613.652 1.917 1.917 0 0 0 1.342-.457 2.78 2.78 0 0 0 .743-1.1l1.86 1.08a4.654 4.654 0 0 1-1.537 1.853 4.166 4.166 0 0 1-2.406.647zm11.805-4.47h-3.99V0h-2.28v-10.47h2.28v4.17h3.99v-4.17h2.28V0h-2.28zM131.67 0l-.75-2.49h-3.495l-.75 2.49h-2.31l3.45-10.47h2.82L134.04 0zm-2.47-8.4h-.075l-1.155 3.975h2.4zm9.495 3.45-1.005-2.1h-.045V0H135.5v-10.47h2.49l2.865 4.95 1.005 2.1h.045v-7.05h2.145V0h-2.49zM153-1.665h-.075a1.99 1.99 0 0 1-.81 1.32 3.025 3.025 0 0 1-1.875.525 4.106 4.106 0 0 1-1.68-.345 3.857 3.857 0 0 1-1.365-1.02 4.832 4.832 0 0 1-.915-1.68 7.455 7.455 0 0 1-.33-2.325 7.293 7.293 0 0 1 .345-2.34 4.821 4.821 0 0 1 .967-1.71 4.09 4.09 0 0 1 1.492-1.05 5.015 5.015 0 0 1 1.935-.36 4.663 4.663 0 0 1 2.43.608 4.137 4.137 0 0 1 1.6 1.823l-1.86 1.065a2.55 2.55 0 0 0-.75-1.043 2.155 2.155 0 0 0-1.425-.427 2.322 2.322 0 0 0-1.7.615 2.6 2.6 0 0 0-.63 1.935v1.68a2.608 2.608 0 0 0 .63 1.928 2.306 2.306 0 0 0 1.7.622 3.148 3.148 0 0 0 .795-.1 1.994 1.994 0 0 0 .66-.3 1.465 1.465 0 0 0 .442-.487 1.375 1.375 0 0 0 .158-.675v-.524h-1.95v-1.905h4.125V0H153zM157.14 0v-10.47h7.125v2.025h-4.845V-6.3h4.155v2.01h-4.155v2.265h4.845V0zm11.535 2.265 4.47-13.365h1.83l-4.47 13.365zM182.505 0h-2.28v-10.47h4.965a3.409 3.409 0 0 1 1.305.24 2.794 2.794 0 0 1 1 .682 3.084 3.084 0 0 1 .637 1.057 3.948 3.948 0 0 1 .225 1.365 3.572 3.572 0 0 1-.473 1.86 2.7 2.7 0 0 1-1.434 1.156L188.505 0h-2.535l-1.83-3.84h-1.635zm2.4-5.76a1.158 1.158 0 0 0 .8-.262A.985.985 0 0 0 186-6.8v-.66a.985.985 0 0 0-.292-.773 1.158 1.158 0 0 0-.8-.262h-2.4v2.73zm5.43 5.76v-10.47h7.125v2.025h-4.845V-6.3h4.155v2.01h-4.155v2.265h4.845V0zm12.3-4.95-1.005-2.1h-.045V0h-2.145v-10.47h2.49l2.865 4.95 1.005 2.1h.045v-7.05h2.145V0h-2.49zM210.3 0v-10.47h7.125v2.025h-4.845V-6.3h4.155v2.01h-4.155v2.265h4.845V0zm10.755 0-2.37-10.47h2.25l.99 5.025.555 2.91h.045l.66-2.91 1.155-5.025h2.49L228-5.445l.645 2.91h.045l.555-2.91 1.005-5.025h2.16L229.98 0h-2.6l-1.32-5.67-.51-2.3h-.045l-.525 2.3L223.665 0zm15.375 2.265L240.9-11.1h1.83l-4.47 13.365zm15.915-10.71V0h-2.28v-8.445h-2.835v-2.025h7.95v2.025zM259.02 0h-2.28v-10.47h4.965a3.408 3.408 0 0 1 1.3.24 2.794 2.794 0 0 1 1 .682 3.084 3.084 0 0 1 .638 1.057 3.948 3.948 0 0 1 .225 1.365 3.572 3.572 0 0 1-.472 1.86 2.7 2.7 0 0 1-1.433 1.155L265.02 0h-2.535l-1.83-3.84h-1.635zm2.4-5.76a1.158 1.158 0 0 0 .8-.262.985.985 0 0 0 .293-.773v-.66a.985.985 0 0 0-.293-.773 1.158 1.158 0 0 0-.8-.262h-2.4v2.73zM273.3 0l-.75-2.49h-3.5L268.3 0h-2.31l3.45-10.47h2.82L275.67 0zm-2.475-8.4h-.075l-1.15 3.975h2.4zm9.495 3.45-1.005-2.1h-.045V0h-2.145v-10.47h2.49l2.865 4.95 1.005 2.1h.045v-7.05h2.145V0h-2.49zM291.375.18a5.262 5.262 0 0 1-2.34-.473 5.351 5.351 0 0 1-1.635-1.222l1.5-1.515a3.373 3.373 0 0 0 2.625 1.2 1.888 1.888 0 0 0 1.245-.345 1.142 1.142 0 0 0 .4-.915 1.109 1.109 0 0 0-.24-.728 1.534 1.534 0 0 0-.975-.4l-1.035-.135a4.006 4.006 0 0 1-2.437-1.005 2.905 2.905 0 0 1-.772-2.115 3.041 3.041 0 0 1 .27-1.29 2.856 2.856 0 0 1 .772-1.005 3.6 3.6 0 0 1 1.23-.653 5.44 5.44 0 0 1 1.658-.232 5.388 5.388 0 0 1 2.085.375 4.234 4.234 0 0 1 1.545 1.095L293.76-7.65a3.037 3.037 0 0 0-.908-.713 2.889 2.889 0 0 0-1.342-.277 1.956 1.956 0 0 0-1.14.27.872.872 0 0 0-.375.75.953.953 0 0 0 .292.78 2.024 2.024 0 0 0 .953.345l1.035.165a4.415 4.415 0 0 1 2.4 1 2.771 2.771 0 0 1 .78 2.107 3.467 3.467 0 0 1-.27 1.38 2.957 2.957 0 0 1-.788 1.08 3.63 3.63 0 0 1-1.283.7 5.645 5.645 0 0 1-1.739.243zm5.97-.18v-10.47h6.945v2.025h-4.665V-6.3h3.975v2.01h-3.975V0zm8.775 0v-10.47h7.125v2.025H308.4V-6.3h4.155v2.01H308.4v2.265h4.845V0zm11.385 0h-2.28v-10.47h4.965a3.408 3.408 0 0 1 1.3.24 2.794 2.794 0 0 1 1 .682 3.084 3.084 0 0 1 .638 1.057 3.948 3.948 0 0 1 .225 1.365 3.572 3.572 0 0 1-.473 1.86 2.7 2.7 0 0 1-1.43 1.156L323.505 0h-2.535l-1.83-3.84h-1.635zm2.4-5.76a1.158 1.158 0 0 0 .8-.262A.985.985 0 0 0 321-6.8v-.66a.985.985 0 0 0-.292-.773 1.158 1.158 0 0 0-.8-.262h-2.4v2.73z" transform="translate(751.966 230.023)"/>
            <path id="Path_843" data-name="Path 843" class="cls-3" d="M4.545.18A5.262 5.262 0 0 1 2.2-.293 5.352 5.352 0 0 1 .57-1.515l1.5-1.515a3.373 3.373 0 0 0 2.625 1.2 1.888 1.888 0 0 0 1.245-.345 1.142 1.142 0 0 0 .405-.915 1.109 1.109 0 0 0-.24-.728 1.534 1.534 0 0 0-.975-.4L4.1-4.35a4.007 4.007 0 0 1-2.442-1.005A2.905 2.905 0 0 1 .885-7.47a3.041 3.041 0 0 1 .27-1.29 2.856 2.856 0 0 1 .773-1.005 3.6 3.6 0 0 1 1.23-.653 5.44 5.44 0 0 1 1.658-.232 5.388 5.388 0 0 1 2.085.375A4.234 4.234 0 0 1 8.445-9.18L6.93-7.65a3.037 3.037 0 0 0-.908-.713A2.889 2.889 0 0 0 4.68-8.64a1.956 1.956 0 0 0-1.14.27.872.872 0 0 0-.375.75.953.953 0 0 0 .293.78 2.024 2.024 0 0 0 .952.345l1.035.165a4.415 4.415 0 0 1 2.4 1 2.771 2.771 0 0 1 .78 2.107 3.467 3.467 0 0 1-.27 1.38 2.957 2.957 0 0 1-.787 1.08 3.629 3.629 0 0 1-1.282.7A5.645 5.645 0 0 1 4.545.18zm5.85-11.28h2.22v4.56h.09a2.415 2.415 0 0 1 .735-1.065 2.165 2.165 0 0 1 1.455-.45 2.174 2.174 0 0 1 1.838.81 3.725 3.725 0 0 1 .622 2.31V0h-2.22v-4.755a2.109 2.109 0 0 0-.24-1.133.943.943 0 0 0-.855-.367 2.043 2.043 0 0 0-.525.068 1.334 1.334 0 0 0-.457.217 1.135 1.135 0 0 0-.323.368 1.023 1.023 0 0 0-.12.5V0h-2.22zM25.155 0a1.4 1.4 0 0 1-1-.375 1.724 1.724 0 0 1-.5-1h-.09a1.821 1.821 0 0 1-.795 1.157 2.734 2.734 0 0 1-1.515.4A2.457 2.457 0 0 1 19.44-.45a2.251 2.251 0 0 1-.63-1.665 2.076 2.076 0 0 1 .907-1.852 4.384 4.384 0 0 1 2.468-.608h1.245v-.495a1.316 1.316 0 0 0-.3-.907 1.289 1.289 0 0 0-1-.338 1.743 1.743 0 0 0-1.05.285 2.819 2.819 0 0 0-.645.645l-1.32-1.17a3.442 3.442 0 0 1 1.208-1.1 4.132 4.132 0 0 1 1.972-.4 3.735 3.735 0 0 1 2.52.735 2.7 2.7 0 0 1 .84 2.145v3.45h.735V0zM22.08-1.365a1.809 1.809 0 0 0 .952-.24.841.841 0 0 0 .4-.78v-.93H22.35q-1.305 0-1.305.885v.23a.745.745 0 0 0 .27.637 1.255 1.255 0 0 0 .765.198zM27.87 0v-7.875h2.22v1.71h.075a2.446 2.446 0 0 1 .21-.638 1.945 1.945 0 0 1 .4-.548 1.861 1.861 0 0 1 .592-.382 2.112 2.112 0 0 1 .81-.142h.39V-5.8h-.557a3.162 3.162 0 0 0-1.447.255.976.976 0 0 0-.473.945V0zm9.27.18a4.157 4.157 0 0 1-1.6-.293 3.313 3.313 0 0 1-1.193-.825 3.476 3.476 0 0 1-.735-1.3 5.538 5.538 0 0 1-.247-1.71 5.57 5.57 0 0 1 .24-1.687 3.588 3.588 0 0 1 .713-1.3 3.158 3.158 0 0 1 1.162-.832 4 4 0 0 1 1.575-.293 3.883 3.883 0 0 1 1.673.33 3.157 3.157 0 0 1 1.14.885 3.565 3.565 0 0 1 .645 1.283 5.652 5.652 0 0 1 .2 1.523v.66h-5.058v.12a1.759 1.759 0 0 0 .42 1.237 1.711 1.711 0 0 0 1.32.457 2.061 2.061 0 0 0 1.125-.278 4.422 4.422 0 0 0 .81-.667l1.11 1.38a3.5 3.5 0 0 1-1.372.96 5.076 5.076 0 0 1-1.928.35zm-.04-6.6a1.324 1.324 0 0 0-1.058.443 1.738 1.738 0 0 0-.387 1.177v.12h2.76v-.135a1.928 1.928 0 0 0-.323-1.162 1.152 1.152 0 0 0-.992-.443zm4.2 8.685L45.765-11.1H47.6L43.125 2.265zm8.01-12.735h3.94a5.209 5.209 0 0 1 1.89.33 3.81 3.81 0 0 1 1.455.983 4.489 4.489 0 0 1 .93 1.635 7.189 7.189 0 0 1 .33 2.287 7.189 7.189 0 0 1-.33 2.288 4.489 4.489 0 0 1-.93 1.635 3.81 3.81 0 0 1-1.455.982 5.209 5.209 0 0 1-1.89.33h-3.945zm3.94 8.445a2.2 2.2 0 0 0 1.605-.57 2.467 2.467 0 0 0 .585-1.83v-1.62a2.467 2.467 0 0 0-.585-1.83 2.2 2.2 0 0 0-1.605-.57h-1.665v6.42zM62.835.18a4 4 0 0 1-1.552-.285 3.1 3.1 0 0 1-1.156-.825 3.76 3.76 0 0 1-.727-1.305 5.388 5.388 0 0 1-.255-1.71 5.388 5.388 0 0 1 .255-1.71 3.681 3.681 0 0 1 .728-1.3 3.136 3.136 0 0 1 1.155-.818 4 4 0 0 1 1.552-.285 4 4 0 0 1 1.552.285 3.136 3.136 0 0 1 1.155.818 3.68 3.68 0 0 1 .728 1.3 5.387 5.387 0 0 1 .255 1.71 5.387 5.387 0 0 1-.255 1.71 3.76 3.76 0 0 1-.728 1.305 3.1 3.1 0 0 1-1.155.825 4 4 0 0 1-1.552.285zm0-1.755a1.293 1.293 0 0 0 1.02-.405 1.682 1.682 0 0 0 .36-1.155V-4.74a1.682 1.682 0 0 0-.36-1.155 1.293 1.293 0 0 0-1.02-.4 1.293 1.293 0 0 0-1.02.4 1.682 1.682 0 0 0-.36 1.155v1.605a1.682 1.682 0 0 0 .36 1.155 1.293 1.293 0 0 0 1.02.405zm4.365-6.3h2.145l.765 3.18.54 2.4h.06l.63-2.4.9-3.18h2.025l.915 3.18.645 2.4h.06l.54-2.4.765-3.18h2.055L77.07 0h-2.325l-.96-3.33-.555-2.04h-.045l-.54 2.04-.96 3.33H69.4zM80.565 0v-7.875h2.22v1.335h.09a2.415 2.415 0 0 1 .735-1.065 2.165 2.165 0 0 1 1.455-.45 2.174 2.174 0 0 1 1.837.81 3.725 3.725 0 0 1 .623 2.31V0h-2.22v-4.755a2.109 2.109 0 0 0-.24-1.133.943.943 0 0 0-.855-.367 2.043 2.043 0 0 0-.525.068 1.334 1.334 0 0 0-.457.217 1.135 1.135 0 0 0-.328.37 1.023 1.023 0 0 0-.12.5V0zM91.71 0a2.226 2.226 0 0 1-1.673-.555 2.229 2.229 0 0 1-.532-1.6V-11.1h2.22v9.375h.99V0zm5.535.18a4 4 0 0 1-1.553-.285 3.1 3.1 0 0 1-1.155-.825 3.761 3.761 0 0 1-.728-1.305 5.388 5.388 0 0 1-.255-1.71 5.388 5.388 0 0 1 .255-1.71 3.681 3.681 0 0 1 .728-1.3 3.137 3.137 0 0 1 1.155-.818 4 4 0 0 1 1.553-.285 4 4 0 0 1 1.555.288 3.137 3.137 0 0 1 1.155.818 3.68 3.68 0 0 1 .728 1.3 5.388 5.388 0 0 1 .255 1.71 5.388 5.388 0 0 1-.255 1.71 3.76 3.76 0 0 1-.731 1.302 3.1 3.1 0 0 1-1.152.825 4 4 0 0 1-1.555.285zm0-1.755a1.293 1.293 0 0 0 1.02-.405 1.682 1.682 0 0 0 .36-1.155V-4.74a1.682 1.682 0 0 0-.36-1.155 1.293 1.293 0 0 0-1.02-.4 1.293 1.293 0 0 0-1.02.4 1.682 1.682 0 0 0-.36 1.155v1.605a1.682 1.682 0 0 0 .36 1.155 1.293 1.293 0 0 0 1.02.405zM108.33 0a1.4 1.4 0 0 1-1-.375 1.724 1.724 0 0 1-.5-1h-.09a1.821 1.821 0 0 1-.795 1.162 2.734 2.734 0 0 1-1.515.4 2.457 2.457 0 0 1-1.815-.63 2.251 2.251 0 0 1-.63-1.665 2.076 2.076 0 0 1 .908-1.852 4.384 4.384 0 0 1 2.467-.608h1.24v-.502a1.316 1.316 0 0 0-.3-.907 1.289 1.289 0 0 0-1.005-.338 1.743 1.743 0 0 0-1.05.285 2.819 2.819 0 0 0-.645.645l-1.32-1.17a3.442 3.442 0 0 1 1.208-1.1 4.132 4.132 0 0 1 1.972-.4 3.735 3.735 0 0 1 2.52.735 2.7 2.7 0 0 1 .84 2.145v3.45h.735V0zm-3.075-1.365a1.809 1.809 0 0 0 .952-.24.841.841 0 0 0 .4-.78v-.93h-1.08q-1.305 0-1.305.885v.23a.745.745 0 0 0 .27.637 1.255 1.255 0 0 0 .763.198zm10.62.045h-.075a1.963 1.963 0 0 1-.285.592 2.05 2.05 0 0 1-.472.48 2.189 2.189 0 0 1-.63.315 2.378 2.378 0 0 1-.728.113 2.616 2.616 0 0 1-2.265-1.057 5.192 5.192 0 0 1-.765-3.068 5.156 5.156 0 0 1 .765-3.06 2.623 2.623 0 0 1 2.265-1.05 2.289 2.289 0 0 1 1.357.42 1.844 1.844 0 0 1 .757 1.08h.075V-11.1h2.22V0h-2.22zm-1.455-.3a1.7 1.7 0 0 0 1.043-.308 1 1 0 0 0 .412-.848V-5.1a1 1 0 0 0-.412-.847 1.7 1.7 0 0 0-1.043-.308 1.364 1.364 0 0 0-1.042.443 1.679 1.679 0 0 0-.412 1.193v1.365a1.679 1.679 0 0 0 .412 1.192 1.364 1.364 0 0 0 1.042.442z" transform="translate(728.522 389.584)"/>
            <path id="Path_845" data-name="Path 845" class="cls-3" d="M3.435 0h-2.28v-10.47H6.12a3.409 3.409 0 0 1 1.305.24 2.794 2.794 0 0 1 1 .682A3.084 3.084 0 0 1 9.06-8.49a3.948 3.948 0 0 1 .225 1.365 3.572 3.572 0 0 1-.472 1.86A2.7 2.7 0 0 1 7.38-4.11L9.435 0H6.9L5.07-3.84H3.435zm2.4-5.76a1.158 1.158 0 0 0 .8-.262.985.985 0 0 0 .295-.778v-.66a.985.985 0 0 0-.293-.773 1.158 1.158 0 0 0-.8-.262h-2.4v2.73zM11.265 0v-10.47h7.125v2.025h-4.845V-6.3H17.7v2.01h-4.155v2.265h4.845V0zm14.94-10.47v7.44a3.565 3.565 0 0 1-.233 1.313 2.66 2.66 0 0 1-.682 1 3.22 3.22 0 0 1-1.09.65 4.207 4.207 0 0 1-1.448.232 4.1 4.1 0 0 1-1.372-.21 2.961 2.961 0 0 1-1.02-.6 3.155 3.155 0 0 1-.7-.93 4.11 4.11 0 0 1-.375-1.2l2.13-.42Q21.67-1.83 22.72-1.83a1.228 1.228 0 0 0 .847-.315 1.264 1.264 0 0 0 .353-.99v-5.5h-3.18v-1.83zM28.455 0v-10.47h7.125v2.025h-4.845V-6.3h4.155v2.01h-4.155v2.265h4.845V0zM41.79.18a5.192 5.192 0 0 1-1.92-.338 3.806 3.806 0 0 1-1.455-1.005 4.627 4.627 0 0 1-.93-1.665 7.438 7.438 0 0 1-.33-2.333 7.672 7.672 0 0 1 .33-2.347 4.912 4.912 0 0 1 .93-1.725 3.878 3.878 0 0 1 1.455-1.057 4.9 4.9 0 0 1 1.92-.36 4.447 4.447 0 0 1 2.4.592A4.085 4.085 0 0 1 45.7-8.19l-1.96 1.02a2.338 2.338 0 0 0-.653-1.058 1.883 1.883 0 0 0-1.3-.4 2.1 2.1 0 0 0-1.612.653 2.687 2.687 0 0 0-.607 1.9v1.68a2.687 2.687 0 0 0 .607 1.9 2.1 2.1 0 0 0 1.612.652 1.917 1.917 0 0 0 1.345-.457 2.78 2.78 0 0 0 .743-1.1l1.86 1.08A4.654 4.654 0 0 1 44.2-.472a4.166 4.166 0 0 1-2.41.652zm9.9-8.625V0h-2.28v-8.445h-2.835v-2.025h7.95v2.025zM56.085 0v-10.47h7.125v2.025h-4.845V-6.3h4.155v2.01h-4.155v2.265h4.845V0zm9.105-10.47h3.945a5.209 5.209 0 0 1 1.89.33 3.81 3.81 0 0 1 1.455.983 4.489 4.489 0 0 1 .93 1.635 7.189 7.189 0 0 1 .33 2.287 7.189 7.189 0 0 1-.33 2.288 4.489 4.489 0 0 1-.93 1.635 3.81 3.81 0 0 1-1.455.983 5.209 5.209 0 0 1-1.89.33H65.19zm3.945 8.445a2.2 2.2 0 0 0 1.605-.57 2.467 2.467 0 0 0 .585-1.83v-1.62a2.467 2.467 0 0 0-.585-1.83 2.2 2.2 0 0 0-1.605-.57H67.47v6.42z" transform="translate(933.497 141.646)"/>
            <path id="Path_846" data-name="Path 846" class="cls-3" d="M3.435 0h-2.28v-10.47H6.12a3.409 3.409 0 0 1 1.305.24 2.794 2.794 0 0 1 1 .682A3.084 3.084 0 0 1 9.06-8.49a3.948 3.948 0 0 1 .225 1.365 3.572 3.572 0 0 1-.472 1.86A2.7 2.7 0 0 1 7.38-4.11L9.435 0H6.9L5.07-3.84H3.435zm2.4-5.76a1.158 1.158 0 0 0 .8-.262.985.985 0 0 0 .295-.778v-.66a.985.985 0 0 0-.293-.773 1.158 1.158 0 0 0-.8-.262h-2.4v2.73zM11.265 0v-10.47h7.125v2.025h-4.845V-6.3H17.7v2.01h-4.155v2.265h4.845V0zm8.745-3.495v-2.16h4.455v2.16zM32.64 0l-.75-2.49H28.4L27.645 0h-2.31l3.45-10.47H31.6L35.01 0zm-2.475-8.4h-.075l-1.155 3.975h2.4zm6.3 8.4v-10.47h4.95a3.358 3.358 0 0 1 1.32.248 2.928 2.928 0 0 1 1 .682 2.992 2.992 0 0 1 .638 1.057 3.966 3.966 0 0 1 .227 1.358 3.948 3.948 0 0 1-.23 1.365 3 3 0 0 1-.638 1.05 2.928 2.928 0 0 1-1 .682 3.358 3.358 0 0 1-1.32.248h-2.67V0zm2.28-5.76h2.4a1.158 1.158 0 0 0 .8-.262.985.985 0 0 0 .295-.778v-.66a.985.985 0 0 0-.292-.773 1.158 1.158 0 0 0-.8-.262h-2.4zM46.305 0v-10.47h4.95a3.358 3.358 0 0 1 1.32.248 2.928 2.928 0 0 1 1 .682 2.992 2.992 0 0 1 .637 1.057 3.966 3.966 0 0 1 .225 1.358 3.948 3.948 0 0 1-.227 1.365 3 3 0 0 1-.637 1.05 2.928 2.928 0 0 1-1 .682 3.358 3.358 0 0 1-1.32.248h-2.67V0zm2.28-5.76h2.4a1.158 1.158 0 0 0 .8-.262.985.985 0 0 0 .295-.778v-.66a.985.985 0 0 0-.292-.773 1.158 1.158 0 0 0-.8-.262h-2.4zM56.145 0v-10.47h2.28v8.445h3.99V0zm9.18 0v-4.1l-3.585-6.37h2.55l2.25 4.17h.03l2.16-4.17h2.475L67.62-4.11V0z" transform="translate(733.345 155.646)"/>
            <path id="Path_661" data-name="Path 661" class="cls-4" d="M1112.35 159a1.165 1.165 0 0 1 .324-.756.92.92 0 0 1 1.4 0l3.994 3.994 3.778-3.994a.992.992 0 0 1 1.4 1.4l-4.534 4.749a1.043 1.043 0 0 1-1.511 0l-4.75-4.749a3.768 3.768 0 0 1-.101-.644z"/>
            <path id="Path_662" data-name="Path 662" class="cls-3" d="M394.423 85.922a1.166 1.166 0 0 1-.756-.324.92.92 0 0 1 0-1.4l3.994-3.994-3.994-3.778a.992.992 0 1 1 1.4-1.4l4.749 4.534a1.043 1.043 0 0 1 0 1.511l-4.749 4.749a3.814 3.814 0 0 1-.644.102z"/>
            <path id="Rectangle_2660" data-name="Rectangle 2660" class="cls-3" transform="translate(253.234 79.23)" d="M0 0h139.462v2.159H0z"/>
            <path id="Path_663" data-name="Path 663" class="cls-3" d="M151.336 121a1.166 1.166 0 0 1-.324.756.92.92 0 0 1-1.4 0l-3.994-3.994-3.778 3.994a.992.992 0 1 1-1.4-1.4l4.534-4.749a1.043 1.043 0 0 1 1.511 0l4.749 4.749a3.813 3.813 0 0 1 .102.644z"/>
            <path id="Rectangle_2661" data-name="Rectangle 2661" class="cls-3" transform="translate(144.643 122.731)" d="M0 0h2.159v139.462H0z"/>
            <path id="Path_664" data-name="Path 664" class="cls-3" d="M668.813 81.173a1.166 1.166 0 0 1-.756-.324.92.92 0 0 1 0-1.4l3.994-3.994-3.994-3.778a.992.992 0 0 1 1.4-1.4l4.749 4.534a1.043 1.043 0 0 1 0 1.511l-4.749 4.749a3.814 3.814 0 0 1-.644.102z"/>
            <path id="Path_665" data-name="Path 665" class="cls-3" d="M728.506 117.334a1.166 1.166 0 0 1-.324.756.92.92 0 0 1-1.4 0l-3.994-3.994-3.778 3.994a.992.992 0 0 1-1.4-1.4l4.534-4.749a1.043 1.043 0 0 1 1.511 0l4.75 4.749c-.005.104.101.428.101.644z"/>
            <path id="Path_666" data-name="Path 666" class="cls-3" d="M707.457 116.146a1.166 1.166 0 0 1-.324.756.92.92 0 0 1-1.4 0l-3.994-3.994-3.778 3.994a.992.992 0 0 1-1.4-1.4l4.534-4.749a1.043 1.043 0 0 1 1.511 0l4.75 4.749a3.833 3.833 0 0 1 .101.644z"/>
            <path id="Rectangle_2662" data-name="Rectangle 2662" class="cls-3" transform="translate(527.624 74.481)" d="M0 0h139.462v2.159H0z"/>
            <path id="Path_667" data-name="Path 667" class="cls-3" d="M670.433 348.223a1.166 1.166 0 0 1-.756-.324.92.92 0 0 1 0-1.4l3.994-3.994-3.994-3.778a.992.992 0 1 1 1.4-1.4l4.75 4.534a1.044 1.044 0 0 1 0 1.511l-4.75 4.749c-.105.102-.321.102-.644.102z"/>
            <path id="Path_668" data-name="Path 668" class="cls-3" d="M1112.674 118.2a1.166 1.166 0 0 1 .324-.756.92.92 0 0 1 1.4 0l3.994 3.994 3.778-3.994a.992.992 0 0 1 1.4 1.4l-4.533 4.749a1.043 1.043 0 0 1-1.511 0l-4.75-4.749c.006-.215-.102-.431-.102-.644z"/>
            <path id="Rectangle_2663" data-name="Rectangle 2663" class="cls-3" transform="translate(519.313 341.531)" d="M0 0h148.313v2.159H0z"/>
            <path id="Path_669" data-name="Path 669" class="cls-3" d="M1120.554 76.963h-212v2.159h212z"/>
            <path id="Rectangle_2664" data-name="Rectangle 2664" class="cls-3" transform="translate(1116.992 76.963)" d="M0 0h2.051v40.047H0z"/>
            <path id="Rectangle_2665" data-name="Rectangle 2665" class="cls-4" transform="translate(1116.992 76.963)" d="M0 0h2.051v2.159H0z"/>
            <path id="Rectangle_2666" data-name="Rectangle 2666" class="cls-4" transform="translate(142.808 262.409)" d="M0 0h2.159v21.804H0z"/>
            <path id="Path_670" data-name="Path 670" class="cls-3" d="M331.384 106.755H70.379a4.952 4.952 0 0 1-4.965-4.965V52.244a15.433 15.433 0 0 1 15.435-15.436h194.3a63.158 63.158 0 0 1 63.147 63.147 6.935 6.935 0 0 1-6.912 6.8z"/>
            <path id="Path_838" data-name="Path 838" class="cls-5" d="M1.463-13.262H7.9a3.46 3.46 0 0 1 2.575.931 3.358 3.358 0 0 1 .922 2.47 3.693 3.693 0 0 1-.2 1.292 2.486 2.486 0 0 1-.532.874 2.042 2.042 0 0 1-.779.5 3.146 3.146 0 0 1-.959.181v.114a3.206 3.206 0 0 1 1 .171 2.84 2.84 0 0 1 .96.541 2.988 2.988 0 0 1 .732.96 3.206 3.206 0 0 1 .294 1.444 4.211 4.211 0 0 1-.256 1.473 3.756 3.756 0 0 1-.713 1.211 3.324 3.324 0 0 1-1.083.808A3.177 3.177 0 0 1 8.493 0h-7.03zm2.888 10.83h3.325a1.262 1.262 0 0 0 .9-.313 1.156 1.156 0 0 0 .333-.883v-.646a1.156 1.156 0 0 0-.333-.883 1.262 1.262 0 0 0-.9-.313H4.351zm0-5.4H7.22a1.207 1.207 0 0 0 .893-.323 1.207 1.207 0 0 0 .323-.893v-.57a1.207 1.207 0 0 0-.323-.893 1.207 1.207 0 0 0-.893-.323H4.351zM13.984 0v-9.975H16.8v2.166h.1a3.1 3.1 0 0 1 .266-.807 2.464 2.464 0 0 1 .5-.694 2.357 2.357 0 0 1 .75-.484 2.676 2.676 0 0 1 1.026-.18h.494v2.622h-.7a4.005 4.005 0 0 0-1.833.323 1.236 1.236 0 0 0-.6 1.2V0zm11.628.228a5.064 5.064 0 0 1-1.966-.361 3.924 3.924 0 0 1-1.463-1.045 4.763 4.763 0 0 1-.921-1.653A6.824 6.824 0 0 1 20.938-5a6.824 6.824 0 0 1 .323-2.166 4.662 4.662 0 0 1 .921-1.643 3.973 3.973 0 0 1 1.463-1.036 5.064 5.064 0 0 1 1.966-.361 5.064 5.064 0 0 1 1.966.361 3.973 3.973 0 0 1 1.463 1.036 4.662 4.662 0 0 1 .921 1.643A6.824 6.824 0 0 1 30.286-5a6.824 6.824 0 0 1-.323 2.166 4.763 4.763 0 0 1-.921 1.653 3.924 3.924 0 0 1-1.464 1.048 5.064 5.064 0 0 1-1.966.361zm0-2.223a1.638 1.638 0 0 0 1.288-.513 2.131 2.131 0 0 0 .456-1.463V-6a2.131 2.131 0 0 0-.456-1.467 1.638 1.638 0 0 0-1.292-.513 1.638 1.638 0 0 0-1.292.513A2.131 2.131 0 0 0 23.864-6v2.033a2.131 2.131 0 0 0 .456 1.463 1.638 1.638 0 0 0 1.292.509zm5.529-7.98h2.717l.969 4.028.684 3.04h.076l.8-3.04 1.14-4.028h2.563l1.159 4.028.817 3.04h.076l.684-3.04.974-4.028h2.6L43.643 0H40.7l-1.218-4.218-.7-2.584h-.057l-.684 2.584L36.822 0h-2.888zM51.376.228a5.685 5.685 0 0 1-2.432-.465 5.619 5.619 0 0 1-1.767-1.321L48.83-3.23a4.293 4.293 0 0 0 1.178.931 3.078 3.078 0 0 0 1.463.342 1.93 1.93 0 0 0 1.159-.257.839.839 0 0 0 .323-.694q0-.7-1.007-.836l-1.083-.133Q47.5-4.294 47.5-6.954a3.12 3.12 0 0 1 .275-1.32 2.947 2.947 0 0 1 .779-1.026 3.627 3.627 0 0 1 1.216-.665 5.062 5.062 0 0 1 1.605-.238 8.08 8.08 0 0 1 1.377.1 4.794 4.794 0 0 1 1.064.3 4.068 4.068 0 0 1 .855.494 9 9 0 0 1 .769.655l-1.613 1.662a3.691 3.691 0 0 0-1.074-.75 2.9 2.9 0 0 0-1.225-.275 1.753 1.753 0 0 0-1.028.227.722.722 0 0 0-.3.608.835.835 0 0 0 .219.617 1.524 1.524 0 0 0 .826.313l1.121.152q3.287.437 3.287 3a2.932 2.932 0 0 1-.3 1.33 3.128 3.128 0 0 1-.865 1.055 4.114 4.114 0 0 1-1.349.694 5.863 5.863 0 0 1-1.763.249zm10.355 0a5.265 5.265 0 0 1-2.031-.37 4.2 4.2 0 0 1-1.51-1.045 4.4 4.4 0 0 1-.931-1.644A7.015 7.015 0 0 1 56.943-5a7.056 7.056 0 0 1 .3-2.137 4.544 4.544 0 0 1 .9-1.643 4 4 0 0 1 1.472-1.054 5.071 5.071 0 0 1 2-.371 4.918 4.918 0 0 1 2.118.418 4 4 0 0 1 1.444 1.121A4.516 4.516 0 0 1 66-7.039a7.159 7.159 0 0 1 .257 1.928v.836h-6.4v.152a2.228 2.228 0 0 0 .532 1.567 2.168 2.168 0 0 0 1.672.579 2.61 2.61 0 0 0 1.425-.352 5.6 5.6 0 0 0 1.014-.844l1.406 1.748a4.435 4.435 0 0 1-1.733 1.216 6.43 6.43 0 0 1-2.442.437zm-.057-8.36a1.677 1.677 0 0 0-1.34.561 2.2 2.2 0 0 0-.484 1.491v.152h3.5V-6.1a2.443 2.443 0 0 0-.409-1.472 1.459 1.459 0 0 0-1.267-.56zm18.981-5.13v9.424a4.515 4.515 0 0 1-.295 1.663A3.37 3.37 0 0 1 79.5-.9a4.079 4.079 0 0 1-1.377.817 5.328 5.328 0 0 1-1.834.294 5.2 5.2 0 0 1-1.738-.266 3.75 3.75 0 0 1-1.292-.76 4 4 0 0 1-.884-1.178 5.207 5.207 0 0 1-.475-1.52l2.7-.532q.323 1.729 1.653 1.729a1.555 1.555 0 0 0 1.074-.4 1.6 1.6 0 0 0 .447-1.254v-6.973h-4.035v-2.318zM87.4.228a5.064 5.064 0 0 1-1.966-.361 3.924 3.924 0 0 1-1.464-1.045 4.763 4.763 0 0 1-.922-1.653A6.824 6.824 0 0 1 82.726-5a6.824 6.824 0 0 1 .323-2.166 4.662 4.662 0 0 1 .922-1.643 3.973 3.973 0 0 1 1.463-1.036A5.064 5.064 0 0 1 87.4-10.2a5.064 5.064 0 0 1 1.966.361 3.973 3.973 0 0 1 1.463 1.036 4.662 4.662 0 0 1 .922 1.643A6.824 6.824 0 0 1 92.074-5a6.824 6.824 0 0 1-.323 2.166 4.763 4.763 0 0 1-.922 1.653 3.924 3.924 0 0 1-1.462 1.048A5.064 5.064 0 0 1 87.4.228zm0-2.223a1.638 1.638 0 0 0 1.292-.513 2.131 2.131 0 0 0 .456-1.463V-6a2.131 2.131 0 0 0-.456-1.463A1.638 1.638 0 0 0 87.4-7.98a1.638 1.638 0 0 0-1.292.513A2.131 2.131 0 0 0 85.652-6v2.033a2.131 2.131 0 0 0 .456 1.463 1.638 1.638 0 0 0 1.292.509zm6.669-12.065h2.812v5.76h.1a2.336 2.336 0 0 1 .959-1.368 2.9 2.9 0 0 1 1.72-.532 3.323 3.323 0 0 1 2.869 1.33 6.531 6.531 0 0 1 .964 3.87 6.577 6.577 0 0 1-.969 3.886A3.314 3.314 0 0 1 99.655.228a2.985 2.985 0 0 1-.931-.143 2.8 2.8 0 0 1-.789-.4 2.6 2.6 0 0 1-.6-.608 2.487 2.487 0 0 1-.361-.75h-.1V0h-2.805zm4.655 12.008a1.728 1.728 0 0 0 1.32-.56 2.127 2.127 0 0 0 .522-1.51v-1.73a2.127 2.127 0 0 0-.522-1.51 1.728 1.728 0 0 0-1.32-.561 2.149 2.149 0 0 0-1.321.39 1.265 1.265 0 0 0-.522 1.073v2.945a1.265 1.265 0 0 0 .519 1.074 2.149 2.149 0 0 0 1.324.389zM109 .228a5.685 5.685 0 0 1-2.432-.465 5.619 5.619 0 0 1-1.768-1.321l1.653-1.672a4.293 4.293 0 0 0 1.178.931 3.078 3.078 0 0 0 1.463.342 1.93 1.93 0 0 0 1.159-.257.839.839 0 0 0 .323-.694q0-.7-1.007-.836l-1.083-.133q-3.363-.418-3.363-3.078a3.12 3.12 0 0 1 .275-1.32 2.947 2.947 0 0 1 .779-1.026 3.627 3.627 0 0 1 1.216-.665A5.062 5.062 0 0 1 109-10.2a8.08 8.08 0 0 1 1.378.1 4.794 4.794 0 0 1 1.064.3 4.068 4.068 0 0 1 .855.494 9 9 0 0 1 .77.655l-1.615 1.653a3.691 3.691 0 0 0-1.073-.75 2.9 2.9 0 0 0-1.226-.275 1.753 1.753 0 0 0-1.026.228.722.722 0 0 0-.3.608.835.835 0 0 0 .218.617 1.524 1.524 0 0 0 .826.313l1.121.152q3.287.437 3.287 3a2.932 2.932 0 0 1-.3 1.33 3.128 3.128 0 0 1-.865 1.055 4.114 4.114 0 0 1-1.349.694A5.863 5.863 0 0 1 109 .228zm4.94 2.641 5.662-16.929h2.318l-5.659 16.929zm14.196-9.139-1.273-2.66h-.057V0h-2.717v-13.262h3.154l3.629 6.27 1.273 2.66h.057v-8.93h2.717V0h-3.154zm13.718 6.5a5.265 5.265 0 0 1-2.033-.37 4.2 4.2 0 0 1-1.51-1.045 4.4 4.4 0 0 1-.931-1.644A7.015 7.015 0 0 1 137.066-5a7.056 7.056 0 0 1 .3-2.137 4.544 4.544 0 0 1 .9-1.643 4 4 0 0 1 1.473-1.054 5.071 5.071 0 0 1 1.995-.371 4.918 4.918 0 0 1 2.118.418 4 4 0 0 1 1.448 1.123 4.516 4.516 0 0 1 .817 1.624 7.159 7.159 0 0 1 .257 1.928v.836h-6.4v.152a2.228 2.228 0 0 0 .532 1.567 2.168 2.168 0 0 0 1.672.579 2.61 2.61 0 0 0 1.425-.352 5.6 5.6 0 0 0 1.026-.845l1.406 1.748A4.435 4.435 0 0 1 144.3-.209a6.43 6.43 0 0 1-2.446.437zm-.057-8.36a1.677 1.677 0 0 0-1.339.561 2.2 2.2 0 0 0-.484 1.491v.152h3.5V-6.1a2.443 2.443 0 0 0-.409-1.472 1.459 1.459 0 0 0-1.265-.56zm5.529-1.843h2.717l.969 4.028.684 3.04h.076l.8-3.04 1.14-4.028h2.565l1.159 4.028.817 3.04h.076l.684-3.04.969-4.028h2.6L159.828 0h-2.945l-1.216-4.218-.7-2.584h-.057l-.684 2.584L153.007 0h-2.888zM167.561.228a5.685 5.685 0 0 1-2.432-.465 5.619 5.619 0 0 1-1.767-1.321l1.653-1.672a4.293 4.293 0 0 0 1.178.931 3.078 3.078 0 0 0 1.463.342 1.93 1.93 0 0 0 1.159-.257.839.839 0 0 0 .323-.694q0-.7-1.007-.836l-1.083-.133q-3.363-.418-3.363-3.078a3.12 3.12 0 0 1 .275-1.32 2.947 2.947 0 0 1 .78-1.025 3.627 3.627 0 0 1 1.216-.665 5.062 5.062 0 0 1 1.605-.238 8.08 8.08 0 0 1 1.378.1 4.794 4.794 0 0 1 1.064.3 4.068 4.068 0 0 1 .855.494 9 9 0 0 1 .77.655l-1.615 1.653a3.691 3.691 0 0 0-1.074-.75 2.9 2.9 0 0 0-1.225-.275 1.753 1.753 0 0 0-1.026.228.722.722 0 0 0-.3.608.835.835 0 0 0 .219.617 1.524 1.524 0 0 0 .826.313l1.121.152q3.287.437 3.287 3a2.932 2.932 0 0 1-.3 1.33 3.128 3.128 0 0 1-.865 1.055 4.114 4.114 0 0 1-1.349.694 5.863 5.863 0 0 1-1.766.257z" transform="translate(108.481 80.339)"/>
            <path id="Path_671" data-name="Path 671" class="cls-3" d="M577.494 107.511H425.187a4.952 4.952 0 0 1-4.965-4.965V53a15.433 15.433 0 0 1 15.436-15.436h85.707a63.159 63.159 0 0 1 63.147 63.147 6.959 6.959 0 0 1-7.018 6.8z"/>
            <path id="Path_839" data-name="Path 839" class="cls-5" d="M1.463 0v-13.262h2.888v10.7H9.4V0zm13.775.228a5.064 5.064 0 0 1-1.967-.361 3.924 3.924 0 0 1-1.463-1.045 4.763 4.763 0 0 1-.922-1.653A6.824 6.824 0 0 1 10.564-5a6.824 6.824 0 0 1 .323-2.166 4.662 4.662 0 0 1 .922-1.643 3.973 3.973 0 0 1 1.463-1.036 5.064 5.064 0 0 1 1.967-.361 5.064 5.064 0 0 1 1.966.361 3.973 3.973 0 0 1 1.463 1.036 4.662 4.662 0 0 1 .922 1.643A6.824 6.824 0 0 1 19.912-5a6.824 6.824 0 0 1-.323 2.166 4.763 4.763 0 0 1-.922 1.653A3.924 3.924 0 0 1 17.2-.133a5.064 5.064 0 0 1-1.962.361zm0-2.223a1.638 1.638 0 0 0 1.292-.513 2.131 2.131 0 0 0 .456-1.463V-6a2.131 2.131 0 0 0-.456-1.463 1.638 1.638 0 0 0-1.292-.513 1.638 1.638 0 0 0-1.292.513A2.131 2.131 0 0 0 13.49-6v2.033a2.131 2.131 0 0 0 .456 1.463 1.638 1.638 0 0 0 1.292.509zM31.141.722a3.376 3.376 0 0 1-.275 1.406 2.5 2.5 0 0 1-.9 1.036 4.65 4.65 0 0 1-1.663.646 12.629 12.629 0 0 1-2.556.218 12.7 12.7 0 0 1-2.194-.161 5.117 5.117 0 0 1-1.463-.456 2 2 0 0 1-.817-.722 1.865 1.865 0 0 1-.257-.978A1.733 1.733 0 0 1 21.508.4a2.352 2.352 0 0 1 1.368-.59V-.4a1.661 1.661 0 0 1-1.083-.618 1.84 1.84 0 0 1-.361-1.131 1.42 1.42 0 0 1 .161-.693 1.815 1.815 0 0 1 .418-.513 2.072 2.072 0 0 1 .6-.352 4.7 4.7 0 0 1 .684-.209v-.074a2.936 2.936 0 0 1-1.349-1.15 3.252 3.252 0 0 1-.437-1.7 3.083 3.083 0 0 1 1.054-2.441 4.791 4.791 0 0 1 3.221-.922 6.551 6.551 0 0 1 1.691.19v-.38a1.482 1.482 0 0 1 .389-1.15 1.6 1.6 0 0 1 1.112-.351h1.577V-9.8h-2.2v.114A2.846 2.846 0 0 1 29.64-8.54a3.368 3.368 0 0 1 .418 1.7A3.005 3.005 0 0 1 29-4.437a4.862 4.862 0 0 1-3.221.9 6.971 6.971 0 0 1-1.767-.209.9.9 0 0 0-.437.8.652.652 0 0 0 .275.561 1.615 1.615 0 0 0 .922.2h2.888a3.841 3.841 0 0 1 2.65.76 2.771 2.771 0 0 1 .831 2.147zM28.5 1.1a.749.749 0 0 0-.342-.665 2.28 2.28 0 0 0-1.2-.228h-3.42a1.153 1.153 0 0 0-.275.428 1.369 1.369 0 0 0-.086.465.855.855 0 0 0 .475.808 3.654 3.654 0 0 0 1.615.256h1.14a3.654 3.654 0 0 0 1.615-.256.855.855 0 0 0 .478-.808zm-2.717-6.477a1.871 1.871 0 0 0 1.244-.352 1.268 1.268 0 0 0 .409-1.016v-.228a1.268 1.268 0 0 0-.409-1.016 1.871 1.871 0 0 0-1.244-.352 1.871 1.871 0 0 0-1.245.352 1.268 1.268 0 0 0-.408 1.016v.228a1.268 1.268 0 0 0 .408 1.016 1.871 1.871 0 0 0 1.245.352zm8.017-5.662a1.7 1.7 0 0 1-1.244-.389 1.351 1.351 0 0 1-.389-1v-.418a1.351 1.351 0 0 1 .389-1 1.7 1.7 0 0 1 1.244-.389 1.7 1.7 0 0 1 1.244.389 1.351 1.351 0 0 1 .389 1v.418a1.351 1.351 0 0 1-.389 1 1.7 1.7 0 0 1-1.244.389zm-1.4 1.064h2.812V0H32.4zM37.829 0v-9.975h2.812v1.691h.114a3.06 3.06 0 0 1 .931-1.349 2.743 2.743 0 0 1 1.843-.57 2.754 2.754 0 0 1 2.328 1.026 4.719 4.719 0 0 1 .788 2.926V0h-2.812v-6.023a2.671 2.671 0 0 0-.3-1.435 1.2 1.2 0 0 0-1.083-.465 2.588 2.588 0 0 0-.665.085 1.69 1.69 0 0 0-.58.275 1.438 1.438 0 0 0-.408.466 1.3 1.3 0 0 0-.152.636V0z" transform="translate(463.257 81.086)"/>
            <path id="Path_672" data-name="Path 672" class="cls-3" d="M961.123 106.755H700.117a4.952 4.952 0 0 1-4.965-4.965V52.244a15.433 15.433 0 0 1 15.436-15.436h194.3a63.159 63.159 0 0 1 63.147 63.147 6.935 6.935 0 0 1-6.912 6.8z"/>
            <path id="Path_840" data-name="Path 840" class="cls-5" d="m9.633 0-.95-3.154H4.256L3.306 0H.38l4.37-13.262h3.572L12.635 0zM6.5-10.64h-.1L4.94-5.6h3.04zm7.828.665h2.812V-8.3h.095a2.336 2.336 0 0 1 .96-1.368 2.9 2.9 0 0 1 1.719-.532 3.323 3.323 0 0 1 2.869 1.33A6.531 6.531 0 0 1 23.75-5a6.577 6.577 0 0 1-.969 3.886A3.314 3.314 0 0 1 19.912.228a2.985 2.985 0 0 1-.931-.143 2.8 2.8 0 0 1-.788-.4 2.6 2.6 0 0 1-.6-.608 2.487 2.487 0 0 1-.361-.75h-.095V3.8h-2.811zm4.655 7.923a1.728 1.728 0 0 0 1.32-.56 2.127 2.127 0 0 0 .523-1.51v-1.73a2.127 2.127 0 0 0-.523-1.51 1.728 1.728 0 0 0-1.32-.561 2.149 2.149 0 0 0-1.321.39 1.265 1.265 0 0 0-.522 1.073v2.945a1.265 1.265 0 0 0 .522 1.074 2.149 2.149 0 0 0 1.319.389zm6.9-7.923h2.807V-8.3h.1a2.336 2.336 0 0 1 .959-1.368 2.9 2.9 0 0 1 1.72-.532 3.323 3.323 0 0 1 2.869 1.33A6.531 6.531 0 0 1 35.3-5a6.577 6.577 0 0 1-.969 3.886A3.314 3.314 0 0 1 31.464.228a2.985 2.985 0 0 1-.931-.143 2.8 2.8 0 0 1-.788-.4 2.6 2.6 0 0 1-.6-.608 2.487 2.487 0 0 1-.361-.75h-.1V3.8h-2.806zm4.655 7.923a1.728 1.728 0 0 0 1.321-.56 2.127 2.127 0 0 0 .522-1.51v-1.73a2.127 2.127 0 0 0-.522-1.51 1.728 1.728 0 0 0-1.321-.561 2.149 2.149 0 0 0-1.32.39 1.265 1.265 0 0 0-.528 1.073v2.945a1.265 1.265 0 0 0 .523 1.074 2.149 2.149 0 0 0 1.32.389zM40.223 0A2.82 2.82 0 0 1 38.1-.7a2.823 2.823 0 0 1-.674-2.033V-14.06h2.812v11.875H41.5V0zm8.949-9.975h2.622L47.956 1.539a3.511 3.511 0 0 1-1.074 1.71A3.127 3.127 0 0 1 44.9 3.8h-1.751V1.615h1.881l.342-1.1-3.5-10.488h2.793l1.467 4.653.722 2.888h.114l.741-2.888zM57.855 0v-13.262h9.025v2.562h-6.137v2.72h5.263v2.546h-5.263v2.869h6.137V0zm11.381 0v-9.975h2.812v1.691h.114a3.045 3.045 0 0 1 .912-1.359 2.606 2.606 0 0 1 1.767-.561 2.939 2.939 0 0 1 1.748.513 2.863 2.863 0 0 1 1.045 1.5h.057a2.676 2.676 0 0 1 .409-.788 2.7 2.7 0 0 1 .674-.636 3.638 3.638 0 0 1 .893-.428 3.4 3.4 0 0 1 1.064-.161 2.6 2.6 0 0 1 2.214 1.026 4.8 4.8 0 0 1 .77 2.926V0H80.9v-6.023q0-1.9-1.368-1.9a1.936 1.936 0 0 0-1.14.361 1.257 1.257 0 0 0-.513 1.1V0h-2.81v-6.023q0-1.9-1.368-1.9a2.136 2.136 0 0 0-.6.085 1.523 1.523 0 0 0-.532.275 1.43 1.43 0 0 0-.38.466 1.366 1.366 0 0 0-.143.636V0zm16.986-9.975h2.812V-8.3h.1a2.336 2.336 0 0 1 .959-1.368 2.9 2.9 0 0 1 1.72-.532 3.323 3.323 0 0 1 2.869 1.33A6.531 6.531 0 0 1 95.646-5a6.577 6.577 0 0 1-.969 3.886A3.314 3.314 0 0 1 91.808.228a2.985 2.985 0 0 1-.931-.143 2.8 2.8 0 0 1-.789-.4 2.6 2.6 0 0 1-.6-.608 2.487 2.487 0 0 1-.361-.75h-.1V3.8h-2.805zm4.655 7.923a1.728 1.728 0 0 0 1.32-.56 2.127 2.127 0 0 0 .522-1.51v-1.73a2.127 2.127 0 0 0-.522-1.51 1.728 1.728 0 0 0-1.32-.561 2.149 2.149 0 0 0-1.321.39 1.265 1.265 0 0 0-.522 1.073v2.945a1.265 1.265 0 0 0 .522 1.074 2.149 2.149 0 0 0 1.321.389zM100.567 0a2.82 2.82 0 0 1-2.119-.7 2.823 2.823 0 0 1-.674-2.033V-14.06h2.812v11.875h1.254V0zm7.011.228a5.064 5.064 0 0 1-1.966-.361 3.924 3.924 0 0 1-1.463-1.045 4.763 4.763 0 0 1-.921-1.653A6.824 6.824 0 0 1 102.9-5a6.824 6.824 0 0 1 .323-2.166 4.662 4.662 0 0 1 .921-1.643 3.973 3.973 0 0 1 1.463-1.036 5.064 5.064 0 0 1 1.966-.361 5.064 5.064 0 0 1 1.966.361 3.973 3.973 0 0 1 1.463 1.036 4.662 4.662 0 0 1 .922 1.643A6.824 6.824 0 0 1 112.252-5a6.824 6.824 0 0 1-.323 2.166 4.763 4.763 0 0 1-.922 1.653 3.924 3.924 0 0 1-1.463 1.045 5.064 5.064 0 0 1-1.966.364zm0-2.223a1.638 1.638 0 0 0 1.292-.513 2.131 2.131 0 0 0 .456-1.463V-6a2.131 2.131 0 0 0-.456-1.463 1.638 1.638 0 0 0-1.292-.513 1.638 1.638 0 0 0-1.292.513A2.131 2.131 0 0 0 105.83-6v2.033a2.131 2.131 0 0 0 .456 1.463 1.638 1.638 0 0 0 1.292.509zm12.578-7.98h2.622L118.94 1.539a3.511 3.511 0 0 1-1.074 1.71 3.127 3.127 0 0 1-1.985.551h-1.748V1.615h1.881l.342-1.1-3.5-10.488h2.793l1.463 4.655.722 2.888h.114l.741-2.888zM124.2 0v-9.975h2.812v1.691h.114a3.045 3.045 0 0 1 .912-1.359 2.606 2.606 0 0 1 1.767-.561 2.939 2.939 0 0 1 1.748.513 2.862 2.862 0 0 1 1.045 1.5h.057a2.675 2.675 0 0 1 .408-.788 2.7 2.7 0 0 1 .674-.636 3.639 3.639 0 0 1 .893-.428 3.4 3.4 0 0 1 1.07-.157 2.6 2.6 0 0 1 2.214 1.026 4.8 4.8 0 0 1 .77 2.926V0h-2.812v-6.023q0-1.9-1.368-1.9a1.936 1.936 0 0 0-1.14.361 1.257 1.257 0 0 0-.513 1.1V0h-2.812v-6.023q0-1.9-1.368-1.9a2.136 2.136 0 0 0-.6.085 1.523 1.523 0 0 0-.532.275 1.43 1.43 0 0 0-.38.466 1.366 1.366 0 0 0-.143.636V0zm21.15.228a5.265 5.265 0 0 1-2.033-.37 4.2 4.2 0 0 1-1.51-1.045 4.4 4.4 0 0 1-.931-1.644A7.015 7.015 0 0 1 140.562-5a7.056 7.056 0 0 1 .3-2.137 4.544 4.544 0 0 1 .9-1.643 4 4 0 0 1 1.473-1.054 5.071 5.071 0 0 1 1.995-.371 4.918 4.918 0 0 1 2.118.418 4 4 0 0 1 1.452 1.123 4.516 4.516 0 0 1 .817 1.624 7.159 7.159 0 0 1 .257 1.928v.836h-6.4v.152A2.228 2.228 0 0 0 144-2.556a2.168 2.168 0 0 0 1.672.579 2.61 2.61 0 0 0 1.425-.352 5.6 5.6 0 0 0 1.026-.845l1.406 1.748a4.435 4.435 0 0 1-1.738 1.216 6.43 6.43 0 0 1-2.441.438zm-.057-8.36a1.677 1.677 0 0 0-1.339.561 2.2 2.2 0 0 0-.484 1.491v.152h3.5V-6.1a2.443 2.443 0 0 0-.409-1.472 1.459 1.459 0 0 0-1.268-.56zM151.867 0v-9.975h2.812v1.691h.114a3.06 3.06 0 0 1 .931-1.349 2.743 2.743 0 0 1 1.843-.57 2.754 2.754 0 0 1 2.327 1.026 4.719 4.719 0 0 1 .788 2.926V0h-2.812v-6.023a2.671 2.671 0 0 0-.3-1.435 1.2 1.2 0 0 0-1.083-.465 2.588 2.588 0 0 0-.665.085 1.69 1.69 0 0 0-.579.275 1.438 1.438 0 0 0-.409.466 1.3 1.3 0 0 0-.152.636V0zm14.82 0a3.025 3.025 0 0 1-2.214-.741 2.913 2.913 0 0 1-.751-2.166V-7.79h-1.406v-2.185h.7a.927.927 0 0 0 .779-.276 1.285 1.285 0 0 0 .209-.788v-1.634h2.527v2.7h1.976v2.183h-1.976v5.605h1.824V0zM5.339 23.228a5.071 5.071 0 0 1-1.995-.371 3.964 3.964 0 0 1-1.463-1.045 4.518 4.518 0 0 1-.893-1.643A7.218 7.218 0 0 1 .684 18a7.124 7.124 0 0 1 .3-2.156 4.624 4.624 0 0 1 .897-1.644 3.825 3.825 0 0 1 1.463-1.045 5.188 5.188 0 0 1 1.995-.355 4.444 4.444 0 0 1 2.536.684A3.745 3.745 0 0 1 9.329 15.4l-2.28.988a1.911 1.911 0 0 0-.551-.969 1.61 1.61 0 0 0-1.159-.4 1.538 1.538 0 0 0-1.292.56 2.393 2.393 0 0 0-.437 1.51v1.862a2.352 2.352 0 0 0 .437 1.5 1.55 1.55 0 0 0 1.292.551 1.719 1.719 0 0 0 1.207-.402 2.39 2.39 0 0 0 .654-1.077l2.185.95a3.885 3.885 0 0 1-1.529 2.09 4.562 4.562 0 0 1-2.517.665zM18.506 23a1.769 1.769 0 0 1-1.264-.475 2.184 2.184 0 0 1-.637-1.273h-.114a2.306 2.306 0 0 1-1.007 1.472 3.463 3.463 0 0 1-1.919.5 3.112 3.112 0 0 1-2.3-.8 2.851 2.851 0 0 1-.8-2.109 2.63 2.63 0 0 1 1.149-2.346 5.553 5.553 0 0 1 3.125-.77h1.577v-.627a1.667 1.667 0 0 0-.38-1.149A1.632 1.632 0 0 0 14.668 15a2.208 2.208 0 0 0-1.33.361 3.57 3.57 0 0 0-.817.817L10.849 14.7a4.36 4.36 0 0 1 1.53-1.4 5.233 5.233 0 0 1 2.5-.5 4.731 4.731 0 0 1 3.192.931 3.417 3.417 0 0 1 1.064 2.717v4.37h.931V23zm-3.9-1.729a2.291 2.291 0 0 0 1.206-.3 1.065 1.065 0 0 0 .5-.988V18.8h-1.359q-1.653 0-1.653 1.121v.285a.944.944 0 0 0 .342.807 1.589 1.589 0 0 0 .969.258zM21.945 23v-9.975h2.812v2.166h.1a3.1 3.1 0 0 1 .266-.807 2.464 2.464 0 0 1 .5-.694 2.357 2.357 0 0 1 .751-.484 2.676 2.676 0 0 1 1.026-.18h.494v2.622h-.7a4.005 4.005 0 0 0-1.833.323 1.236 1.236 0 0 0-.6 1.2V23zm13.718-1.672h-.095a2.487 2.487 0 0 1-.361.751 2.6 2.6 0 0 1-.6.608 2.772 2.772 0 0 1-.8.4 3.013 3.013 0 0 1-.922.142 3.314 3.314 0 0 1-2.869-1.34A6.577 6.577 0 0 1 29.051 18a6.531 6.531 0 0 1 .969-3.876 3.323 3.323 0 0 1 2.869-1.33 2.9 2.9 0 0 1 1.719.532 2.336 2.336 0 0 1 .96 1.368h.095V8.94h2.812V23h-2.812zm-1.843-.38a2.149 2.149 0 0 0 1.32-.389 1.265 1.265 0 0 0 .522-1.073V16.54a1.265 1.265 0 0 0-.522-1.074 2.149 2.149 0 0 0-1.32-.39 1.728 1.728 0 0 0-1.32.561 2.127 2.127 0 0 0-.523 1.51v1.729a2.127 2.127 0 0 0 .523 1.51 1.728 1.728 0 0 0 1.32.562z" transform="translate(733.885 69.545)"/>
            <path id="Path_673" data-name="Path 673" class="cls-3" d="M897.76 370.676H702.815a4.952 4.952 0 0 1-4.965-4.965v-49.547a15.433 15.433 0 0 1 15.436-15.436H841.63a63.158 63.158 0 0 1 63.147 63.147 7.105 7.105 0 0 1-7.017 6.801z"/>
            <path id="Path_842" data-name="Path 842" class="cls-5" d="M4.541 0 .266-13.262h2.926L5.168-6.9l1.045 4.164h.057L7.277-6.9l1.976-6.365h2.831L7.771 0zm10.526-11.039a1.7 1.7 0 0 1-1.245-.389 1.351 1.351 0 0 1-.389-1v-.418a1.351 1.351 0 0 1 .389-1 1.7 1.7 0 0 1 1.245-.389 1.7 1.7 0 0 1 1.245.389 1.351 1.351 0 0 1 .389 1v.418a1.351 1.351 0 0 1-.389 1 1.7 1.7 0 0 1-1.245.389zm-1.406 1.064h2.812V0h-2.812zm9.6 10.2a5.265 5.265 0 0 1-2.033-.37 4.2 4.2 0 0 1-1.51-1.045 4.4 4.4 0 0 1-.931-1.644A7.015 7.015 0 0 1 18.468-5a7.056 7.056 0 0 1 .3-2.137 4.544 4.544 0 0 1 .9-1.643 4 4 0 0 1 1.472-1.054 5.071 5.071 0 0 1 2-.371 4.918 4.918 0 0 1 2.118.418A4 4 0 0 1 26.7-8.664a4.516 4.516 0 0 1 .817 1.624 7.159 7.159 0 0 1 .257 1.928v.836h-6.4v.152a2.228 2.228 0 0 0 .532 1.567 2.168 2.168 0 0 0 1.672.579A2.61 2.61 0 0 0 25-2.328a5.6 5.6 0 0 0 1.026-.845l1.406 1.748A4.435 4.435 0 0 1 25.7-.209a6.43 6.43 0 0 1-2.444.437zM23.2-8.132a1.677 1.677 0 0 0-1.34.561 2.2 2.2 0 0 0-.485 1.491v.152h3.5V-6.1a2.443 2.443 0 0 0-.408-1.472 1.459 1.459 0 0 0-1.267-.56zm5.529-1.843h2.717l.969 4.028.684 3.04h.076l.8-3.04 1.14-4.028h2.565l1.159 4.028.817 3.04h.076l.684-3.04.969-4.028h2.6L41.23 0h-2.945l-1.216-4.218-.7-2.584h-.057l-.684 2.584L34.409 0h-2.888zm21.565-3.287h5a6.6 6.6 0 0 1 2.394.418 4.826 4.826 0 0 1 1.839 1.244 5.686 5.686 0 0 1 1.178 2.071 9.106 9.106 0 0 1 .418 2.9 9.106 9.106 0 0 1-.418 2.9 5.686 5.686 0 0 1-1.178 2.071 4.826 4.826 0 0 1-1.843 1.24A6.6 6.6 0 0 1 55.29 0h-5zm5 10.7a2.789 2.789 0 0 0 2.033-.722 3.124 3.124 0 0 0 .737-2.316v-2.057a3.124 3.124 0 0 0-.741-2.318 2.789 2.789 0 0 0-2.033-.725h-2.109v8.132zM67.545.228a5.265 5.265 0 0 1-2.033-.37A4.2 4.2 0 0 1 64-1.187a4.4 4.4 0 0 1-.931-1.644A7.015 7.015 0 0 1 62.757-5a7.056 7.056 0 0 1 .3-2.137 4.544 4.544 0 0 1 .9-1.643 4 4 0 0 1 1.473-1.054 5.071 5.071 0 0 1 1.995-.371 4.918 4.918 0 0 1 2.118.418 4 4 0 0 1 1.444 1.121 4.516 4.516 0 0 1 .817 1.624 7.159 7.159 0 0 1 .257 1.928v.836h-6.4v.152a2.228 2.228 0 0 0 .539 1.57 2.168 2.168 0 0 0 1.672.579 2.61 2.61 0 0 0 1.425-.352 5.6 5.6 0 0 0 1.026-.845l1.406 1.748a4.435 4.435 0 0 1-1.742 1.217 6.43 6.43 0 0 1-2.442.437zm-.057-8.36a1.677 1.677 0 0 0-1.34.561 2.2 2.2 0 0 0-.484 1.491v.152h3.5V-6.1a2.443 2.443 0 0 0-.409-1.472 1.459 1.459 0 0 0-1.267-.56zM77.558 0a3.025 3.025 0 0 1-2.214-.741 2.913 2.913 0 0 1-.75-2.166V-7.79h-1.406v-2.185h.7a.927.927 0 0 0 .779-.276 1.285 1.285 0 0 0 .209-.788v-1.634h2.527v2.7h1.976v2.183h-1.973v5.605h1.824V0zm11.153 0a1.769 1.769 0 0 1-1.263-.475 2.184 2.184 0 0 1-.637-1.273H86.7a2.306 2.306 0 0 1-1.01 1.473 3.463 3.463 0 0 1-1.919.5 3.112 3.112 0 0 1-2.3-.8 2.851 2.851 0 0 1-.8-2.109A2.63 2.63 0 0 1 81.82-5.03a5.553 5.553 0 0 1 3.125-.77h1.577v-.627a1.667 1.667 0 0 0-.38-1.149A1.632 1.632 0 0 0 84.873-8a2.208 2.208 0 0 0-1.33.361 3.57 3.57 0 0 0-.817.817L81.054-8.3a4.36 4.36 0 0 1 1.529-1.4 5.233 5.233 0 0 1 2.5-.5 4.731 4.731 0 0 1 3.192.931 3.417 3.417 0 0 1 1.064 2.717v4.37h.931V0zm-3.895-1.729a2.291 2.291 0 0 0 1.206-.3 1.065 1.065 0 0 0 .5-.988V-4.2h-1.364q-1.653 0-1.653 1.121v.285a.943.943 0 0 0 .342.807 1.589 1.589 0 0 0 .969.258zm8.74-9.31a1.7 1.7 0 0 1-1.244-.389 1.351 1.351 0 0 1-.39-1v-.418a1.351 1.351 0 0 1 .39-1 1.7 1.7 0 0 1 1.244-.389 1.7 1.7 0 0 1 1.244.389 1.351 1.351 0 0 1 .389 1v.418a1.351 1.351 0 0 1-.389 1 1.7 1.7 0 0 1-1.244.389zM92.15-9.975h2.812V0H92.15zM100.377 0a2.82 2.82 0 0 1-2.118-.7 2.823 2.823 0 0 1-.674-2.033V-14.06h2.815v11.875h1.254V0zm6.346.228a5.685 5.685 0 0 1-2.432-.465 5.619 5.619 0 0 1-1.767-1.321l1.653-1.672a4.293 4.293 0 0 0 1.178.931 3.078 3.078 0 0 0 1.463.342 1.93 1.93 0 0 0 1.159-.257.839.839 0 0 0 .323-.694q0-.7-1.007-.836l-1.083-.133q-3.363-.418-3.363-3.078a3.12 3.12 0 0 1 .275-1.32A2.947 2.947 0 0 1 103.9-9.3a3.627 3.627 0 0 1 1.216-.665 5.062 5.062 0 0 1 1.605-.238 8.08 8.08 0 0 1 1.378.1 4.794 4.794 0 0 1 1.064.3 4.068 4.068 0 0 1 .855.494 9 9 0 0 1 .77.655l-1.615 1.653a3.691 3.691 0 0 0-1.073-.75 2.9 2.9 0 0 0-1.226-.275 1.753 1.753 0 0 0-1.026.228.722.722 0 0 0-.3.608.835.835 0 0 0 .218.617 1.524 1.524 0 0 0 .826.313l1.121.152Q111-5.662 111-3.1a2.932 2.932 0 0 1-.3 1.33 3.128 3.128 0 0 1-.865 1.055 4.114 4.114 0 0 1-1.349.694 5.863 5.863 0 0 1-1.763.249zM.7 17.072a13.341 13.341 0 0 1 .26-2.641 13.584 13.584 0 0 1 .693-2.365A10.332 10.332 0 0 1 2.7 10.08a7.841 7.841 0 0 1 1.33-1.52h2.639a10.243 10.243 0 0 0-2.422 3.43 10.881 10.881 0 0 0-.884 4.437v1.33a10.824 10.824 0 0 0 .893 4.5 10.149 10.149 0 0 0 2.413 3.363h-2.66a7.536 7.536 0 0 1-1.292-1.48 10.508 10.508 0 0 1-1.054-2A13.656 13.656 0 0 1 .7 17.072zm8.36-4.047h2.812v11.039a2.848 2.848 0 0 1-.662 2.036 2.843 2.843 0 0 1-2.147.7H7.581v-2.185h1.482zm1.406-1.064a1.7 1.7 0 0 1-1.245-.389 1.351 1.351 0 0 1-.389-1v-.418a1.351 1.351 0 0 1 .389-1 1.7 1.7 0 0 1 1.245-.389 1.7 1.7 0 0 1 1.245.389 1.351 1.351 0 0 1 .389 1v.418a1.351 1.351 0 0 1-.389 1 1.7 1.7 0 0 1-1.242.389zm8.075 11.267a5.064 5.064 0 0 1-1.967-.361 3.924 3.924 0 0 1-1.463-1.045 4.763 4.763 0 0 1-.922-1.653 7.424 7.424 0 0 1 0-4.332 4.662 4.662 0 0 1 .922-1.643 3.973 3.973 0 0 1 1.463-1.036 5.537 5.537 0 0 1 3.933 0 3.973 3.973 0 0 1 1.463 1.036 4.662 4.662 0 0 1 .922 1.643 7.424 7.424 0 0 1 0 4.332 4.763 4.763 0 0 1-.922 1.653 3.924 3.924 0 0 1-1.463 1.045 5.064 5.064 0 0 1-1.963.361zm0-2.223a1.638 1.638 0 0 0 1.292-.513 2.131 2.131 0 0 0 .456-1.463V17a2.131 2.131 0 0 0-.456-1.463 1.638 1.638 0 0 0-1.292-.513 1.638 1.638 0 0 0-1.292.513A2.131 2.131 0 0 0 16.8 17v2.033a2.131 2.131 0 0 0 .456 1.463 1.638 1.638 0 0 0 1.288.509zM25.213 8.94h2.812v5.76h.1a2.336 2.336 0 0 1 .959-1.368A2.9 2.9 0 0 1 30.8 12.8a3.323 3.323 0 0 1 2.869 1.33 6.531 6.531 0 0 1 .968 3.87 6.577 6.577 0 0 1-.969 3.885 3.314 3.314 0 0 1-2.869 1.34 2.985 2.985 0 0 1-.931-.142 2.8 2.8 0 0 1-.788-.4 2.6 2.6 0 0 1-.6-.608 2.487 2.487 0 0 1-.361-.751h-.1V23h-2.806zm4.655 12.008a1.728 1.728 0 0 0 1.32-.56 2.127 2.127 0 0 0 .523-1.51v-1.73a2.127 2.127 0 0 0-.523-1.51 1.728 1.728 0 0 0-1.32-.561 2.149 2.149 0 0 0-1.32.39 1.265 1.265 0 0 0-.523 1.074v2.945a1.265 1.265 0 0 0 .523 1.073 2.149 2.149 0 0 0 1.32.389zm5.643 4.921L41.173 8.94h2.318l-5.662 16.929zM45.315 23v-9.975h2.812v1.691h.114a3.06 3.06 0 0 1 .931-1.349 3.2 3.2 0 0 1 4.171.456 4.719 4.719 0 0 1 .788 2.926V23h-2.812v-6.023a2.671 2.671 0 0 0-.3-1.434 1.2 1.2 0 0 0-1.083-.465 2.588 2.588 0 0 0-.665.086 1.69 1.69 0 0 0-.58.275 1.438 1.438 0 0 0-.408.465 1.3 1.3 0 0 0-.152.637V23zm15.485.228a5.265 5.265 0 0 1-2.033-.371 4.2 4.2 0 0 1-1.51-1.045 4.4 4.4 0 0 1-.931-1.643 7.653 7.653 0 0 1-.01-4.3 4.544 4.544 0 0 1 .9-1.643 4 4 0 0 1 1.472-1.054 5.071 5.071 0 0 1 2-.371 4.918 4.918 0 0 1 2.118.418 4 4 0 0 1 1.444 1.121 4.516 4.516 0 0 1 .817 1.625 7.159 7.159 0 0 1 .257 1.928v.836h-6.4v.152a2.228 2.228 0 0 0 .532 1.567 2.168 2.168 0 0 0 1.672.58 2.61 2.61 0 0 0 1.425-.351 5.6 5.6 0 0 0 1.026-.846l1.406 1.748a4.435 4.435 0 0 1-1.738 1.216 6.43 6.43 0 0 1-2.447.433zm-.057-8.36a1.677 1.677 0 0 0-1.34.561 2.2 2.2 0 0 0-.485 1.491v.152h3.5V16.9a2.443 2.443 0 0 0-.409-1.473 1.459 1.459 0 0 0-1.266-.559zm5.529-1.843h2.717l.969 4.028.684 3.04h.076l.8-3.04 1.14-4.028h2.565l1.159 4.028.817 3.04h.076l.684-3.04.969-4.028h2.6L78.774 23h-2.945l-1.216-4.218-.7-2.584h-.057l-.684 2.584L71.953 23h-2.888zm20.235 10.2a5.685 5.685 0 0 1-2.432-.465 5.619 5.619 0 0 1-1.767-1.321l1.653-1.672a4.293 4.293 0 0 0 1.178.931 3.078 3.078 0 0 0 1.463.342 1.93 1.93 0 0 0 1.159-.257.839.839 0 0 0 .323-.693q0-.7-1.007-.836l-1.083-.133q-3.363-.418-3.363-3.078a3.12 3.12 0 0 1 .275-1.32 2.947 2.947 0 0 1 .779-1.026 3.627 3.627 0 0 1 1.216-.665 5.062 5.062 0 0 1 1.605-.238 8.08 8.08 0 0 1 1.378.1 4.794 4.794 0 0 1 1.064.3 4.068 4.068 0 0 1 .855.494 9 9 0 0 1 .77.655l-1.615 1.653a3.691 3.691 0 0 0-1.073-.75 2.9 2.9 0 0 0-1.226-.275 1.753 1.753 0 0 0-1.026.228.722.722 0 0 0-.3.608.835.835 0 0 0 .218.618 1.524 1.524 0 0 0 .826.313l1.123.162q3.287.437 3.287 3a2.932 2.932 0 0 1-.3 1.33 3.128 3.128 0 0 1-.865 1.055 4.114 4.114 0 0 1-1.349.694 5.863 5.863 0 0 1-1.766.249zm10.6-6.156a13.656 13.656 0 0 1-.96 5.063 10.507 10.507 0 0 1-1.054 2 7.536 7.536 0 0 1-1.293 1.49h-2.66a10.149 10.149 0 0 0 2.413-3.363 10.824 10.824 0 0 0 .893-4.5v-1.33a10.881 10.881 0 0 0-.883-4.437 10.243 10.243 0 0 0-2.42-3.432h2.641a7.841 7.841 0 0 1 1.33 1.52 10.331 10.331 0 0 1 1.045 1.986 13.584 13.584 0 0 1 .694 2.365 13.341 13.341 0 0 1 .256 2.641z" transform="translate(723.853 331.953)"/>
            <path id="Path_674" data-name="Path 674" class="cls-3" d="M1248.142 201.853H1056a4.952 4.952 0 0 1-4.965-4.965v-49.546a15.433 15.433 0 0 1 15.436-15.436H1191.9a63.158 63.158 0 0 1 63.146 63.147 6.865 6.865 0 0 1-6.904 6.8z"/>
            <path id="Path_841" data-name="Path 841" class="cls-5" d="M4.541 0 .266-13.262h2.926L5.168-6.9l1.045 4.164h.057L7.277-6.9l1.976-6.365h2.831L7.771 0zm10.526-11.039a1.7 1.7 0 0 1-1.245-.389 1.351 1.351 0 0 1-.389-1v-.418a1.351 1.351 0 0 1 .389-1 1.7 1.7 0 0 1 1.245-.389 1.7 1.7 0 0 1 1.245.389 1.351 1.351 0 0 1 .389 1v.418a1.351 1.351 0 0 1-.389 1 1.7 1.7 0 0 1-1.245.389zm-1.406 1.064h2.812V0h-2.812zm9.6 10.2a5.265 5.265 0 0 1-2.033-.37 4.2 4.2 0 0 1-1.51-1.045 4.4 4.4 0 0 1-.931-1.644A7.015 7.015 0 0 1 18.468-5a7.056 7.056 0 0 1 .3-2.137 4.544 4.544 0 0 1 .9-1.643 4 4 0 0 1 1.472-1.054 5.071 5.071 0 0 1 2-.371 4.918 4.918 0 0 1 2.118.418A4 4 0 0 1 26.7-8.664a4.516 4.516 0 0 1 .817 1.624 7.159 7.159 0 0 1 .257 1.928v.836h-6.4v.152a2.228 2.228 0 0 0 .532 1.567 2.168 2.168 0 0 0 1.672.579A2.61 2.61 0 0 0 25-2.328a5.6 5.6 0 0 0 1.026-.845l1.406 1.748A4.435 4.435 0 0 1 25.7-.209a6.43 6.43 0 0 1-2.444.437zM23.2-8.132a1.677 1.677 0 0 0-1.34.561 2.2 2.2 0 0 0-.485 1.491v.152h3.5V-6.1a2.443 2.443 0 0 0-.408-1.472 1.459 1.459 0 0 0-1.267-.56zm5.529-1.843h2.717l.969 4.028.684 3.04h.076l.8-3.04 1.14-4.028h2.565l1.159 4.028.817 3.04h.076l.684-3.04.969-4.028h2.6L41.23 0h-2.945l-1.216-4.218-.7-2.584h-.057l-.684 2.584L34.409 0h-2.888zM55.651.228A6.576 6.576 0 0 1 53.219-.2a4.821 4.821 0 0 1-1.843-1.273A5.861 5.861 0 0 1 50.2-3.582a9.421 9.421 0 0 1-.418-2.955A9.717 9.717 0 0 1 50.2-9.51a6.221 6.221 0 0 1 1.178-2.185 4.912 4.912 0 0 1 1.843-1.339 6.211 6.211 0 0 1 2.432-.456 5.632 5.632 0 0 1 3.04.75 5.174 5.174 0 0 1 1.919 2.365l-2.491 1.293a2.961 2.961 0 0 0-.826-1.34 2.385 2.385 0 0 0-1.644-.5 2.658 2.658 0 0 0-2.042.827 3.4 3.4 0 0 0-.77 2.4v2.128a3.4 3.4 0 0 0 .77 2.4 2.658 2.658 0 0 0 2.042.826 2.429 2.429 0 0 0 1.7-.579 3.521 3.521 0 0 0 .94-1.4l2.356 1.368A5.9 5.9 0 0 1 58.7-.6a5.277 5.277 0 0 1-3.049.828zM69.882 0a1.769 1.769 0 0 1-1.264-.475 2.184 2.184 0 0 1-.636-1.273h-.114a2.306 2.306 0 0 1-1.007 1.473 3.463 3.463 0 0 1-1.919.5 3.112 3.112 0 0 1-2.3-.8 2.851 2.851 0 0 1-.8-2.109 2.63 2.63 0 0 1 1.15-2.346 5.553 5.553 0 0 1 3.128-.77h1.58v-.627a1.667 1.667 0 0 0-.38-1.149A1.632 1.632 0 0 0 66.044-8a2.208 2.208 0 0 0-1.33.361 3.57 3.57 0 0 0-.817.817L62.225-8.3a4.36 4.36 0 0 1 1.529-1.4 5.233 5.233 0 0 1 2.5-.5 4.731 4.731 0 0 1 3.192.931 3.417 3.417 0 0 1 1.064 2.717v4.37h.931V0zm-3.9-1.729a2.291 2.291 0 0 0 1.207-.3 1.065 1.065 0 0 0 .5-.988V-4.2h-1.36q-1.653 0-1.653 1.121v.285a.944.944 0 0 0 .342.807 1.589 1.589 0 0 0 .969.258zM73.321 0v-9.975h2.812v2.166h.1a3.1 3.1 0 0 1 .266-.807A2.464 2.464 0 0 1 77-9.31a2.357 2.357 0 0 1 .75-.484 2.676 2.676 0 0 1 1.026-.18h.494v2.622h-.7a4.005 4.005 0 0 0-1.834.323 1.236 1.236 0 0 0-.6 1.2V0zm13.718-1.672h-.1a2.487 2.487 0 0 1-.361.75 2.6 2.6 0 0 1-.6.608 2.772 2.772 0 0 1-.8.4 3.013 3.013 0 0 1-.922.143A3.314 3.314 0 0 1 81.4-1.112 6.577 6.577 0 0 1 80.427-5a6.531 6.531 0 0 1 .973-3.873 3.323 3.323 0 0 1 2.869-1.33 2.9 2.9 0 0 1 1.719.532 2.336 2.336 0 0 1 .96 1.368h.1v-5.757h2.812V0h-2.821zm-1.839-.38a2.149 2.149 0 0 0 1.321-.389 1.265 1.265 0 0 0 .522-1.074V-6.46a1.265 1.265 0 0 0-.522-1.073 2.149 2.149 0 0 0-1.321-.39 1.728 1.728 0 0 0-1.32.561 2.127 2.127 0 0 0-.523 1.51v1.729a2.127 2.127 0 0 0 .523 1.51 1.728 1.728 0 0 0 1.32.561z" transform="translate(1081.13 175.458)"/>
            <g id="Group_378" data-name="Group 378">
                <g id="Group_377" data-name="Group 377" style="clip-path:url(#clip-path-2)">
                    <path id="Path_675" data-name="Path 675" class="cls-7" d="M205.955 370.136c-7.124 12.305-15.976 17.055-15.976 17.055h-37.024c-.108.109 58.397-26.446 53-17.055z"/>
                    <g id="Group_374" data-name="Group 374">
                        <path id="Path_676" data-name="Path 676" class="cls-8" d="M177.458 465.557a3.528 3.528 0 0 0-.648 3.67c.864 2.483 3.778 5.181 7.232 7.88a11.469 11.469 0 0 1 1.187.971c.108.108.216.108.216.216l.216.216c3.13 2.914 1.943 3.562 7.664 9.5 6.477 6.692 10.9 6.908 12.2 6.261 1.079-.54-1.079-4.1-3.562-8.1a2.359 2.359 0 0 0-.324-.54l-.971-1.619c-2.807-4.857-2.159-7.124-1.4-14.356.54-5.829 9.067-32.707 9.067-32.707l-12.413-2.159s-3.778 21.373-7.88 24.719c-2.159 1.727-4.642 1.727-6.8 3.13-.108.108-.324.216-.432.324a14.713 14.713 0 0 0-3.352 2.594z"/>
                        <path id="Path_677" data-name="Path 677" class="cls-7" d="M177.458 465.557a3.528 3.528 0 0 0-.648 3.67c1.079 2.483 3.886 5.181 7.232 7.88.432.324.756.648 1.187.971.108.108.216.108.216.216l.216.216c3.13 2.914 1.943 3.562 7.664 9.5 6.477 6.692 10.9 6.908 12.2 6.261 1.079-.54-1.079-4.1-3.562-8.1a26.7 26.7 0 0 1-11.55-8.527c-3.886-4.965-6.477-11.334-9.175-15.112-.108.108-.324.216-.432.324a19.313 19.313 0 0 0-3.348 2.701z"/>
                        <path id="Path_678" data-name="Path 678" class="cls-8" d="M277.629 457.785c.756 3.886 6.261 3.238 12.305 1.727 6.153-1.511 4.642.324 13.385-.648s11.334-4.21 11.55-5.505c.216-1.187-4.1-1.511-8.635-2.051-.54-.108-1.187-.108-1.727-.216-5.181-.648-8.959-3.994-13.709-6.8-4.426-2.591-11.118-13.277-11.118-13.277l-11.874.971s6.261 9.5 8.635 13.6c1.4 2.483 1.3 5.613 1.187 8.1a17.373 17.373 0 0 0 .001 4.099z"/>
                        <path id="Path_679" data-name="Path 679" class="cls-7" d="M290.042 459.512c6.153-1.511 4.642.324 13.385-.648s11.334-4.21 11.55-5.505c.216-1.187-4.1-1.511-8.635-2.051v.108a24.7 24.7 0 0 1-12.413 3.886c-5.937.108-12.09-1.511-16.191-1.511a13.161 13.161 0 0 0 .108 4.1c.538 3.78 6.044 3.133 12.196 1.621z"/>
                        <path id="Path_680" data-name="Path 680" class="cls-7" d="m231.969 381.578-11.118 30.008-14.572 39.183a21.653 21.653 0 0 1-7.772-.756 31.657 31.657 0 0 1-7.448-3.67s3.994-41.99 11.55-66.169c1.943-6.153 4.1-11.226 6.477-14.033 11.765-13.708 22.883 15.437 22.883 15.437z"/>
                        <path id="Path_681" data-name="Path 681" class="cls-9" d="M220.635 333.975c-7.34-2.375-28.173.648-49.006 4.749l-4.426-7.232-45.228-3.562s-14.9 33.03-6.692 54.079c1.187 3.13 3.562 5.073 7.664 5.181h36.269c22.452 0 47.495-15.436 50.841-16.083 5.289-1.079 7.448 9.607 12.737 20.725s49.87 49.438 49.87 49.438 6.908.108 9.715-.971a11.047 11.047 0 0 0 4.21-2.591s-49.439-98.444-65.954-103.733z"/>
                        <path id="Path_682" data-name="Path 682" class="cls-7" d="M165.476 200.018c-5.829-3.022-14.572-3.454-15.976-3.67-17.163-2.267-27.417 22.56-28.065 30.116-1.079 13.925-8.42 15.976-18.782 24.719-20.725 17.487-14.68 37.672-3.346 45.228 6.8 4.534 18.782 0 18.782 0 .216.108 32.815-18.242 48.9-27.094 24.07-3.454 13.275-61.635-1.513-69.299z"/>
                        <path id="Path_683" data-name="Path 683" class="cls-8" d="M153.495 261.761c.108 0-7.88 2.807-13.277.432-5.073-2.267-8.851-10.47-8.743-10.47 2.267-.108 4.749-2.051 6.692-15.22l.971.324 16.407 5.937s-1.187 5.289-1.943 10.255c-.647 4.101-.971 8.203-.107 8.742z"/>
                        <path id="Path_684" data-name="Path 684" d="M155.546 242.763s-1.187 5.289-1.943 10.255c-9.391-1.727-13.061-11.01-14.356-16.083z" style="fill:#ed975d"/>
                        <path id="Path_685" data-name="Path 685" class="cls-8" d="M158.028 247.945s-22.344-3.023-20.293-16.945.648-23.639 15-22.344 16.407 7.016 16.839 11.874c.326 4.855-5.717 27.846-11.546 27.415z"/>
                        <path id="Path_686" data-name="Path 686" class="cls-7" d="M168.607 212.863s-14.356 12.305-24.071 13.385c-9.715.971-13.385-2.159-13.385-2.159a37.743 37.743 0 0 0 9.175-12.521 6.688 6.688 0 0 1 5.613-3.994c7.016-.54 20.185-.864 22.668 5.289z"/>
                        <path id="Path_687" data-name="Path 687" class="cls-7" d="M159.647 211.784s4.749 4.642 6.261 8.1c1.4 3.346 1.943 11.226.756 14.356 0 0 7.448-14.572 3.238-21.589-4.426-7.451-10.255-.867-10.255-.867z"/>
                        <path id="Path_688" data-name="Path 688" class="cls-4" d="M172.385 294.792c-.648 45.336-.216 35.837-5.181 40.155-1.187 1.079-4.534 1.619-8.959 1.943-13.925.971-38.32-1.4-39.291-3.886-3.238-8.851-.971-11.658-3.67-25.259-.324-1.4-.648-3.022-1.079-4.749-2.267-9.391-4.426-12.521 3.562-27.525 7.124-13.6 14.572-24.611 15.328-24.179 18.89 11.226 20.4 1.835 20.4 1.835s19.213 19.536 18.89 41.665z"/>
                        <path id="Path_689" data-name="Path 689" class="cls-9" d="m220.851 411.586-14.572 39.183a21.653 21.653 0 0 1-7.772-.756 31.657 31.657 0 0 1-7.448-3.67s3.994-41.99 11.55-66.169z"/>
                        <path id="Path_690" data-name="Path 690" class="cls-4" d="M153.6 252.91s19.43 3.346 21.8 11.658c2.267 8.42 15.76 57.641 15.76 57.641s-9.931 1.727-14.464-2.807-15.868-42.421-15.868-42.421z"/>
                        <path id="Path_691" data-name="Path 691" d="M158.244 336.781c-13.925.971-38.32-1.4-39.291-3.886-3.238-8.851-.971-11.658-3.67-25.259l6.692-18.89S120.9 309.8 127.049 315.3s25.367 10.686 28.389 15.328a16.926 16.926 0 0 1 2.806 6.153z" style="fill:#ebf3ff"/>
                        <path id="Path_692" data-name="Path 692" class="cls-8" d="M142.269 328.038s13.709-3.022 15.868-1.835 7.664 5.613 8.312 7.232c.648 1.511-4.965-1.187-6.692-1.619-1.187-.324-4.318.756-5.829 1.3-6.477 2.159-10.47 1.079-10.47 1.079z"/>
                        <path id="Path_693" data-name="Path 693" class="cls-4" d="M133.093 251.183s-18.458 1.187-24.827 10.039c-8.959 12.521-26.77 65.845-16.515 72.969 11.442 7.988 52.244 2.051 52.244 2.051s1.4-6.369-.54-9.391c-1.835-3.022-32.6-7.988-34-9.391s17.7-27.633 17.7-31.843c.11-4.317 5.938-34.434 5.938-34.434z"/>
                        <path id="Path_694" data-name="Path 694" class="cls-8" d="M158.892 329.981s2.914 3.67 3.778 4.1a2.782 2.782 0 0 0 1.511.324l-1.943-3.454z"/>
                        <path id="Path_695" data-name="Path 695" class="cls-8" d="m158.244 326.2 8.312 4.1s-.324.54-1.4.54a16.711 16.711 0 0 1-3.67-.971z"/>
                    </g>
                    <g id="Group_376" data-name="Group 376">
                        <g id="Group_375" data-name="Group 375">
                            <path id="Path_696" data-name="Path 696" class="cls-12" d="M162.67 339.8h66.061l19.861-49.438h-65.953z"/>
                            <path id="Path_697" data-name="Path 697" class="cls-12" d="M229.486 337.861h-87.217v1.939h86.462z"/>
                        </g>
                        <path id="Path_698" data-name="Path 698" d="M212.108 315.085a2.282 2.282 0 0 0-2.267-3.13 4.381 4.381 0 0 0-3.994 3.13 2.282 2.282 0 0 0 2.267 3.13 4.614 4.614 0 0 0 3.994-3.13z" style="fill:#2d2d2d"/>
                    </g>
                </g>
            </g>
            <path id="Line_63" data-name="Line 63" class="cls-14" transform="translate(520.068 74.481)" d="M0 0v268.13"/>
            <path id="Path_699" data-name="Path 699" class="cls-14" d="M929.927 107.511v78.366H722.785v-67.14"/>
            <path id="Path_700" data-name="Path 700" class="cls-14" d="m1119.906 201.853-.216 38.859H701.844V116.146"/>
        </g>
    </g>
</svg>
