<svg xmlns="http://www.w3.org/2000/svg" width="504" height="242">
    <defs>
        <linearGradient id="linear-gradient" x1=".5" x2=".5" y2="1" gradientUnits="objectBoundingBox">
            <stop offset="0" stop-color="#f5cb58" stop-opacity=".545"/>
            <stop offset=".729" stop-color="#f5cb58" stop-opacity=".082"/>
            <stop offset="1" stop-color="#f5cb58" stop-opacity="0"/>
        </linearGradient>
        <linearGradient id="linear-gradient-2" x1=".5" x2=".5" y2="1" gradientUnits="objectBoundingBox">
            <stop offset="0" stop-color="#e6feff" stop-opacity=".173"/>
            <stop offset="1" stop-color="#e6feff" stop-opacity=".678"/>
        </linearGradient>
        <style>
            .cls-5{fill:#2d9735}.cls-6{fill:#f7e1a6}.cls-7{fill:#6e6e6e}.cls-8{fill:#5c5c5c}
        </style>
    </defs>
    <g id="Group_861" data-name="Group 861" transform="translate(-708 -450)">
        <path id="Path_1340" data-name="Path 1340" d="M252 0c62.212 0 139.768 13.222 183.85 26.568C490.108 42.995 504 62.347 504 89.761c0 49.574-105.727 46.19-244.9 46.19S0 139.335 0 89.761c0-30.537 47.081-42.72 112.561-58.951C153.268 20.719 198.557 0 252 0z" transform="translate(708 556)" style="fill:url(#linear-gradient)"/>
        <path id="Subtraction_1" data-name="Subtraction 1" d="M2.9 151A86.33 86.33 0 0 1 0 128.193c0-3.545 1.369-8.042 4.069-13.368a106.39 106.39 0 0 1 11.718-17.662 202.592 202.592 0 0 1 18.639-20.177A271.892 271.892 0 0 1 59.254 56.08a297.357 297.357 0 0 1 30.288-19.855 289.148 289.148 0 0 1 35.017-17.019 250.661 250.661 0 0 1 81.3-18.4A623.553 623.553 0 0 1 237.212 0c46.707 0 89.516 5.554 127.236 16.506a305.884 305.884 0 0 1 47.316 17.911 227.887 227.887 0 0 1 36.727 21.93c12.247 9.073 21.4 22.147 27.216 38.86a127.54 127.54 0 0 1 5.431 22.252 167.851 167.851 0 0 1 1.862 20.95c-5.245-5.389-12.1-10.217-20.97-14.759-9.18-4.7-20.3-9-34-13.127-11.139-3.36-24.136-6.644-38.631-9.76-14.858-3.194-30.543-6.05-46.619-8.488-16.992-2.577-33.822-4.592-50.024-5.991-17.439-1.506-33.873-2.27-48.843-2.27a224.54 224.54 0 0 0-28 1.811c-8.54 1.079-17.224 2.62-26.549 4.712-17.245 3.869-33.513 8.924-49.245 13.813l-.035.011c-12.48 3.878-24.271 7.542-35.813 10.392-24.554 6.064-44.669 11.142-61.433 16.669C23.779 137.706 11.089 143.927 2.9 151z" transform="translate(716.458 472.487)" style="fill:url(#linear-gradient-2)"/>
        <path id="Path_1339" data-name="Path 1339" d="M53.5 0C83.047 0 107 2.239 107 5c0 1.281 34.5 4.088 25.752 5-9.122.952-58.863.082-77.3 0A74.7 74.7 0 0 0 39.31 24.566c-8.623 10.492-16.168 24.254-18.079 23.42-1.975-.862 4.761-15.962 12.929-26.645 5.658-7.4 13.505-11.37 12.465-11.382-15.158-.173-28.616-.971-37.335-2.142-.738-.1-5.161 6.661-13.039 12.381-9.761 7.087-23.619 13.495-25.459 12.237-1.892-1.293 12.094-7.874 21.778-15.009 6.569-4.84 9.642-11 9.285-11.111C.76 5.967 0 5.492 0 5c0-.164-4.677-2.58-10.887-5.518-7.329-3.466-29.147-.782-29.14-2.638s24.374-3.888 31.953-.98A86.142 86.142 0 0 0 8.1 0c7.2-1.838 22.324 0 45.4 0z" transform="translate(926.975 586.873)" style="fill:#626262;opacity:.28"/>
        <g id="Group_846" data-name="Group 846" transform="translate(884.475 450)">
            <path id="Rectangle_142" data-name="Rectangle 142" style="fill:none" d="M0 0h152v152H0z"/>
            <g id="empex" transform="translate(7.785 7.586)">
                <g id="Group_90" data-name="Group 90" transform="translate(49.642 55.694)">
                    <path id="Path_63" data-name="Path 63" class="cls-5" d="M206.1 233.731c.136-.477.307-.954.477-1.431-.17.443-.341.954-.477 1.431zm0 0c.136-.477.307-.954.477-1.431-.17.443-.341.954-.477 1.431zm0 0c.136-.477.307-.954.477-1.431-.17.443-.341.954-.477 1.431zm0 0c.136-.477.307-.954.477-1.431-.17.443-.341.954-.477 1.431zm0 0c.136-.477.307-.954.477-1.431-.17.443-.341.954-.477 1.431zm0 0c.136-.477.307-.954.477-1.431-.17.443-.341.954-.477 1.431zm0 0c.136-.477.307-.954.477-1.431-.17.443-.341.954-.477 1.431zm53.614 48.334a.6.6 0 0 1-.17.136.742.742 0 0 1 .17-.136c.307-.273.579-.511.852-.749a8.936 8.936 0 0 0-.852.749zm10.593 13.318c.477-.409.954-.818 1.431-1.26zm-.647-24.559v.068c.034-.034.034-.034 0-.068zm-63.56-37.093c.136-.477.307-.954.477-1.431-.17.443-.341.954-.477 1.431zm0 0c.136-.477.307-.954.477-1.431-.17.443-.341.954-.477 1.431zm0 0c.136-.477.307-.954.477-1.431-.17.443-.341.954-.477 1.431zm0 0c.136-.477.307-.954.477-1.431-.17.443-.341.954-.477 1.431zm0 0c.136-.477.307-.954.477-1.431-.17.443-.341.954-.477 1.431zm0 0c.136-.477.307-.954.477-1.431-.17.443-.341.954-.477 1.431zm0 0c.136-.477.307-.954.477-1.431-.17.443-.341.954-.477 1.431z" transform="translate(-206.1 -232.3)"/>
                    <path id="Path_64" data-name="Path 64" class="cls-5" d="M373.764 390.268c.477-.409.954-.817 1.431-1.26zm-10.594-13.319a.6.6 0 0 1-.17.136.742.742 0 0 1 .17-.136c.307-.273.579-.511.852-.749a8.934 8.934 0 0 0-.852.749z" transform="translate(-309.557 -327.185)"/>
                </g>
                <g id="Group_91" data-name="Group 91" transform="translate(74.376 80.054)">
                    <path id="Path_65" data-name="Path 65" class="cls-5" d="M273.2 293.177c.307-.136.613-.307.92-.477-.273.17-.579.307-.92.477z" transform="translate(-273.2 -291.167)"/>
                    <path id="Path_66" data-name="Path 66" class="cls-5" d="M280.1 288.847c.307-.2.579-.409.886-.647a8.412 8.412 0 0 1-.886.647z" transform="translate(-277.75 -288.2)"/>
                </g>
                <g id="Group_92" data-name="Group 92" transform="translate(51.579 51.737)">
                    <path id="Path_67" data-name="Path 67" class="cls-5" d="M237.142 217.988v.613a1.943 1.943 0 0 1-.034.443v.1a.665.665 0 0 1-.034.272.944.944 0 0 1-.034.307c-.034.2-.034.409-.068.579-.068.409-.136.818-.2 1.192-.034.17-.068.341-.1.477a.484.484 0 0 1-.068.2c-.034.17-.1.307-.136.477a16.128 16.128 0 0 1-.852 2.248c-.068.17-.17.341-.238.477a9.188 9.188 0 0 1-.545.988c-.1.17-.2.306-.307.477a1.9 1.9 0 0 0-.17.273l-.034.034-.2.306c0 .034-.034.034-.034.068l-.307.409-.081.072c-.1.136-.2.238-.307.375-.273.341-.545.647-.852.988a3.205 3.205 0 0 1-.341.341 5.646 5.646 0 0 1-.477.443.119.119 0 0 1-.068.034 5.917 5.917 0 0 1-.511.443l-.409.307a8.42 8.42 0 0 1-.886.647 3.377 3.377 0 0 1-.579.375l-.307.2c-.17.1-.375.2-.545.307-.307.17-.613.307-.92.477h-.034c-.17.068-.341.136-.477.2s-.273.1-.409.17c-.2.068-.409.17-.613.238-.1.034-.238.068-.341.1s-.2.068-.341.1c-.1.034-.238.068-.341.1-.136.034-.307.068-.443.1a1 1 0 0 1-.307.068c-.068.034-.17.034-.272.068-.17.034-.307.068-.477.1a10.113 10.113 0 0 1-1.465.2 16.512 16.512 0 0 1-17.917-15.021 15.989 15.989 0 0 1-.061-1.78v-.17a3.706 3.706 0 0 1 .034-.613 1.4 1.4 0 0 1 .034-.375c0-.136.034-.238.034-.375a2.3 2.3 0 0 1 .068-.477.307.307 0 0 1 .034-.17c0-.1.034-.2.034-.273.034-.136.034-.238.068-.375.1-.511.2-1.022.341-1.5s.307-.954.477-1.431c.068-.136.1-.273.17-.409.034-.1.068-.17.1-.272a1.593 1.593 0 0 1 .17-.341c.034-.068.068-.1.068-.17a3.158 3.158 0 0 1 .17-.341 3.15 3.15 0 0 0 .17-.341 3.406 3.406 0 0 1 .272-.477c.068-.1.136-.238.2-.341l.409-.613.2-.306a1.874 1.874 0 0 1 .238-.307 3.621 3.621 0 0 1 .307-.375c.1-.1.17-.238.273-.341.136-.136.238-.272.375-.409a4.072 4.072 0 0 0 .375-.409 2.054 2.054 0 0 1 .273-.272c.136-.1.238-.238.375-.341s.238-.238.375-.341a11.3 11.3 0 0 1 1.431-1.09c.17-.136.375-.238.545-.375a.177.177 0 0 1 .136-.068c.1-.068.238-.136.341-.2s.238-.136.341-.2c.136-.068.307-.17.443-.238s.307-.17.443-.238a.119.119 0 0 0 .068-.034 3.428 3.428 0 0 0 .511-.238 4 4 0 0 0 .375-.17c.136-.068.306-.1.443-.17.136-.068.307-.1.443-.17a5.243 5.243 0 0 1 .579-.17c.136-.034.238-.068.375-.1.068 0 .1-.034.17-.034a.994.994 0 0 1 .307-.068 1.448 1.448 0 0 1 .375-.068c.068 0 .1-.034.136-.034a1.991 1.991 0 0 1 .443-.068c.1-.034.2-.034.341-.068.1 0 .2-.034.273-.034.273-.034.545-.068.783-.1a.944.944 0 0 0 .307-.034c.17 0 .307-.034.443-.034h2.01a2.984 2.984 0 0 1 .545.068h.034c.136.034.273.034.409.068s.273.034.409.068c.1 0 .2.034.273.034a.125.125 0 0 1 .1.034c.068 0 .17.034.238.034h.034c.1.034.2.034.307.068l.409.1.409.1a.8.8 0 0 0 .273.068c.068.034.136.034.2.068.238.068.477.17.715.238.443.17.852.341 1.26.545.1.034.2.1.306.136a2.813 2.813 0 0 1 .443.238 2.175 2.175 0 0 1 .477.273 13.623 13.623 0 0 1 1.635 1.09c.136.1.238.17.375.272s.238.2.341.273a1.785 1.785 0 0 1 .375.341 14.214 14.214 0 0 1 1.26 1.226c.17.17.341.375.511.579.1.136.238.307.341.443s.238.307.341.443c.136.2.307.409.443.613l.2.307.307.511c.1.17.2.341.307.545l.2.409c.068.136.136.307.2.443.068.17.17.375.238.545.068.2.17.409.238.613.068.17.1.307.17.477a2.875 2.875 0 0 1 .17.579 2.206 2.206 0 0 0 .136.443.307.307 0 0 1 .034.17c.034.068.034.17.068.238s.034.17.068.238c.034.1.034.2.068.273.1.579.2 1.192.272 1.771a4.158 4.158 0 0 1 .297 1.594z" transform="translate(-204 -201.4)"/>
                </g>
                <g id="Group_93" data-name="Group 93" transform="translate(74.491 81.533)">
                    <path id="Path_68" data-name="Path 68" class="cls-5" d="M273.2 293.177c.307-.136.613-.307.92-.477-.273.17-.579.307-.92.477z" transform="translate(-273.2 -292.7)"/>
                </g>
                <g id="Group_94" data-name="Group 94" transform="translate(76.635 80.126)">
                    <path id="Path_69" data-name="Path 69" class="cls-5" d="M280.1 288.847c.307-.2.579-.409.886-.647a8.412 8.412 0 0 1-.886.647z" transform="translate(-280.1 -288.2)"/>
                </g>
                <g id="Group_95" data-name="Group 95">
                    <path id="Path_70" data-name="Path 70" class="cls-5" d="M156.215 139.256a.545.545 0 0 1-.124.155c-1.181 1.554-2.393 3.076-3.7 4.537-.4.435-.777.87-1.181 1.305-.031.062-.093.093-.124.155a73.747 73.747 0 0 1-4.195 4.071l-1.305 1.15-.155.124a68.178 68.178 0 0 1-89.459-1.429 89.705 89.705 0 0 1-1.8-1.678 68.284 68.284 0 0 1-11.435-83.68c.528-.9 1.088-1.8 1.678-2.672a7.913 7.913 0 0 1 13.672 5.438 7.587 7.587 0 0 1-.528 2.8 44.761 44.761 0 0 0-1.616 2.579 52.779 52.779 0 0 0 1.989 56.056 53.988 53.988 0 0 0 5.748 7.023 30.841 30.841 0 0 1 9.2-6.556 28.122 28.122 0 0 1-1.647-1.678 41.566 41.566 0 0 1-2.859-53.57 39.809 39.809 0 0 1 5.251-5.717A41.471 41.471 0 0 1 97.8 57.13a41.525 41.525 0 0 1 45.025 37.692 42.465 42.465 0 0 1-.59 11.621c-.155.839-.373 1.678-.559 2.517a7.927 7.927 0 0 1-15.257-3.014v-.186a25.84 25.84 0 0 0 .963-9.6 26 26 0 0 0-35.893-21.692 25.133 25.133 0 0 0-6.805 4.195 25.908 25.908 0 0 0-9.073 22.093A26.05 26.05 0 0 0 99.724 124.4a29.737 29.737 0 0 0 4.071-.031 24.555 24.555 0 0 0 4.008-.684 19.646 19.646 0 0 0 1.927-.559 22.313 22.313 0 0 0 2.517-.994 8.839 8.839 0 0 1 1.585-.155 7.864 7.864 0 0 1 5.376 2.113l.466.466.031.031 6.867 6.96 7.861 7.986a4.546 4.546 0 0 0 .59-.5l.559-.466a.429.429 0 0 1 .124-.093c.031-.031.093-.062.124-.124l.031-.031c.249-.218.5-.435.746-.684.249-.218.5-.466.746-.684a3.722 3.722 0 0 1 .373-.342c.186-.186.373-.342.559-.528l.155-.155c.249-.249.466-.466.684-.715l.155-.155c.28-.28.528-.559.777-.839a.678.678 0 0 0 .124-.155l.746-.839c.28-.311.559-.653.839-.994a56.765 56.765 0 0 0 3.138-4.133.03.03 0 0 1 .031-.031c0-.031.031-.031.031-.062a52.661 52.661 0 0 0-66.465-77c-.839.4-1.647.808-2.455 1.274a8.288 8.288 0 0 1-2.33.342 7.918 7.918 0 0 1-5.1-13.983c1.025-.559 2.082-1.119 3.169-1.616a68.269 68.269 0 0 1 84.426 102.23z" transform="translate(-33.33 -30.23)"/>
                </g>
                <g id="Group_96" data-name="Group 96" transform="translate(101.854 97.168)">
                    <path id="Path_71" data-name="Path 71" class="cls-5" d="m363.434 378.3-.034.034.034-.034z" transform="translate(-363.4 -367.094)"/>
                    <path id="Path_72" data-name="Path 72" class="cls-5" d="M392.734 345.4a.033.033 0 0 1-.034.034l.034-.034z" transform="translate(-382.72 -345.4)"/>
                </g>
                <path id="Path_73" data-name="Path 73" class="cls-5" d="M107.871 156.7a9.01 9.01 0 0 1-1.771 2.827 79.163 79.163 0 0 1 1.771-2.827z" transform="translate(-81.313 -117.475)"/>
                <path id="Path_74" data-name="Path 74" class="cls-5" d="M150.474 52.4c-1.158.579-2.316 1.158-3.474 1.771a9.343 9.343 0 0 1 3.474-1.771z" transform="translate(-111.76 -44.848)"/>
                <path id="Path_75" data-name="Path 75" class="cls-5" d="M173.691 97.4A8.433 8.433 0 0 1 171 98.8c.886-.48 1.805-.957 2.691-1.4z" transform="translate(-128.297 -74.52)"/>
                <path id="Path_76" data-name="Path 76" class="cls-5" d="M333.783 263.6a23.477 23.477 0 0 1-.783 3.406 8.757 8.757 0 0 1 .783-3.406z" transform="translate(-239.93 -191.247)"/>
                <path id="Path_77" data-name="Path 77" class="cls-5" d="M382.713 275.7a9.062 9.062 0 0 1-.613 2.759q.358-1.379.613-2.759z" transform="translate(-273.769 -199.563)"/>
                <path id="Path_78" data-name="Path 78" class="cls-5" d="M282.059 326.2a24.462 24.462 0 0 1-2.759 1.09 8.5 8.5 0 0 1 2.759-1.09z" transform="translate(-203.008 -234.298)"/>
            </g>
        </g>
        <path id="Path_1183" data-name="Path 1183" class="cls-6" d="M1789.427 914.95a6.01 6.01 0 1 0-11.876 1.858c.862 5.6 1.96 23.135-4.091 30.192a8.08 8.08 0 0 1-4.879 2.8l.551-33.4a8.688 8.688 0 1 0-17.372.071l1.571 63.388a8.109 8.109 0 0 1-5.085-2.832c-6.051-7.057-4.953-24.594-4.091-30.192a6.01 6.01 0 1 0-11.875-1.858c-.432 2.759-3.907 27.315 6.827 39.857a20.345 20.345 0 0 0 14.524 7.139l.683 27.591h13.115l.952-57.644a20.311 20.311 0 0 0 14.219-7.117c10.733-12.538 7.259-37.094 6.827-39.853z" transform="translate(-618.517 -428.728)"/>
        <path id="Path_1338" data-name="Path 1338" class="cls-6" d="M1732 912.6a4.092 4.092 0 1 1 8.086 1.265c-.587 3.811-1.334 15.751 2.785 20.556a5.5 5.5 0 0 0 3.322 1.91l-.375-22.741a5.915 5.915 0 1 1 11.828.048l-1.07 43.157a5.521 5.521 0 0 0 3.462-1.928c4.12-4.8 3.372-16.745 2.785-20.556a4.092 4.092 0 1 1 8.085-1.265c.294 1.878 2.66 18.6-4.648 27.136a13.851 13.851 0 0 1-9.888 4.861l-.465 18.785h-8.929l-.648-39.246a13.828 13.828 0 0 1-9.681-4.846c-7.308-8.543-4.943-25.262-4.649-27.136z" transform="translate(-963.442 -377.046)"/>
        <path id="Path_1339-2" data-name="Path 1339" class="cls-7" d="M12159.38-3698.452a4.038 4.038 0 0 1-.6-.046 4 4 0 0 1-3.356-4.546c.138-.913 1.392-22.457 16.393-30.757 7.909-4.375 14.975-4.645 25.631 0a29.282 29.282 0 0 1 2.715 1.48s3.686 3.259 3.842 4.192c.172 1.028-2.511 2.756-2.511 2.756a14.518 14.518 0 0 1-2.755-.688c-8.247-3.595-15.274-3.847-20.887-.753-11.547 6.366-15.289 27.585-15.317 27.77-.309 1.981-1.213.592-3.155.592z" transform="translate(-11261.025 4314.917)"/>
        <path id="Path_1340-2" data-name="Path 1340" class="cls-7" d="M4 47.308a4.065 4.065 0 0 1-.487-.03 4 4 0 0 1-3.484-4.453 43.088 43.088 0 0 1 13.242-29.1c5.306-5.175 14.967-9.906 25.09-13.3 2.1-.7 5.2-.666 5.671 1s-1.71 4.962-3.8 5.664C10.768 16.96 8 43.531 7.971 43.789A4 4 0 0 1 4 47.308z" transform="rotate(-10.02 3835.515 -5048.866)"/>
        <path id="Path_1341" data-name="Path 1341" class="cls-7" d="M12298.126-3722.24h-.082a4 4 0 0 1-3.919-4.08s-.108-10.251-4.631-17.711-12.79-11.161-12.79-11.161a18.287 18.287 0 0 0 2.47-3.184 14.934 14.934 0 0 0 1.414-3.513s10.325 6.473 13.537 11.383a31.411 31.411 0 0 1 4 25.162c-.043 2.181 2.175 3.104.001 3.104z" transform="translate(-11261.025 4314.995)"/>
        <path id="Path_1342" data-name="Path 1342" class="cls-7" d="M12158.89-3733.641a4 4 0 0 1-3.978-3.635 169.476 169.476 0 0 1 .92-17.848 35.956 35.956 0 0 1 3.573-11.974 15.217 15.217 0 0 0 1.578 4.721 9.783 9.783 0 0 0 3.3 2.724s-.65 1.148-1.172 7.219-.229 14.441-.229 14.441a4 4 0 0 1-3.629 4.336 4.072 4.072 0 0 1-.363.016z" transform="translate(-11261.025 4315.021)"/>
        <ellipse id="Ellipse_129" data-name="Ellipse 129" class="cls-8" cx="9" cy="6" rx="9" ry="6" transform="translate(1032.975 584.945)"/>
        <ellipse id="Ellipse_130" data-name="Ellipse 130" class="cls-8" cx="8.5" cy="5.5" rx="8.5" ry="5.5" transform="matrix(.998 .07 -.07 .998 884.531 572.819)"/>
        <ellipse id="Ellipse_131" data-name="Ellipse 131" class="cls-8" cx="12.5" cy="6.5" rx="12.5" ry="6.5" transform="rotate(2 -16994.067 25425.648)"/>
        <ellipse id="Ellipse_132" data-name="Ellipse 132" class="cls-8" cx="13.5" cy="7" rx="13.5" ry="7" transform="rotate(1 -35528.01 53450.227)"/>
    </g>
</svg>
