<svg id="_008-job" data-name="008-job" xmlns="http://www.w3.org/2000/svg" width="80" height="80">
    <defs>
        <style>
            .cls-1{fill:#2d9735}
        </style>
    </defs>
    <g id="Group_302" data-name="Group 302" transform="translate(0 16.926)">
        <g id="Group_301" data-name="Group 301">
            <path id="Path_558" data-name="Path 558" class="cls-1" d="M78.437 163.345h-2.5v-34.738a1.563 1.563 0 1 0-3.125 0v34.738H7.187v-42.893a5.343 5.343 0 0 1 5.312-5.36h25.365a1.577 1.577 0 0 0 0-3.153H12.5a8.485 8.485 0 0 0-8.437 8.514v42.893h-2.5A1.57 1.57 0 0 0 0 164.922v2.05a8.014 8.014 0 0 0 7.969 8.041h64.062A8.014 8.014 0 0 0 80 166.971v-2.05a1.57 1.57 0 0 0-1.563-1.576zm-1.562 3.626a4.871 4.871 0 0 1-4.844 4.887H7.969a4.871 4.871 0 0 1-4.844-4.887v-.471h73.75z" transform="translate(0 -111.938)"/>
        </g>
    </g>
    <g id="Group_304" data-name="Group 304" transform="translate(44.854)">
        <g id="Group_303" data-name="Group 303">
            <path id="Path_559" data-name="Path 559" class="cls-1" d="M301.512 0h-8.74a13.218 13.218 0 0 0-13.2 13.2v.963a14.139 14.139 0 0 0 4.493 10.348v3.838a1.512 1.512 0 0 0 2.155 1.368l3.934-1.849a14.165 14.165 0 0 0 3.583.46h7.778a13.218 13.218 0 0 0 13.2-13.2V13.2A13.218 13.218 0 0 0 301.512 0zm10.179 15.128a10.19 10.19 0 0 1-10.179 10.179h-7.778a11.143 11.143 0 0 1-3.271-.49 1.512 1.512 0 0 0-1.087.077l-2.29 1.077v-2.136a1.512 1.512 0 0 0-.536-1.155 11.126 11.126 0 0 1-3.957-8.514V13.2a10.19 10.19 0 0 1 10.179-10.176h8.74A10.19 10.19 0 0 1 311.691 13.2z" transform="translate(-279.569)"/>
        </g>
    </g>
    <g id="Group_306" data-name="Group 306" transform="translate(60.358 13.908)">
        <g id="Group_305" data-name="Group 305">
            <path id="Path_560" data-name="Path 560" class="cls-1" d="M387.3 88.75a1.512 1.512 0 0 0-1.512 1.512v3.506a1.512 1.512 0 0 0 3.024 0v-3.506a1.512 1.512 0 0 0-1.512-1.512z" transform="translate(-385.784 -88.75)"/>
        </g>
    </g>
    <g id="Group_308" data-name="Group 308" transform="translate(60.357 7.651)">
        <g id="Group_307" data-name="Group 307">
            <path id="Path_561" data-name="Path 561" class="cls-1" d="M388.361 51.043a1.513 1.513 0 1 0 .443 1.069 1.52 1.52 0 0 0-.443-1.069z" transform="translate(-385.78 -50.6)"/>
        </g>
    </g>
    <g id="Group_310" data-name="Group 310" transform="translate(10.442 30.855)">
        <g id="Group_309" data-name="Group 309">
            <path id="Path_562" data-name="Path 562" class="cls-1" d="M79.337 196h-5.845a1.512 1.512 0 1 0 0 3.024H74.9v7.176a1.411 1.411 0 1 1-2.821 0 1.512 1.512 0 0 0-3.024 0 4.435 4.435 0 1 0 8.869 0v-7.175h1.411a1.512 1.512 0 1 0 0-3.024z" transform="translate(-69.057 -196)"/>
        </g>
    </g>
    <g id="Group_312" data-name="Group 312" transform="translate(22.821 30.855)">
        <g id="Group_311" data-name="Group 311">
            <path id="Path_563" data-name="Path 563" class="cls-1" d="M152.281 196a7.317 7.317 0 1 0 7.317 7.317 7.325 7.325 0 0 0-7.317-7.317zm0 11.61a4.293 4.293 0 1 1 4.293-4.293 4.3 4.3 0 0 1-4.293 4.293z" transform="translate(-144.964 -196)"/>
        </g>
    </g>
    <g id="Group_314" data-name="Group 314" transform="translate(40.07 30.865)">
        <g id="Group_313" data-name="Group 313">
            <path id="Path_564" data-name="Path 564" class="cls-1" d="M264.255 200.536a4.541 4.541 0 0 0-4.537-4.536H256.9a1.512 1.512 0 0 0-1.512 1.512v12.1a1.512 1.512 0 0 0 1.512 1.512h2.821a4.533 4.533 0 0 0 3.377-7.56 4.518 4.518 0 0 0 1.157-3.028zm-4.536 7.56h-1.309v-3.024h1.309a1.512 1.512 0 1 1 0 3.024zm0-6.048h-1.309v-3.024h1.309a1.512 1.512 0 1 1 0 3.024z" transform="translate(-255.385 -196)"/>
        </g>
    </g>
    <g id="Group_316" data-name="Group 316" transform="translate(17.199 50.991)">
        <g id="Group_315" data-name="Group 315">
            <path id="Path_565" data-name="Path 565" class="cls-1" d="M137.537 325.918h-28.311a1.512 1.512 0 1 0 0 3.024h28.311a1.512 1.512 0 1 0 0-3.024z" transform="translate(-107.714 -325.918)"/>
        </g>
    </g>
    <g id="Group_318" data-name="Group 318" transform="translate(10.442 50.992)">
        <g id="Group_317" data-name="Group 317">
            <path id="Path_566" data-name="Path 566" class="cls-1" d="M71.64 326.363a1.511 1.511 0 1 0 .443 1.069 1.517 1.517 0 0 0-.443-1.069z" transform="translate(-69.059 -325.92)"/>
        </g>
    </g>
    <g id="Group_320" data-name="Group 320" transform="translate(54.882 50.991)">
        <g id="Group_319" data-name="Group 319">
            <path id="Path_567" data-name="Path 567" class="cls-1" d="M359.053 325.918H347.4a1.512 1.512 0 0 0 0 3.024h11.651a1.512 1.512 0 1 0 0-3.024z" transform="translate(-345.889 -325.918)"/>
        </g>
    </g>
    <g id="Group_322" data-name="Group 322" transform="translate(10.442 58.514)">
        <g id="Group_321" data-name="Group 321">
            <path id="Path_568" data-name="Path 568" class="cls-1" d="M104.725 374H70.569a1.512 1.512 0 1 0 0 3.024h34.156a1.512 1.512 0 0 0 0-3.024z" transform="translate(-69.057 -374)"/>
        </g>
    </g>
    <g id="Group_324" data-name="Group 324" transform="translate(54.882 58.514)">
        <g id="Group_323" data-name="Group 323">
            <path id="Path_569" data-name="Path 569" class="cls-1" d="M359.053 374H347.4a1.512 1.512 0 0 0 0 3.024h11.651a1.512 1.512 0 1 0 0-3.024z" transform="translate(-345.889 -374)"/>
        </g>
    </g>
</svg>
