<svg xmlns="http://www.w3.org/2000/svg" width="79.997" height="79.997">
    <defs>
        <style>
            .cls-1{fill:#2d9735}
        </style>
    </defs>
    <g id="news" transform="translate(14 -172.5)">
        <path id="Rectangle_1536" data-name="Rectangle 1536" class="cls-1" transform="translate(-5 178.5)" d="M0 0h4v3H0z"/>
        <path id="Rectangle_1537" data-name="Rectangle 1537" class="cls-1" transform="translate(1 178.5)" d="M0 0h4v3H0z"/>
        <path id="Rectangle_1538" data-name="Rectangle 1538" class="cls-1" transform="translate(8 178.5)" d="M0 0h2v3H0z"/>
        <path id="Path_507" data-name="Path 507" class="cls-1" d="M54 284.5H35.538A1.543 1.543 0 0 0 34 286.038v15.384a1.543 1.543 0 0 0 1.538 1.538H54a1.543 1.543 0 0 0 1.538-1.538v-15.384A1.543 1.543 0 0 0 54 284.5zm-1.538 15.384H37.077v-12.307h15.384z" transform="translate(-38.77 -90.462)"/>
        <path id="Rectangle_1539" data-name="Rectangle 1539" class="cls-1" transform="translate(23 194.5)" d="M0 0h6v2H0z"/>
        <path id="Rectangle_1540" data-name="Rectangle 1540" class="cls-1" transform="translate(32 194.5)" d="M0 0h25v2H0z"/>
        <path id="Rectangle_1541" data-name="Rectangle 1541" class="cls-1" transform="translate(23 200.5)" d="M0 0h34v3H0z"/>
        <path id="Rectangle_1542" data-name="Rectangle 1542" class="cls-1" transform="translate(23 206.5)" d="M0 0h15v3H0z"/>
        <path id="Rectangle_1543" data-name="Rectangle 1543" class="cls-1" transform="translate(42 206.5)" d="M0 0h9v3H0z"/>
        <path id="Rectangle_1544" data-name="Rectangle 1544" class="cls-1" transform="translate(-5 218.5)" d="M0 0h22v3H0z"/>
        <path id="Rectangle_1545" data-name="Rectangle 1545" class="cls-1" transform="translate(-5 224.5)" d="M0 0h22v4H0z"/>
        <path id="Rectangle_1546" data-name="Rectangle 1546" class="cls-1" transform="translate(-5 230.5)" d="M0 0h22v3H0z"/>
        <path id="Rectangle_1547" data-name="Rectangle 1547" class="cls-1" transform="translate(-5 237.5)" d="M0 0h22v2H0z"/>
        <path id="Path_508" data-name="Path 508" class="cls-1" d="M386 365v4.846l2.1-3.634z" transform="translate(-323.08 -155.482)"/>
        <path id="Path_509" data-name="Path 509" class="cls-1" d="M179.538 412.5a1.543 1.543 0 0 0-1.538 1.538V432.5a1.543 1.543 0 0 0 1.538 1.538h1.519V412.5z" transform="translate(-155.078 -193.848)"/>
        <path id="Path_510" data-name="Path 510" class="cls-1" d="M210 412.6v3.058h22.5l1.75-3.058z" transform="translate(-180.925 -193.929)"/>
        <path id="Path_511" data-name="Path 511" class="cls-1" d="m339.5 416.465-1.4 2.423v6.154l3.058-5.288V413.6z" transform="translate(-284.391 -194.736)"/>
        <path id="Path_512" data-name="Path 512" class="cls-1" d="m237.076 477.3-2.423-1.4v3.558l.615.365-.615.308v2.058H210v3.058h15.442a1.366 1.366 0 0 1 .154-.346l1.538-2.673 2.673 1.538-.846 1.481h3.539l.5-.865 1.635-.808 2.788-1.385.135-.058a.836.836 0 0 0 .135-.077v-5.807z" transform="translate(-180.925 -245.056)"/>
        <path id="Path_513" data-name="Path 513" class="cls-1" d="M386 365v4.846l2.1-3.634z" transform="translate(-323.08 -155.482)"/>
        <path id="Path_514" data-name="Path 514" class="cls-1" d="M386 365v4.846l2.1-3.634z" transform="translate(-323.08 -155.482)"/>
        <path id="Path_515" data-name="Path 515" class="cls-1" d="m237.076 477.3-2.423-1.4v3.558l.615.365-.615.308v2.058H210v3.058h15.442a1.366 1.366 0 0 1 .154-.346l1.538-2.673 2.673 1.538-.846 1.481h3.539l.5-.865 1.635-.808 2.788-1.385.135-.058a.836.836 0 0 0 .135-.077v-5.807z" transform="translate(-180.925 -245.056)"/>
        <path id="Path_516" data-name="Path 516" class="cls-1" d="m339.5 416.465-1.4 2.423v6.154l3.058-5.288V413.6z" transform="translate(-284.391 -194.736)"/>
        <path id="Path_517" data-name="Path 517" class="cls-1" d="M210 412.6v3.058h22.5l1.75-3.058z" transform="translate(-180.925 -193.929)"/>
        <path id="Path_518" data-name="Path 518" class="cls-1" d="M179.538 412.5a1.543 1.543 0 0 0-1.538 1.538V432.5a1.543 1.543 0 0 0 1.538 1.538h1.519V412.5z" transform="translate(-155.078 -193.848)"/>
        <path id="Path_519" data-name="Path 519" class="cls-1" d="M179.538 412.5a1.543 1.543 0 0 0-1.538 1.538V432.5a1.543 1.543 0 0 0 1.538 1.538h1.519V412.5z" transform="translate(-155.078 -193.848)"/>
        <path id="Path_520" data-name="Path 520" class="cls-1" d="M210 412.6v3.058h22.5l1.75-3.058z" transform="translate(-180.925 -193.929)"/>
        <path id="Path_521" data-name="Path 521" class="cls-1" d="m339.5 416.465-1.4 2.423v6.154l3.058-5.288V413.6z" transform="translate(-284.391 -194.736)"/>
        <path id="Path_522" data-name="Path 522" class="cls-1" d="m237.076 477.3-2.423-1.4v3.558l.615.365-.615.308v2.058H210v3.058h15.442a1.366 1.366 0 0 1 .154-.346l1.538-2.673 2.673 1.538-.846 1.481h3.539l.5-.865 1.635-.808 2.788-1.385.135-.058a.836.836 0 0 0 .135-.077v-5.807z" transform="translate(-180.925 -245.056)"/>
        <path id="Path_523" data-name="Path 523" class="cls-1" d="M386 365v4.846l2.1-3.634z" transform="translate(-323.08 -155.482)"/>
        <path id="Path_524" data-name="Path 524" class="cls-1" d="M386 365v4.846l2.1-3.634z" transform="translate(-323.08 -155.482)"/>
        <path id="Path_525" data-name="Path 525" class="cls-1" d="M234.634 475.9v3.558l.615.365-.615.308v2.058H210v3.058h15.442a1.365 1.365 0 0 1 .154-.346l1.538-2.673 2.673 1.538-.846 1.481h3.539l.5-.865 1.635-.808 2.788-1.385.135-.058a.836.836 0 0 0 .135-.077v-5.807l-.615 1.077z" transform="translate(-180.925 -245.056)"/>
        <path id="Path_526" data-name="Path 526" class="cls-1" d="M338.1 418.888v6.154l3.058-5.288V413.6l-1.654 2.865z" transform="translate(-284.391 -194.736)"/>
        <path id="Path_527" data-name="Path 527" class="cls-1" d="M234.249 412.6H210v3.058h22.5z" transform="translate(-180.925 -193.929)"/>
        <path id="Path_528" data-name="Path 528" class="cls-1" d="M178 414.038V432.5a1.543 1.543 0 0 0 1.538 1.538h1.519V412.5h-1.519a1.543 1.543 0 0 0-1.538 1.538z" transform="translate(-155.078 -193.848)"/>
        <g id="Group_300" data-name="Group 300" transform="translate(-14 172.5)">
            <path id="Rectangle_1548" data-name="Rectangle 1548" class="cls-1" transform="translate(9 6)" d="M0 0h4v3H0z"/>
            <path id="Rectangle_1549" data-name="Rectangle 1549" class="cls-1" transform="translate(15 6)" d="M0 0h4v3H0z"/>
            <path id="Rectangle_1550" data-name="Rectangle 1550" class="cls-1" transform="translate(22 6)" d="M0 0h2v3H0z"/>
            <path id="Path_529" data-name="Path 529" class="cls-1" d="M61.382 172.5H-9.385A4.616 4.616 0 0 0-14 177.115v70.767a4.616 4.616 0 0 0 4.615 4.618h70.767A4.629 4.629 0 0 0 66 247.882v-32.691l-3.077 5.327v27.364a1.543 1.543 0 0 1-1.538 1.538h-70.77a1.543 1.543 0 0 1-1.538-1.538v-59.94H62.92v14.115l.616-1.057L66 202.4v-3.558l-.923-.538.769-1.327a1.756 1.756 0 0 1 .154-.25v-19.612a4.6 4.6 0 0 0-4.618-4.615zm-72.305 12.365v-7.75a1.543 1.543 0 0 1 1.538-1.538h70.767a1.543 1.543 0 0 1 1.538 1.538v7.75z" transform="translate(14 -172.5)"/>
            <path id="Rectangle_1551" data-name="Rectangle 1551" class="cls-1" transform="translate(9 6)" d="M0 0h4v3H0z"/>
            <path id="Rectangle_1552" data-name="Rectangle 1552" class="cls-1" transform="translate(15 6)" d="M0 0h4v3H0z"/>
            <path id="Rectangle_1553" data-name="Rectangle 1553" class="cls-1" transform="translate(22 6)" d="M0 0h2v3H0z"/>
        </g>
        <path id="Path_530" data-name="Path 530" class="cls-1" d="m386 331.558 3.077 1.769v-3.538L386 328z" transform="translate(-323.08 -125.597)"/>
        <path id="Path_531" data-name="Path 531" class="cls-1" d="m386 369.846 2.1-3.634L386 365z" transform="translate(-323.08 -155.482)"/>
        <path id="Path_532" data-name="Path 532" class="cls-1" d="m341.158 413.6-1.654 2.865-1.4 2.423v6.154l3.058-5.288z" transform="translate(-284.391 -194.736)"/>
        <path id="Path_533" data-name="Path 533" class="cls-1" d="m232.5 485.227.5-.865 1.635-.808 2.788-1.385.135-.058a.841.841 0 0 0 .135-.077v-5.807l-.615 1.077-2.423-1.4v3.558l.615.365-.615.308v2.058H210v3.058h15.442a1.366 1.366 0 0 1 .154-.346l1.538-2.673 2.673 1.538-.846 1.481h3.539z" transform="translate(-180.925 -245.056)"/>
        <path id="Path_534" data-name="Path 534" class="cls-1" d="M210 412.6v3.058h22.5l1.75-3.058z" transform="translate(-180.925 -193.929)"/>
        <path id="Path_535" data-name="Path 535" class="cls-1" d="M178 414.038V432.5a1.543 1.543 0 0 0 1.538 1.538h1.519V412.5h-1.519a1.543 1.543 0 0 0-1.538 1.538z" transform="translate(-155.078 -193.848)"/>
        <path id="Path_536" data-name="Path 536" class="cls-1" d="M179.538 412.5a1.543 1.543 0 0 0-1.538 1.538V432.5a1.543 1.543 0 0 0 1.538 1.538h1.519V412.5z" transform="translate(-155.078 -193.848)"/>
        <path id="Path_537" data-name="Path 537" class="cls-1" d="M210 412.6v3.058h22.5l1.75-3.058z" transform="translate(-180.925 -193.929)"/>
        <path id="Path_538" data-name="Path 538" class="cls-1" d="m339.5 416.465-1.4 2.423v6.154l3.058-5.288V413.6z" transform="translate(-284.391 -194.736)"/>
        <path id="Path_539" data-name="Path 539" class="cls-1" d="m237.076 477.3-2.423-1.4v3.558l.615.365-.615.308v2.058H210v3.058h15.442a1.366 1.366 0 0 1 .154-.346l1.538-2.673 2.673 1.538-.846 1.481h3.539l.5-.865 1.635-.808 2.788-1.385.135-.058a.836.836 0 0 0 .135-.077v-5.807z" transform="translate(-180.925 -245.056)"/>
        <path id="Path_540" data-name="Path 540" class="cls-1" d="M386 365v4.846l2.1-3.634z" transform="translate(-323.08 -155.482)"/>
        <path id="Path_541" data-name="Path 541" class="cls-1" d="M386 365v4.846l2.1-3.634z" transform="translate(-323.08 -155.482)"/>
        <path id="Path_542" data-name="Path 542" class="cls-1" d="m237.076 477.3-2.423-1.4v3.558l.615.365-.615.308v2.058H210v3.058h15.442a1.366 1.366 0 0 1 .154-.346l1.538-2.673 2.673 1.538-.846 1.481h3.539l.5-.865 1.635-.808 2.788-1.385.135-.058a.836.836 0 0 0 .135-.077v-5.807z" transform="translate(-180.925 -245.056)"/>
        <path id="Path_543" data-name="Path 543" class="cls-1" d="m339.5 416.465-1.4 2.423v6.154l3.058-5.288V413.6z" transform="translate(-284.391 -194.736)"/>
        <path id="Path_544" data-name="Path 544" class="cls-1" d="M210 412.6v3.058h22.5l1.75-3.058z" transform="translate(-180.925 -193.929)"/>
        <path id="Path_545" data-name="Path 545" class="cls-1" d="M179.538 412.5a1.543 1.543 0 0 0-1.538 1.538V432.5a1.543 1.543 0 0 0 1.538 1.538h1.519V412.5z" transform="translate(-155.078 -193.848)"/>
        <path id="Path_546" data-name="Path 546" class="cls-1" d="M179.538 412.5a1.543 1.543 0 0 0-1.538 1.538V432.5a1.543 1.543 0 0 0 1.538 1.538h1.519V412.5z" transform="translate(-155.078 -193.848)"/>
        <path id="Path_547" data-name="Path 547" class="cls-1" d="M210 412.6v3.058h22.5l1.75-3.058z" transform="translate(-180.925 -193.929)"/>
        <path id="Path_548" data-name="Path 548" class="cls-1" d="m339.5 416.465-1.4 2.423v6.154l3.058-5.288V413.6z" transform="translate(-284.391 -194.736)"/>
        <path id="Path_549" data-name="Path 549" class="cls-1" d="m237.076 477.3-2.423-1.4v3.558l.615.365-.615.308v2.058H210v3.058h15.442a1.366 1.366 0 0 1 .154-.346l1.538-2.673 2.673 1.538-.846 1.481h3.539l.5-.865 1.635-.808 2.788-1.385.135-.058a.836.836 0 0 0 .135-.077v-5.807z" transform="translate(-180.925 -245.056)"/>
        <path id="Path_550" data-name="Path 550" class="cls-1" d="M386 365v4.846l2.1-3.634z" transform="translate(-323.08 -155.482)"/>
        <path id="Path_551" data-name="Path 551" class="cls-1" d="M386 365v4.846l2.1-3.634z" transform="translate(-323.08 -155.482)"/>
        <path id="Path_552" data-name="Path 552" class="cls-1" d="m237.076 477.3-2.423-1.4v3.558l.615.365-.615.308v2.058H210v3.058h15.442a1.366 1.366 0 0 1 .154-.346l1.538-2.673 2.673 1.538-.846 1.481h3.539l.5-.865 1.635-.808 2.788-1.385.135-.058a.836.836 0 0 0 .135-.077v-5.807z" transform="translate(-180.925 -245.056)"/>
        <path id="Path_553" data-name="Path 553" class="cls-1" d="m339.5 416.465-1.4 2.423v6.154l3.058-5.288V413.6z" transform="translate(-284.391 -194.736)"/>
        <path id="Path_554" data-name="Path 554" class="cls-1" d="M210 412.6v3.058h22.5l1.75-3.058z" transform="translate(-180.925 -193.929)"/>
        <path id="Path_555" data-name="Path 555" class="cls-1" d="M179.538 412.5a1.543 1.543 0 0 0-1.538 1.538V432.5a1.543 1.543 0 0 0 1.538 1.538h1.519V412.5z" transform="translate(-155.078 -193.848)"/>
        <path id="Rectangle_1554" data-name="Rectangle 1554" class="cls-1" transform="translate(62.92 190.403)" d="M0 0h3.077v45.037H0z"/>
        <path id="Rectangle_1555" data-name="Rectangle 1555" class="cls-1" transform="translate(22.922 218.671)" d="M0 0h33.845v3.058H0z"/>
        <path id="Path_556" data-name="Path 556" class="cls-1" d="M341.158 434.1v-21.5H338.1v21.5z" transform="translate(-284.391 -193.929)"/>
        <path id="Path_557" data-name="Path 557" class="cls-1" d="M181.058 412.5v21.538h-1.519A1.543 1.543 0 0 1 178 432.5v-18.462a1.543 1.543 0 0 1 1.538-1.538z" transform="translate(-155.078 -193.848)"/>
        <path id="Rectangle_1556" data-name="Rectangle 1556" class="cls-1" transform="translate(22.922 237.132)" d="M0 0h33.845v3.058H0z"/>
    </g>
</svg>
