<svg xmlns="http://www.w3.org/2000/svg" xmlns:xlink="http://www.w3.org/1999/xlink" width="32" height="32" viewBox="0 0 32 32">
  <defs>
    <style>
      .cls-1, .cls-3 {
        fill: #535353;
      }

      .cls-1 {
        stroke: #b8b8b8;
      }

      .cls-2 {
        clip-path: url(#clip-path);
      }
    </style>
    <clipPath id="clip-path">
      <rect id="Rectangle_2705" data-name="Rectangle 2705" class="cls-1" width="32" height="32" transform="translate(25 323)"/>
    </clipPath>
  </defs>
  <g id="Mask_Group_45" data-name="Mask Group 45" class="cls-2" transform="translate(-25 -323)">
    <path id="experience" class="cls-3" d="M29.882,6.3H25.311V5.535a2.883,2.883,0,0,0-2.872-2.872H13.62a2.883,2.883,0,0,0-2.872,2.872V6.3H6.177a4.494,4.494,0,0,0-2.306.647A3.378,3.378,0,0,0,2.254,9.783V29.928a3.7,3.7,0,0,0,3.924,3.479H29.922a3.75,3.75,0,0,0,3.924-3.479V9.783A3.761,3.761,0,0,0,29.882,6.3ZM13.175,5.535a.449.449,0,0,1,.445-.445h8.818a.449.449,0,0,1,.445.445V6.3H13.175Zm18.2,24.392c0,.566-.688,1.052-1.5,1.052H6.177c-.809,0-1.5-.485-1.5-1.052V19.087H15.319a2.626,2.626,0,0,0,2.508,1.78,2.68,2.68,0,0,0,2.508-1.78H31.379Zm0-13.268H19.931a2.629,2.629,0,0,0-4.207,0H4.681V9.783a1.212,1.212,0,0,1,.485-.809,1.948,1.948,0,0,1,.971-.283H29.882c.809,0,1.5.485,1.5,1.052Z" transform="translate(22.746 320.762)"/>
  </g>
</svg>
