<svg xmlns="http://www.w3.org/2000/svg" width="48" height="48">
    <defs>
        <style>
            .cls-1{fill:#f8f8f8}
        </style>
    </defs>
    <g id="Group_863" data-name="Group 863" transform="translate(-394 -205)">
        <path id="Ellipse_137" data-name="Ellipse 137" class="cls-1" d="M24 3.692A20.308 20.308 0 0 0 9.64 38.36 20.308 20.308 0 1 0 38.36 9.64 20.175 20.175 0 0 0 24 3.692M24 0A24 24 0 1 1 0 24 24 24 0 0 1 24 0z" transform="translate(394 205)"/>
        <path id="Path_1348" data-name="Path 1348" class="cls-1" d="M1.476-9.624A3.15 3.15 0 0 1-.8-10.492a2.871 2.871 0 0 1-.9-2.16 2.871 2.871 0 0 1 .9-2.16 3.15 3.15 0 0 1 2.271-.868 3.15 3.15 0 0 1 2.271.868 2.871 2.871 0 0 1 .9 2.16 2.871 2.871 0 0 1-.9 2.16 3.15 3.15 0 0 1-2.266.868zm2.548 2.437v20.459h-5.17V-7.187z" transform="translate(416.561 228.654)"/>
    </g>
</svg>
