<svg xmlns="http://www.w3.org/2000/svg" width="148" height="94" viewBox="0 0 148 94">
    <defs>
        <style>
            .cls-2{fill:#2d9736}.cls-3{fill:#dbdbdb}.cls-4{fill:none}
        </style>
    </defs>
    <g id="Group_923" data-name="Group 923" transform="translate(-893 -269)">
        <g id="Rectangle_3823" data-name="Rectangle 3823" transform="translate(893 269)" style="fill:#fff;stroke:#dbdbdb">
            <rect width="148" height="94" rx="6" style="stroke:none"/>
            <rect class="cls-4" x=".5" y=".5" width="147" height="93" rx="5.5"/>
        </g>
        <path id="Rectangle_3824" data-name="Rectangle 3824" class="cls-2" d="M6 0h136a6 6 0 0 1 6 6v12H0V6a6 6 0 0 1 6-6z" transform="translate(893 269)"/>
        <path id="Rectangle_3825" data-name="Rectangle 3825" class="cls-2" transform="translate(930 300)" d="M0 0h6v6H0z"/>
        <path id="Rectangle_10159" data-name="Rectangle 10159" class="cls-2" transform="translate(937 300)" d="M0 0h6v6H0z"/>
        <path id="Rectangle_10160" data-name="Rectangle 10160" class="cls-2" transform="translate(944 300)" d="M0 0h6v6H0z"/>
        <path id="Rectangle_10161" data-name="Rectangle 10161" class="cls-2" transform="translate(951 300)" d="M0 0h6v6H0z"/>
        <path id="Rectangle_10162" data-name="Rectangle 10162" class="cls-2" transform="translate(958 300)" d="M0 0h6v6H0z"/>
        <rect id="Rectangle_3826" data-name="Rectangle 3826" class="cls-3" width="79" height="6" rx="3" transform="translate(906 317)"/>
        <rect id="Rectangle_3827" data-name="Rectangle 3827" class="cls-3" width="76" height="6" rx="3" transform="translate(906 328)"/>
        <rect id="Rectangle_3828" data-name="Rectangle 3828" class="cls-3" width="37" height="5" rx="2.5" transform="translate(906 345)"/>
        <path id="Rectangle_3829" data-name="Rectangle 3829" class="cls-3" transform="translate(1005 328)" d="M0 0h25v25H0z"/>
        <g id="account_circle_black_24dp" transform="translate(1003.934 294.934)">
            <path id="Path_850" data-name="Path 850" class="cls-4" d="M0 0h25.066v25.066H0z"/>
            <path id="Path_851" data-name="Path 851" class="cls-3" d="M12.444 2a10.444 10.444 0 1 0 10.445 10.444A10.448 10.448 0 0 0 12.444 2zm0 3.133a3.133 3.133 0 1 1-3.133 3.134 3.129 3.129 0 0 1 3.133-3.134zm0 14.831A7.52 7.52 0 0 1 6.178 16.6c.031-2.078 4.178-3.217 6.267-3.217s6.235 1.138 6.267 3.217a7.52 7.52 0 0 1-6.268 3.364z" transform="translate(.089 .089)"/>
        </g>
        <path id="Path_1378" data-name="Path 1378" class="cls-2" d="M6.336-3.543H5.077L2.225-7.852v4.309H.966v-6.288h1.259l2.852 4.318v-4.318h1.259zm.935-3.148a3.289 3.289 0 0 1 .418-1.66 2.987 2.987 0 0 1 1.143-1.143 3.241 3.241 0 0 1 1.624-.406 3.194 3.194 0 0 1 1.844.54 2.822 2.822 0 0 1 1.106 1.49h-1.448a1.5 1.5 0 0 0-.607-.675 1.782 1.782 0 0 0-.9-.225 1.86 1.86 0 0 0-.976.256 1.749 1.749 0 0 0-.666.724 2.387 2.387 0 0 0-.238 1.1 2.394 2.394 0 0 0 .234 1.09 1.743 1.743 0 0 0 .666.729 1.86 1.86 0 0 0 .976.256 1.754 1.754 0 0 0 .9-.229 1.528 1.528 0 0 0 .607-.679h1.448a2.807 2.807 0 0 1-1.1 1.5 3.208 3.208 0 0 1-1.849.535A3.241 3.241 0 0 1 8.832-3.9 3 3 0 0 1 7.69-5.037a3.264 3.264 0 0 1-.418-1.655zM17.4-3.48a3.253 3.253 0 0 1-1.619-.414 3.089 3.089 0 0 1-1.169-1.147A3.208 3.208 0 0 1 14.18-6.7a3.191 3.191 0 0 1 .432-1.651A3.089 3.089 0 0 1 15.781-9.5a3.253 3.253 0 0 1 1.619-.412 3.246 3.246 0 0 1 1.624.414 3.066 3.066 0 0 1 1.16 1.147 3.217 3.217 0 0 1 .427 1.651 3.234 3.234 0 0 1-.427 1.66 3.056 3.056 0 0 1-1.165 1.147 3.253 3.253 0 0 1-1.619.413zm0-1.124a1.918 1.918 0 0 0 1-.256 1.757 1.757 0 0 0 .675-.733 2.406 2.406 0 0 0 .241-1.107 2.378 2.378 0 0 0-.243-1.1 1.734 1.734 0 0 0-.675-.724 1.945 1.945 0 0 0-1-.252 1.97 1.97 0 0 0-1 .252 1.725 1.725 0 0 0-.679.724 2.378 2.378 0 0 0-.243 1.1 2.406 2.406 0 0 0 .243 1.106 1.748 1.748 0 0 0 .679.733A1.942 1.942 0 0 0 17.4-4.6z" transform="translate(906 309.912)"/>
    </g>
</svg>
