<svg xmlns="http://www.w3.org/2000/svg" width="90" height="115">
    <defs>
        <style>
            .cls-2{fill:#dbdbdb}.cls-4{fill:none}
        </style>
    </defs>
    <g id="Group_739" data-name="Group 739" transform="translate(-1250 -238)">
        <g id="Rectangle_3830" data-name="Rectangle 3830" style="fill:#fff;stroke:#dbdbdb">
            <path style="stroke:none" d="M0 0h90v115H0z" transform="translate(1250 238)"/>
            <path class="cls-4" d="M.5.5h89v114H.5z" transform="translate(1250 238)"/>
        </g>
        <rect id="Rectangle_3831" data-name="Rectangle 3831" class="cls-2" width="30" height="3" rx="1.5" transform="translate(1257 271)"/>
        <rect id="Rectangle_3836" data-name="Rectangle 3836" class="cls-2" width="25" height="3" rx="1.5" transform="translate(1306 271)"/>
        <rect id="Rectangle_3838" data-name="Rectangle 3838" width="29" height="3" rx="1.5" transform="translate(1306 264)" style="fill:#2d9736"/>
        <rect id="Rectangle_3832" data-name="Rectangle 3832" class="cls-2" width="32" height="3" rx="1.5" transform="translate(1257 278)"/>
        <rect id="Rectangle_3835" data-name="Rectangle 3835" class="cls-2" width="29" height="3" rx="1.5" transform="translate(1306 278)"/>
        <rect id="Rectangle_3833" data-name="Rectangle 3833" class="cls-2" width="25" height="3" rx="1.5" transform="translate(1257 285)"/>
        <rect id="Rectangle_3840" data-name="Rectangle 3840" class="cls-2" width="20" height="3" rx="1.5" transform="translate(1257 305)"/>
        <rect id="Rectangle_3847" data-name="Rectangle 3847" class="cls-2" width="20" height="3" rx="1.5" transform="translate(1257 332)"/>
        <rect id="Rectangle_3843" data-name="Rectangle 3843" class="cls-2" width="20" height="3" rx="1.5" transform="translate(1285 305)"/>
        <rect id="Rectangle_3850" data-name="Rectangle 3850" class="cls-2" width="20" height="3" rx="1.5" transform="translate(1285 332)"/>
        <rect id="Rectangle_3845" data-name="Rectangle 3845" class="cls-2" width="20" height="3" rx="1.5" transform="translate(1313 305)"/>
        <rect id="Rectangle_3851" data-name="Rectangle 3851" class="cls-2" width="20" height="3" rx="1.5" transform="translate(1313 332)"/>
        <rect id="Rectangle_3841" data-name="Rectangle 3841" class="cls-2" width="20" height="3" rx="1.5" transform="translate(1257 312)"/>
        <rect id="Rectangle_3842" data-name="Rectangle 3842" class="cls-2" width="20" height="3" rx="1.5" transform="translate(1285 312)"/>
        <rect id="Rectangle_3844" data-name="Rectangle 3844" class="cls-2" width="20" height="3" rx="1.5" transform="translate(1313 312)"/>
        <rect id="Rectangle_3839" data-name="Rectangle 3839" class="cls-2" width="76" height="3" rx="1.5" transform="translate(1257 298)"/>
        <rect id="Rectangle_3846" data-name="Rectangle 3846" class="cls-2" width="76" height="3" rx="1.5" transform="translate(1257 325)"/>
        <rect id="Rectangle_3834" data-name="Rectangle 3834" class="cls-2" width="25" height="3" rx="1.5" transform="translate(1306 285)"/>
        <g id="account_circle_black_24dp" transform="translate(1322.791 245)">
            <path id="Path_850" data-name="Path 850" class="cls-4" d="M0 0h13.414v13.414H0z"/>
            <path id="Path_851" data-name="Path 851" class="cls-2" d="M7.589 2a5.589 5.589 0 1 0 5.589 5.589A5.591 5.591 0 0 0 7.589 2zm0 1.677a1.677 1.677 0 1 1-1.677 1.677 1.675 1.675 0 0 1 1.677-1.677zm0 7.937a4.025 4.025 0 0 1-3.354-1.8C4.252 8.7 6.471 8.092 7.589 8.092s3.337.609 3.354 1.721a4.025 4.025 0 0 1-3.354 1.8z" transform="translate(-.882 -.882)"/>
        </g>
        <path id="Rectangle_3837" data-name="Rectangle 3837" class="cls-2" transform="translate(1258 246)" d="M0 0h12v12H0z"/>
    </g>
</svg>
