<svg xmlns="http://www.w3.org/2000/svg" width="52" height="52">
    <defs>
        <clipPath id="clip-path">
            <path id="Rectangle_481" data-name="Rectangle 481" transform="translate(.327)" style="stroke:#707070;fill:#fff" d="M0 0h52v52H0z"/>
        </clipPath>
        <style>
            .cls-3{fill:#fff}
        </style>
    </defs>
    <g id="Mask_Group_14" data-name="Mask Group 14" transform="translate(-.327)" style="clip-path:url(#clip-path)">
        <g id="complete" transform="translate(.002)">
            <path id="Path_493" data-name="Path 493" class="cls-3" d="M25.848 48.352A23.878 23.878 0 0 1 1.772 24.729 23.5 23.5 0 0 1 16.915 2.788l1.163-.45 8.413 21.431 22.945-4.052.214 1.2a22.374 22.374 0 0 1 .306 3.812 23.924 23.924 0 0 1-24.108 23.623zM16.7 5.519a21.085 21.085 0 0 0-12.481 19.21 21.446 21.446 0 0 0 21.629 21.222 21.446 21.446 0 0 0 21.63-21.222 17.222 17.222 0 0 0-.122-2.191L24.9 26.5z" transform="translate(-1.772 3.426)"/>
            <path id="Path_494" data-name="Path 494" class="cls-3" d="M25.848 48.352A23.878 23.878 0 0 1 1.772 24.729 23.5 23.5 0 0 1 16.915 2.788l1.163-.45 8.413 21.431 22.945-4.052.214 1.2a22.374 22.374 0 0 1 .306 3.812 23.924 23.924 0 0 1-24.108 23.623zM16.7 5.519a21.085 21.085 0 0 0-12.481 19.21 21.446 21.446 0 0 0 21.629 21.222 21.446 21.446 0 0 0 21.63-21.222 17.222 17.222 0 0 0-.122-2.191L24.9 26.5z" transform="translate(-1.772 3.426)"/>
            <path id="Path_495" data-name="Path 495" class="cls-3" d="M16.318 30.482 5.519 2.988l1.132-.45A29.2 29.2 0 0 1 35.9 7.31a28.076 28.076 0 0 1 9.667 16.779l.184 1.171L40 26.28zM8.7 4.369l9.178 23.412 25.056-4.412a26.051 26.051 0 0 0-25.7-20.381A25.551 25.551 0 0 0 8.7 4.369z" transform="translate(6.841 -.557)"/>
        </g>
    </g>
</svg>
