<svg xmlns="http://www.w3.org/2000/svg" width="80" height="80">
    <defs>
        <clipPath id="clip-path">
            <path id="Rectangle_1561" data-name="Rectangle 1561" transform="translate(33 251)" style="stroke:#707070;fill:#2d9735" d="M0 0h80v80H0z"/>
        </clipPath>
        <style>
            .cls-3{fill:#2d9735}
        </style>
    </defs>
    <g id="Mask_Group_17" data-name="Mask Group 17" transform="translate(-33 -251)" style="clip-path:url(#clip-path)">
        <g id="employeecard" transform="translate(33.385 251)">
            <g id="Group_329" data-name="Group 329" transform="translate(38.68 36.77)">
                <path id="Path_570" data-name="Path 570" class="cls-3" d="M19.97 18.385a7.192 7.192 0 0 0 .934.041 6.887 6.887 0 0 0 .934-.041zm0 0a7.192 7.192 0 0 0 .934.041 6.887 6.887 0 0 0 .934-.041zm0 0a7.192 7.192 0 0 0 .934.041 6.887 6.887 0 0 0 .934-.041zm0 0a7.192 7.192 0 0 0 .934.041 6.887 6.887 0 0 0 .934-.041zm0 0a7.192 7.192 0 0 0 .934.041 6.887 6.887 0 0 0 .934-.041zm0 0a7.192 7.192 0 0 0 .934.041 6.887 6.887 0 0 0 .934-.041zm0 0a7.192 7.192 0 0 0 .934.041 6.887 6.887 0 0 0 .934-.041zm0 0a7.192 7.192 0 0 0 .934.041 6.887 6.887 0 0 0 .934-.041zm0 0a7.192 7.192 0 0 0 .934.041 6.887 6.887 0 0 0 .934-.041zm0 0a7.192 7.192 0 0 0 .934.041 6.887 6.887 0 0 0 .934-.041zm0 0a7.192 7.192 0 0 0 .934.041 6.887 6.887 0 0 0 .934-.041zm0 0a7.192 7.192 0 0 0 .934.041 6.887 6.887 0 0 0 .934-.041zm0 0a7.192 7.192 0 0 0 .934.041 6.887 6.887 0 0 0 .934-.041zm0 0a7.192 7.192 0 0 0 .934.041 6.887 6.887 0 0 0 .934-.041zm0 0a7.192 7.192 0 0 0 .934.041 6.887 6.887 0 0 0 .934-.041zm0 0a7.192 7.192 0 0 0 .934.041 6.887 6.887 0 0 0 .934-.041zm0 0a7.192 7.192 0 0 0 .934.041 6.887 6.887 0 0 0 .934-.041zm0 0a7.192 7.192 0 0 0 .934.041 6.887 6.887 0 0 0 .934-.041zm0 0a7.192 7.192 0 0 0 .934.041 6.887 6.887 0 0 0 .934-.041zm0 0a7.192 7.192 0 0 0 .934.041 6.887 6.887 0 0 0 .934-.041zm0 0a7.192 7.192 0 0 0 .934.041 6.887 6.887 0 0 0 .934-.041zm0 0a7.192 7.192 0 0 0 .934.041 6.887 6.887 0 0 0 .934-.041zm0 0a7.192 7.192 0 0 0 .934.041 6.887 6.887 0 0 0 .934-.041z" transform="translate(-19.97 -18.385)"/>
            </g>
            <g id="Group_330" data-name="Group 330">
                <path id="Path_571" data-name="Path 571" class="cls-3" d="M74.738 8.126H48.573V0H31.915v8.126H5.79a5.159 5.159 0 0 0-5.16 5.119v61.636A5.133 5.133 0 0 0 5.79 80h68.948a5.124 5.124 0 0 0 5.119-5.119V13.245a5.124 5.124 0 0 0-5.119-5.119zM35.165 3.25h10.157v9.35H35.165zm41.442 71.671a1.864 1.864 0 0 1-1.869 1.869H5.79a1.9 1.9 0 0 1-1.91-1.869V13.245a1.873 1.873 0 0 1 1.91-1.869h26.125v4.469h16.658v-4.469h26.165a1.864 1.864 0 0 1 1.869 1.869z" transform="translate(-.63)"/>
            </g>
            <g id="Group_331" data-name="Group 331" transform="translate(31.001 19.502)">
                <path id="Path_572" data-name="Path 572" class="cls-3" d="M19.97 18.385a7.192 7.192 0 0 0 .934.041 6.887 6.887 0 0 0 .934-.041z" transform="translate(-12.291 -1.117)"/>
                <path id="Path_573" data-name="Path 573" class="cls-3" d="M33.4 17.8a8.634 8.634 0 0 0-17.227 0c0 .2-.041.406-.041.609a8.67 8.67 0 0 0 7.72 8.614h1.869a8.67 8.67 0 0 0 7.72-8.614 3.075 3.075 0 0 1-.041-.609zm-8.654 6.013a5.428 5.428 0 0 1-5.4-5.4 3.075 3.075 0 0 1 .041-.609 5.4 5.4 0 0 1 10.726 0 3.075 3.075 0 0 1 .041.609 5.4 5.4 0 0 1-5.41 5.396z" transform="translate(-16.13 -9.751)"/>
            </g>
            <path id="Path_574" data-name="Path 574" class="cls-3" d="M43.027 30.98h-3.291A10.363 10.363 0 0 0 29.5 22.245h-3.091a10.321 10.321 0 0 0-10.2 8.735H12.92c.041-.406.122-.813.2-1.219a13.63 13.63 0 0 1 13.289-10.767H29.5a13.6 13.6 0 0 1 13.283 10.767c.122.407.163.813.244 1.219z" transform="translate(11.661 18.994)"/>
            <g id="Group_332" data-name="Group 332" transform="translate(23.525 56.882)">
                <path id="Rectangle_1559" data-name="Rectangle 1559" class="cls-3" d="M0 0h32.179v3.25H0z"/>
            </g>
            <g id="Group_333" data-name="Group 333" transform="translate(14.83 66.227)">
                <path id="Rectangle_1560" data-name="Rectangle 1560" class="cls-3" d="M0 0h49.568v3.25H0z"/>
            </g>
        </g>
    </g>
</svg>
