<svg xmlns="http://www.w3.org/2000/svg" width="152" height="152">
    <defs>
        <clipPath id="clip-path">
            <path id="Rectangle_2758" data-name="Rectangle 2758" transform="translate(85 105)" style="stroke:#707070;fill:#fff" d="M0 0h152v152H0z"/>
        </clipPath>
        <style>
            .cls-11,.cls-19{fill:#fff}.cls-3{fill:#ececec}.cls-4{fill:#e7e7e7}.cls-12,.cls-5{fill:#f0f0f0}.cls-7{fill:#f5f5f5}.cls-8{fill:#f6f6f6}.cls-12,.cls-15{opacity:.6}.cls-13,.cls-23{fill:#ffcb4d}.cls-14{fill:#dfa831}.cls-15{fill:#bcbcbc}.cls-16{fill:#ffdcdc}.cls-19{opacity:.1}.cls-21,.cls-26{fill:#1a2e35}.cls-22{fill:#007cff}.cls-23{opacity:.3}.cls-24,.cls-26{opacity:.2}
        </style>
    </defs>
    <g id="Mask_Group_47" data-name="Mask Group 47" transform="translate(-85 -105)" style="clip-path:url(#clip-path)">
        <g id="welcome" transform="translate(85 118.157)">
            <g id="Group_562" data-name="Group 562">
                <path id="Rectangle_2707" data-name="Rectangle 2707" class="cls-3" transform="translate(0 110.582)" d="M0 0h152.142v.06H0z"/>
                <path id="Rectangle_2708" data-name="Rectangle 2708" class="cls-3" transform="translate(9.739 113.789)" d="M0 0h11.191v.091H0z"/>
                <path id="Rectangle_2709" data-name="Rectangle 2709" class="cls-3" transform="translate(49.817 113.819)" d="M0 0h18.178v.091H0z"/>
                <path id="Rectangle_2710" data-name="Rectangle 2710" class="cls-3" transform="translate(27.736 115.543)" d="M0 0h6.473v.091H0z"/>
                <path id="Rectangle_2711" data-name="Rectangle 2711" class="cls-3" transform="translate(136.141 115.482)" d="M0 0h6.503v.091H0z"/>
                <path id="Rectangle_2712" data-name="Rectangle 2712" class="cls-3" transform="translate(122.893 115.482)" d="M0 0h10.223v.091H0z"/>
                <path id="Rectangle_2713" data-name="Rectangle 2713" class="cls-3" transform="translate(102.9 114.938)" d="M0 0h14.367v.091H0z"/>
                <path id="Path_748" data-name="Path 748" class="cls-3" d="M72.353 119.925H7.171a1.949 1.949 0 0 1-1.936-1.936V26.341a1.949 1.949 0 0 1 1.936-1.936h65.212a1.949 1.949 0 0 1 1.936 1.936v91.648a1.976 1.976 0 0 1-1.966 1.936zM7.171 24.5a1.833 1.833 0 0 0-1.845 1.845v91.648a1.833 1.833 0 0 0 1.845 1.845h65.212a1.833 1.833 0 0 0 1.845-1.845V26.341a1.833 1.833 0 0 0-1.845-1.841z" transform="translate(-.305 -24.406)"/>
                <path id="Path_749" data-name="Path 749" class="cls-3" d="M167.408 119.925H102.2a1.949 1.949 0 0 1-1.936-1.936V26.341a1.949 1.949 0 0 1 1.936-1.936h65.212a1.949 1.949 0 0 1 1.936 1.936v91.648a1.949 1.949 0 0 1-1.94 1.936zM102.2 24.5a1.833 1.833 0 0 0-1.845 1.845v91.648a1.833 1.833 0 0 0 1.845 1.845h65.212a1.833 1.833 0 0 0 1.845-1.845V26.341a1.833 1.833 0 0 0-1.845-1.845z" transform="translate(-22.313 -24.406)"/>
            </g>
            <g id="Group_563" data-name="Group 563" transform="translate(94.068 62.989)">
                <path id="Rectangle_2714" data-name="Rectangle 2714" class="cls-4" transform="rotate(180 4.794 23.789)" d="M0 0h9.558v47.578H0z"/>
                <path id="Path_750" data-name="Path 750" class="cls-5" d="M123.055 166.761h-1.815v-5.172h3.72z" transform="translate(-121.241 -119.167)"/>
                <path id="Rectangle_2715" data-name="Rectangle 2715" class="cls-4" transform="rotate(180 22.663 23.789)" d="M0 0h9.558v47.578H0z"/>
                <path id="Rectangle_2716" data-name="Rectangle 2716" transform="rotate(180 18.677 22.204)" style="fill:#f8f8f8" d="M0 0h37.325v44.402H0z"/>
                <path id="Rectangle_2717" data-name="Rectangle 2717" class="cls-4" transform="rotate(-90 19.688 18.281)" d="M0 0h8.62v16.636H0z"/>
                <path id="Rectangle_2718" data-name="Rectangle 2718" class="cls-4" transform="rotate(-90 28.615 9.343)" d="M0 0h8.62v16.636H0z"/>
                <path id="Path_751" data-name="Path 751" class="cls-5" d="M153.875 145.941h3.3a5.125 5.125 0 0 0 3.781-1.633h-10.862a5.293 5.293 0 0 0 3.781 1.633z" transform="translate(-127.923 -115.164)"/>
                <path id="Path_752" data-name="Path 752" class="cls-5" d="M130.414 145.941h3.3a5.125 5.125 0 0 0 3.781-1.633h-10.862a5.293 5.293 0 0 0 3.781 1.633z" transform="translate(-122.49 -115.164)"/>
                <path id="Rectangle_2719" data-name="Rectangle 2719" class="cls-4" transform="rotate(-90 12.988 11.559)" d="M0 0h8.62v16.636H0z"/>
                <path id="Rectangle_2720" data-name="Rectangle 2720" class="cls-4" transform="rotate(-90 21.916 2.621)" d="M0 0h8.62v16.636H0z"/>
                <path id="Path_753" data-name="Path 753" class="cls-5" d="M153.875 128.464h3.3a5.125 5.125 0 0 0 3.781-1.633h-10.862a5.293 5.293 0 0 0 3.781 1.633z" transform="translate(-127.923 -111.117)"/>
                <path id="Path_754" data-name="Path 754" class="cls-5" d="M130.414 128.464h3.3a5.125 5.125 0 0 0 3.781-1.633h-10.862a5.293 5.293 0 0 0 3.781 1.633z" transform="translate(-122.49 -111.117)"/>
                <path id="Rectangle_2721" data-name="Rectangle 2721" class="cls-4" transform="rotate(-90 6.274 4.853)" d="M0 0h8.62v16.636H0z"/>
                <path id="Rectangle_2722" data-name="Rectangle 2722" class="cls-4" transform="rotate(-90 15.201 -4.086)" d="M0 0h8.62v16.636H0z"/>
                <path id="Path_755" data-name="Path 755" class="cls-5" d="M153.875 110.986h3.3a5.125 5.125 0 0 0 3.781-1.633h-10.862a5.175 5.175 0 0 0 3.781 1.633z" transform="translate(-127.923 -107.069)"/>
                <path id="Path_756" data-name="Path 756" class="cls-5" d="M130.414 110.986h3.3a5.125 5.125 0 0 0 3.781-1.633h-10.862a5.174 5.174 0 0 0 3.781 1.633z" transform="translate(-122.49 -107.069)"/>
                <path id="Path_757" data-name="Path 757" class="cls-5" d="M166.919 166.761h1.815v-5.172h-3.72z" transform="translate(-131.379 -119.167)"/>
            </g>
            <g id="Group_568" data-name="Group 568" transform="translate(80.93 16.908)">
                <g id="Group_567" data-name="Group 567" transform="translate(0 10.556)">
                    <g id="Group_564" data-name="Group 564" transform="translate(41.268 2.873)">
                        <path id="Path_758" data-name="Path 758" class="cls-7" d="m166.832 63.887 1.452 3.993h-1.452l-8.983-3.993z" transform="translate(-157.849 -63.887)"/>
                        <path id="Path_759" data-name="Path 759" class="cls-4" d="M168.722 63.887v3.993l-8.983-3.993z" transform="translate(-158.286 -63.887)"/>
                    </g>
                    <g id="Group_565" data-name="Group 565" transform="translate(6.091 2.873)">
                        <path id="Path_760" data-name="Path 760" class="cls-7" d="m121.052 63.887 1.448 3.993h-1.452l-8.983-3.993z" transform="translate(-112.069 -63.887)"/>
                        <path id="Path_761" data-name="Path 761" class="cls-4" d="M122.942 63.887v3.993l-8.983-3.993z" transform="translate(-112.506 -63.887)"/>
                    </g>
                    <g id="Group_566" data-name="Group 566">
                        <path id="Rectangle_2723" data-name="Rectangle 2723" class="cls-4" transform="translate(48.527)" d="M0 0h9.77v3.055H0z"/>
                        <path id="Rectangle_2724" data-name="Rectangle 2724" class="cls-7" transform="rotate(180 24.258 1.532)" d="M0 0h48.516v3.055H0z"/>
                    </g>
                </g>
                <path id="Path_762" data-name="Path 762" class="cls-5" d="M154.464 46.41s.09 10.59 3.75 10.59 3.751-10.586 3.751-10.586z" transform="translate(-115.797 -46.41)"/>
                <path id="Path_763" data-name="Path 763" class="cls-5" d="M125.019 55.66s.242 3.448 10.072 3.448 10.072-3.448 10.072-3.448z" transform="translate(-108.978 -48.552)"/>
            </g>
            <g id="Group_569" data-name="Group 569" transform="translate(55.261 86.657)">
                <path id="Path_764" data-name="Path 764" class="cls-5" d="M87.033 161.847h.667l1.875-9.2.333-1.6 2.027-10.042h7.8l4.235 20.84h.665l-4.325-21.233a.3.3 0 0 0-.3-.242h-8.319a.326.326 0 0 0-.3.242l-1.785 8.8-.333 1.6z" transform="translate(-74.511 -137.921)"/>
                <path id="Path_765" data-name="Path 765" class="cls-5" d="M70.737 161.847h.663l4.235-20.84h7.8l2.027 10.042.333 1.6 1.875 9.2h.665l-2.208-10.828-.333-1.6-1.785-8.8a.3.3 0 0 0-.3-.242h-8.344a.326.326 0 0 0-.3.242z" transform="translate(-70.737 -137.921)"/>
                <path id="Path_766" data-name="Path 766" class="cls-5" d="M97.662 137.183H74.947a1.962 1.962 0 0 0-1.966 1.966v.061a.736.736 0 0 0 .726.726h25.225a.736.736 0 0 0 .726-.726v-.061a2.008 2.008 0 0 0-1.996-1.966z" transform="translate(-71.256 -137.183)"/>
            </g>
            <g id="Group_570" data-name="Group 570" transform="translate(32.455 86.657)">
                <path id="Path_767" data-name="Path 767" class="cls-5" d="M57.353 161.847h.665l1.875-9.2.333-1.6 2.027-10.042h7.8l4.235 20.84h.665l-4.325-21.233a.3.3 0 0 0-.3-.242h-8.347a.326.326 0 0 0-.3.242l-1.785 8.8-.333 1.6z" transform="translate(-44.831 -137.921)"/>
                <path id="Path_768" data-name="Path 768" class="cls-5" d="M41.056 161.847h.665l4.235-20.84h7.8l2.027 10.042.333 1.6 1.875 9.2h.665l-2.208-10.828-.333-1.6-1.785-8.8a.3.3 0 0 0-.3-.242h-8.316a.326.326 0 0 0-.3.242z" transform="translate(-41.056 -137.921)"/>
                <path id="Path_769" data-name="Path 769" class="cls-5" d="M67.982 137.183H45.266a1.962 1.962 0 0 0-1.966 1.966v.061a.736.736 0 0 0 .726.726h25.226a.736.736 0 0 0 .726-.726v-.061a2.008 2.008 0 0 0-1.996-1.966z" transform="translate(-41.576 -137.183)"/>
            </g>
            <g id="Group_571" data-name="Group 571" transform="translate(6.802 5.03)">
                <path id="Rectangle_2725" data-name="Rectangle 2725" class="cls-4" transform="rotate(180 19.168 26.148)" d="M0 0h32.636v52.297H0z"/>
                <path id="Rectangle_2726" data-name="Rectangle 2726" class="cls-8" transform="rotate(180 18.662 26.148)" d="M0 0h33.786v52.297H0z"/>
                <path id="Rectangle_2727" data-name="Rectangle 2727" transform="rotate(180 19.168 28.14)" style="fill:#eee" d="M0 0h32.636v3.962H0z"/>
                <path id="Rectangle_2728" data-name="Rectangle 2728" class="cls-8" transform="rotate(180 16.893 28.14)" d="M0 0h33.786v3.962H0z"/>
                <path id="Rectangle_2729" data-name="Rectangle 2729" transform="rotate(90 15.672 18.664)" style="fill:#fafafa" d="M0 0h46.308v27.797H0z"/>
                <path id="Path_770" data-name="Path 770" class="cls-11" d="m47.235 81.184-9.77-46.308h-8.257l9.77 46.308z" transform="translate(-12.659 -31.86)"/>
                <path id="Path_771" data-name="Path 771" class="cls-5" d="M49.692 76.169a.207.207 0 0 0 .212-.212V37.332a.212.212 0 1 0-.423 0v38.625a.207.207 0 0 0 .211.212z" transform="translate(-17.355 -32.38)"/>
                <path id="Path_772" data-name="Path 772" class="cls-11" d="m35.68 81.184-9.77-46.308h-3.236l9.77 46.308z" transform="translate(-11.146 -31.86)"/>
                <path id="Rectangle_2730" data-name="Rectangle 2730" class="cls-4" transform="rotate(90 1.96 4.963)" d="M0 0h46.308v.393H0z"/>
                <path id="Path_773" data-name="Path 773" class="cls-12" d="M11.376 37.491h32.636l.272-1.119H11.648z" transform="translate(-8.529 -32.207)"/>
                <path id="Path_774" data-name="Path 774" class="cls-12" d="M11.376 40.946h32.636l.272-1.149H11.648z" transform="translate(-8.529 -33)"/>
                <path id="Path_775" data-name="Path 775" class="cls-12" d="M11.376 44.371h32.636l.272-1.149H11.648z" transform="translate(-8.529 -33.793)"/>
                <path id="Path_776" data-name="Path 776" class="cls-12" d="M11.376 47.8h32.636l.272-1.119H11.648z" transform="translate(-8.529 -34.596)"/>
                <path id="Path_777" data-name="Path 777" class="cls-12" d="M11.376 51.229h32.636l.272-1.119H11.648z" transform="translate(-8.529 -35.389)"/>
                <path id="Path_778" data-name="Path 778" class="cls-12" d="M11.376 54.684h32.636l.272-1.149H11.648z" transform="translate(-8.529 -36.182)"/>
            </g>
            <ellipse id="_x3C_Path_x3E__60_" class="cls-7" cx="65.484" cy="3.811" rx="65.484" ry="3.811" transform="translate(10.949 118.205)"/>
            <g id="Group_581" data-name="Group 581" transform="translate(20.084 6.11)">
                <g id="Group_572" data-name="Group 572" transform="translate(26.98 24.833)">
                    <path id="Path_779" data-name="Path 779" class="cls-13" d="M93.764 88.237H61.975a1.9 1.9 0 0 1-1.906-1.906V66.58a1.9 1.9 0 0 1 1.906-1.906h31.789a1.9 1.9 0 0 1 1.906 1.906v19.751a1.917 1.917 0 0 1-1.906 1.906z" transform="translate(-60.069 -64.675)"/>
                    <circle id="Ellipse_60" data-name="Ellipse 60" class="cls-14" cx="3.115" cy="3.115" r="3.115" transform="translate(6.382 5.565)"/>
                    <path id="Path_780" data-name="Path 780" class="cls-14" d="M76.432 86.5v.3h-11.4v-1a4.725 4.725 0 0 1 4.719-4.719h1.3a5.4 5.4 0 0 1 5.381 5.419z" transform="translate(-61.218 -68.477)"/>
                    <path id="Rectangle_2731" data-name="Rectangle 2731" class="cls-14" transform="translate(17.452 6.11)" d="M0 0h13.883v2.329H0z"/>
                    <path id="Rectangle_2732" data-name="Rectangle 2732" class="cls-14" transform="translate(17.452 10.919)" d="M0 0h13.883v2.329H0z"/>
                    <path id="Rectangle_2733" data-name="Rectangle 2733" class="cls-14" transform="translate(17.452 15.759)" d="M0 0h13.883v2.329H0z"/>
                </g>
                <g id="Group_573" data-name="Group 573">
                    <path id="Path_781" data-name="Path 781" class="cls-4" d="M45.8 46.936H26.136a1.181 1.181 0 0 1-1.18-1.18V33.537a1.181 1.181 0 0 1 1.18-1.18H45.8a1.181 1.181 0 0 1 1.18 1.18v12.22a1.222 1.222 0 0 1-1.18 1.179z" transform="translate(-24.957 -32.357)"/>
                    <circle id="Ellipse_61" data-name="Ellipse 61" class="cls-15" cx="1.906" cy="1.906" r="1.906" transform="translate(3.993 3.478)"/>
                    <path id="Path_782" data-name="Path 782" class="cls-15" d="M35.075 45.879v.181h-7.048v-.181a3.318 3.318 0 0 1 3.327-3.327h.363a3.324 3.324 0 0 1 3.358 3.327z" transform="translate(-25.668 -34.718)"/>
                    <path id="Rectangle_2734" data-name="Rectangle 2734" class="cls-15" transform="translate(10.798 3.811)" d="M0 0h8.56v1.452H0z"/>
                    <path id="Rectangle_2735" data-name="Rectangle 2735" class="cls-15" transform="translate(10.798 6.775)" d="M0 0h8.56v1.452H0z"/>
                    <path id="Rectangle_2736" data-name="Rectangle 2736" class="cls-15" transform="translate(10.798 9.739)" d="M0 0h8.56v1.452H0z"/>
                </g>
                <g id="Group_574" data-name="Group 574" transform="translate(32.727)">
                    <path id="Path_783" data-name="Path 783" class="cls-4" d="M88.388 46.936h-19.66a1.181 1.181 0 0 1-1.18-1.18V33.537a1.181 1.181 0 0 1 1.18-1.18h19.66a1.181 1.181 0 0 1 1.18 1.18v12.22a1.222 1.222 0 0 1-1.18 1.179z" transform="translate(-67.548 -32.357)"/>
                    <circle id="Ellipse_62" data-name="Ellipse 62" class="cls-15" cx="1.906" cy="1.906" r="1.906" transform="translate(3.993 3.478)"/>
                    <path id="Path_784" data-name="Path 784" class="cls-15" d="M77.666 45.879v.181h-7.047v-.181a3.318 3.318 0 0 1 3.327-3.327h.363a3.324 3.324 0 0 1 3.357 3.327z" transform="translate(-68.259 -34.718)"/>
                    <path id="Rectangle_2737" data-name="Rectangle 2737" class="cls-15" transform="translate(10.798 3.811)" d="M0 0h8.56v1.452H0z"/>
                    <path id="Rectangle_2738" data-name="Rectangle 2738" class="cls-15" transform="translate(10.798 6.775)" d="M0 0h8.56v1.452H0z"/>
                    <path id="Rectangle_2739" data-name="Rectangle 2739" class="cls-15" transform="translate(10.798 9.739)" d="M0 0h8.56v1.452H0z"/>
                </g>
                <g id="Group_575" data-name="Group 575" transform="translate(66.573)">
                    <path id="Path_785" data-name="Path 785" class="cls-4" d="M132.436 46.936h-19.66a1.181 1.181 0 0 1-1.18-1.18V33.537a1.181 1.181 0 0 1 1.18-1.18h19.66a1.181 1.181 0 0 1 1.18 1.18v12.22a1.222 1.222 0 0 1-1.18 1.179z" transform="translate(-111.596 -32.357)"/>
                    <circle id="Ellipse_63" data-name="Ellipse 63" class="cls-15" cx="1.906" cy="1.906" r="1.906" transform="translate(3.993 3.478)"/>
                    <path id="Path_786" data-name="Path 786" class="cls-15" d="M121.714 45.879v.181h-7.048v-.181a3.318 3.318 0 0 1 3.327-3.327h.363a3.324 3.324 0 0 1 3.358 3.327z" transform="translate(-112.308 -34.718)"/>
                    <path id="Rectangle_2740" data-name="Rectangle 2740" class="cls-15" transform="translate(10.798 3.811)" d="M0 0h8.56v1.452H0z"/>
                    <path id="Rectangle_2741" data-name="Rectangle 2741" class="cls-15" transform="translate(10.798 6.775)" d="M0 0h8.56v1.452H0z"/>
                    <path id="Rectangle_2742" data-name="Rectangle 2742" class="cls-15" transform="translate(10.798 9.739)" d="M0 0h8.56v1.452H0z"/>
                </g>
                <g id="Group_576" data-name="Group 576" transform="translate(0 58.588)">
                    <path id="Path_787" data-name="Path 787" class="cls-4" d="M45.8 123.184H26.136a1.181 1.181 0 0 1-1.18-1.18v-12.22a1.181 1.181 0 0 1 1.18-1.18H45.8a1.181 1.181 0 0 1 1.18 1.18V122a1.2 1.2 0 0 1-1.18 1.184z" transform="translate(-24.957 -108.605)"/>
                    <circle id="Ellipse_64" data-name="Ellipse 64" class="cls-15" cx="1.906" cy="1.906" r="1.906" transform="translate(3.993 3.509)"/>
                    <path id="Path_788" data-name="Path 788" class="cls-15" d="M35.075 122.127v.181h-7.048v-.181a3.318 3.318 0 0 1 3.327-3.327h.363a3.324 3.324 0 0 1 3.358 3.327z" transform="translate(-25.668 -110.966)"/>
                    <path id="Rectangle_2743" data-name="Rectangle 2743" class="cls-15" transform="translate(10.798 3.811)" d="M0 0h8.56v1.452H0z"/>
                    <path id="Rectangle_2744" data-name="Rectangle 2744" class="cls-15" transform="translate(10.798 6.775)" d="M0 0h8.56v1.452H0z"/>
                    <path id="Rectangle_2745" data-name="Rectangle 2745" class="cls-15" transform="translate(10.798 9.77)" d="M0 0h8.56v1.452H0z"/>
                </g>
                <g id="Group_577" data-name="Group 577" transform="translate(0 29.309)">
                    <path id="Path_789" data-name="Path 789" class="cls-4" d="M45.8 85.049H26.136a1.181 1.181 0 0 1-1.18-1.18V71.68a1.181 1.181 0 0 1 1.18-1.18H45.8a1.181 1.181 0 0 1 1.18 1.18V83.9a1.2 1.2 0 0 1-1.18 1.149z" transform="translate(-24.957 -70.501)"/>
                    <circle id="Ellipse_65" data-name="Ellipse 65" class="cls-15" cx="1.906" cy="1.906" r="1.906" transform="translate(3.993 3.478)"/>
                    <path id="Path_790" data-name="Path 790" class="cls-15" d="M35.075 83.984v.181h-7.048v-.181a3.318 3.318 0 0 1 3.327-3.327h.363a3.343 3.343 0 0 1 3.358 3.327z" transform="translate(-25.668 -72.853)"/>
                    <path id="Rectangle_2746" data-name="Rectangle 2746" class="cls-15" transform="translate(10.798 3.781)" d="M0 0h8.56v1.452H0z"/>
                    <path id="Rectangle_2747" data-name="Rectangle 2747" class="cls-15" transform="translate(10.798 6.775)" d="M0 0h8.56v1.452H0z"/>
                    <path id="Rectangle_2748" data-name="Rectangle 2748" class="cls-15" transform="translate(10.798 9.739)" d="M0 0h8.56v1.452H0z"/>
                </g>
                <g id="Group_578" data-name="Group 578" transform="translate(66.573 28.765)">
                    <path id="Path_791" data-name="Path 791" class="cls-4" d="M132.436 84.371h-19.66a1.181 1.181 0 0 1-1.18-1.18V70.972a1.181 1.181 0 0 1 1.18-1.18h19.66a1.181 1.181 0 0 1 1.18 1.18v12.22a1.2 1.2 0 0 1-1.18 1.179z" transform="translate(-111.596 -69.792)"/>
                    <circle id="Ellipse_66" data-name="Ellipse 66" class="cls-15" cx="1.906" cy="1.906" r="1.906" transform="translate(3.993 3.509)"/>
                    <path id="Path_792" data-name="Path 792" class="cls-15" d="M121.714 83.354v.181h-7.048v-.181a3.318 3.318 0 0 1 3.327-3.327h.363a3.305 3.305 0 0 1 3.358 3.327z" transform="translate(-112.308 -72.162)"/>
                    <path id="Rectangle_2749" data-name="Rectangle 2749" class="cls-15" transform="translate(10.798 3.811)" d="M0 0h8.56v1.452H0z"/>
                    <path id="Rectangle_2750" data-name="Rectangle 2750" class="cls-15" transform="translate(10.798 6.806)" d="M0 0h8.56v1.452H0z"/>
                    <path id="Rectangle_2751" data-name="Rectangle 2751" class="cls-15" transform="translate(10.798 9.77)" d="M0 0h8.56v1.452H0z"/>
                </g>
                <g id="Group_579" data-name="Group 579" transform="translate(32.727 58.588)">
                    <path id="Path_793" data-name="Path 793" class="cls-4" d="M88.388 123.184h-19.66a1.181 1.181 0 0 1-1.18-1.18v-12.22a1.181 1.181 0 0 1 1.18-1.18h19.66a1.181 1.181 0 0 1 1.18 1.18V122a1.2 1.2 0 0 1-1.18 1.184z" transform="translate(-67.548 -108.605)"/>
                    <circle id="Ellipse_67" data-name="Ellipse 67" class="cls-15" cx="1.906" cy="1.906" r="1.906" transform="translate(3.993 3.509)"/>
                    <path id="Path_794" data-name="Path 794" class="cls-15" d="M77.666 122.127v.181h-7.047v-.181a3.318 3.318 0 0 1 3.327-3.327h.363a3.324 3.324 0 0 1 3.357 3.327z" transform="translate(-68.259 -110.966)"/>
                    <path id="Rectangle_2752" data-name="Rectangle 2752" class="cls-15" transform="translate(10.798 3.811)" d="M0 0h8.56v1.452H0z"/>
                    <path id="Rectangle_2753" data-name="Rectangle 2753" class="cls-15" transform="translate(10.798 6.775)" d="M0 0h8.56v1.452H0z"/>
                    <path id="Rectangle_2754" data-name="Rectangle 2754" class="cls-15" transform="translate(10.798 9.77)" d="M0 0h8.56v1.452H0z"/>
                </g>
                <g id="Group_580" data-name="Group 580" transform="translate(66.573 58.588)">
                    <path id="Path_795" data-name="Path 795" class="cls-4" d="M132.436 123.184h-19.66A1.181 1.181 0 0 1 111.6 122v-12.22a1.181 1.181 0 0 1 1.18-1.18h19.66a1.181 1.181 0 0 1 1.18 1.18V122a1.2 1.2 0 0 1-1.184 1.184z" transform="translate(-111.596 -108.605)"/>
                    <circle id="Ellipse_68" data-name="Ellipse 68" class="cls-15" cx="1.906" cy="1.906" r="1.906" transform="translate(3.993 3.509)"/>
                    <path id="Path_796" data-name="Path 796" class="cls-15" d="M121.714 122.127v.181h-7.048v-.181a3.318 3.318 0 0 1 3.327-3.327h.363a3.324 3.324 0 0 1 3.358 3.327z" transform="translate(-112.308 -110.966)"/>
                    <path id="Rectangle_2755" data-name="Rectangle 2755" class="cls-15" transform="translate(10.798 3.811)" d="M0 0h8.56v1.452H0z"/>
                    <path id="Rectangle_2756" data-name="Rectangle 2756" class="cls-15" transform="translate(10.798 6.775)" d="M0 0h8.56v1.452H0z"/>
                    <path id="Rectangle_2757" data-name="Rectangle 2757" class="cls-15" transform="translate(10.798 9.77)" d="M0 0h8.56v1.452H0z"/>
                </g>
            </g>
            <path id="Path_797" data-name="Path 797" class="cls-16" d="M154.811 82.546a22.948 22.948 0 0 1 1 2.359c.3.786.575 1.573.847 2.389a29.648 29.648 0 0 1 1.18 5.021 4.947 4.947 0 0 1 .06.665l.03.333a.45.45 0 0 0 .03.181v.212a7.661 7.661 0 0 1-.121 1.512 15.948 15.948 0 0 1-.726 2.571 27.387 27.387 0 0 1-2.147 4.567l-1.724-.726a92.72 92.72 0 0 0 1.059-4.628 14.837 14.837 0 0 0 .3-2.208 4.318 4.318 0 0 0-.03-.907l-.03-.212-.06-.272-.091-.544a36.327 36.327 0 0 0-1.3-4.416c-.272-.726-.544-1.452-.817-2.208-.272-.726-.6-1.482-.877-2.148z" transform="translate(-34.156 -37.871)"/>
            <path id="Path_798" data-name="Path 798" class="cls-16" d="m153.511 106.794-1.331 1.3 2.873 1.331a2.894 2.894 0 0 0 .212-2.329z" transform="translate(-34.339 -43.487)"/>
            <path id="Path_799" data-name="Path 799" d="m150.8 110.392 2.42 1 1.512-1.573-2.873-1.331z" transform="translate(-34.02 -43.879)" style="fill:#903c38"/>
            <g id="Group_582" data-name="Group 582" transform="translate(40.38 16.485)">
                <path id="Path_800" data-name="Path 800" d="M78.38 94.345a24.317 24.317 0 1 0-26.859-21.476A24.328 24.328 0 0 0 78.38 94.345z" transform="translate(-51.37 -45.86)" style="opacity:.09;fill:#009726"/>
                <path id="Path_801" data-name="Path 801" class="cls-19" d="m63.494 51.414 36.962 29.551.454-1a24.288 24.288 0 0 0 1.754-6.927L70.723 47.512a25.292 25.292 0 0 0-7.229 3.902z" transform="translate(-54.178 -46.242)"/>
                <path id="Path_802" data-name="Path 802" class="cls-19" d="m52.393 66.5 34.754 27.769a24.343 24.343 0 0 0 8.378-7.2l-37.96-30.306a24.451 24.451 0 0 0-5.172 9.737z" transform="translate(-51.607 -48.385)"/>
            </g>
            <path id="Path_803" data-name="Path 803" d="M134.739 96.565a3.838 3.838 0 0 0-.575-1.724 2.3 2.3 0 0 0-1-.877l-2.3-1.119c-1.543-.756-3.085-1.512-4.628-2.238-1.543-.756-3.085-1.452-4.658-2.208a321.934 321.934 0 0 0-4.658-2.148 366.824 366.824 0 0 0-9.407-4.114 317.698 317.698 0 0 0-4.749-1.966 1.971 1.971 0 0 1-1.149-2.45 28.014 28.014 0 1 0-3.751 7.622 2 2 0 0 1 2.631-.575c1.482.877 2.964 1.724 4.446 2.6a372.721 372.721 0 0 0 9.014 4.96c1.512.817 3.025 1.6 4.537 2.389s3.025 1.573 4.567 2.359c1.512.786 3.055 1.543 4.6 2.3l2.3 1.149a2.338 2.338 0 0 0 1.3.242 3.591 3.591 0 0 0 1.724-.575 3.891 3.891 0 0 0 1.756-3.627zm-69.688-7.471a22.13 22.13 0 1 1 29.642-10.042 22.139 22.139 0 0 1-29.642 10.042z" transform="translate(-9.941 -28.298)" style="fill:#009726"/>
            <path id="Path_804" data-name="Path 804" class="cls-16" d="M145.945 70.894c-.423 2-.877 5.686.7 7.017 0 0-.6 2.027-4.749 2.027-4.537 0-2.178-2.027-2.178-2.027 2.48-.544 2.42-2.178 2-3.751z" transform="translate(-31.309 -35.173)"/>
            <path id="Path_805" data-name="Path 805" class="cls-21" d="M147.764 77.664c.272.091-.091 1.754-.091 1.754s-.454 1.18-6.2.756c-.454-.03-.272-1.633.151-1.875a13.136 13.136 0 0 1 6.14-.635z" transform="translate(-31.797 -36.71)"/>
            <path id="Path_806" data-name="Path 806" class="cls-22" d="M164.858 168.2c.3-.03.756-.6.907-.817v-.061c0-.03-.03-.03-.061-.03s-.847.151-1.059.484a.321.321 0 0 0-.03.242.266.266 0 0 0 .181.212c.004-.03.031-.03.062-.03zm.7-.756c-.212.3-.575.665-.756.635-.03 0-.061 0-.091-.121a.182.182 0 0 1 .03-.121c.117-.178.54-.299.812-.39z" transform="translate(-37.216 -57.5)"/>
            <path id="Path_807" data-name="Path 807" class="cls-22" d="M165.481 167.359c.061 0 .121-.03.181-.03a.03.03 0 0 0 .03-.03c0-.03 0-.03-.03-.061s-.575-.484-.938-.454a.373.373 0 0 0-.242.121c-.091.121-.061.212-.03.242a1.581 1.581 0 0 0 1.029.212zm.03-.121a1.644 1.644 0 0 1-.938-.151s-.03-.03.03-.091c.03-.06.091-.06.151-.091.246-.06.576.181.758.333z" transform="translate(-37.174 -57.381)"/>
            <path id="Path_808" data-name="Path 808" class="cls-22" d="M134.474 179.871a4.455 4.455 0 0 0 .756-.061c.03 0 .03-.03.061-.061 0-.03 0-.06-.03-.06-.03-.03-.907-.514-1.331-.393-.091.03-.151.061-.182.151a.218.218 0 0 0 0 .242c.09.152.423.182.726.182zm.575-.151c-.454.061-1.089.061-1.21-.091 0-.03-.03-.061 0-.121a.417.417 0 0 1 .121-.091c.272-.09.786.151 1.088.303z" transform="translate(-30.061 -60.275)"/>
            <path id="Path_809" data-name="Path 809" class="cls-22" d="M135.422 179.631h.03c.03 0 .03-.03.03-.06a1.616 1.616 0 0 0-.393-.968.341.341 0 0 0-.333-.091c-.151.03-.212.091-.212.151-.03.272.544.817.877.968zm-.6-1a.327.327 0 0 1 .212.091 1.4 1.4 0 0 1 .333.756c-.3-.181-.7-.6-.7-.786 0 0 0-.06.121-.06z" transform="translate(-30.254 -60.095)"/>
            <path id="Path_810" data-name="Path 810" class="cls-16" d="M138.409 178.16h-2.48l-.242-5.747h2.48z" transform="translate(-30.519 -58.685)"/>
            <path id="Path_811" data-name="Path 811" class="cls-16" d="M166.841 164.062 164.9 165.6l-4.93-3.418 1.936-1.543z" transform="translate(-36.144 -55.959)"/>
            <path id="Path_812" data-name="Path 812" class="cls-21" d="m165.413 166.37 1.966-1.966a.225.225 0 0 1 .272-.03l1.906 1.21a.372.372 0 0 1 .061.575c-.7.665-1.089.968-1.936 1.815-.544.544-1.845 2.117-2.571 2.843s-1.573.091-1.331-.272a8.544 8.544 0 0 0 1.482-3.811.558.558 0 0 1 .151-.364z" transform="translate(-37.016 -56.816)"/>
            <path id="Path_813" data-name="Path 813" class="cls-21" d="M134.233 179.5h2.722a.221.221 0 0 1 .212.181l.484 2.208a.363.363 0 0 1-.363.454c-.968-.03-2.39-.06-3.63-.06-1.422 0-2.662.091-4.356.091-1.028 0-1.3-1.028-.877-1.119 1.936-.423 3.539-.484 5.2-1.512a.961.961 0 0 1 .608-.243z" transform="translate(-28.793 -60.326)"/>
            <g id="Group_583" data-name="Group 583" transform="translate(116.312 42.546)">
                <path id="Path_814" data-name="Path 814" class="cls-13" d="M154.079 80.059c2.148 1.028 3.055 7.955 3.055 7.955l-4.96 1.936a39.065 39.065 0 0 1-1.845-5.807c-.729-3.116 1.542-5.143 3.75-4.084z" transform="translate(-150.19 -79.776)"/>
                <path id="Path_815" data-name="Path 815" class="cls-23" d="M154.079 80.059c2.148 1.028 3.055 7.955 3.055 7.955l-4.96 1.936a39.065 39.065 0 0 1-1.845-5.807c-.729-3.116 1.542-5.143 3.75-4.084z" transform="translate(-150.19 -79.776)"/>
            </g>
            <path id="Path_816" data-name="Path 816" class="cls-24" d="M150.877 82.727a2.108 2.108 0 0 0-.514-.181 4.739 4.739 0 0 0-.03 2.269 38 38 0 0 0 1.845 5.777l1.633-.635c-.302-1.815-1.211-6.413-2.934-7.23z" transform="translate(-33.883 -37.871)"/>
            <g id="Group_584" data-name="Group 584" transform="translate(104.648 41.994)">
                <path id="Path_817" data-name="Path 817" class="cls-13" d="M136.226 79.832s-2.631 2.994-.151 21.445h13.278c.091-2.027-1.18-11.978.786-21.566a36.558 36.558 0 0 0-4.446-.575 49.836 49.836 0 0 0-5.626 0 24.5 24.5 0 0 0-3.841.696z" transform="translate(-135.01 -79.057)"/>
                <path id="Path_818" data-name="Path 818" class="cls-23" d="M136.226 79.832s-2.631 2.994-.151 21.445h13.278c.091-2.027-1.18-11.978.786-21.566a36.558 36.558 0 0 0-4.446-.575 49.836 49.836 0 0 0-5.626 0 24.5 24.5 0 0 0-3.841.696z" transform="translate(-135.01 -79.057)"/>
            </g>
            <path id="Path_819" data-name="Path 819" class="cls-24" d="M138.885 84.665c-.6-1.815-2.057-2.389-3.509-1.3a41.524 41.524 0 0 0-.272 9.044l2.6-.03c-.029-.001 2.058-5.022 1.181-7.714z" transform="translate(-30.359 -37.933)"/>
            <path id="Path_820" data-name="Path 820" class="cls-16" d="M135.515 84.093c-.121.907-.272 1.724-.423 2.571s-.363 1.694-.575 2.541a30.6 30.6 0 0 1-1.754 4.991 12.4 12.4 0 0 1-.665 1.24 4.155 4.155 0 0 1-.393.6 3.989 3.989 0 0 1-.635.786 4.649 4.649 0 0 1-1.633.968 7.306 7.306 0 0 1-1.512.363 12.02 12.02 0 0 1-2.752.03 10.04 10.04 0 0 1-1.331-.181c-.454-.091-.847-.151-1.3-.272l.212-1.845a23.715 23.715 0 0 0 4.567-.665 4.792 4.792 0 0 0 .877-.363 1.4 1.4 0 0 0 .484-.363c-.03.03.212-.393.363-.7l.454-1c.272-.7.514-1.422.756-2.178s.423-1.512.6-2.3.333-1.573.514-2.359c.151-.786.3-1.6.423-2.359z" transform="translate(-27.474 -38.117)"/>
            <g id="Group_585" data-name="Group 585" transform="translate(101.024 42.62)">
                <path id="Path_821" data-name="Path 821" class="cls-13" d="M138.431 81.836c.7 2.269-2.148 9.014-2.148 9.014l-5.989-1.512a27.086 27.086 0 0 1 1.845-6.2c1.966-4.206 5.445-4.024 6.292-1.302z" transform="translate(-130.294 -79.872)"/>
                <path id="Path_822" data-name="Path 822" class="cls-23" d="M138.431 81.836c.7 2.269-2.148 9.014-2.148 9.014l-5.989-1.512a27.086 27.086 0 0 1 1.845-6.2c1.966-4.206 5.445-4.024 6.292-1.302z" transform="translate(-130.294 -79.872)"/>
            </g>
            <path id="Path_823" data-name="Path 823" class="cls-16" d="m122.125 99.572-2.813-.061 1.361 2.934s1.149.151 2.087-1.391l1-1.18-1.149-.242c-.154-.032-.335-.032-.486-.06z" transform="translate(-26.726 -41.801)"/>
            <path id="Path_824" data-name="Path 824" class="cls-16" d="m117.029 100.056 1.6 2.42 1.512-.03-1.361-2.934z" transform="translate(-26.197 -41.801)"/>
            <g id="Group_586" data-name="Group 586" transform="translate(105.168 104.684)">
                <path id="Path_825" data-name="Path 825" class="cls-24" d="m135.687 172.414.121 2.964h2.48l-.121-2.964z" transform="translate(-135.687 -163.37)"/>
                <path id="Path_826" data-name="Path 826" class="cls-24" d="m161.91 160.644-1.936 1.543 2.541 1.754 1.936-1.543z" transform="translate(-141.312 -160.644)"/>
            </g>
            <path id="Path_827" data-name="Path 827" class="cls-16" d="M145.936 67.288c-.151 2.45-.121 3.9-1.361 5.172a4.166 4.166 0 0 1-2.873.877c-.786.06-1.361-.665-1.906-1.906-1.028-2.359-.877-6.5 1.512-7.5a3.382 3.382 0 0 1 4.628 3.357z" transform="translate(-31.331 -33.502)"/>
            <path id="Path_828" data-name="Path 828" class="cls-21" d="M147.9 64.435a1.42 1.42 0 0 1 .877 1.875c-.6 2.238-2.057 4.809-3.9 4.991-2.3.212-3.357-2.178-3.66-4.658-1.391-.938-2.42-1.845-2.087-2.813.514-1.512 2.359-2.843 5.263-2.48 2.936.333 4.388 2.208 3.507 3.085z" transform="translate(-31.302 -32.948)"/>
            <path id="Path_829" data-name="Path 829" d="M143.1 68.608a2.692 2.692 0 0 1-.7 1.633c-.544.6-1.119.212-1.21-.514-.091-.665.091-1.754.756-2.087.667-.303 1.211.212 1.154.968z" transform="translate(-31.789 -34.399)" style="fill:#ffcdcd"/>
            <g id="Group_587" data-name="Group 587" transform="translate(110.181 64.184)">
                <path id="Path_830" data-name="Path 830" class="cls-21" d="M142.431 107.966s-.847 16.727.786 23.8c2.571 11.222 13.944 20.2 13.944 20.2l3.66-2.934s-9.346-6.957-10.193-16.3c-.756-8.378.363-18.027.363-24.8-3.085.034-8.56.034-8.56.034z" transform="translate(-142.211 -107.936)"/>
                <path id="Path_831" data-name="Path 831" class="cls-26" d="M142.431 107.966s-.847 16.727.786 23.8c2.571 11.222 13.944 20.2 13.944 20.2l3.66-2.934s-9.346-6.957-10.193-16.3c-.756-8.378.363-18.027.363-24.8-3.085.034-8.56.034-8.56.034z" transform="translate(-142.211 -107.936)"/>
                <path id="Path_832" data-name="Path 832" class="cls-26" d="M143.673 114.391c-.333-.665-1 1.3-1.452 3.781 0 3.448.061 7.35.363 10.647 2.299-4.235 1.816-13.097 1.089-14.428z" transform="translate(-142.214 -109.4)"/>
            </g>
            <g id="Group_588" data-name="Group 588" transform="translate(101.698 64.214)">
                <path id="Path_833" data-name="Path 833" class="cls-21" d="M135.186 107.975s-3.751 15.849-3.993 23.411c-.3 8.5 2.662 28.493 2.662 28.493h4.2s.514-20.175.7-27.888c.212-8.439 5.142-24.016 5.142-24.016h-8.711z" transform="translate(-131.171 -107.975)"/>
                <path id="Path_834" data-name="Path 834" class="cls-26" d="M135.186 107.975s-3.751 15.849-3.993 23.411c-.3 8.5 2.662 28.493 2.662 28.493h4.2s.514-20.175.7-27.888c.212-8.439 5.142-24.016 5.142-24.016h-8.711z" transform="translate(-131.171 -107.975)"/>
            </g>
        </g>
    </g>
</svg>
