<svg xmlns="http://www.w3.org/2000/svg" width="70" height="70" viewBox="0 0 70 70">
    <defs>
        <clipPath id="clip-path">
            <path id="Rectangle_10157" data-name="Rectangle 10157" style="stroke:#707070;fill:#404040" d="M0 0h70v70H0z"/>
        </clipPath>
        <style>
            .cls-3{fill:#404040}
        </style>
    </defs>
    <g id="Mask_Group_86" data-name="Mask Group 86" style="clip-path:url(#clip-path)">
        <g id="_008-job" data-name="008-job">
            <g id="Group_981" data-name="Group 981" transform="translate(0 15.304)">
                <g id="Group_980" data-name="Group 980">
                    <path id="Path_1603" data-name="Path 1603" class="cls-3" d="M68.633 59.883h-2.188V29.759a1.367 1.367 0 0 0-2.734 0v30.124H6.289v-37.2a4.654 4.654 0 0 1 4.648-4.648h22.194a1.367 1.367 0 1 0 0-2.734H10.937a7.391 7.391 0 0 0-7.383 7.383v37.2H1.367A1.367 1.367 0 0 0 0 61.25v1.777A6.981 6.981 0 0 0 6.973 70h56.054A6.981 6.981 0 0 0 70 63.027V61.25a1.367 1.367 0 0 0-1.367-1.367zm-1.367 3.145a4.243 4.243 0 0 1-4.238 4.238H6.973a4.243 4.243 0 0 1-4.238-4.238v-.41h64.531z" transform="translate(0 -15.304)"/>
                </g>
            </g>
            <g id="Group_983" data-name="Group 983" transform="translate(38.222)">
                <g id="Group_982" data-name="Group 982">
                    <path id="Path_1604" data-name="Path 1604" class="cls-3" d="M58.062 0h-7.9a11.951 11.951 0 0 0-11.94 11.938v.87a12.784 12.784 0 0 0 4.063 9.356v3.47a1.367 1.367 0 0 0 1.949 1.237l3.557-1.671a12.808 12.808 0 0 0 3.239.416h7.032A11.951 11.951 0 0 0 70 13.678v-1.74A11.951 11.951 0 0 0 58.062 0zm9.2 13.678a9.214 9.214 0 0 1-9.2 9.2H51.03a10.075 10.075 0 0 1-2.957-.443 1.367 1.367 0 0 0-.983.07l-2.071.973v-1.927a1.367 1.367 0 0 0-.485-1.044 10.06 10.06 0 0 1-3.578-7.7v-.87a9.214 9.214 0 0 1 9.2-9.2h7.9a9.214 9.214 0 0 1 9.2 9.2z" transform="translate(-38.222)"/>
                </g>
            </g>
            <g id="Group_985" data-name="Group 985" transform="translate(52.744 12.134)">
                <g id="Group_984" data-name="Group 984">
                    <path id="Path_1605" data-name="Path 1605" class="cls-3" d="M54.111 12.134a1.367 1.367 0 0 0-1.367 1.366v3.17a1.367 1.367 0 1 0 2.734 0V13.5a1.367 1.367 0 0 0-1.367-1.366z" transform="translate(-52.744 -12.134)"/>
                </g>
            </g>
            <g id="Group_987" data-name="Group 987" transform="translate(52.743 6.918)">
                <g id="Group_986" data-name="Group 986">
                    <path id="Path_1606" data-name="Path 1606" class="cls-3" d="M55.077 7.319a1.368 1.368 0 1 0 .4.967 1.375 1.375 0 0 0-.4-.967z" transform="translate(-52.743 -6.918)"/>
                </g>
            </g>
            <g id="Group_989" data-name="Group 989" transform="translate(9.441 26.797)">
                <g id="Group_988" data-name="Group 988">
                    <path id="Path_1607" data-name="Path 1607" class="cls-3" d="M18.736 26.8h-5.285a1.367 1.367 0 1 0 0 2.734h1.275v6.487a1.275 1.275 0 1 1-2.551 0 1.367 1.367 0 0 0-2.734 0 4.01 4.01 0 1 0 8.019 0v-6.49h1.275a1.367 1.367 0 1 0 0-2.734z" transform="translate(-9.441 -26.797)"/>
                </g>
            </g>
            <g id="Group_991" data-name="Group 991" transform="translate(19.819 26.797)">
                <g id="Group_990" data-name="Group 990">
                    <path id="Path_1608" data-name="Path 1608" class="cls-3" d="M26.435 26.8a6.616 6.616 0 1 0 6.616 6.616 6.623 6.623 0 0 0-6.616-6.616zm0 10.5a3.881 3.881 0 1 1 3.881-3.881 3.886 3.886 0 0 1-3.881 3.875z" transform="translate(-19.819 -26.797)"/>
                </g>
            </g>
            <g id="Group_993" data-name="Group 993" transform="translate(34.916 26.797)">
                <g id="Group_992" data-name="Group 992">
                    <path id="Path_1609" data-name="Path 1609" class="cls-3" d="M42.935 30.9a4.106 4.106 0 0 0-4.1-4.1h-2.552a1.367 1.367 0 0 0-1.367 1.367V39.1a1.367 1.367 0 0 0 1.367 1.367h2.551a4.1 4.1 0 0 0 3.054-6.836 4.085 4.085 0 0 0 1.047-2.731zm-4.1 6.836H37.65V35h1.184a1.367 1.367 0 1 1 0 2.734zm0-5.469H37.65v-2.736h1.184a1.367 1.367 0 1 1 0 2.734z" transform="translate(-34.916 -26.797)"/>
                </g>
            </g>
            <g id="Group_995" data-name="Group 995" transform="translate(14.726 44.559)">
                <g id="Group_994" data-name="Group 994">
                    <path id="Path_1610" data-name="Path 1610" class="cls-3" d="M41.691 44.559h-25.6a1.367 1.367 0 1 0 0 2.734h25.6a1.367 1.367 0 0 0 0-2.734z" transform="translate(-14.726 -44.559)"/>
                </g>
            </g>
            <g id="Group_997" data-name="Group 997" transform="translate(9.442 44.559)">
                <g id="Group_996" data-name="Group 996">
                    <path id="Path_1611" data-name="Path 1611" class="cls-3" d="M11.775 44.96a1.366 1.366 0 1 0 .4.967 1.372 1.372 0 0 0-.4-.967z" transform="translate(-9.442 -44.559)"/>
                </g>
            </g>
            <g id="Group_999" data-name="Group 999" transform="translate(47.289 44.559)">
                <g id="Group_998" data-name="Group 998">
                    <path id="Path_1612" data-name="Path 1612" class="cls-3" d="M59.191 44.559H48.657a1.367 1.367 0 0 0 0 2.734h10.534a1.367 1.367 0 1 0 0-2.734z" transform="translate(-47.289 -44.559)"/>
                </g>
            </g>
            <g id="Group_1001" data-name="Group 1001" transform="translate(9.441 51.133)">
                <g id="Group_1000" data-name="Group 1000">
                    <path id="Path_1613" data-name="Path 1613" class="cls-3" d="M41.691 51.133H10.809a1.367 1.367 0 0 0 0 2.734h30.882a1.367 1.367 0 0 0 0-2.734z" transform="translate(-9.441 -51.133)"/>
                </g>
            </g>
            <g id="Group_1003" data-name="Group 1003" transform="translate(47.289 51.133)">
                <g id="Group_1002" data-name="Group 1002">
                    <path id="Path_1614" data-name="Path 1614" class="cls-3" d="M59.191 51.133H48.657a1.367 1.367 0 0 0 0 2.734h10.534a1.367 1.367 0 1 0 0-2.734z" transform="translate(-47.289 -51.133)"/>
                </g>
            </g>
        </g>
    </g>
</svg>
