<svg xmlns="http://www.w3.org/2000/svg" width="70" height="70">
    <defs>
        <clipPath id="clip-path">
            <path id="Rectangle_2632" data-name="Rectangle 2632" transform="translate(360 1312)" style="stroke:#707070;fill:#2d9735" d="M0 0h70v70H0z"/>
        </clipPath>
        <style>
            .cls-3{fill:#2d9735}
        </style>
    </defs>
    <g id="Mask_Group_33" data-name="Mask Group 33" transform="translate(-360 -1312)" style="clip-path:url(#clip-path)">
        <g id="news" transform="translate(362.356 1282.974)">
            <path id="Rectangle_2633" data-name="Rectangle 2633" class="cls-3" transform="translate(5.721 34.411)" d="M0 0h2.692v2.692H0z"/>
            <path id="Rectangle_2634" data-name="Rectangle 2634" class="cls-3" transform="translate(11.106 34.411)" d="M0 0h2.692v2.692H0z"/>
            <path id="Rectangle_2635" data-name="Rectangle 2635" class="cls-3" transform="translate(16.49 34.411)" d="M0 0h2.692v2.692H0z"/>
            <path id="Path_569" data-name="Path 569" class="cls-3" d="M23.221 47.873H7.067a1.35 1.35 0 0 0-1.346 1.346V62.68a1.35 1.35 0 0 0 1.346 1.346h16.154a1.35 1.35 0 0 0 1.346-1.346V49.219a1.35 1.35 0 0 0-1.346-1.346zm-1.346 13.461H8.413V50.565h13.462z"/>
            <path id="Rectangle_2636" data-name="Rectangle 2636" class="cls-3" transform="translate(29.952 47.873)" d="M0 0h5.385v2.692H0z"/>
            <path id="Rectangle_2637" data-name="Rectangle 2637" class="cls-3" transform="translate(38.029 47.873)" d="M0 0h21.538v2.692H0z"/>
            <path id="Rectangle_2638" data-name="Rectangle 2638" class="cls-3" transform="translate(29.952 53.257)" d="M0 0h29.615v2.692H0z"/>
            <path id="Rectangle_2639" data-name="Rectangle 2639" class="cls-3" transform="translate(29.952 58.642)" d="M0 0h13.462v2.692H0z"/>
            <path id="Rectangle_2640" data-name="Rectangle 2640" class="cls-3" transform="translate(46.106 58.642)" d="M0 0h8.077v2.692H0z"/>
            <path id="Rectangle_2641" data-name="Rectangle 2641" class="cls-3" transform="translate(5.721 69.411)" d="M0 0h18.846v2.692H0z"/>
            <path id="Rectangle_2642" data-name="Rectangle 2642" class="cls-3" transform="translate(5.721 74.796)" d="M0 0h18.846v2.692H0z"/>
            <path id="Rectangle_2643" data-name="Rectangle 2643" class="cls-3" transform="translate(5.721 80.18)" d="M0 0h18.846v2.692H0z"/>
            <path id="Rectangle_2644" data-name="Rectangle 2644" class="cls-3" transform="translate(5.721 85.565)" d="M0 0h18.846v2.692H0z"/>
            <path id="Path_570" data-name="Path 570" class="cls-3" d="M64.952 61.418v4.24l1.834-3.18z"/>
            <path id="Path_571" data-name="Path 571" class="cls-3" d="M31.3 69.411a1.35 1.35 0 0 0-1.346 1.346v16.154a1.35 1.35 0 0 0 1.346 1.346h1.329V69.411z"/>
            <path id="Path_572" data-name="Path 572" class="cls-3" d="M35.337 69.428V72.1h19.687l1.531-2.675z"/>
            <path id="Path_573" data-name="Path 573" class="cls-3" d="m58.12 72.1-1.228 2.12v5.385l2.675-4.627V69.6z"/>
            <path id="Path_574" data-name="Path 574" class="cls-3" d="m59.029 81.308-2.12-1.228v3.113l.538.32-.538.269v1.8H35.337v2.675h13.512a1.2 1.2 0 0 1 .135-.3l1.346-2.339 2.339 1.346-.74 1.3h3.1l.438-.757 1.43-.707 2.44-1.212.118-.05a.732.732 0 0 0 .118-.067v-5.089z"/>
            <path id="Path_575" data-name="Path 575" class="cls-3" d="M64.952 61.418v4.24l1.834-3.18z"/>
            <path id="Path_576" data-name="Path 576" class="cls-3" d="M64.952 61.418v4.24l1.834-3.18z"/>
            <path id="Path_577" data-name="Path 577" class="cls-3" d="m59.029 81.308-2.12-1.228v3.113l.538.32-.538.269v1.8H35.337v2.675h13.512a1.2 1.2 0 0 1 .135-.3l1.346-2.339 2.339 1.346-.74 1.3h3.1l.438-.757 1.43-.707 2.44-1.212.118-.05a.732.732 0 0 0 .118-.067v-5.089z"/>
            <path id="Path_578" data-name="Path 578" class="cls-3" d="m58.12 72.1-1.228 2.12v5.385l2.675-4.627V69.6z"/>
            <path id="Path_579" data-name="Path 579" class="cls-3" d="M35.337 69.428V72.1h19.687l1.531-2.675z"/>
            <path id="Path_580" data-name="Path 580" class="cls-3" d="M31.3 69.411a1.35 1.35 0 0 0-1.346 1.346v16.154a1.35 1.35 0 0 0 1.346 1.346h1.329V69.411z"/>
            <path id="Path_581" data-name="Path 581" class="cls-3" d="M31.3 69.411a1.35 1.35 0 0 0-1.346 1.346v16.154a1.35 1.35 0 0 0 1.346 1.346h1.329V69.411z"/>
            <path id="Path_582" data-name="Path 582" class="cls-3" d="M35.337 69.428V72.1h19.687l1.531-2.675z"/>
            <path id="Path_583" data-name="Path 583" class="cls-3" d="m58.12 72.1-1.228 2.12v5.385l2.675-4.627V69.6z"/>
            <path id="Path_584" data-name="Path 584" class="cls-3" d="m59.029 81.308-2.12-1.228v3.113l.538.32-.538.269v1.8H35.337v2.675h13.512a1.2 1.2 0 0 1 .135-.3l1.346-2.339 2.339 1.346-.74 1.3h3.1l.438-.757 1.43-.707 2.44-1.212.118-.05a.732.732 0 0 0 .118-.067v-5.089z"/>
            <path id="Path_585" data-name="Path 585" class="cls-3" d="M64.952 61.418v4.24l1.834-3.18z"/>
            <path id="Path_586" data-name="Path 586" class="cls-3" d="M64.952 61.418v4.24l1.834-3.18z"/>
            <path id="Path_587" data-name="Path 587" class="cls-3" d="M56.892 80.079v3.113l.538.32-.538.269v1.8H35.337v2.675h13.512a1.2 1.2 0 0 1 .135-.3l1.346-2.339 2.339 1.346-.74 1.3h3.1l.438-.757 1.43-.707 2.44-1.212.118-.05a.732.732 0 0 0 .118-.067v-5.088l-.538.942z"/>
            <path id="Path_588" data-name="Path 588" class="cls-3" d="M56.892 74.224v5.385l2.675-4.627V69.6l-1.447 2.5z"/>
            <path id="Path_589" data-name="Path 589" class="cls-3" d="M56.555 69.428H35.337V72.1h19.687z"/>
            <path id="Path_590" data-name="Path 590" class="cls-3" d="M29.952 70.757v16.154a1.35 1.35 0 0 0 1.348 1.346h1.329V69.411H31.3a1.35 1.35 0 0 0-1.348 1.346z"/>
            <g id="Group_319" data-name="Group 319">
                <path id="Rectangle_2645" data-name="Rectangle 2645" class="cls-3" transform="translate(5.721 34.411)" d="M0 0h2.692v2.692H0z"/>
                <path id="Rectangle_2646" data-name="Rectangle 2646" class="cls-3" transform="translate(11.106 34.411)" d="M0 0h2.692v2.692H0z"/>
                <path id="Rectangle_2647" data-name="Rectangle 2647" class="cls-3" transform="translate(16.49 34.411)" d="M0 0h2.692v2.692H0z"/>
                <path id="Path_591" data-name="Path 591" class="cls-3" d="M63.606 29.026H1.683a4.039 4.039 0 0 0-4.038 4.038v61.924a4.039 4.039 0 0 0 4.038 4.038h61.923a4.05 4.05 0 0 0 4.038-4.038V66.382l-2.692 4.661v23.945a1.35 1.35 0 0 1-1.346 1.346H1.683a1.35 1.35 0 0 1-1.346-1.346v-52.45h64.615v12.351l.538-.925 2.154 1.228v-3.113l-.808-.471.673-1.161a1.536 1.536 0 0 1 .135-.219V33.065a4.029 4.029 0 0 0-4.038-4.039zM.337 39.846v-6.781a1.35 1.35 0 0 1 1.346-1.346h61.923a1.35 1.35 0 0 1 1.346 1.346v6.781z"/>
                <path id="Rectangle_2648" data-name="Rectangle 2648" class="cls-3" transform="translate(5.721 34.411)" d="M0 0h2.692v2.692H0z"/>
                <path id="Rectangle_2649" data-name="Rectangle 2649" class="cls-3" transform="translate(11.106 34.411)" d="M0 0h2.692v2.692H0z"/>
                <path id="Rectangle_2650" data-name="Rectangle 2650" class="cls-3" transform="translate(16.49 34.411)" d="M0 0h2.692v2.692H0z"/>
            </g>
            <path id="Path_592" data-name="Path 592" class="cls-3" d="m64.952 58.305 2.692 1.548v-3.1l-2.692-1.565z"/>
            <path id="Path_593" data-name="Path 593" class="cls-3" d="m64.952 65.659 1.834-3.18-1.834-1.06z"/>
            <path id="Path_594" data-name="Path 594" class="cls-3" d="m59.567 69.6-1.447 2.5-1.228 2.12v5.385l2.675-4.627z"/>
            <path id="Path_595" data-name="Path 595" class="cls-3" d="m55.024 88.24.438-.757 1.43-.707 2.44-1.212.118-.05a.733.733 0 0 0 .118-.067v-5.082l-.538.942-2.12-1.228v3.113l.538.32-.538.269v1.8H35.337v2.675h13.512a1.2 1.2 0 0 1 .135-.3l1.346-2.339 2.339 1.346-.74 1.3h3.1z"/>
            <path id="Path_596" data-name="Path 596" class="cls-3" d="M35.337 69.428V72.1h19.687l1.531-2.675z"/>
            <path id="Path_597" data-name="Path 597" class="cls-3" d="M29.952 70.757v16.154a1.35 1.35 0 0 0 1.348 1.346h1.329V69.411H31.3a1.35 1.35 0 0 0-1.348 1.346z"/>
            <path id="Path_598" data-name="Path 598" class="cls-3" d="M31.3 69.411a1.35 1.35 0 0 0-1.346 1.346v16.154a1.35 1.35 0 0 0 1.346 1.346h1.329V69.411z"/>
            <path id="Path_599" data-name="Path 599" class="cls-3" d="M35.337 69.428V72.1h19.687l1.531-2.675z"/>
            <path id="Path_600" data-name="Path 600" class="cls-3" d="m58.12 72.1-1.228 2.12v5.385l2.675-4.627V69.6z"/>
            <path id="Path_601" data-name="Path 601" class="cls-3" d="m59.029 81.308-2.12-1.228v3.113l.538.32-.538.269v1.8H35.337v2.675h13.512a1.2 1.2 0 0 1 .135-.3l1.346-2.339 2.339 1.346-.74 1.3h3.1l.438-.757 1.43-.707 2.44-1.212.118-.05a.732.732 0 0 0 .118-.067v-5.089z"/>
            <path id="Path_602" data-name="Path 602" class="cls-3" d="M64.952 61.418v4.24l1.834-3.18z"/>
            <path id="Path_603" data-name="Path 603" class="cls-3" d="M64.952 61.418v4.24l1.834-3.18z"/>
            <path id="Path_604" data-name="Path 604" class="cls-3" d="m59.029 81.308-2.12-1.228v3.113l.538.32-.538.269v1.8H35.337v2.675h13.512a1.2 1.2 0 0 1 .135-.3l1.346-2.339 2.339 1.346-.74 1.3h3.1l.438-.757 1.43-.707 2.44-1.212.118-.05a.732.732 0 0 0 .118-.067v-5.089z"/>
            <path id="Path_605" data-name="Path 605" class="cls-3" d="m58.12 72.1-1.228 2.12v5.385l2.675-4.627V69.6z"/>
            <path id="Path_606" data-name="Path 606" class="cls-3" d="M35.337 69.428V72.1h19.687l1.531-2.675z"/>
            <path id="Path_607" data-name="Path 607" class="cls-3" d="M31.3 69.411a1.35 1.35 0 0 0-1.346 1.346v16.154a1.35 1.35 0 0 0 1.346 1.346h1.329V69.411z"/>
            <path id="Path_608" data-name="Path 608" class="cls-3" d="M31.3 69.411a1.35 1.35 0 0 0-1.346 1.346v16.154a1.35 1.35 0 0 0 1.346 1.346h1.329V69.411z"/>
            <path id="Path_609" data-name="Path 609" class="cls-3" d="M35.337 69.428V72.1h19.687l1.531-2.675z"/>
            <path id="Path_610" data-name="Path 610" class="cls-3" d="m58.12 72.1-1.228 2.12v5.385l2.675-4.627V69.6z"/>
            <path id="Path_611" data-name="Path 611" class="cls-3" d="m59.029 81.308-2.12-1.228v3.113l.538.32-.538.269v1.8H35.337v2.675h13.512a1.2 1.2 0 0 1 .135-.3l1.346-2.339 2.339 1.346-.74 1.3h3.1l.438-.757 1.43-.707 2.44-1.212.118-.05a.732.732 0 0 0 .118-.067v-5.089z"/>
            <path id="Path_612" data-name="Path 612" class="cls-3" d="M64.952 61.418v4.24l1.834-3.18z"/>
            <path id="Path_613" data-name="Path 613" class="cls-3" d="M64.952 61.418v4.24l1.834-3.18z"/>
            <path id="Path_614" data-name="Path 614" class="cls-3" d="m59.029 81.308-2.12-1.228v3.113l.538.32-.538.269v1.8H35.337v2.675h13.512a1.2 1.2 0 0 1 .135-.3l1.346-2.339 2.339 1.346-.74 1.3h3.1l.438-.757 1.43-.707 2.44-1.212.118-.05a.732.732 0 0 0 .118-.067v-5.089z"/>
            <path id="Path_615" data-name="Path 615" class="cls-3" d="m58.12 72.1-1.228 2.12v5.385l2.675-4.627V69.6z"/>
            <path id="Path_616" data-name="Path 616" class="cls-3" d="M35.337 69.428V72.1h19.687l1.531-2.675z"/>
            <path id="Path_617" data-name="Path 617" class="cls-3" d="M31.3 69.411a1.35 1.35 0 0 0-1.346 1.346v16.154a1.35 1.35 0 0 0 1.346 1.346h1.329V69.411z"/>
            <path id="Rectangle_2651" data-name="Rectangle 2651" class="cls-3" transform="translate(64.952 44.692)" d="M0 0h2.692v39.409H0z"/>
            <path id="Rectangle_2652" data-name="Rectangle 2652" class="cls-3" transform="translate(29.952 69.428)" d="M0 0h29.615v2.675H0z"/>
            <path id="Path_618" data-name="Path 618" class="cls-3" d="M59.567 88.24V69.428h-2.675V88.24z"/>
            <path id="Path_619" data-name="Path 619" class="cls-3" d="M32.627 69.411v18.846H31.3a1.35 1.35 0 0 1-1.346-1.346V70.757a1.35 1.35 0 0 1 1.346-1.346z"/>
            <path id="Rectangle_2653" data-name="Rectangle 2653" class="cls-3" transform="translate(29.952 85.582)" d="M0 0h29.615v2.675H0z"/>
        </g>
    </g>
</svg>
