<svg xmlns="http://www.w3.org/2000/svg" width="70" height="70" viewBox="0 0 70 70">
    <defs>
        <clipPath id="clip-path">
            <path id="Rectangle_10155" data-name="Rectangle 10155" transform="translate(360 1312)" style="stroke:#707070;fill:#404040" d="M0 0h70v70H0z"/>
        </clipPath>
        <style>
            .cls-3{fill:#404040}
        </style>
    </defs>
    <g id="Mask_Group_84" data-name="Mask Group 84" transform="translate(-360 -1312)" style="clip-path:url(#clip-path)">
        <g id="news" transform="translate(362.356 1282.974)">
            <path id="Rectangle_10134" data-name="Rectangle 10134" class="cls-3" transform="translate(5.721 34.411)" d="M0 0h2.692v2.692H0z"/>
            <path id="Rectangle_10135" data-name="Rectangle 10135" class="cls-3" transform="translate(11.106 34.411)" d="M0 0h2.692v2.692H0z"/>
            <path id="Rectangle_10136" data-name="Rectangle 10136" class="cls-3" transform="translate(16.49 34.411)" d="M0 0h2.692v2.692H0z"/>
            <path id="Path_1547" data-name="Path 1547" class="cls-3" d="M23.221 47.873H7.067a1.35 1.35 0 0 0-1.346 1.346V62.68a1.35 1.35 0 0 0 1.346 1.346h16.154a1.35 1.35 0 0 0 1.346-1.346V49.219a1.35 1.35 0 0 0-1.346-1.346zm-1.346 13.461H8.413V50.565h13.462z"/>
            <path id="Rectangle_10137" data-name="Rectangle 10137" class="cls-3" transform="translate(29.952 47.873)" d="M0 0h5.385v2.692H0z"/>
            <path id="Rectangle_10138" data-name="Rectangle 10138" class="cls-3" transform="translate(38.029 47.873)" d="M0 0h21.538v2.692H0z"/>
            <path id="Rectangle_10139" data-name="Rectangle 10139" class="cls-3" transform="translate(29.952 53.257)" d="M0 0h29.615v2.692H0z"/>
            <path id="Rectangle_10140" data-name="Rectangle 10140" class="cls-3" transform="translate(29.952 58.642)" d="M0 0h13.462v2.692H0z"/>
            <path id="Rectangle_10141" data-name="Rectangle 10141" class="cls-3" transform="translate(46.106 58.642)" d="M0 0h8.077v2.692H0z"/>
            <path id="Rectangle_10142" data-name="Rectangle 10142" class="cls-3" transform="translate(5.721 69.411)" d="M0 0h18.846v2.692H0z"/>
            <path id="Rectangle_10143" data-name="Rectangle 10143" class="cls-3" transform="translate(5.721 74.796)" d="M0 0h18.846v2.692H0z"/>
            <path id="Rectangle_10144" data-name="Rectangle 10144" class="cls-3" transform="translate(5.721 80.18)" d="M0 0h18.846v2.692H0z"/>
            <path id="Rectangle_10145" data-name="Rectangle 10145" class="cls-3" transform="translate(5.721 85.565)" d="M0 0h18.846v2.692H0z"/>
            <path id="Path_1548" data-name="Path 1548" class="cls-3" d="M64.952 61.418v4.24l1.834-3.18z"/>
            <path id="Path_1549" data-name="Path 1549" class="cls-3" d="M31.3 69.411a1.35 1.35 0 0 0-1.346 1.346v16.154a1.35 1.35 0 0 0 1.346 1.346h1.329V69.411z"/>
            <path id="Path_1550" data-name="Path 1550" class="cls-3" d="M35.337 69.428V72.1h19.687l1.531-2.675z"/>
            <path id="Path_1551" data-name="Path 1551" class="cls-3" d="m58.12 72.1-1.228 2.12v5.385l2.675-4.627V69.6z"/>
            <path id="Path_1552" data-name="Path 1552" class="cls-3" d="m59.029 81.308-2.12-1.228v3.113l.538.32-.538.269v1.8H35.337v2.675h13.512a1.2 1.2 0 0 1 .135-.3l1.346-2.339 2.339 1.346-.74 1.3h3.1l.438-.757 1.43-.707 2.44-1.212.118-.05a.732.732 0 0 0 .118-.067v-5.089z"/>
            <path id="Path_1553" data-name="Path 1553" class="cls-3" d="M64.952 61.418v4.24l1.834-3.18z"/>
            <path id="Path_1554" data-name="Path 1554" class="cls-3" d="M64.952 61.418v4.24l1.834-3.18z"/>
            <path id="Path_1555" data-name="Path 1555" class="cls-3" d="m59.029 81.308-2.12-1.228v3.113l.538.32-.538.269v1.8H35.337v2.675h13.512a1.2 1.2 0 0 1 .135-.3l1.346-2.339 2.339 1.346-.74 1.3h3.1l.438-.757 1.43-.707 2.44-1.212.118-.05a.732.732 0 0 0 .118-.067v-5.089z"/>
            <path id="Path_1556" data-name="Path 1556" class="cls-3" d="m58.12 72.1-1.228 2.12v5.385l2.675-4.627V69.6z"/>
            <path id="Path_1557" data-name="Path 1557" class="cls-3" d="M35.337 69.428V72.1h19.687l1.531-2.675z"/>
            <path id="Path_1558" data-name="Path 1558" class="cls-3" d="M31.3 69.411a1.35 1.35 0 0 0-1.346 1.346v16.154a1.35 1.35 0 0 0 1.346 1.346h1.329V69.411z"/>
            <path id="Path_1559" data-name="Path 1559" class="cls-3" d="M31.3 69.411a1.35 1.35 0 0 0-1.346 1.346v16.154a1.35 1.35 0 0 0 1.346 1.346h1.329V69.411z"/>
            <path id="Path_1560" data-name="Path 1560" class="cls-3" d="M35.337 69.428V72.1h19.687l1.531-2.675z"/>
            <path id="Path_1561" data-name="Path 1561" class="cls-3" d="m58.12 72.1-1.228 2.12v5.385l2.675-4.627V69.6z"/>
            <path id="Path_1562" data-name="Path 1562" class="cls-3" d="m59.029 81.308-2.12-1.228v3.113l.538.32-.538.269v1.8H35.337v2.675h13.512a1.2 1.2 0 0 1 .135-.3l1.346-2.339 2.339 1.346-.74 1.3h3.1l.438-.757 1.43-.707 2.44-1.212.118-.05a.732.732 0 0 0 .118-.067v-5.089z"/>
            <path id="Path_1563" data-name="Path 1563" class="cls-3" d="M64.952 61.418v4.24l1.834-3.18z"/>
            <path id="Path_1564" data-name="Path 1564" class="cls-3" d="M64.952 61.418v4.24l1.834-3.18z"/>
            <path id="Path_1565" data-name="Path 1565" class="cls-3" d="M56.892 80.079v3.113l.538.32-.538.269v1.8H35.337v2.675h13.512a1.2 1.2 0 0 1 .135-.3l1.346-2.339 2.339 1.346-.74 1.3h3.1l.438-.757 1.43-.707 2.44-1.212.118-.05a.732.732 0 0 0 .118-.067v-5.088l-.538.942z"/>
            <path id="Path_1566" data-name="Path 1566" class="cls-3" d="M56.892 74.224v5.385l2.675-4.627V69.6l-1.447 2.5z"/>
            <path id="Path_1567" data-name="Path 1567" class="cls-3" d="M56.555 69.428H35.337V72.1h19.687z"/>
            <path id="Path_1568" data-name="Path 1568" class="cls-3" d="M29.952 70.757v16.154a1.35 1.35 0 0 0 1.348 1.346h1.329V69.411H31.3a1.35 1.35 0 0 0-1.348 1.346z"/>
            <g id="Group_969" data-name="Group 969">
                <path id="Rectangle_10146" data-name="Rectangle 10146" class="cls-3" transform="translate(5.721 34.411)" d="M0 0h2.692v2.692H0z"/>
                <path id="Rectangle_10147" data-name="Rectangle 10147" class="cls-3" transform="translate(11.106 34.411)" d="M0 0h2.692v2.692H0z"/>
                <path id="Rectangle_10148" data-name="Rectangle 10148" class="cls-3" transform="translate(16.49 34.411)" d="M0 0h2.692v2.692H0z"/>
                <path id="Path_1569" data-name="Path 1569" class="cls-3" d="M63.606 29.026H1.683a4.039 4.039 0 0 0-4.038 4.038v61.924a4.039 4.039 0 0 0 4.038 4.038h61.923a4.05 4.05 0 0 0 4.038-4.038V66.382l-2.692 4.661v23.945a1.35 1.35 0 0 1-1.346 1.346H1.683a1.35 1.35 0 0 1-1.346-1.346v-52.45h64.615v12.351l.538-.925 2.154 1.228v-3.113l-.808-.471.673-1.161a1.536 1.536 0 0 1 .135-.219V33.065a4.029 4.029 0 0 0-4.038-4.039zM.337 39.846v-6.781a1.35 1.35 0 0 1 1.346-1.346h61.923a1.35 1.35 0 0 1 1.346 1.346v6.781z"/>
                <path id="Rectangle_10149" data-name="Rectangle 10149" class="cls-3" transform="translate(5.721 34.411)" d="M0 0h2.692v2.692H0z"/>
                <path id="Rectangle_10150" data-name="Rectangle 10150" class="cls-3" transform="translate(11.106 34.411)" d="M0 0h2.692v2.692H0z"/>
                <path id="Rectangle_10151" data-name="Rectangle 10151" class="cls-3" transform="translate(16.49 34.411)" d="M0 0h2.692v2.692H0z"/>
            </g>
            <path id="Path_1570" data-name="Path 1570" class="cls-3" d="m64.952 58.305 2.692 1.548v-3.1l-2.692-1.565z"/>
            <path id="Path_1571" data-name="Path 1571" class="cls-3" d="m64.952 65.659 1.834-3.18-1.834-1.06z"/>
            <path id="Path_1572" data-name="Path 1572" class="cls-3" d="m59.567 69.6-1.447 2.5-1.228 2.12v5.385l2.675-4.627z"/>
            <path id="Path_1573" data-name="Path 1573" class="cls-3" d="m55.024 88.24.438-.757 1.43-.707 2.44-1.212.118-.05a.733.733 0 0 0 .118-.067v-5.082l-.538.942-2.12-1.228v3.113l.538.32-.538.269v1.8H35.337v2.675h13.512a1.2 1.2 0 0 1 .135-.3l1.346-2.339 2.339 1.346-.74 1.3h3.1z"/>
            <path id="Path_1574" data-name="Path 1574" class="cls-3" d="M35.337 69.428V72.1h19.687l1.531-2.675z"/>
            <path id="Path_1575" data-name="Path 1575" class="cls-3" d="M29.952 70.757v16.154a1.35 1.35 0 0 0 1.348 1.346h1.329V69.411H31.3a1.35 1.35 0 0 0-1.348 1.346z"/>
            <path id="Path_1576" data-name="Path 1576" class="cls-3" d="M31.3 69.411a1.35 1.35 0 0 0-1.346 1.346v16.154a1.35 1.35 0 0 0 1.346 1.346h1.329V69.411z"/>
            <path id="Path_1577" data-name="Path 1577" class="cls-3" d="M35.337 69.428V72.1h19.687l1.531-2.675z"/>
            <path id="Path_1578" data-name="Path 1578" class="cls-3" d="m58.12 72.1-1.228 2.12v5.385l2.675-4.627V69.6z"/>
            <path id="Path_1579" data-name="Path 1579" class="cls-3" d="m59.029 81.308-2.12-1.228v3.113l.538.32-.538.269v1.8H35.337v2.675h13.512a1.2 1.2 0 0 1 .135-.3l1.346-2.339 2.339 1.346-.74 1.3h3.1l.438-.757 1.43-.707 2.44-1.212.118-.05a.732.732 0 0 0 .118-.067v-5.089z"/>
            <path id="Path_1580" data-name="Path 1580" class="cls-3" d="M64.952 61.418v4.24l1.834-3.18z"/>
            <path id="Path_1581" data-name="Path 1581" class="cls-3" d="M64.952 61.418v4.24l1.834-3.18z"/>
            <path id="Path_1582" data-name="Path 1582" class="cls-3" d="m59.029 81.308-2.12-1.228v3.113l.538.32-.538.269v1.8H35.337v2.675h13.512a1.2 1.2 0 0 1 .135-.3l1.346-2.339 2.339 1.346-.74 1.3h3.1l.438-.757 1.43-.707 2.44-1.212.118-.05a.732.732 0 0 0 .118-.067v-5.089z"/>
            <path id="Path_1583" data-name="Path 1583" class="cls-3" d="m58.12 72.1-1.228 2.12v5.385l2.675-4.627V69.6z"/>
            <path id="Path_1584" data-name="Path 1584" class="cls-3" d="M35.337 69.428V72.1h19.687l1.531-2.675z"/>
            <path id="Path_1585" data-name="Path 1585" class="cls-3" d="M31.3 69.411a1.35 1.35 0 0 0-1.346 1.346v16.154a1.35 1.35 0 0 0 1.346 1.346h1.329V69.411z"/>
            <path id="Path_1586" data-name="Path 1586" class="cls-3" d="M31.3 69.411a1.35 1.35 0 0 0-1.346 1.346v16.154a1.35 1.35 0 0 0 1.346 1.346h1.329V69.411z"/>
            <path id="Path_1587" data-name="Path 1587" class="cls-3" d="M35.337 69.428V72.1h19.687l1.531-2.675z"/>
            <path id="Path_1588" data-name="Path 1588" class="cls-3" d="m58.12 72.1-1.228 2.12v5.385l2.675-4.627V69.6z"/>
            <path id="Path_1589" data-name="Path 1589" class="cls-3" d="m59.029 81.308-2.12-1.228v3.113l.538.32-.538.269v1.8H35.337v2.675h13.512a1.2 1.2 0 0 1 .135-.3l1.346-2.339 2.339 1.346-.74 1.3h3.1l.438-.757 1.43-.707 2.44-1.212.118-.05a.732.732 0 0 0 .118-.067v-5.089z"/>
            <path id="Path_1590" data-name="Path 1590" class="cls-3" d="M64.952 61.418v4.24l1.834-3.18z"/>
            <path id="Path_1591" data-name="Path 1591" class="cls-3" d="M64.952 61.418v4.24l1.834-3.18z"/>
            <path id="Path_1592" data-name="Path 1592" class="cls-3" d="m59.029 81.308-2.12-1.228v3.113l.538.32-.538.269v1.8H35.337v2.675h13.512a1.2 1.2 0 0 1 .135-.3l1.346-2.339 2.339 1.346-.74 1.3h3.1l.438-.757 1.43-.707 2.44-1.212.118-.05a.732.732 0 0 0 .118-.067v-5.089z"/>
            <path id="Path_1593" data-name="Path 1593" class="cls-3" d="m58.12 72.1-1.228 2.12v5.385l2.675-4.627V69.6z"/>
            <path id="Path_1594" data-name="Path 1594" class="cls-3" d="M35.337 69.428V72.1h19.687l1.531-2.675z"/>
            <path id="Path_1595" data-name="Path 1595" class="cls-3" d="M31.3 69.411a1.35 1.35 0 0 0-1.346 1.346v16.154a1.35 1.35 0 0 0 1.346 1.346h1.329V69.411z"/>
            <path id="Rectangle_10152" data-name="Rectangle 10152" class="cls-3" transform="translate(64.952 44.692)" d="M0 0h2.692v39.409H0z"/>
            <path id="Rectangle_10153" data-name="Rectangle 10153" class="cls-3" transform="translate(29.952 69.428)" d="M0 0h29.615v2.675H0z"/>
            <path id="Path_1596" data-name="Path 1596" class="cls-3" d="M59.567 88.24V69.428h-2.675V88.24z"/>
            <path id="Path_1597" data-name="Path 1597" class="cls-3" d="M32.627 69.411v18.846H31.3a1.35 1.35 0 0 1-1.346-1.346V70.757a1.35 1.35 0 0 1 1.346-1.346z"/>
            <path id="Rectangle_10154" data-name="Rectangle 10154" class="cls-3" transform="translate(29.952 85.582)" d="M0 0h29.615v2.675H0z"/>
        </g>
    </g>
</svg>
