<svg xmlns="http://www.w3.org/2000/svg" width="70" height="70">
    <defs>
        <clipPath id="clip-path">
            <path id="Rectangle_2656" data-name="Rectangle 2656" transform="translate(360 1493)" style="stroke:#707070;fill:#2d9735" d="M0 0h70v70H0z"/>
        </clipPath>
        <style>
            .cls-3{fill:#2d9735}
        </style>
    </defs>
    <g id="Mask_Group_36" data-name="Mask Group 36" transform="translate(-360 -1493)" style="clip-path:url(#clip-path)">
        <g id="_001-share" data-name="001-share" transform="translate(360 1493)">
            <g id="Group_345" data-name="Group 345">
                <g id="Group_344" data-name="Group 344">
                    <path id="Path_646" data-name="Path 646" class="cls-3" d="M46.352 13.526a1.368 1.368 0 1 0 .4.968 1.376 1.376 0 0 0-.4-.968z"/>
                </g>
            </g>
            <g id="Group_347" data-name="Group 347">
                <g id="Group_346" data-name="Group 346">
                    <path id="Path_647" data-name="Path 647" class="cls-3" d="M25.5 34.535a1.366 1.366 0 1 0 .4.967 1.378 1.378 0 0 0-.4-.967z"/>
                </g>
            </g>
            <g id="Group_349" data-name="Group 349">
                <g id="Group_348" data-name="Group 348">
                    <path id="Path_648" data-name="Path 648" class="cls-3" d="M59.883.062A10.117 10.117 0 1 0 70 10.18 10.129 10.129 0 0 0 59.883.062zm4.864 15.664a7.362 7.362 0 0 1-9.728 0v-.006a1.354 1.354 0 0 1 1.106-1.331l.926-.173a4.321 4.321 0 0 0 5.665 0l.926.173a1.354 1.354 0 0 1 1.106 1.331zm-6.465-4.786v-.928a1.6 1.6 0 0 1 3.2 0v.928a1.6 1.6 0 0 1-3.2 0zm8.332 2.266a4.081 4.081 0 0 0-2.466-1.5 4.344 4.344 0 0 0 .069-.763v-.928a4.335 4.335 0 0 0-8.669 0v.928a4.332 4.332 0 0 0 .069.763 4.081 4.081 0 0 0-2.466 1.5 7.383 7.383 0 1 1 13.464 0z"/>
                </g>
            </g>
            <g id="Group_351" data-name="Group 351">
                <g id="Group_350" data-name="Group 350">
                    <path id="Path_649" data-name="Path 649" class="cls-3" d="M46.189 44.234a12.789 12.789 0 0 0-8.055 2.846l-9.274-9.211a1.367 1.367 0 0 0-1.927 1.94l9.265 9.2a12.846 12.846 0 1 0 9.99-4.777zM53 64.56a10.1 10.1 0 0 1-13.623 0v-.2a2.2 2.2 0 0 1 1.8-2.167l1.422-.265a5.248 5.248 0 0 0 7.179 0l1.422.265a2.205 2.205 0 0 1 1.8 2.165v.2zm-9.339-6.477v-1.218a2.527 2.527 0 1 1 5.055 0v1.218a2.527 2.527 0 0 1-5.055 0zm11.421 3.823A4.937 4.937 0 0 0 51.7 59.5l-.425-.079a5.249 5.249 0 0 0 .174-1.34v-1.216a5.262 5.262 0 1 0-10.524 0v1.218a5.249 5.249 0 0 0 .174 1.34l-.425.079a4.937 4.937 0 0 0-3.381 2.4 10.117 10.117 0 1 1 17.787 0z"/>
                </g>
            </g>
            <g id="Group_353" data-name="Group 353">
                <g id="Group_352" data-name="Group 352">
                    <path id="Path_650" data-name="Path 650" class="cls-3" d="M41.751 15.5a1.367 1.367 0 0 0-1.683-.952L24.8 18.779a12.841 12.841 0 1 0 .73 2.635l15.27-4.231a1.367 1.367 0 0 0 .951-1.683zM19.663 30.983a10.1 10.1 0 0 1-13.623 0v-.2a2.2 2.2 0 0 1 1.8-2.167l1.422-.265a5.248 5.248 0 0 0 7.179 0l1.422.265a2.2 2.2 0 0 1 1.8 2.167zm-9.339-6.477v-1.218a2.527 2.527 0 0 1 5.055 0v1.218a2.527 2.527 0 0 1-5.055 0zm11.421 3.823a4.936 4.936 0 0 0-3.381-2.4l-.425-.079a5.249 5.249 0 0 0 .174-1.34v-1.222a5.262 5.262 0 0 0-10.524 0v1.218a5.249 5.249 0 0 0 .174 1.34l-.425.079a4.937 4.937 0 0 0-3.381 2.4 10.117 10.117 0 1 1 17.787 0z"/>
                </g>
            </g>
        </g>
    </g>
</svg>
